<svg xmlns="http://www.w3.org/2000/svg" viewBox="0 0 121 170.54"><defs><style>.\39 7b95905-089f-4ac4-8ba6-168249e21de9{isolation:isolate;}.\31 1bed727-124f-4a25-8562-2bf9fd5f9d12,.c3698fa2-929a-401d-9055-8092edf5d44b{fill:#2f69bb;}.\38 e7eee16-f1ae-4e9c-baeb-4f904d40d692{fill:#06004c;}.\31 a7b00c4-a899-4368-afb2-bce627a760a7,.\32 fd1bf26-e5d8-4b25-83c4-01bb4d7b4e96,.\34 50cb381-4615-442c-862d-93dd8f4bc9f8,.\34 766bda9-dc41-4886-a78c-5d713ff6fe92,.\35 44ee4e0-772c-4885-a7cc-66a6aed9c0f0,.\35 efb0312-9034-4f96-bfb5-c5a3f9113405,.\37 b554b6e-d35f-48f9-8c32-15c330f5eddb,.\39 4536072-878b-415d-8dfc-601f17f2c0be,.c3698fa2-929a-401d-9055-8092edf5d44b{opacity:0.5;}.\31 358a15a-ba6e-447a-ac44-5778e24c8090,.\33 bff8028-b7dc-4d18-aaa9-b192a5894b4e,.\34 50cb381-4615-442c-862d-93dd8f4bc9f8,.\34 766bda9-dc41-4886-a78c-5d713ff6fe92,.\35 efb0312-9034-4f96-bfb5-c5a3f9113405,.\37 b554b6e-d35f-48f9-8c32-15c330f5eddb,.\38 2dcd058-0990-432d-b3d1-32e62712ed3e,.\39 4304515-a879-4867-a7b8-3b2819e2de32,.\39 60bf324-4108-46fc-aa66-307b57918ded,.\39 d7f7ba8-b3ea-4cee-acb7-c4bcf917216a{mix-blend-mode:multiply;}.f6686f99-ad7f-4df4-8f01-4e6248b7ad60{fill:#27348b;}.\30 8a0c567-7669-4e71-ae41-2a85290ee94a,.\31 a7b00c4-a899-4368-afb2-bce627a760a7,.\32 fd1bf26-e5d8-4b25-83c4-01bb4d7b4e96,.\35 44ee4e0-772c-4885-a7cc-66a6aed9c0f0,.\38 b5f5444-854a-4685-8c06-68b2eab8afc6,.\39 4536072-878b-415d-8dfc-601f17f2c0be,.b7451dd1-745e-4c7d-bcd1-f730654de83b,.bd25141f-ae0a-4381-9991-ba894bb66402,.c3698fa2-929a-401d-9055-8092edf5d44b{mix-blend-mode:screen;}.\33 dc87cb0-4f09-4572-831a-c536830b6c0a,.\35 44ee4e0-772c-4885-a7cc-66a6aed9c0f0,.\39 4304515-a879-4867-a7b8-3b2819e2de32{fill:#e6b376;}.\31 7b38599-9589-4a19-8065-c4fc5a3ee18a{fill:#aa6521;}.\33 bff8028-b7dc-4d18-aaa9-b192a5894b4e,.\39 4304515-a879-4867-a7b8-3b2819e2de32{opacity:0.7;}.\34 bcd4a1d-700f-43b2-8158-8ded3d769f43,.bd25141f-ae0a-4381-9991-ba894bb66402{fill:#ff3028;}.\32 47f6145-3b09-4bce-978d-657661ee5100,.\34 50cb381-4615-442c-862d-93dd8f4bc9f8{fill:#a91917;}.\38 894dbfc-455c-4d82-a050-c9f521700330{fill:#fee134;}.\34 f3a4e36-e729-42bc-a598-6f30c030d40a{fill:#4d524c;}.a99ce955-a0b3-48c1-adbc-6a2540143039{fill:#2d312c;}.\32 4e41a09-93f8-4780-96c0-2be733de5387{fill:#feac34;}.\31 358a15a-ba6e-447a-ac44-5778e24c8090,.\34 56eb450-c827-4ca1-86a1-c779583cb6bf,.b7451dd1-745e-4c7d-bcd1-f730654de83b{fill:#ffa300;}.\31 198f84b-d8c7-4286-b36e-30a3d5682521{fill:#ffda00;}.\38 2dcd058-0990-432d-b3d1-32e62712ed3e{opacity:0.8;}.\32 a29ce53-7983-4cb0-b0bb-4830a998dbbb,.\37 b554b6e-d35f-48f9-8c32-15c330f5eddb{fill:#64b33c;}.\34 0177e18-b2db-4b85-b16c-b4dd01f86f8a{fill:#b90003;}.c64e8821-7cba-46b1-8144-cf6fd06d7838{fill:#fff;}.db725c96-fab4-476c-a8ff-cd25328f9750{fill:#f59478;}.\34 d2d3df0-7473-44d6-99ab-e2f1884694c7{fill:#0745aa;}.\32 fd1bf26-e5d8-4b25-83c4-01bb4d7b4e96,.e4b80c7d-8ca5-453a-b0fc-526039e245e4{fill:#ffbe28;}.\36 4b1aea9-ecbf-457e-836f-c7a1f973fd68{fill:#8a5117;}.\37 414b91b-9d40-414c-af09-5dbc1b14346b{fill:#f7f2f0;}.\34 3e71ece-e798-42f9-8516-ed0c74b7b517,.\38 b5f5444-854a-4685-8c06-68b2eab8afc6{fill:#61c9e8;}.b5e245af-efa4-4937-8589-d55b1869a3d0{fill:#366d7d;}.\39 60bf324-4108-46fc-aa66-307b57918ded{fill:#4d96ac;}.f38da229-b178-4305-a198-71e1eb4a4186{fill:#781917;}.f41af3a3-4a39-4ffc-9f7c-a83756099e80{fill:#dbccc8;}.\32 01a1019-f31a-4bb4-84f8-acf0f0c8e3fb{fill:#cc9c25;}.\38 b5f3c09-e30e-4193-881d-7aa1c979128e{fill:none;}.\34 766bda9-dc41-4886-a78c-5d713ff6fe92{fill:#e00e19;}.\32 1d0e90a-1340-45c7-a451-0a1162a6656e{fill:#3c3c3b;}.\31 d76baef-58f9-4428-bf8d-73ebc1f491a0{fill:#4b4b4b;}.\30 7b09052-cba1-4e25-8d2a-60988e3cddd0{fill:#1d1d1b;}.\38 a6319c6-6336-4651-a83f-39bf8b6ca11e{fill:#b2b2b2;}.a21b30d5-cb24-49bd-a7fe-26fd786a162b{fill:#1bad40;}.f877aa1c-a9a8-49db-98fe-38a545951602{fill:#a78526;}.de28bd6d-9d92-4163-b5ae-12097baf7207{fill:#d6b61a;}.\31 a7b00c4-a899-4368-afb2-bce627a760a7,.\36 6413e8b-1de6-4ba5-bc96-5b93367330ee{fill:#5c5857;}.b5f319f1-7be0-4538-940c-9ebf8e4c4678{fill:#353331;}.\33 76cad12-cd8b-4234-a9c6-97796c252caa{fill:#181818;}</style></defs><title>Hero6</title><g class="97b95905-089f-4ac4-8ba6-168249e21de9"><g id="97e1d90f-d4e1-4382-abba-a343f728f794" data-name="Layer 1"><path class="11bed727-124f-4a25-8562-2bf9fd5f9d12" d="M88.5,75.33A60.7,60.7,0,0,1,74.15,56.38c-11.44,0-13.63,5.74-13.63,5.74S43.39,91.52,43.85,99s-.65,16.18-2.24,20.82c5.39,8.35,15.11,9.42,18.3,8.51,1.77-.51,2.06-2.44,3.35-.31,1.59,2.81,9.82,3.56,14.78-.31,5.16-4,8-7.72,10.55-9.37,1.1-.76,2.7-1.27,2.77.27a6.94,6.94,0,0,1-1.48,3.93c.72,1.14,1.94,1.73,4.47,1.43,4.78-.55,6.93-3.24,9.75-6.92,0,0,1.27-1.27,2.22-1,.44.11.44.79.31,1.49a5.32,5.32,0,0,0,1.74-2.72c1-3,2.23-8.69,3.95-10.14C109,91.39,98.1,83.63,88.5,75.33Z"/><path class="8e7eee16-f1ae-4e9c-baeb-4f904d40d692" d="M88.65,75.27A59.25,59.25,0,0,1,77.93,62.78a48.47,48.47,0,0,1-3.62-6.44s-.06-.05-.1-.05A20.85,20.85,0,0,0,63.8,58.65a8.72,8.72,0,0,0-3.34,3.26c-1.22,2.36-2.75,4.88-4.06,7.28-3,5.54-6,11.14-8.57,16.9a74.83,74.83,0,0,0-3.2,8,24.53,24.53,0,0,0-.81,3.14,16.08,16.08,0,0,0-.07,3.4,65.26,65.26,0,0,1-1.29,15.4c-.2,1-.43,1.89-.7,2.82-.06.22-.38.82-.32,1a5.11,5.11,0,0,0,1,1.37,18.75,18.75,0,0,0,4.44,4.13,19.89,19.89,0,0,0,9.3,3.27,11.33,11.33,0,0,0,3.29-.11,4.13,4.13,0,0,0,1.54-.62c.29-.19.55-.43.83-.62.66-.48,1.19.66,1.44,1,1.23,1.81,4.21,2.12,6.19,2.16A14.33,14.33,0,0,0,78,128a82.42,82.42,0,0,0,8.2-7.43,12.79,12.79,0,0,1,3.44-2.6c1.49-.65,1.72.61,1.5,1.75a7.48,7.48,0,0,1-1.37,2.89.08.08,0,0,0,0,.07c1.76,2.66,6.32,1.52,8.62.28a14,14,0,0,0,3.79-3.18c.69-.78,1.32-1.61,2-2.43a3.87,3.87,0,0,1,.79-.72c.34-.25,1.35-.85,1.63-.08a2.2,2.2,0,0,1,0,1c0,.12.22.07.27,0,1.8-1.32,2.22-4.11,2.81-6.12.38-1.29.76-2.58,1.24-3.85a7.3,7.3,0,0,1,1.66-2.91s0,0,0-.07c-3.28-13-14.19-21.06-23.83-29.37-.09-.08-.4,0-.31.13,6.78,5.84,14.09,11.33,19.13,18.85a34.3,34.3,0,0,1,3.29,6.19,31.34,31.34,0,0,1,1.09,3.18c.15.48.39.94,0,1.35a4.53,4.53,0,0,0-.61.89,25.77,25.77,0,0,0-2,5.41c-.58,2-1,4.52-2.49,6l-.27.21.27,0c.09-.62.23-1.47-.57-1.59a2.73,2.73,0,0,0-1.73.67,6.54,6.54,0,0,0-1.22,1.35c-.71.91-1.45,1.81-2.25,2.65a10.8,10.8,0,0,1-5.82,3.2,7.25,7.25,0,0,1-3.73-.08,2.89,2.89,0,0,1-1-.66c-.56-.54-.11-.92.21-1.49.42-.74,1.76-3.89,0-4-1.34-.09-2.57,1-3.53,1.77-3.54,3-6.43,6.82-10.45,9.2-3.32,2-8.42,2.6-11.93.7A3.5,3.5,0,0,1,63.41,128c-.3-.5-.68-1.08-1.33-1-.49.06-.93.56-1.3.83a4.1,4.1,0,0,1-2,.65,17.91,17.91,0,0,1-9.23-1.88,18.72,18.72,0,0,1-7.12-5.9c-.38-.51-.63-.83-.42-1.46s.29-1,.43-1.53a61.35,61.35,0,0,0,1.71-14.6c0-1.72-.23-3.47-.06-5.18A16.93,16.93,0,0,1,44.67,95c1.67-5.85,4.53-11.42,7.27-16.82,2.43-4.8,5-9.53,7.66-14.2.36-.65.81-1.29,1.11-2a7.86,7.86,0,0,1,3.17-3.22,18.88,18.88,0,0,1,9.26-2.34c.29,0,.78-.21.91.08s.17.36.26.54c.38.78.79,1.54,1.21,2.29a59.63,59.63,0,0,0,12.82,16C88.43,75.48,88.74,75.35,88.65,75.27Z"/><path class="8e7eee16-f1ae-4e9c-baeb-4f904d40d692" d="M88.59,118.38a14.71,14.71,0,0,0,1.29,4.2,6.94,6.94,0,0,0,1.48-3.93C91.29,117.11,89.69,117.62,88.59,118.38Z"/><path class="8e7eee16-f1ae-4e9c-baeb-4f904d40d692" d="M106.32,116.05c-.95-.23-2.22,1-2.22,1a1.9,1.9,0,0,0,2.53.45C106.76,116.84,106.76,116.16,106.32,116.05Z"/><path class="8e7eee16-f1ae-4e9c-baeb-4f904d40d692" d="M49.43,98.28s.11.46.31,1.26l.39,1.44c.15.56.33,1.18.53,1.86s.42,1.42.67,2.19c.13.38.26.78.41,1.18l.21.6.23.62a24.45,24.45,0,0,0,1.09,2.49l.33.61c.11.2.25.39.37.59.26.39.55.76.8,1.17.52.79,1,1.61,1.46,2.42l.66,1.22c.21.4.41.8.61,1.2s.39.79.58,1.18.35.76.51,1.13.32.74.47,1.09.28.7.42,1l.35,1,.3.87c.17.55.32,1,.41,1.44.05.2.11.38.14.53s.06.29.08.4.07.34.07.34l-.08-.34c0-.1-.06-.24-.09-.39s-.1-.33-.15-.53c-.11-.4-.27-.88-.46-1.42l-.32-.86-.37-.94-.43-1-.48-1.08c-.18-.36-.36-.74-.54-1.12s-.38-.78-.58-1.17-.41-.8-.62-1.19-.44-.81-.67-1.21c-.46-.81-.94-1.62-1.46-2.4-.25-.4-.54-.78-.79-1.18-.13-.2-.26-.39-.38-.6l-.33-.62A23.57,23.57,0,0,1,52,107.5c-.08-.21-.16-.42-.23-.62l-.21-.61c-.14-.41-.26-.81-.38-1.2-.25-.77-.46-1.51-.64-2.19s-.35-1.32-.49-1.88-.25-1-.34-1.45Z"/><path class="8e7eee16-f1ae-4e9c-baeb-4f904d40d692" d="M50.5,99.8s.07.23.23.63.38,1,.67,1.64c.14.34.31.7.48,1.08s.38.78.58,1.19.41.83.65,1.25.46.85.71,1.27l.37.63c.13.21.26.41.38.62.25.41.52.8.78,1.17s.51.74.76,1.08l.36.49q.18.24.36.45l.62.78c.19.23.36.42.51.58l.44.51s-.18-.17-.48-.48l-.54-.55c-.2-.23-.42-.48-.65-.76l-.38-.44-.37-.48-.4-.51c-.14-.18-.26-.37-.4-.56-.26-.37-.53-.76-.79-1.17L54,107.6l-.37-.63c-.25-.42-.49-.85-.71-1.28s-.43-.86-.64-1.27-.38-.82-.55-1.2-.32-.76-.45-1.1-.25-.66-.35-.94-.18-.53-.24-.73A6.09,6.09,0,0,1,50.5,99.8Z"/><path class="8e7eee16-f1ae-4e9c-baeb-4f904d40d692" d="M61,69.56s.09.49.28,1.33c.09.42.21.92.35,1.51s.29,1.24.46,2,.37,1.49.59,2.3.44,1.68.69,2.57c.12.44.24.9.37,1.35s.27.92.41,1.38c.07.23.14.47.2.7s.15.47.23.7c.14.47.29.93.44,1.4.3.94.62,1.87.93,2.78s.65,1.81,1,2.67.66,1.68,1,2.46l1,2.18c.32.66.62,1.26.89,1.8L70,97c.06.13.13.24.19.35l.35.62.67,1.18L70.46,98l-.37-.61c-.06-.11-.14-.22-.2-.35l-.21-.38c-.27-.53-.59-1.13-.93-1.79s-.65-1.39-1-2.16-.67-1.61-1-2.46-.65-1.76-1-2.66-.65-1.85-1-2.79c-.14-.47-.29-.94-.44-1.41l-.21-.7c-.07-.23-.14-.47-.2-.7-.14-.46-.27-.93-.4-1.38s-.25-.91-.37-1.36c-.25-.89-.46-1.75-.66-2.57s-.38-1.61-.55-2.32c-.32-1.44-.56-2.65-.73-3.5S61,69.56,61,69.56Z"/><path class="8e7eee16-f1ae-4e9c-baeb-4f904d40d692" d="M70.1,106.49l.23.7c.08.22.17.5.28.81s.24.66.38,1,.3.79.47,1.22.35.89.55,1.36.4.95.61,1.43.45,1,.67,1.47.48,1,.71,1.44.5.93.75,1.37.49.87.74,1.26.48.76.71,1.1l.64.9.14.19.14.17.25.3.47.58-.5-.55-.27-.29a1.1,1.1,0,0,0-.15-.16l-.14-.19-.69-.88c-.23-.33-.48-.69-.74-1.08s-.51-.81-.77-1.25-.51-.9-.77-1.37-.49-1-.72-1.44-.46-1-.66-1.48-.42-1-.61-1.45-.36-.93-.51-1.37-.3-.86-.44-1.24c-.26-.77-.45-1.42-.58-1.87S70.1,106.49,70.1,106.49Z"/><path class="8e7eee16-f1ae-4e9c-baeb-4f904d40d692" d="M64.17,64.25s.2.87.61,2.39c.2.76.46,1.68.77,2.73s.67,2.23,1.09,3.51S67.51,75.55,68,77c.26.73.52,1.48.81,2.24.14.38.28.76.43,1.15l.44,1.17c.3.78.63,1.58,1,2.38s.66,1.61,1,2.43c.7,1.62,1.42,3.26,2.2,4.88l.58,1.21.6,1.21c.39.8.8,1.59,1.21,2.37.82,1.57,1.67,3.09,2.52,4.54s1.7,2.84,2.55,4.13c.4.66.84,1.27,1.24,1.87.21.3.4.6.61.88s.4.57.6.84c.78,1.1,1.54,2.07,2.2,2.94s1.29,1.59,1.79,2.2l1.63,1.86-1.66-1.83c-.5-.6-1.13-1.33-1.82-2.18s-1.46-1.82-2.24-2.91c-.2-.28-.41-.55-.61-.84s-.41-.58-.62-.87c-.41-.61-.85-1.21-1.26-1.87l-.64-1c-.22-.33-.44-.67-.65-1l-.65-1c-.21-.36-.43-.71-.64-1.08-.86-1.45-1.71-3-2.54-4.54-.41-.78-.83-1.57-1.22-2.37l-.6-1.21-.58-1.21c-.78-1.63-1.5-3.27-2.2-4.9-.34-.82-.68-1.63-1-2.43s-.64-1.6-.94-2.39q-.22-.6-.45-1.17l-.42-1.16c-.28-.76-.53-1.51-.79-2.24-.49-1.46-1-2.85-1.35-4.14s-.74-2.48-1-3.53-.54-2-.73-2.74C64.35,65.13,64.17,64.25,64.17,64.25Z"/><path class="8e7eee16-f1ae-4e9c-baeb-4f904d40d692" d="M79.82,101.62l.71.71.82.8,1.08,1,1.29,1.2c.45.42,1,.85,1.45,1.32l1.57,1.39c.55.46,1.09.94,1.66,1.39s1.11.94,1.68,1.38c.27.22.55.45.83.66s.55.43.82.63l.8.62c.26.2.52.38.77.56.5.37,1,.73,1.43,1l1.22.85,1,.62.84.55-.86-.51-1-.59-1.24-.81c-.47-.29-1-.64-1.46-1l-.79-.55-.8-.61-.83-.62-.84-.67c-.56-.43-1.12-.9-1.69-1.36s-1.1-1-1.65-1.42-1.06-.94-1.56-1.4-1-.91-1.44-1.34l-1.26-1.23c-.39-.38-.74-.74-1-1.06l-.79-.83C80.06,101.9,79.82,101.62,79.82,101.62Z"/><path class="8e7eee16-f1ae-4e9c-baeb-4f904d40d692" d="M74.2,59.23l.8,2,.94,2.28c.19.44.38.91.59,1.4s.41,1,.64,1.55l1.51,3.48c.54,1.23,1.08,2.54,1.71,3.87l1.9,4.1c.33.7.65,1.4,1,2.11l1,2.1c1.4,2.8,2.79,5.61,4.09,8.23s2.46,5.12,3.37,7.28A37.19,37.19,0,0,1,93.61,103a13.09,13.09,0,0,1,.29,1.57c0,.18,0,.32,0,.42s0,.14,0,.14,0-.05,0-.14,0-.24,0-.42a14.38,14.38,0,0,0-.31-1.56c-.18-.66-.42-1.45-.75-2.35s-.73-1.89-1.19-3c-.93-2.16-2.12-4.62-3.43-7.25L84.1,82.22l-1-2.11L82.1,78l-1.89-4.11c-.63-1.33-1.15-2.65-1.68-3.88l-1.47-3.5c-.46-1.08-.84-2.08-1.19-3L75,61.24C74.48,60,74.2,59.23,74.2,59.23Z"/><path class="8e7eee16-f1ae-4e9c-baeb-4f904d40d692" d="M86.35,84.91l.19.24.55.68.86,1,1.15,1.32c.43.48.88,1,1.38,1.54l.78.82c.26.28.52.57.81.85l.87.86.44.44.46.42,1.88,1.71.46.45.46.46.85,1c.54.65,1.05,1.31,1.5,2l.34.5c.11.16.21.33.31.49.21.33.4.66.58,1s.35.64.51.94l.44.9c.27.59.49,1.13.68,1.62s.33.92.44,1.27.19.64.24.84l.08.3s0-.11-.09-.3-.15-.47-.27-.82-.28-.78-.48-1.26-.44-1-.72-1.59c-.14-.29-.29-.58-.45-.89s-.33-.62-.52-.93-.38-.64-.59-1l-.32-.49-.34-.49c-.45-.65-1-1.3-1.5-1.94-.28-.31-.56-.63-.85-.94L96,95.44c-.15-.16-.3-.31-.46-.45l-1.88-1.73-.46-.42-.44-.45-.86-.86c-.29-.28-.55-.58-.81-.86l-.76-.84c-.49-.55-.94-1.08-1.36-1.56s-.78-1-1.11-1.36l-.83-1.06-.53-.69Z"/><path class="8e7eee16-f1ae-4e9c-baeb-4f904d40d692" d="M99.88,86.13l.13.13.39.37.58.6c.22.23.48.49.74.79s.55.61.84,1,.61.71.91,1.1.62.8.94,1.21.62.85.92,1.29.59.87.86,1.32.54.88.78,1.32.48.85.67,1.26c.1.21.2.4.3.59a2.59,2.59,0,0,0,.14.29l.12.28.42,1c.12.3.21.57.29.79.15.43.23.68.23.68l-.28-.67c-.09-.21-.19-.47-.32-.76s-.29-.62-.46-1c0-.09-.08-.18-.13-.27l-.14-.28c-.1-.19-.21-.38-.31-.58-.21-.41-.46-.81-.7-1.24s-.52-.86-.79-1.3-.58-.87-.87-1.31-.6-.87-.9-1.29l-.92-1.22c-.31-.38-.59-.76-.88-1.11s-.56-.69-.82-1l-.7-.82-.55-.62Z"/><path class="8e7eee16-f1ae-4e9c-baeb-4f904d40d692" d="M97.14,105.12a1.42,1.42,0,0,1,.07.14c.05.09.13.21.22.38.18.33.47.79.82,1.33.18.28.38.56.59.86l.7.94c.26.31.51.65.79,1l.42.49.45.47.44.47.46.44c.29.31.62.57.92.84s.61.51.9.74l.42.34.41.29.73.51.58.36.5.31-.53-.28-.6-.32c-.23-.13-.47-.3-.75-.48l-.43-.27-.43-.33a9.72,9.72,0,0,1-.93-.72c-.31-.27-.64-.53-.94-.83l-.47-.45-.45-.47-.44-.48-.42-.49c-.28-.32-.53-.66-.78-1s-.47-.65-.68-1-.4-.61-.56-.89-.32-.54-.45-.77-.23-.44-.31-.61C97.22,105.32,97.14,105.12,97.14,105.12Z"/><g class="5efb0312-9034-4f96-bfb5-c5a3f9113405"><path class="f6686f99-ad7f-4df4-8f01-4e6248b7ad60" d="M112.32,104.68C109,91.39,98.1,83.63,88.5,75.33A60.7,60.7,0,0,1,74.15,56.38c-11.44,0-13.63,5.74-13.63,5.74S43.39,91.52,43.85,99s-.65,16.18-2.24,20.82a18.66,18.66,0,0,0,3.77,4.26,89.31,89.31,0,0,0,.81-13c-.15-8.71.15-18,1.22-14.67s4.44,14.67,7.19,19a27,27,0,0,1,4.6,13.15,5.86,5.86,0,0,0,.71-.15c1.77-.51,2.06-2.44,3.35-.31,1.38,2.44,7.76,3.32,12.66,1-2.47-5.74-5.63-18.88-2.82-12.45a34,34,0,0,0,6.49,9.91c.86-.72,1.65-1.42,2.38-2.1-12-15-15.2-30.76-12.69-27.08,2.59,3.83,10.09,14.22,5.35,6S65.76,88,64.08,76.54s1.53-2.75,10.7,17.12,15.9,22.48,15.6,23.85a.74.74,0,0,0,0,.14c.55,0,1,.22,1,1a6.94,6.94,0,0,1-1.48,3.93,3,3,0,0,0,1.86,1.35c.47-1.69,1.06-3.81,1.39-5.19.61-2.6-3.67-4.89-6.88-8.87s1.22-.15,8.71,5.66c3.38,2.62,5.23,4.15,6.25,5,.52-.54,1-1.13,1.54-1.75-1.81-3.28-7.42-4.91-14.67-12.16-14-14-21.71-44.34-17.58-44.49s17.89,29.66,21.55,40.36,8.11,9.33,12.39,11.93a7.57,7.57,0,0,1,2.77,2.55,6.92,6.92,0,0,0,1.16-2.19c.07-.2.13-.41.2-.62a19.23,19.23,0,0,1-9-7.39c-4.74-7.34-3.67-11.92.46-5.35s7.33,14.53,4.43,5.2S93.74,90.3,87.93,82.35s-4.74-10.86,7.34.31a68,68,0,0,1,16,23.51A4.8,4.8,0,0,1,112.32,104.68Z"/></g><g class="94536072-878b-415d-8dfc-601f17f2c0be"><path class="11bed727-124f-4a25-8562-2bf9fd5f9d12" d="M47.34,109a79.3,79.3,0,0,1-.79,16,20.15,20.15,0,0,0,5.77,2.8c-.25-4.94-.81-15.44-2.41-19.3C47.86,103.56,46.66,98.43,47.34,109Z"/><path class="11bed727-124f-4a25-8562-2bf9fd5f9d12" d="M70.76,85.79c-5-11.63-2.05,7,8.55,22.73,4.61,6.66-1.54,1.54-5.64-3.93s-3.42-.69,2.39,7.69c3.25,4.69,5.76,8.41,7.33,10.78a40.17,40.17,0,0,1,5.2-4.68,3.4,3.4,0,0,1,.45-.28,6.2,6.2,0,0,0-1.36-2.57C83.92,111.08,75.72,97.41,70.76,85.79Z"/><path class="11bed727-124f-4a25-8562-2bf9fd5f9d12" d="M90.42,82.37a104.69,104.69,0,0,1,19.17,28.43,33.18,33.18,0,0,1,1.49-4.25C102.09,85.59,78.52,68.46,90.42,82.37Z"/></g><path class="c3698fa2-929a-401d-9055-8092edf5d44b" d="M91.44,103.39s-8.89-21-14.87-32.13-4.61.68,2.91,16.58S95.54,112.62,91.44,103.39Z"/><path class="3dc87cb0-4f09-4572-831a-c536830b6c0a" d="M45.16,31.46s.34,1.49.45,2.4-4.21,1.48-4.21,1.48L50,42.63l13-6.27s-3.19-.62-4.84-2.39c-1.26-1.31-1.49-1.42-1.43-2.16s0-2,0-2Z"/><path class="17b38599-9589-4a19-8065-c4fc5a3ee18a" d="M50,42.77l-8.85-7.51.25,0c1.75-.24,4.19-.81,4.12-1.36-.11-.89-.45-2.36-.45-2.38l0-.12,11.87-1.69v.13a18,18,0,0,1,0,2c0,.59.09.72,1,1.61l.45.46a10.37,10.37,0,0,0,4.78,2.36l.34.07Zm-8.31-7.35L50,42.5,62.7,36.4a10,10,0,0,1-4.58-2.35l-.44-.46c-.86-.89-1.07-1.1-1-1.79s0-1.52,0-1.86L45.3,31.56c.08.37.33,1.53.43,2.28S42.76,35.26,41.67,35.42Z"/><g class="3bff8028-b7dc-4d18-aaa9-b192a5894b4e"><path class="3dc87cb0-4f09-4572-831a-c536830b6c0a" d="M58.21,34c-1.26-1.31-1.49-1.42-1.43-2.16s0-2,0-2L45.16,31.46s.34,1.49.45,2.4-4.21,1.48-4.21,1.48l.39.33c1.28,0,2.8-.06,3.5-.06s1.8,1.43,3.63,2.82,1.64,1,3.55-.4,3.22-3.15,5.42-2.67a34.53,34.53,0,0,0,4.66.88A9.6,9.6,0,0,1,58.21,34Z"/></g><g class="3bff8028-b7dc-4d18-aaa9-b192a5894b4e"><path class="3dc87cb0-4f09-4572-831a-c536830b6c0a" d="M53.61,39.52c-4.24,2.83-4.39,1.27-6.92-.52a23.2,23.2,0,0,0-3.17-1.86L50,42.63l13-6.27a11,11,0,0,1-1.6-.46A39.7,39.7,0,0,0,53.61,39.52Z"/></g><path class="17b38599-9589-4a19-8065-c4fc5a3ee18a" d="M46.87,34.09s.07.15.16.39a9.31,9.31,0,0,1,.43,1.8,4,4,0,0,1,0,.43s-.07-.16-.16-.4-.18-.56-.26-.89a8.25,8.25,0,0,1-.17-.91A3.9,3.9,0,0,1,46.87,34.09Z"/><path class="17b38599-9589-4a19-8065-c4fc5a3ee18a" d="M55.13,32.89s-.06.24-.17.59-.28.8-.47,1.25-.39.89-.55,1.21-.29.54-.29.54a5.44,5.44,0,0,1,.17-.59c.11-.35.28-.8.46-1.25s.39-.89.56-1.21S55.13,32.89,55.13,32.89Z"/><path class="17b38599-9589-4a19-8065-c4fc5a3ee18a" d="M46.41,36.14l1,.82.47.39.53.44.58.46c.19.15.4.29.6.44l.32.2L50,39l.08,0,.07,0a1.24,1.24,0,0,0,.64-.14,6.17,6.17,0,0,0,1.09-.67c.31-.23.56-.42.73-.57l.27-.22-.24.25c-.16.16-.38.39-.68.64a5,5,0,0,1-.48.38,4.36,4.36,0,0,1-.6.37,1.92,1.92,0,0,1-.36.14.93.93,0,0,1-.41,0,1,1,0,0,1-.38-.18l-.33-.2-.61-.46L48.25,38c-.36-.32-.68-.63-1-.9s-.26-.26-.37-.37l-.28-.28Z"/><path class="17b38599-9589-4a19-8065-c4fc5a3ee18a" d="M44.93,37.9h.47a8.66,8.66,0,0,1,1,.1l.54.09a3.54,3.54,0,0,1,.47.12,4.68,4.68,0,0,1,.45.15l-.47,0-.48-.05a5.33,5.33,0,0,1-.54-.07c-.19,0-.37,0-.54-.09l-.48-.1A3.41,3.41,0,0,1,44.93,37.9Z"/><path class="17b38599-9589-4a19-8065-c4fc5a3ee18a" d="M53,38.36s.22-.09.55-.19l.58-.15.32-.08.34-.07.68-.1.31,0,.28,0h.59l-.16,0-.41.08-.58.12-.67.13-.66.11-.59.09Z"/><path class="17b38599-9589-4a19-8065-c4fc5a3ee18a" d="M56.78,31.86a.66.66,0,0,1,0,.09c0,.06,0,.13,0,.23s0,.2,0,.32,0,.11,0,.17V33c0,.06,0,.12,0,.18s0,.23,0,.32a2,2,0,0,1,0,.32,1.91,1.91,0,0,1-.09-.31,2.21,2.21,0,0,1-.07-.32c0-.11,0-.24,0-.37s0-.25,0-.36a3,3,0,0,1,0-.33A2.65,2.65,0,0,1,56.78,31.86Z"/><path class="17b38599-9589-4a19-8065-c4fc5a3ee18a" d="M45.61,33.63a1.16,1.16,0,0,1,.12.22,2.45,2.45,0,0,1,.16.5,2.66,2.66,0,0,1,.08.51c0,.15,0,.25,0,.25a1.27,1.27,0,0,1-.12-.21,4.15,4.15,0,0,1-.17-.5,4,4,0,0,1-.07-.52C45.6,33.73,45.61,33.63,45.61,33.63Z"/><g class="3bff8028-b7dc-4d18-aaa9-b192a5894b4e"><path class="3dc87cb0-4f09-4572-831a-c536830b6c0a" d="M58.21,34c-1.26-1.31-1.49-1.42-1.43-2.16s0-2,0-2L45.16,31.46s.34,1.49.45,2.4-4.21,1.48-4.21,1.48l.39.33c1.28,0,2.8-.06,3.5-.06s1.44,1,2.69,2.06l-.46-2.05c-.32-1.45.76.43,5-1,1.54-.65.59,2,0,3.27,1.83-1.4,3.14-3,5.28-2.56a34.53,34.53,0,0,0,4.66.88A9.6,9.6,0,0,1,58.21,34Z"/></g><path class="4bcd4a1d-700f-43b2-8158-8ded3d769f43" d="M41.28,72.63c1.68.65,7,3.18,18.37.1.1-2.76.05-3.31.7-5S63.9,61,64.7,58.19s.3-19.77.3-19.77L49.13,43.28l-14.92-6s-4.59,2.12-2.81,10.2a39.44,39.44,0,0,0-.93,12.08,27.57,27.57,0,0,0-3.15,7.49l6.3,2.8s3.23-5.1,4.25-9.27c.25,6.47,1,8.93,1,8.93l-.26,1.79C39.08,71.23,39.59,72,41.28,72.63Z"/><path class="247f6145-3b09-4bce-978d-657661ee5100" d="M41.18,72.74c6,2.36,12.36,1.75,18.5.11,0,0,.13-.07.13-.13a14.62,14.62,0,0,1,.79-5.22c.68-1.65,1.58-3.21,2.37-4.81a22.5,22.5,0,0,0,2-4.71,17.59,17.59,0,0,0,.29-2.9c.27-5.41.12-10.86,0-16.27,0-.13,0-.27,0-.41s-.11-.13-.2-.1L52,42.26,49.49,43l-.39.12c.2-.06-.1-.09-.28-.16l-6.47-2.6-7.13-2.86c-.23-.09-.82-.48-1.09-.35a4,4,0,0,0-1.06.78c-2.09,2-2.44,5-2.14,7.78a6.4,6.4,0,0,1,.23,2.07c-.17.62-.29,1.25-.41,1.88a34.89,34.89,0,0,0-.47,3.95,41.38,41.38,0,0,0,0,5.34c0,.18,0,.59,0,.59-.27.44-.52.9-.76,1.35a25.21,25.21,0,0,0-2.38,6.14c0,.05,0,.08.08.1L33.52,70a.23.23,0,0,0,.26-.1A33.36,33.36,0,0,0,38,60.58l-.34,0a56,56,0,0,0,.75,7.76c.07.39.15.78.26,1.17a5.74,5.74,0,0,1-.24,1.79c0,.08.09.12.15.11.35,0,.79.39,1.07.57a10.33,10.33,0,0,0,1.49.74c.15.06.39-.15.19-.23a15.79,15.79,0,0,1-2.14-1.16,1,1,0,0,0-.37-.16c-.17,0-.06.14,0-.21A4.58,4.58,0,0,0,39,69.22,43.29,43.29,0,0,1,38,60.58c0-.19-.3-.12-.34,0a33,33,0,0,1-4.24,9.24l.25-.09-4.25-1.9-1.72-.76c-.51-.23.22-1.76.35-2.14a28,28,0,0,1,1.45-3.38c.33-.67,1.13-1.53,1.07-2.3a42.7,42.7,0,0,1,0-4.8c.05-1.18.16-2.37.32-3.54.08-.63.19-1.26.32-1.88a4.91,4.91,0,0,0,.29-1.91c-.65-3.08-.56-6.91,2-9.17a4.6,4.6,0,0,1,.67-.49c.25-.15,0-.07.06,0l1.87.75,7.76,3.12L49,43.38c.25.1.74-.17,1-.24l3-.91L65,38.53l-.2-.1c.14,4.83.22,9.67.11,14.5,0,1.27-.08,2.55-.19,3.82a11.27,11.27,0,0,1-1,3.4c-.8,1.89-1.76,3.7-2.68,5.53a13.58,13.58,0,0,0-1.49,4c-.07.5.08,2.92-.37,3a43.78,43.78,0,0,1-4.41,1,31.15,31.15,0,0,1-6.82.4,21.25,21.25,0,0,1-6.67-1.54C41.23,72.45,41,72.66,41.18,72.74Z"/><path class="4bcd4a1d-700f-43b2-8158-8ded3d769f43" d="M68,109.07c-1.94-4.1-1.14-9.46-2.4-17.09a60.81,60.81,0,0,0-4.56-14.53A42.81,42.81,0,0,0,54.74,80c-4.91,2.24-6.09,3.7-6.31,5.36-.92.22-2.53-.15-4.55-3a20.46,20.46,0,0,0-7.09-6.14S29.6,94.6,32,111.8a64.19,64.19,0,0,0-1.37,9.35l9.68.91a46,46,0,0,0-.56-7.18c-.46-4.79,1.61-9,4.21-14.81,2.85-6.39,4.56-11.4,4.9-13.57,2.51,7.41,6.27,15.16,9.57,22,1.6,3.08,1.83,7.52,2.51,10.37l9.23-3.53A22.34,22.34,0,0,0,68,109.07Z"/><path class="247f6145-3b09-4bce-978d-657661ee5100" d="M68.17,109a20.92,20.92,0,0,1-1.46-7.35,100.9,100.9,0,0,0-1-10.4,54,54,0,0,0-4.44-13.86.15.15,0,0,0-.19-.06,29.36,29.36,0,0,0-5.13,2,33.12,33.12,0,0,0-5.22,2.71,6.18,6.18,0,0,0-2.09,2.19,3.87,3.87,0,0,0-.31,1c-.05.3-1.48-.29-1.58-.35-1.76-.92-2.73-2.9-4-4.34a18.7,18.7,0,0,0-5.77-4.49c-.08,0-.25,0-.29.08A82.06,82.06,0,0,0,32.46,92a71.15,71.15,0,0,0-1.06,15.07q.08,1.76.27,3.51a5,5,0,0,1,0,1.84c-.13.52-.23,1-.33,1.58-.34,1.87-.56,3.75-.74,5.64-.05.51-.1,1-.14,1.51,0,.07.05.09.11.1l9.68.91c.07,0,.22,0,.23-.13a29.34,29.34,0,0,0-.28-4.68,25.13,25.13,0,0,1-.23-5.68,23.1,23.1,0,0,1,1.53-5.58c1.54-4,3.48-7.81,5-11.8A39.88,39.88,0,0,0,49,86.49l-.33.06a159.43,159.43,0,0,0,7.17,17,48.9,48.9,0,0,1,3.46,7.85c.68,2.46.87,5,1.44,7.5,0,.1.18.07.24,0l9.23-3.53a.13.13,0,0,0,.09-.13A20.65,20.65,0,0,0,68.17,109c-.06-.13-.39,0-.33.09A26,26,0,0,1,70,115c0,.11,0,.23,0,.34,0-.1.17-.14-.09,0l-1.45.56-7.59,2.9.24,0c-.56-2.4-.78-4.85-1.37-7.23-.69-2.76-2.18-5.28-3.39-7.82A160.41,160.41,0,0,1,49,86.46c-.05-.13-.32-.06-.34.06a40.39,40.39,0,0,1-2.57,8c-1.56,4-3.49,7.81-5,11.81a24.46,24.46,0,0,0-1.38,4.83,19.09,19.09,0,0,0,.06,5.39,31.59,31.59,0,0,1,.38,5.5,1.71,1.71,0,0,1,.23-.13l-6.52-.61-3-.29c-.23,0,0,0-.05.08l0-.32c.05-.64.12-1.29.18-1.93.21-2,.46-3.91.86-5.83q.13-.63.3-1.26a6,6,0,0,0-.19-1.61c-.16-1.46-.24-2.92-.28-4.39A73,73,0,0,1,33,90.89a80.19,80.19,0,0,1,4-14.7l-.28.07a19.24,19.24,0,0,1,5.73,4.45c1.5,1.65,3.26,5.34,6.07,4.75,0,0,.13-.06.14-.12a4.63,4.63,0,0,1,2.13-3A32.53,32.53,0,0,1,57.36,79a33.47,33.47,0,0,1,3.49-1.34c.34-.11.09,0,.06-.09.15.33.3.67.44,1A58.91,58.91,0,0,1,65.27,91c.92,4.75.74,9.6,1.49,14.36a14.07,14.07,0,0,0,1.08,3.72C67.9,109.25,68.23,109.15,68.17,109Z"/><g class="5efb0312-9034-4f96-bfb5-c5a3f9113405"><path class="247f6145-3b09-4bce-978d-657661ee5100" d="M66.51,101.31l-.23-.32s.12,3.39.12,6.9-.24,6.55-2.67,5.33S58,105.83,54.89,96.74,53.31,83.41,57.8,81.23s7,7,7,7l.06.17a62.85,62.85,0,0,0-3.83-11A42.81,42.81,0,0,0,54.74,80c-4.91,2.24-6.09,3.7-6.31,5.36-.92.22-2.53-.15-4.55-3a20.46,20.46,0,0,0-7.09-6.14,90.5,90.5,0,0,0-4.86,20.75l.08,0s2.26-19,5.79-17.94S41,83.05,43.13,85c4.43,3.93-.06,9.58-3.15,16.84s-6.29,16.31-7.55,9.75c-.25-1.31-.53-2.47-.81-3.49.08,1.24.21,2.48.38,3.71a64.19,64.19,0,0,0-1.37,9.35l9.68.91a46,46,0,0,0-.56-7.18c-.46-4.79,1.61-9,4.21-14.81,2.85-6.39,4.56-11.4,4.9-13.57,2.51,7.41,6.27,15.16,9.57,22,1.6,3.08,1.83,7.52,2.51,10.37l9.23-3.53A22.34,22.34,0,0,0,68,109.07C67,106.89,66.72,104.35,66.51,101.31Z"/></g><path class="8894dbfc-455c-4d82-a050-c9f521700330" d="M37.37,57.2A14,14,0,0,1,37.89,61a57.17,57.17,0,0,0,.59,6.51c.18-.47,3.61-9.33,9.35-14,0,0,7.84,11.84,12.3,14.77.06-.19.14-.39.22-.6.44-1.15,1.89-3.79,3-6.25C60.45,58.67,54.65,53,49.2,48.6A33.48,33.48,0,0,0,37.37,57.2Z"/><path class="247f6145-3b09-4bce-978d-657661ee5100" d="M37.21,57.24A28.14,28.14,0,0,1,37.83,63c.1,1.53.25,3.07.48,4.59,0,.15.29.08.33,0,2-5.13,5-10.4,9.3-13.91h-.26c1.42,2.15,2.93,4.24,4.48,6.29,1.3,1.72,2.65,3.41,4.09,5A20.75,20.75,0,0,0,60,68.41a.2.2,0,0,0,.28-.08,72.72,72.72,0,0,1,3.26-6.85.11.11,0,0,0,0-.12C58.88,57,54.31,52.5,49.33,48.5a.18.18,0,0,0-.2,0,35.5,35.5,0,0,0-11.9,8.66c-.14.15.17.22.28.1a35.72,35.72,0,0,1,8.78-7.08c.65-.37,1.31-.7,2-1,.26-.12.76-.49,1-.26l1.2,1c1.47,1.21,2.9,2.47,4.31,3.75,2.42,2.18,4.77,4.42,7.12,6.67l1.18,1.13c.23.22-1.05,2.36-1.2,2.65a36.4,36.4,0,0,0-2,4.2l.29-.07a21.53,21.53,0,0,1-3.85-3.6c-1.39-1.56-2.69-3.2-3.95-4.86-1.56-2-3.06-4.14-4.48-6.29a.2.2,0,0,0-.27,0c-4.31,3.53-7.41,8.85-9.39,14l.32,0c-.24-1.6-.39-3.21-.5-4.83a26.41,26.41,0,0,0-.6-5.47C37.49,57,37.16,57.08,37.21,57.24Z"/><g class="9d7f7ba8-b3ea-4cee-acb7-c4bcf917216a"><path class="247f6145-3b09-4bce-978d-657661ee5100" d="M35.76,42.06s0,.3-.07.81c0,.26,0,.58-.06.94s0,.76,0,1.21,0,.92,0,1.43,0,1,.05,1.6c0,.14,0,.28,0,.42s0,.28,0,.42,0,.57.07.86.07.58.1.88l.12.87c0,.29.1.58.15.87a8.2,8.2,0,0,0,.18.86c.06.28.12.57.2.84l.24.81c.07.26.18.51.26.77s.15.51.23.75.13.49.2.72l.15.68c.06.22.09.43.13.63s.07.39.09.57.05.34.07.5,0,.3,0,.43,0,.46,0,.6v.21a1.67,1.67,0,0,0,0-.21,5.93,5.93,0,0,0,0-.6q0-.2-.06-.42c0-.16,0-.32-.08-.5s-.08-.37-.12-.56-.08-.41-.14-.62-.11-.44-.18-.67-.13-.47-.21-.71-.15-.49-.25-.74-.2-.5-.27-.77-.17-.54-.25-.81-.14-.57-.21-.85-.13-.57-.19-.87-.12-.58-.15-.87l-.12-.89-.09-.88c0-.29,0-.58-.06-.87l0-.42c0-.14,0-.28,0-.42,0-.56,0-1.1,0-1.61s0-1,.05-1.44.06-.85.09-1.21.06-.67.1-.93C35.71,42.35,35.76,42.06,35.76,42.06Z"/><path class="247f6145-3b09-4bce-978d-657661ee5100" d="M34.27,42.29l.12.14a.75.75,0,0,1,.13.16l.15.22c.06.09.1.18.16.28l.16.32c0,.12.1.23.14.36a2,2,0,0,1,.12.37l.11.38c0,.13,0,.25.06.38s0,.24,0,.35,0,.22,0,.32c0,.39,0,.65,0,.65s-.06-.26-.11-.64c0-.1,0-.2-.06-.31s0-.22-.08-.34,0-.24-.07-.36-.08-.24-.11-.37-.07-.25-.11-.36-.09-.24-.13-.35a3.21,3.21,0,0,0-.12-.33c0-.1-.08-.2-.12-.28l-.11-.24c0-.08-.07-.14-.09-.19A1.63,1.63,0,0,0,34.27,42.29Z"/><path class="247f6145-3b09-4bce-978d-657661ee5100" d="M39.17,57.73a1.28,1.28,0,0,0,.16.15,2.63,2.63,0,0,0,.54.32,3.4,3.4,0,0,0,.42.15c.16,0,.32.09.51.11l.29,0,.3,0c.21,0,.43,0,.66,0a10,10,0,0,0,1.48-.14l.2,0,.19,0,.41-.08c.27-.05.54-.13.82-.2l.43-.11.42-.13.43-.13.21-.06.24-.06a4.72,4.72,0,0,1,1.87.18c.6.15,1.19.35,1.77.54l1.7.52c.56.15,1.1.3,1.61.41s1,.2,1.47.27.88.12,1.26.15l1,.06h.62l-.62,0c-.27,0-.6,0-1,0s-.8,0-1.27-.1A22.73,22.73,0,0,1,52.17,59c-.56-.15-1.13-.33-1.72-.51s-1.16-.37-1.76-.52a4.49,4.49,0,0,0-1.77-.19l-.21.05-.22.06-.43.13-.43.13-.43.1a8.45,8.45,0,0,1-.84.19l-.41.07-.2,0-.2,0a11.44,11.44,0,0,1-1.5.1c-.23,0-.46,0-.67,0l-.31,0-.29-.06a3.8,3.8,0,0,1-.51-.13c-.15-.06-.3-.11-.42-.17a2.69,2.69,0,0,1-.52-.35A1,1,0,0,1,39.17,57.73Z"/></g><path class="8894dbfc-455c-4d82-a050-c9f521700330" d="M60.74,74.85c-2.18.79-8.14,2.74-13,2.43a21.11,21.11,0,0,1-10.33-4c-.45,1.11-1,2.55-.58,2.86a20.46,20.46,0,0,1,7.09,6.14c2,2.9,3.63,3.27,4.55,3,.22-1.66,1.4-3.12,6.31-5.36a42.81,42.81,0,0,1,6.31-2.55s.41-.4,0-1.61C61,75.54,60.85,75.2,60.74,74.85Z"/><path class="247f6145-3b09-4bce-978d-657661ee5100" d="M60.71,74.75a37.31,37.31,0,0,1-11.55,2.44,19.57,19.57,0,0,1-11.66-4,.23.23,0,0,0-.29.08c-.33.83-1.32,2.56-.25,3.13A20.06,20.06,0,0,1,40.64,79a20.36,20.36,0,0,1,2.53,2.64,20.05,20.05,0,0,0,2.28,2.75,3.58,3.58,0,0,0,3,1.08.17.17,0,0,0,.14-.12,4.74,4.74,0,0,1,2.3-3.13A36.4,36.4,0,0,1,58,78.68a26.47,26.47,0,0,1,3-1.1c1-.27.06-2.28-.1-2.77,0-.14-.37,0-.33.09.21.65.83,1.85.35,2.5.11-.14-.05,0-.23,0a33.35,33.35,0,0,0-3.24,1.25,47.23,47.23,0,0,0-6,2.88,7.32,7.32,0,0,0-2.8,2.58,3.63,3.63,0,0,0-.37,1.11c-.06.34-1.63-.38-1.74-.44a8.43,8.43,0,0,1-2.31-2.3,24.68,24.68,0,0,0-2.33-2.78,21,21,0,0,0-4-3.11c-.31-.19-.63-.36-1-.53-.58-.29.42-2.42.57-2.78l-.29.08a20.38,20.38,0,0,0,11.26,4A34.93,34.93,0,0,0,60.76,75C61,74.89,60.91,74.68,60.71,74.75Z"/><path class="4f3a4e36-e729-42bc-a598-6f30c030d40a" d="M60.74,74.85c-.34-1-.72-2.12-1.09-2.12-11.35,3.08-16.69.55-18.37-.1s-2.2-1.4-2.65-1.32c0,0-.48.06-.85,1l-.41,1a21.11,21.11,0,0,0,10.33,4C52.6,77.59,58.56,75.64,60.74,74.85Z"/><path class="a99ce955-a0b3-48c1-adbc-6a2540143039" d="M48.78,77.37h0q-.56,0-1.08,0a21.29,21.29,0,0,1-10.36-4l0,0,0,0,.23-.58a4,4,0,0,0,.17-.41c.39-1,.89-1,.91-1h.07a1.64,1.64,0,0,1,.77.36,9.12,9.12,0,0,0,1.83,1l.26.11a19.94,19.94,0,0,0,8,1.49h0a38.53,38.53,0,0,0,10.06-1.5h0c.37,0,.7.8,1.14,2.16l0,.06-.06,0A39.12,39.12,0,0,1,48.78,77.37ZM37.44,73.28a21.08,21.08,0,0,0,10.27,3.94c.34,0,.7,0,1.07,0a39,39,0,0,0,11.89-2.43c-.24-.74-.66-2-1-2a39.05,39.05,0,0,1-10.08,1.49h0a19.87,19.87,0,0,1-8-1.5l-.26-.1a9,9,0,0,1-1.85-1c-.36-.23-.58-.37-.77-.33,0,0-.45.07-.81,1,0,.12-.11.26-.17.42Z"/><g class="5efb0312-9034-4f96-bfb5-c5a3f9113405"><path class="24e41a09-93f8-4780-96c0-2be733de5387" d="M61.05,75.84c-.1-.3-.2-.64-.31-1-2.18.79-8.14,2.74-13,2.43a21.11,21.11,0,0,1-10.33-4c-.45,1.11-1,2.55-.58,2.86a20.46,20.46,0,0,1,7.09,6.14c2,2.9,3.63,3.27,4.55,3,.22-1.66,1.4-3.12,6.31-5.36a42.81,42.81,0,0,1,6.31-2.55S61.46,77.05,61.05,75.84ZM57.43,78c-3.88,1.58-7.88,4.61-7.27,3.27a4.16,4.16,0,0,1,1.45-1.82,6.53,6.53,0,0,0-3.51,4.25c-1,3.27-8.15-6.51-8.15-6.51-1.69-2.3,2.09-.4,3.79.93s3.15,1.58,4.84.73,2.31-.61,7.28-1.7C59.65,76.28,61.31,76.39,57.43,78Z"/></g><g class="5efb0312-9034-4f96-bfb5-c5a3f9113405"><path class="4f3a4e36-e729-42bc-a598-6f30c030d40a" d="M59.65,72.73c-11.35,3.08-16.69.55-18.37-.1s-2.2-1.4-2.65-1.32c0,0-.48.06-.85,1l-.41,1c.25.17.55.38.91.61.3-.63.86-1.46,1.56-1.11,1.1.55,3.59,1.18,3.37,1.91a7.72,7.72,0,0,0-.2,1.55c.49.18,1,.34,1.52.48a2.36,2.36,0,0,1,2.2-1.8,2.43,2.43,0,0,1,2.56,2.35c.48,0,1,0,1.44-.08A2.13,2.13,0,0,1,52.61,75c2.55-.46,3.87-.55,5.14-.82a1.51,1.51,0,0,1,2,1.06l1-.34C60.4,73.81,60,72.73,59.65,72.73Z"/></g><path class="247f6145-3b09-4bce-978d-657661ee5100" d="M32,111.8l.15.53c.1.32.22.74.38,1.14a3.79,3.79,0,0,0,.26.58,2.17,2.17,0,0,0,.31.43,1.14,1.14,0,0,0,.17.15l.14.08.11,0,0,0h0a.23.23,0,0,1-.11,0,.41.41,0,0,1-.17,0,.75.75,0,0,1-.21-.12,1.68,1.68,0,0,1-.21-.18,2.35,2.35,0,0,1-.19-.25,2,2,0,0,1-.17-.29c-.05-.1-.09-.2-.13-.3a4.26,4.26,0,0,1-.2-.64c0-.2-.08-.39-.1-.56A3,3,0,0,1,32,111.8Z"/><path class="247f6145-3b09-4bce-978d-657661ee5100" d="M39.93,110.44s0,.26-.1.64c0,.19-.08.41-.14.65s-.11.49-.17.74-.13.5-.2.73-.12.46-.17.64c-.11.37-.2.62-.2.62a6,6,0,0,1,.07-.64c0-.2.06-.42.11-.66s.11-.49.17-.74a7.22,7.22,0,0,1,.2-.74l.2-.64C39.83,110.67,39.93,110.44,39.93,110.44Z"/><path class="247f6145-3b09-4bce-978d-657661ee5100" d="M36.67,110.89a4.06,4.06,0,0,1,0,.52,4.68,4.68,0,0,1,0,.52c0,.2,0,.4-.08.6a5.27,5.27,0,0,1-.14.6,2,2,0,0,1-.1.26,2.51,2.51,0,0,1-.11.23,1.4,1.4,0,0,1-.12.18,1.35,1.35,0,0,1-.12.12l-.11.09.08-.12s0-.09.07-.14,0-.12.08-.18,0-.15.07-.24,0-.17.07-.26,0-.19,0-.28l.06-.3c.07-.39.13-.79.18-1.09S36.67,110.89,36.67,110.89Z"/><path class="247f6145-3b09-4bce-978d-657661ee5100" d="M60.75,111.58s.16.19.41.46l.2.22c.07.08.15.15.22.24s.34.33.53.48l.27.23.28.22.27.18a2.56,2.56,0,0,0,.25.16l.21.14.17.09.15.08-.16,0-.19-.06-.24-.09a1.66,1.66,0,0,1-.27-.13,2.28,2.28,0,0,1-.3-.17,2.61,2.61,0,0,1-.3-.2,3.36,3.36,0,0,1-.29-.24l-.28-.25-.24-.27a5,5,0,0,1-.39-.51A3.07,3.07,0,0,1,60.75,111.58Z"/><path class="247f6145-3b09-4bce-978d-657661ee5100" d="M66.68,109.37a5.25,5.25,0,0,1,.11.56,5,5,0,0,1,0,.58c0,.22,0,.44,0,.67s0,.23,0,.34a3,3,0,0,1-.08.32q0,.16-.09.3l-.11.26a1.51,1.51,0,0,0-.12.2,1,1,0,0,1-.11.15l-.1.12a1.26,1.26,0,0,0,.06-.15.84.84,0,0,0,.07-.16,1.8,1.8,0,0,1,.08-.21,2.5,2.5,0,0,1,.07-.26l.06-.29c0-.21.07-.42.09-.64s0-.22,0-.33l0-.32c0-.21,0-.41,0-.57C66.67,109.6,66.68,109.37,66.68,109.37Z"/><path class="456eb450-c827-4ca1-86a1-c779583cb6bf" d="M46.89,77.93c1.76,0,3.18-1.1,3.18-2.46S48.64,73,46.88,73s-3.18,1.11-3.17,2.46S45.14,77.94,46.89,77.93Zm-2.33-2.45a2.11,2.11,0,0,1,2.32-1.8,1.86,1.86,0,1,1,0,3.6A2.11,2.11,0,0,1,44.56,75.48Z"/><path class="1198f84b-d8c7-4286-b36e-30a3d5682521" d="M46.88,78c-1.79,0-3.25-1.13-3.26-2.53a2.28,2.28,0,0,1,1-1.8,3.74,3.74,0,0,1,2.3-.74c1.81,0,3.27,1.13,3.27,2.53a2.28,2.28,0,0,1-1,1.8,3.72,3.72,0,0,1-2.3.74Zm0-4.91a3.71,3.71,0,0,0-2.21.71,2.11,2.11,0,0,0-.89,1.67c0,1.31,1.39,2.37,3.09,2.37v0a3.53,3.53,0,0,0,2.2-.71,2.11,2.11,0,0,0,.9-1.67C50,74.17,48.6,73.1,46.89,73.1Zm0,4.26a1.94,1.94,0,1,1,0-3.76h0a1.94,1.94,0,1,1,0,3.76Zm0-3.68v.08a1.78,1.78,0,1,0,2.26,1.71,2,2,0,0,0-2.26-1.71Z"/><path class="1358a15a-ba6e-447a-ac44-5778e24c8090" d="M44.29,75.33a2.11,2.11,0,0,1,2.32-1.81,2.82,2.82,0,0,1,1.54.44,2.89,2.89,0,0,0-1.27-.28,2.11,2.11,0,0,0-2.32,1.8,1.64,1.64,0,0,0,.8,1.35A1.73,1.73,0,0,1,44.29,75.33Z"/><path class="1358a15a-ba6e-447a-ac44-5778e24c8090" d="M49.8,75.31a2.27,2.27,0,0,0-1.14-1.87,2.34,2.34,0,0,1,1.41,2c0,1.36-1.42,2.46-3.18,2.46a3.67,3.67,0,0,1-2-.57,3.79,3.79,0,0,0,1.77.42C48.38,77.77,49.8,76.67,49.8,75.31Z"/><path class="b7451dd1-745e-4c7d-bcd1-f730654de83b" d="M44.11,74.5l0,.16s0,.11,0,.18a1.66,1.66,0,0,0,0,.24v.27a.68.68,0,0,0,0,.14c0,.05,0,.1,0,.15a.83.83,0,0,0,0,.15.88.88,0,0,0,.05.15,1.23,1.23,0,0,0,.13.29l.18.26c.08.08.14.17.22.24l.23.19.22.16a1,1,0,0,0,.2.13l.16.1.14.09-.16,0-.19,0-.11,0-.13,0-.27-.12L44.51,77a3.08,3.08,0,0,1-.27-.25,2.1,2.1,0,0,1-.22-.3,1.25,1.25,0,0,1-.15-.36,1.55,1.55,0,0,1-.08-.36,1.9,1.9,0,0,1,0-.34,1.24,1.24,0,0,1,.06-.29.85.85,0,0,1,.08-.24.91.91,0,0,1,.08-.17A.58.58,0,0,1,44.11,74.5Z"/><g class="94536072-878b-415d-8dfc-601f17f2c0be"><path class="456eb450-c827-4ca1-86a1-c779583cb6bf" d="M44.75,74.77l-.57-.57a2.18,2.18,0,0,1,.25-.28l.54.54A1.6,1.6,0,0,0,44.75,74.77Z"/><path class="456eb450-c827-4ca1-86a1-c779583cb6bf" d="M49.16,75.88l.62.62a2.36,2.36,0,0,1-.45.55l-.54-.54A1.69,1.69,0,0,0,49.16,75.88Z"/><path class="456eb450-c827-4ca1-86a1-c779583cb6bf" d="M47.66,77.17l.54.54a3.31,3.31,0,0,1-.42.12l-.57-.57A3,3,0,0,0,47.66,77.17Z"/><path class="456eb450-c827-4ca1-86a1-c779583cb6bf" d="M46.88,73.68a3,3,0,0,0-.79.11l-.53-.54a4.06,4.06,0,0,1,.8-.19l.62.62Z"/></g><path class="3dc87cb0-4f09-4572-831a-c536830b6c0a" d="M59.08,23.79a74.74,74.74,0,0,0,.38-8.68,2.44,2.44,0,0,0-2.05-2.3s.11-.19,1.14-.26a5.5,5.5,0,0,0-2.13-.42,8.79,8.79,0,0,0,1.79-.8,12.17,12.17,0,0,0-1.87.23,2.65,2.65,0,0,1-1.51.72,5.56,5.56,0,0,1-.95,1,2.42,2.42,0,0,1-1.45,1.52,1.71,1.71,0,0,0,1.29-.8,2.67,2.67,0,0,1-2.24,2.4c-4.33,2.81-6.57-1.94-6.42-4.14a5.58,5.58,0,0,0-2.54.07s.25.15,1.36.88c-3.53,2.58-2.42,8.54-2.62,10.25v.06c.39,3.93.94,7.4,4.29,8.82,1.42,1.85,4.81,2.31,6.36,1.34,2-.29,5.94-2.84,6.74-5.94a1.28,1.28,0,0,0,1.09-1,11.21,11.21,0,0,1,1.6-3.53,2.26,2.26,0,0,0,.4-1.88C60.18,19.54,59.08,23.79,59.08,23.79Z"/><path class="17b38599-9589-4a19-8065-c4fc5a3ee18a" d="M49.84,34.24h0a5.66,5.66,0,0,1-4.36-1.85c-3.33-1.43-3.94-4.89-4.34-8.91V23.4a14.19,14.19,0,0,0,0-1.5c-.08-2.49-.2-6.62,2.53-8.74l-1.22-.78-.24-.12.25-.09A5.48,5.48,0,0,1,43.91,12a6.6,6.6,0,0,1,1.17.1l.1,0v.1A5.64,5.64,0,0,0,46.61,16c1.26,1.35,3,1.45,4.81.24l0,0h0a2.44,2.44,0,0,0,2-1.86,1.57,1.57,0,0,1-1.09.49h-.62l.58-.21a2.35,2.35,0,0,0,1.37-1.44v0l0,0a4.92,4.92,0,0,0,.92-.9l0-.07h.08a2.66,2.66,0,0,0,1.44-.7l0,0h0a11.73,11.73,0,0,1,1.88-.23l.39,0-.32.23A7,7,0,0,1,57,12a5.61,5.61,0,0,1,1.61.4l.43.19-.47,0a4.57,4.57,0,0,0-.81.12,2.44,2.44,0,0,1,1.83,2.33c0,2.27,0,4.6-.28,7.65.34-.88.93-2,1.7-2a1.15,1.15,0,0,1,.83.45l0,0v0a2.32,2.32,0,0,1-.43,2,10.84,10.84,0,0,0-1.57,3.49,1.41,1.41,0,0,1-1.11,1.08c-.87,3.19-4.86,5.65-6.79,6A4.12,4.12,0,0,1,49.84,34.24ZM41.37,23.47c.41,4.1,1,7.34,4.22,8.72h0l0,0A5.43,5.43,0,0,0,49.84,34a3.93,3.93,0,0,0,2-.47h0c1.84-.27,5.86-2.77,6.65-5.86l0-.08h.08a1.18,1.18,0,0,0,1-.93,11.65,11.65,0,0,1,1.62-3.58,2.09,2.09,0,0,0,.38-1.75A.91.91,0,0,0,61,21c-.87,0-1.6,2.06-1.8,2.85l-.22,0a76.5,76.5,0,0,0,.37-8.66,2.32,2.32,0,0,0-2-2.19l-.17,0,.09-.15c0-.05.18-.18.74-.26a5.39,5.39,0,0,0-1.57-.25h-.06l-.74,0,.7-.25a10.94,10.94,0,0,0,1.32-.54,10,10,0,0,0-1.3.19,3,3,0,0,1-1.51.72,5.47,5.47,0,0,1-.91.9,1.42,1.42,0,0,1-.11.31l0,.36a2.82,2.82,0,0,1-2.32,2.5,4.87,4.87,0,0,1-2.56.87,3.41,3.41,0,0,1-2.52-1.16,5.92,5.92,0,0,1-1.5-3.87,7.15,7.15,0,0,0-1-.08,5.24,5.24,0,0,0-1.1.11l1.14.73.13.09-.13.1c-2.76,2-2.64,6.16-2.57,8.64a12.72,12.72,0,0,1,0,1.53v0Z"/><path class="94304515-a879-4867-a7b8-3b2819e2de32" d="M47,26.22s1.25,1.14,2.28.5,1.33-.76,2-.72-.72.37-1.4.94S48.94,28.58,47,26.22Z"/><path class="94304515-a879-4867-a7b8-3b2819e2de32" d="M45,28a2.88,2.88,0,0,0,2.65.51A10.1,10.1,0,0,1,53.12,28c1.28.16,1.62-.16,1.51-.79,0,0,1.17.92-.21,1.27-.1,1.06-.3,2-1.88,2-1.38,0-2-.88-3.24-1.22a4.88,4.88,0,0,0-2.57,0A1.51,1.51,0,0,1,45,28Z"/><g class="3bff8028-b7dc-4d18-aaa9-b192a5894b4e"><path class="3dc87cb0-4f09-4572-831a-c536830b6c0a" d="M49.05,23.42c1.22,0,1.25,1.56,3.46,1.75s6.15.57,6.57-1.06c.2-1.92.3-3.55.34-5.05-1.74-1.29-5.2-1.78-8.17-.5-1.57.68-2.35,1.22-4.74.12a6.08,6.08,0,0,0-5.16,0c-.24,2.11,0,4.14-.09,5v.05a2.28,2.28,0,0,0,0,.26,32.94,32.94,0,0,0,5.19.94C47.46,25,47.84,23.42,49.05,23.42Z"/></g><path class="4bcd4a1d-700f-43b2-8158-8ded3d769f43" d="M49.05,23.11c1.22,0,1.25,1.56,3.46,1.74s6.15.57,6.57-1.06c.2-1.92.3-3.55.34-5-1.74-1.3-5.2-1.79-8.17-.5-1.57.68-2.35,1.21-4.74.11a6.12,6.12,0,0,0-5.16,0c-.24,2.11,0,4.15-.09,5v.06a2.11,2.11,0,0,0,0,.25,31.8,31.8,0,0,0,5.19,1C47.46,24.67,47.84,23.11,49.05,23.11Z"/><g class="82dcd058-0990-432d-b3d1-32e62712ed3e"><path class="247f6145-3b09-4bce-978d-657661ee5100" d="M54.9,18.75c-2.9.05-4.67,1.18-4.62,3.27a4.78,4.78,0,0,0,.53,2.23,3.08,3.08,0,0,0,1.7.6c2.2.19,6.15.57,6.57-1.06.15-1.39.24-2.63.29-3.77A9,9,0,0,0,54.9,18.75Z"/><path class="247f6145-3b09-4bce-978d-657661ee5100" d="M47.81,22.51c-.06-1.24-.16-2-2.26-3.17a6,6,0,0,0-4.28-.07c-.09,1.77.08,3.38,0,4.14v.06a2.11,2.11,0,0,0,0,.25,31.8,31.8,0,0,0,5.19,1c.55,0,.91-.49,1.33-.92C47.82,23.36,47.83,22.93,47.81,22.51Z"/></g><path class="7b554b6e-d35f-48f9-8c32-15c330f5eddb" d="M41.83,20.6s3.5-2.54,5.47,1.52a4,4,0,0,1-4.48,1.25,5.81,5.81,0,0,0,1.83-.53S41.87,22.5,41.83,20.6Z"/><path class="7b554b6e-d35f-48f9-8c32-15c330f5eddb" d="M57.71,21.74a2.93,2.93,0,0,0-2.77-2.24,3.87,3.87,0,0,0-3.53,1.75,4,4,0,0,0,4.44,2.39c-2.43-.91-2.77-1.44-2.77-1.44S55.78,23.53,57.71,21.74Z"/><path class="3dc87cb0-4f09-4572-831a-c536830b6c0a" d="M40.87,20.05a1,1,0,0,0-.68.8c-.17.68.37,1.84,1.09,2.87S40.87,20.05,40.87,20.05Z"/><path class="17b38599-9589-4a19-8065-c4fc5a3ee18a" d="M41.45,24h0c-.09,0-.17-.06-.26-.2-.41-.59-1.34-2.07-1.11-3a1.11,1.11,0,0,1,.76-.88l.11,0,0,.1c.26,1.08.83,3.6.59,3.9A.14.14,0,0,1,41.45,24Zm-.66-3.79a1,1,0,0,0-.5.67,4.35,4.35,0,0,0,1.09,2.79l0,0A21.42,21.42,0,0,0,40.79,20.2Z"/><path class="40177e18-b2db-4b85-b16c-b4dd01f86f8a" d="M47.38,28.84a5.87,5.87,0,0,1,2.16-.64,20.69,20.69,0,0,1,4.49.15,5.84,5.84,0,0,0-.19.95c-.08.57-1.18,1.29-2.85.38A6.43,6.43,0,0,0,47.38,28.84Z"/><path class="17b38599-9589-4a19-8065-c4fc5a3ee18a" d="M52.74,32.68a.5.5,0,0,1-.06.2,1,1,0,0,1-.09.18,2.43,2.43,0,0,1-.14.2c-.06.06-.11.12-.17.17l-.18.12a.9.9,0,0,1-.19.08l.1-.18a.83.83,0,0,1,.12-.16l.07-.09.07-.09.16-.17.15-.14.11-.09Z"/><path class="17b38599-9589-4a19-8065-c4fc5a3ee18a" d="M45.29,31.8a.3.3,0,0,1,.09.06.53.53,0,0,1,.12.14.3.3,0,0,1,0,.1.29.29,0,0,1,0,.09.58.58,0,0,1,0,.1.21.21,0,0,1-.1,0l-.08-.06-.07-.09,0-.1a.38.38,0,0,1,0-.1A.6.6,0,0,1,45.29,31.8Z"/><path class="c64e8821-7cba-46b1-8144-cf6fd06d7838" d="M53.35,28.29a15,15,0,0,0-3.81-.09,5.87,5.87,0,0,0-2.16.64,6.73,6.73,0,0,1,2.79.45C51.29,29.41,52.9,29.37,53.35,28.29Z"/><path class="db725c96-fab4-476c-a8ff-cd25328f9750" d="M51.36,29.86c1.39.59,2.31,0,2.46-.48A3.57,3.57,0,0,0,51.36,29.86Z"/><path class="17b38599-9589-4a19-8065-c4fc5a3ee18a" d="M45.31,28.31a2.84,2.84,0,0,0,.29.2l.31.15.18.06.19.05.2,0,.19,0H47a2.21,2.21,0,0,0,.26,0h.1l-.09.05A1.48,1.48,0,0,1,47,29l-.17,0-.2,0h-.21l-.23,0a1.38,1.38,0,0,1-.4-.15,1.08,1.08,0,0,1-.18-.11l-.13-.12A.91.91,0,0,1,45.31,28.31Z"/><path class="17b38599-9589-4a19-8065-c4fc5a3ee18a" d="M54.73,27.36l.05.05a.39.39,0,0,1,.11.15.34.34,0,0,1,0,.12.38.38,0,0,1,0,.15.52.52,0,0,1-.06.16l0,.07-.06.06-.12.1a.59.59,0,0,1-.14.06l-.12,0-.12,0H54l.2-.13.09,0,.1-.07.1-.07a.31.31,0,0,0,.09-.07l0,0,0-.05a.41.41,0,0,0,0-.09l0-.09a.33.33,0,0,0,0-.1A.89.89,0,0,0,54.73,27.36Z"/><path class="17b38599-9589-4a19-8065-c4fc5a3ee18a" d="M47.38,28.84c.12-.07.24-.14.37-.2s.27-.1.4-.15l.4-.13.41-.11.42-.08a3.34,3.34,0,0,1,.42-.07l.42-.05.43,0h.85l.43,0,.42,0c.28,0,.57.05.85.09l.42,0,.41,0h.14l0,.13-.06.24c0,.08,0,.16,0,.24l0,.24,0,.12v.14a.73.73,0,0,1-.11.26,1.24,1.24,0,0,1-.18.21,1.69,1.69,0,0,1-.47.27,2.33,2.33,0,0,1-.51.11,3.13,3.13,0,0,1-.53,0,4.05,4.05,0,0,1-.5-.12L51.4,30l-.23-.11-.45-.23c-.15-.07-.29-.16-.44-.22l-.46-.19c-.15-.05-.31-.11-.47-.15a4.15,4.15,0,0,0-.48-.11l-.49-.06-.5,0Zm0,0c.33,0,.67,0,1,0a4,4,0,0,1,.5,0l.5.08.49.14.47.18c.16.06.31.14.46.21l.45.21.22.1.23.08a4,4,0,0,0,.47.11,1.93,1.93,0,0,0,.48,0,1.52,1.52,0,0,0,.46-.1,1.38,1.38,0,0,0,.39-.23,2.09,2.09,0,0,0,.14-.17l0-.09a.81.81,0,0,0,0-.11l.09-.48c0-.09,0-.17,0-.25l.06-.25.11.14-.44,0-.42,0-.84-.1-.41,0-.42,0-.42,0h-.84l-.42,0-.42,0-.41.07-.42.08-.4.11-.4.13A3.52,3.52,0,0,0,47.38,28.84Z"/><polygon class="4d2d3df0-7473-44d6-99ab-e2f1884694c7" points="42.52 12.34 42.48 12.33 42.45 12.3 42.47 12.22 42.53 12.22 42.65 12.28 42.52 12.34"/><path class="e4b80c7d-8ca5-453a-b0fc-526039e245e4" d="M60,5.88A26.84,26.84,0,0,0,42.65,8.27c-3.08,1.66-5.56,2.45-3.46,6.78a22.13,22.13,0,0,1,2,7.37c0,.35.07.7.11,1v-.06c.2-1.71-.91-7.67,2.62-10.25-1.11-.73-1.32-.86-1.36-.88h0a5.58,5.58,0,0,1,2.54-.07c-.15,2.2,2.09,7,6.42,4.14A2.67,2.67,0,0,0,53.72,14a1.71,1.71,0,0,1-1.29.8,2.42,2.42,0,0,0,1.45-1.52,5.56,5.56,0,0,0,.95-1,2.65,2.65,0,0,0,1.51-.72,12.17,12.17,0,0,1,1.87-.23,8.79,8.79,0,0,1-1.79.8,5.5,5.5,0,0,1,2.13.42c-1,.07-1.14.26-1.14.26a2.44,2.44,0,0,1,2.05,2.3,74.74,74.74,0,0,1-.38,8.68s1.1-4.25,2.66-2.52a16.27,16.27,0,0,0,2.45-7.92C64.53,8.33,65,6.68,60,5.88Z"/><path class="64b1aea9-ecbf-457e-836f-c7a1f973fd68" d="M60.13,5.8a31.53,31.53,0,0,0-9.84-.14,29,29,0,0,0-9.87,3.72,4.42,4.42,0,0,0-2,2c-.49,1.19.09,2.67.62,3.74a23.57,23.57,0,0,1,2.06,8.39c0,.09.32,0,.33-.07.22-1.44-.06-3,0-4.44.14-2.18.75-4.44,2.57-5.83,0,0,0-.05,0-.08-.31-.2-1.14-1-1.58-.86-.23.07,0,.15.12.11s2.31-.36,2.31,0a5.57,5.57,0,0,0,.31,1.76A4.89,4.89,0,0,0,47.41,17a3.83,3.83,0,0,0,3.47-.16,15.84,15.84,0,0,0,1.64-.7,3.17,3.17,0,0,0,1.37-2.16c0-.12-.28,0-.32,0-.19.29-1.47,1-.93.78a3,3,0,0,0,.84-.58c.25-.23.34-.76.55-.93a5.45,5.45,0,0,0,.88-.85s-.24,0,0,0a3.06,3.06,0,0,0,.41-.1c.46-.14.86-.58,1.32-.68a10.49,10.49,0,0,1,1.24-.15c.24,0,.26-.13.17-.08a9,9,0,0,1-1.65.72c-.1,0-.15.15,0,.14a5.56,5.56,0,0,1,2.06.41l.16-.15c-.33,0-1.06,0-1.31.35,0,0,0,.07,0,.08a2.8,2.8,0,0,1,1.23.58c.86.67.76,1.72.76,2.69a75.2,75.2,0,0,1-.37,7.65c0,.11.3,0,.32-.05.24-.92,1.12-3.69,2.34-2.44.07.06.26,0,.31-.07,2-2.8,2.36-6.47,2.6-9.8.08-1.22.29-2.79-.41-3.87C63.25,6.31,61.51,6,60.13,5.8c-.09,0-.38.13-.2.16,1.37.23,3.13.52,3.89,1.84s.4,2.87.31,4.14c-.23,3.16-.63,6.66-2.54,9.33l.3-.07c-1.54-1.57-2.68,1.5-3,2.62l.32-.05a79.4,79.4,0,0,0,.38-8.45,2.36,2.36,0,0,0-1.16-2.23,3.48,3.48,0,0,0-.77-.32l-.17,0a4.63,4.63,0,0,0,1-.1s.29-.11.16-.16a6.4,6.4,0,0,0-1.49-.38,3.42,3.42,0,0,0-.44,0c-.33,0-.19.11,0,0a7.52,7.52,0,0,0,1.55-.72c.08,0,0-.1-.07-.1a9,9,0,0,0-1.94.24c-.32.08-.68.45-1,.58s-.41.08-.61.16-.7.72-1,1-.37.77-.67,1a2.45,2.45,0,0,1-.71.43c-.14.06-.11.16,0,.14A2,2,0,0,0,53.88,14l-.32,0a3.08,3.08,0,0,1-1.09,1.93s-1.31.54-1.56.68a3.35,3.35,0,0,1-3.65-.05,5.29,5.29,0,0,1-2-4.36s0,0-.06-.06a5.91,5.91,0,0,0-2.71.11c-.23.07,0,.15.12.11-.23.07-.17,0,0,.14l.62.4c.45.29.37.37,0,.68a5.34,5.34,0,0,0-.59.67,7.41,7.41,0,0,0-1.35,3.35,17.18,17.18,0,0,0-.22,3.28,16.5,16.5,0,0,1,0,2.63l.33-.07a25.65,25.65,0,0,0-1.9-8.05,10.05,10.05,0,0,1-.91-2.62,3,3,0,0,1,1.54-3A25.74,25.74,0,0,1,50.24,5.82,30,30,0,0,1,59.93,6C60,6,60.31,5.83,60.13,5.8Z"/><path class="17b38599-9589-4a19-8065-c4fc5a3ee18a" d="M48.19,30.6a1.2,1.2,0,0,1,.27-.15,1.89,1.89,0,0,1,.31-.1,2.08,2.08,0,0,1,.36-.05,1.5,1.5,0,0,1,.37,0l.17,0,.14.07a.7.7,0,0,1,.18.14.28.28,0,0,1,.06.06l-.08,0-.09,0-.12,0-.14,0-.15,0H48.8l-.3,0Z"/><path class="64b1aea9-ecbf-457e-836f-c7a1f973fd68" d="M49.36,7.8h-.08l-.2.05L48.76,8l-.39.14-.45.21-.23.13-.24.15-.24.16L47,8.93a3.39,3.39,0,0,0-.44.41c-.14.14-.26.31-.39.46l-.32.49-.26.49c-.07.15-.12.31-.19.45s-.11.27-.14.39-.07.23-.1.31-.09.28-.09.28l0-.29c0-.08,0-.19.06-.32a1.74,1.74,0,0,1,.1-.41c0-.15.09-.32.16-.48s.15-.34.23-.52L46,9.67c.14-.16.26-.33.4-.49a6.14,6.14,0,0,1,.47-.42l.24-.19.26-.16a1.23,1.23,0,0,1,.25-.14l.25-.13c.17-.06.33-.13.48-.17a4.25,4.25,0,0,1,.74-.15A1.26,1.26,0,0,1,49.36,7.8Z"/><path class="64b1aea9-ecbf-457e-836f-c7a1f973fd68" d="M49.28,9.81,49,10.1a3.11,3.11,0,0,0-.31.36l-.17.22c0,.09-.12.17-.17.27a2.14,2.14,0,0,0-.17.3c-.05.1-.11.21-.16.33s-.09.23-.12.36a2.79,2.79,0,0,0-.1.39l0,.2a1.49,1.49,0,0,0,0,.21,2,2,0,0,0,0,.42,3.13,3.13,0,0,0,0,.43l0,.21,0,.1,0,.11c0,.13.09.27.14.4a2,2,0,0,0,.2.39,2.7,2.7,0,0,0,.52.64,3.32,3.32,0,0,0,.63.45l.33.16.32.11.31.08.28.06.25,0,.21,0h.31a2,2,0,0,1-.31,0H50.6a3.75,3.75,0,0,1-.61-.09l-.34-.11A2.55,2.55,0,0,1,49.3,16a3,3,0,0,1-.69-.45,2.72,2.72,0,0,1-.58-.68,2.56,2.56,0,0,1-.21-.4c-.06-.15-.11-.29-.16-.44l0-.11,0-.11,0-.23a3.42,3.42,0,0,1,0-.45.89.89,0,0,1,0-.23c0-.07,0-.14,0-.22s0-.15,0-.22,0-.14.05-.21a1.91,1.91,0,0,1,.11-.41c0-.13.1-.25.15-.37a2.57,2.57,0,0,1,.18-.33c.06-.11.13-.21.19-.3a1.79,1.79,0,0,1,.2-.26c.06-.08.13-.15.19-.22a2.55,2.55,0,0,1,.34-.33,2.22,2.22,0,0,1,.23-.19Z"/><path class="64b1aea9-ecbf-457e-836f-c7a1f973fd68" d="M50.68,9.93s0,.09-.1.26a3.09,3.09,0,0,0-.09.31.87.87,0,0,0-.05.19c0,.06,0,.13,0,.21l0,.23a2.11,2.11,0,0,0,0,.25v.13a.57.57,0,0,1,0,.13,2.51,2.51,0,0,0,0,.27,2.07,2.07,0,0,0,.18.53,2.21,2.21,0,0,0,.33.47L51,13,51,13l.12.1a1.24,1.24,0,0,0,.23.17l.12.06.13.06a2.67,2.67,0,0,0,.26.09l.27,0h.26a2.45,2.45,0,0,0,.48,0,3.84,3.84,0,0,0,.7-.2l.26-.12a1.55,1.55,0,0,1-.24.16,4.08,4.08,0,0,1-.69.29,2.72,2.72,0,0,1-.51.08h-.28l-.29,0a2.26,2.26,0,0,1-.85-.41l-.12-.1,0,0-.06-.06a2.11,2.11,0,0,1-.37-.53,2.18,2.18,0,0,1-.18-.6,1.37,1.37,0,0,1,0-.29.66.66,0,0,0,0-.14s0-.09,0-.14a1.15,1.15,0,0,1,0-.26,2,2,0,0,1,.05-.24,3.09,3.09,0,0,1,.14-.4,2.23,2.23,0,0,1,.13-.3Z"/><path class="64b1aea9-ecbf-457e-836f-c7a1f973fd68" d="M50,13.54a3,3,0,0,0,.25.36,1.07,1.07,0,0,0,.14.16,1.33,1.33,0,0,0,.17.16l.09.07.1.07a1,1,0,0,0,.22.13l.23.1.23.06.23,0,.21,0,.18,0h.27l-.12,0a1.8,1.8,0,0,1-.33.06l-.22,0-.25,0-.27,0-.26-.11a1.65,1.65,0,0,1-.25-.15,1.12,1.12,0,0,1-.2-.18.9.9,0,0,1-.16-.19,1.06,1.06,0,0,1-.12-.2,1.59,1.59,0,0,1-.12-.31A1.13,1.13,0,0,0,50,13.54Z"/><path class="64b1aea9-ecbf-457e-836f-c7a1f973fd68" d="M54.86,12.28a2.23,2.23,0,0,1-.54.11l-.28,0-.3,0-.33-.06-.32-.1a2.27,2.27,0,0,1-.31-.17,1.09,1.09,0,0,1-.26-.21l-.11-.11a.47.47,0,0,1-.09-.12l-.09-.12-.06-.12c0-.08-.07-.15-.09-.22A.71.71,0,0,0,52,11l0-.15.08.13s0,.1.08.16l.12.18a.61.61,0,0,0,.07.1l.09.1.09.1.11.09a.94.94,0,0,0,.12.09.57.57,0,0,0,.13.08,1.43,1.43,0,0,0,.27.15l.3.1c.1,0,.2.06.3.07l.28.05a1.86,1.86,0,0,1,.26,0h.55Z"/><path class="64b1aea9-ecbf-457e-836f-c7a1f973fd68" d="M53.57,10.38a4.6,4.6,0,0,0,.38.33l.19.14.22.14.24.13a1.51,1.51,0,0,0,.26.12,1.48,1.48,0,0,0,.27.1,2.76,2.76,0,0,0,.27.08l.25.05.24,0,.2,0h.29l-.13,0-.16,0a1.2,1.2,0,0,1-.2,0h-.25a1.33,1.33,0,0,1-.28,0,1.36,1.36,0,0,1-.29-.06,1.76,1.76,0,0,1-.3-.1,2.24,2.24,0,0,1-.27-.13l-.25-.16a2.31,2.31,0,0,1-.39-.36A1.65,1.65,0,0,1,53.57,10.38Z"/><path class="17b38599-9589-4a19-8065-c4fc5a3ee18a" d="M58.65,27.69s0-.18,0-.44a1.55,1.55,0,0,0,0-.22,1.77,1.77,0,0,0,0-.24c0-.16,0-.34,0-.51a9.53,9.53,0,0,1,.13-1,3.82,3.82,0,0,1,.11-.44s0,.18,0,.45a8.4,8.4,0,0,1,0,1c0,.17,0,.35-.06.51a2.55,2.55,0,0,1-.09.45C58.71,27.52,58.65,27.69,58.65,27.69Z"/><path class="7414b91b-9d40-414c-af09-5dbc1b14346b" d="M52,21a4.68,4.68,0,0,0,5.29.62A3.56,3.56,0,0,0,52,21Z"/><path class="7414b91b-9d40-414c-af09-5dbc1b14346b" d="M42.52,21.21s.53-1.07,2.43-.88,2,1.6,2,1.6S44.83,23.68,42.52,21.21Z"/><path class="43e71ece-e798-42f9-8516-ed0c74b7b517" d="M55.76,21.06a1,1,0,1,1-1-.94A1,1,0,0,1,55.76,21.06Z"/><path class="b5e245af-efa4-4937-8589-d55b1869a3d0" d="M54.77,22a1,1,0,1,1,1-1A1,1,0,0,1,54.77,22Zm0-1.87a.89.89,0,1,0,.94.89A.92.92,0,0,0,54.77,20.17Z"/><g class="9d7f7ba8-b3ea-4cee-acb7-c4bcf917216a"><path class="43e71ece-e798-42f9-8516-ed0c74b7b517" d="M54.77,20.12a1,1,0,0,0-1,.76h0s.26-.59.75-.55-.6.16-.43.85a.64.64,0,0,0,1.1.25c.22-.27.26.58-.68.54a.91.91,0,0,0,.23,0,.94.94,0,1,0,0-1.88Z"/></g><path class="960bf324-4108-46fc-aa66-307b57918ded" d="M55.3,21.06a.54.54,0,1,1-.53-.51A.52.52,0,0,1,55.3,21.06Z"/><path d="M55.13,21.06a.36.36,0,1,1-.36-.34A.35.35,0,0,1,55.13,21.06Z"/><path class="c64e8821-7cba-46b1-8144-cf6fd06d7838" d="M55.54,20.76a.36.36,0,0,1-.72,0,.36.36,0,0,1,.72,0Z"/><path class="8b5f5444-854a-4685-8c06-68b2eab8afc6" d="M54,21s.12.82.83.71c.31-.05,0,.24-.39.14C53.8,21.72,53.8,20.83,54,21Z"/><path class="43e71ece-e798-42f9-8516-ed0c74b7b517" d="M45.93,21.33a1,1,0,1,1-1-.94A1,1,0,0,1,45.93,21.33Z"/><path class="b5e245af-efa4-4937-8589-d55b1869a3d0" d="M44.94,22.32a1,1,0,1,1,1-1A1,1,0,0,1,44.94,22.32Zm0-1.88a.9.9,0,1,0,.94.89A.92.92,0,0,0,44.94,20.44Z"/><g class="9d7f7ba8-b3ea-4cee-acb7-c4bcf917216a"><path class="43e71ece-e798-42f9-8516-ed0c74b7b517" d="M44.94,20.39a1,1,0,0,0-1,.76h0s.26-.59.75-.55-.6.16-.43.86a.64.64,0,0,0,1.1.25c.22-.28.25.57-.68.54l.23,0a.94.94,0,1,0,0-1.88Z"/></g><path class="960bf324-4108-46fc-aa66-307b57918ded" d="M45.47,21.33a.54.54,0,1,1-.53-.51A.52.52,0,0,1,45.47,21.33Z"/><path d="M45.3,21.33a.36.36,0,1,1-.36-.34A.35.35,0,0,1,45.3,21.33Z"/><path class="c64e8821-7cba-46b1-8144-cf6fd06d7838" d="M45.67,21a.36.36,0,0,1-.37.36.36.36,0,1,1,0-.71A.36.36,0,0,1,45.67,21Z"/><path class="8b5f5444-854a-4685-8c06-68b2eab8afc6" d="M44.13,21.29s.12.82.83.71c.31-.05,0,.24-.39.14C44,22,44,21.11,44.13,21.29Z"/><path class="f38da229-b178-4305-a198-71e1eb4a4186" d="M51.6,21.44a5.31,5.31,0,0,0,.47.51l.25.22a3.4,3.4,0,0,0,.3.23l.16.12.17.11c.11.08.24.13.36.2l.37.19.37.15.35.12.33.09a1.8,1.8,0,0,0,.27.07l.22.05.19,0H55l-.29,0-.34-.06L54,23.36l-.39-.14L53.2,23a3.6,3.6,0,0,1-.37-.22,2.85,2.85,0,0,1-.33-.25,3.79,3.79,0,0,1-.29-.26A1.79,1.79,0,0,1,52,22,2.25,2.25,0,0,1,51.6,21.44Z"/><path class="f38da229-b178-4305-a198-71e1eb4a4186" d="M47,21.93l-.11.14a2.68,2.68,0,0,1-.34.34l-.25.19a1.89,1.89,0,0,1-.3.19,4.19,4.19,0,0,1-.71.33l-.37.12-.38.08-.35.05a1.77,1.77,0,0,1-.32,0,3.63,3.63,0,0,1-.47,0l-.18,0,.18,0,.46-.08c.09,0,.2,0,.3-.06l.34-.08.36-.09.36-.12.35-.14a3.31,3.31,0,0,0,.33-.15l.31-.16.27-.16.38-.26Z"/><path class="f38da229-b178-4305-a198-71e1eb4a4186" d="M42.42,19.21a3,3,0,0,1,.32-.12l.33-.08.34-.05.34,0h.34l.34,0a3,3,0,0,1,.34.06l.34.09.32.12a31934809119966.19,31934809119966.19,0,0,1,.62.3l.29.19a2.83,2.83,0,0,1,.28.2l.27.21.26.23.24.23h0a2.68,2.68,0,0,1,.18.28c0,.05.05.09.07.15l.06.15a.88.88,0,0,1,0,.15.75.75,0,0,1,0,.16c0,.1,0,.21.06.31s0,.21,0,.32,0,.21,0,.32a3.2,3.2,0,0,1-.09.62,4.3,4.3,0,0,0,0-.62,4.2,4.2,0,0,0-.06-.62c0-.1,0-.2-.08-.3s0-.09,0-.14l-.06-.14-.06-.14L47.41,21a.83.83,0,0,0-.08-.12l-.08-.12h0L47,20.55l-.25-.22-.26-.2a2.22,2.22,0,0,0-.27-.19l-.28-.18c-.1-.06-.2-.1-.29-.16l-.3-.14L45,19.34l-.31-.1-.33-.07a3,3,0,0,0-.32-.06,1.84,1.84,0,0,0-.33,0h-.33l-.34,0a1.88,1.88,0,0,0-.33.05Z"/><path class="f38da229-b178-4305-a198-71e1eb4a4186" d="M50.38,22.47a2.31,2.31,0,0,1-.05-.43,4.62,4.62,0,0,1,0-.5c0-.09,0-.19,0-.3a2.44,2.44,0,0,1,.1-.33,2.5,2.5,0,0,1,.35-.69,2.55,2.55,0,0,1,.61-.62,3.52,3.52,0,0,1,.38-.24l.2-.12.21-.1a5.59,5.59,0,0,1,.89-.33l.46-.11c.16,0,.31-.06.47-.07a6.44,6.44,0,0,1,1.76,0l.39.07.36.1a5.38,5.38,0,0,1,.61.21c.17.08.33.15.45.22l.37.21-.39-.17-.46-.18L56.87,19a3,3,0,0,0-.32-.09l-.36-.07-.38-.05a7.33,7.33,0,0,0-.83,0,6.65,6.65,0,0,0-.88.07c-.15,0-.3,0-.45.07L53.2,19a6.8,6.8,0,0,0-.86.31,4.46,4.46,0,0,0-.77.43,2.59,2.59,0,0,0-.59.55,2.79,2.79,0,0,0-.37.64A3.55,3.55,0,0,0,50.37,22,3,3,0,0,0,50.38,22.47Z"/><path class="247f6145-3b09-4bce-978d-657661ee5100" d="M51.65,21.27a2.58,2.58,0,0,1,.21-.18,6.11,6.11,0,0,1,.6-.43,4.37,4.37,0,0,1,1.53-.6,4.07,4.07,0,0,1,.61,0,3.18,3.18,0,0,1,.62.07,2.63,2.63,0,0,1,.58.19l.25.13a1.82,1.82,0,0,1,.23.15,4.43,4.43,0,0,1,.39.31c.1.12.2.21.28.31l.19.26.15.23-.18-.2-.23-.23c-.08-.09-.19-.17-.3-.27l-.39-.27a1.71,1.71,0,0,0-.23-.13l-.24-.11a3.08,3.08,0,0,0-.54-.16,2.78,2.78,0,0,0-.58-.05,2.83,2.83,0,0,0-.58,0,4.88,4.88,0,0,0-.55.12c-.18.06-.35.11-.51.18l-.44.19c-.27.14-.49.26-.63.35Z"/><path class="247f6145-3b09-4bce-978d-657661ee5100" d="M52.2,21.27l.18.13a5.78,5.78,0,0,0,.52.27l.36.15.41.13.22.06.22,0a4.11,4.11,0,0,0,.47.07c.16,0,.32,0,.48,0l.45,0,.43-.05.38-.08a2.21,2.21,0,0,0,.32-.07l.25-.07.22-.06-.2.1-.24.11a1.83,1.83,0,0,1-.31.12,3.44,3.44,0,0,1-.38.11c-.14,0-.29.07-.44.09s-.32,0-.48,0a4.18,4.18,0,0,1-.5,0,4.13,4.13,0,0,1-.49-.07l-.24-.06-.22-.07a2.63,2.63,0,0,1-.42-.17,2.29,2.29,0,0,1-.35-.19,2.26,2.26,0,0,1-.28-.19,2,2,0,0,1-.2-.16A1,1,0,0,1,52.2,21.27Z"/><path class="247f6145-3b09-4bce-978d-657661ee5100" d="M42.25,21.12a1.13,1.13,0,0,0,.15.14,1.57,1.57,0,0,0,.19.15l.24.18a2.23,2.23,0,0,0,.3.2l.35.2.39.17a2.59,2.59,0,0,0,.42.14l.21.06.21,0a3,3,0,0,0,.42,0h.4a2,2,0,0,0,.35,0,2.51,2.51,0,0,0,.31-.05l.23-.05.2-.05-.19.09-.22.09a1.32,1.32,0,0,1-.3.1,1.9,1.9,0,0,1-.36.08,2,2,0,0,1-.42,0,2.26,2.26,0,0,1-.45,0l-.23,0-.23-.05c-.15,0-.29-.1-.43-.15s-.28-.14-.41-.2a2.93,2.93,0,0,1-.34-.24,3.67,3.67,0,0,1-.29-.23c-.09-.08-.16-.16-.22-.22a2.31,2.31,0,0,1-.16-.19A1.48,1.48,0,0,1,42.25,21.12Z"/><path class="247f6145-3b09-4bce-978d-657661ee5100" d="M42.43,21.09a.76.76,0,0,1,.16-.19,2.13,2.13,0,0,1,.53-.39l.4-.17.24-.06.25-.05a3,3,0,0,1,.53,0,1.22,1.22,0,0,1,.27,0h.13l.14,0a3.46,3.46,0,0,1,.53.14l.25.1.23.13.21.15.19.16.15.17.13.17a3,3,0,0,1,.19.33,2.49,2.49,0,0,1,.11.26,1.3,1.3,0,0,1,.06.24,1.55,1.55,0,0,0-.1-.22l-.15-.24a2.32,2.32,0,0,0-.21-.29,1.85,1.85,0,0,1-.14-.14l-.16-.15-.18-.14-.2-.13-.22-.11-.23-.09a3.67,3.67,0,0,0-.5-.11l-.12,0-.13,0h-.26a2.77,2.77,0,0,0-.5,0l-.46.07a3.76,3.76,0,0,0-.4.13l-.32.15-.23.16A1.5,1.5,0,0,0,42.43,21.09Z"/><path class="17b38599-9589-4a19-8065-c4fc5a3ee18a" d="M47.72,23.91a1.62,1.62,0,0,1,.06.32,3.25,3.25,0,0,1,0,.33c0,.13,0,.25,0,.39a2.35,2.35,0,0,1-.05.37c0,.12,0,.24-.08.33a2.33,2.33,0,0,1-.12.31,1.88,1.88,0,0,1,0-.33c0-.1,0-.21,0-.33a1.09,1.09,0,0,0,0-.18,1.34,1.34,0,0,0,0-.2,1.1,1.1,0,0,0,0-.18l0-.19a5.65,5.65,0,0,1,.1-.56Z"/><path class="17b38599-9589-4a19-8065-c4fc5a3ee18a" d="M47.27,25.61a.94.94,0,0,0-.15.18A.65.65,0,0,0,47,26a.27.27,0,0,0,.05.27,1.77,1.77,0,0,0,.32.22l.37.25a3.38,3.38,0,0,0,.41.24,1.79,1.79,0,0,0,.44.16.79.79,0,0,0,.43,0,1,1,0,0,0,.35-.26,3.58,3.58,0,0,1,.71-.5,1.46,1.46,0,0,1,.59-.2.48.48,0,0,1,.18,0l0,0h-.06a.53.53,0,0,0-.16,0,1.65,1.65,0,0,0-.53.27,4.84,4.84,0,0,0-.64.54,1.54,1.54,0,0,1-.41.32,1,1,0,0,1-.55.05,1.66,1.66,0,0,1-.5-.18,4.32,4.32,0,0,1-.42-.27c-.13-.09-.25-.19-.36-.28l-.16-.12a.81.81,0,0,1-.16-.16.36.36,0,0,1,0-.37.7.7,0,0,1,.15-.23.92.92,0,0,1,.14-.11Z"/><g class="9d7f7ba8-b3ea-4cee-acb7-c4bcf917216a"><path class="f41af3a3-4a39-4ffc-9f7c-a83756099e80" d="M52,21a4.68,4.68,0,0,0,5.29.62A3.56,3.56,0,0,0,52,21Zm3.81.95c-1.57.25-3.57-.53-3.06-1.06a2.66,2.66,0,0,1,2-.49C56.14,20.56,57.37,21.73,55.81,22Z"/></g><g class="9d7f7ba8-b3ea-4cee-acb7-c4bcf917216a"><path class="f41af3a3-4a39-4ffc-9f7c-a83756099e80" d="M45,20.33c-1.9-.19-2.43.88-2.43.88,2.31,2.47,4.48.72,4.48.72S46.85,20.52,45,20.33Zm.44,1.94c-1.86,0-2.81-1-2.24-1.31a2.57,2.57,0,0,1,2.08-.27C46.52,21,47.24,22.27,45.39,22.27Z"/></g><path class="201a1019-f31a-4bb4-84f8-acf0f0c8e3fb" d="M42.52,12.28Z"/><g class="5efb0312-9034-4f96-bfb5-c5a3f9113405"><path class="201a1019-f31a-4bb4-84f8-acf0f0c8e3fb" d="M60,5.88a27.64,27.64,0,0,0-13.3.72c3.3-.92,6-.64,4.41-.26s.68.23,5.3.23-1.82-1.09,2.05-.75,5.64,0,5.53,4.85S60.37,18.76,60.37,17s1.77-3.53.46-3.82,1.42-1.31,0-1.25-2.68.11-1.66-.63,1.66-1.65-2.39-.85-4.84-1.25-4.84-1.25-.4.91,1.42,3c-2-.51-1.94-3.08-2.11-3A3.89,3.89,0,0,0,50.87,13C49,11.71,50.8,8.67,49.66,9.3a3.34,3.34,0,0,0-2,3.19,3.69,3.69,0,0,0,3,3.87c-5.3.12-5.19-5.92-2.45-8.26-3.31.74-3.65,3.54-4.85,3.54s-2.73-.29-1.65.74,0,2-1.88,1.08a2.72,2.72,0,0,1-1.27-1.94,4.94,4.94,0,0,0,.66,3.53,22.13,22.13,0,0,1,2,7.37c0,.35.07.7.11,1v-.06c.2-1.71-.91-7.67,2.62-10.25-1.11-.73-1.32-.86-1.36-.88h0a5.58,5.58,0,0,1,2.54-.07c-.15,2.2,2.09,7,6.42,4.14A2.67,2.67,0,0,0,53.72,14a1.71,1.71,0,0,1-1.29.8,2.42,2.42,0,0,0,1.45-1.52,5.56,5.56,0,0,0,.95-1,2.65,2.65,0,0,0,1.51-.72,12.17,12.17,0,0,1,1.87-.23,8.79,8.79,0,0,1-1.79.8,5.5,5.5,0,0,1,2.13.42c-1,.07-1.14.26-1.14.26a2.44,2.44,0,0,1,2.05,2.3,74.74,74.74,0,0,1-.38,8.68s1.1-4.25,2.66-2.52a16.27,16.27,0,0,0,2.45-7.92C64.53,8.33,65,6.68,60,5.88Z"/></g><path class="e4b80c7d-8ca5-453a-b0fc-526039e245e4" d="M49.49,11.12s-1.43,4.11,3,4C51.08,16.25,46.47,14.94,49.49,11.12Z"/><path class="e4b80c7d-8ca5-453a-b0fc-526039e245e4" d="M51.25,10.5s0,1.93,2.28,2C52.39,13.35,50.57,13,51.25,10.5Z"/><path class="2fd1bf26-e5d8-4b25-83c4-01bb4d7b4e96" d="M51.63,7.5s.26,3.11,5,2.07S62.3,8.87,61,10s-.52.93.69.11,1.17-.06.65,1.51,1,.58,1-1.74-2.56-3.32-3.95-3.32,2.09.53.06.59-5.47.29-4,.75-.35,1.74-2.4.15C51.46,6.71,51.58,7.09,51.63,7.5Z"/><path class="2fd1bf26-e5d8-4b25-83c4-01bb4d7b4e96" d="M47.38,7a8.2,8.2,0,0,0-3.84,1.6c-1.71,1.38-1.12.64-.52.12s-1.31.41-2.65,1.45S38.66,12,40.3,12.73s.67-.26.26-1.27.48-.59,1.53-.48,1.23-.82,3.54-2.35S49.77,7,47.38,7Z"/><path class="2fd1bf26-e5d8-4b25-83c4-01bb4d7b4e96" d="M48.85,9.09a4.9,4.9,0,0,0-1.37,5.35A3.25,3.25,0,0,1,48.85,9.09Z"/><path class="247f6145-3b09-4bce-978d-657661ee5100" d="M42.48,20.37a1.07,1.07,0,0,1,.19-.09,3.73,3.73,0,0,1,.52-.18l.36-.08.2,0L44,20h.44c.15,0,.31,0,.46.06a3.15,3.15,0,0,1,.44.11l.22.08.19.1.19.1.16.13.16.11a1.59,1.59,0,0,0,.13.13c.07.08.15.16.2.23l.14.2.11.17-.14-.14s-.1-.11-.17-.17-.15-.12-.23-.19l-.14-.11L46,20.68l-.16-.1-.19-.09-.18-.08-.21-.07a2.73,2.73,0,0,0-.41-.1l-.43-.06c-.15,0-.29,0-.43,0h-.39l-.36,0c-.22,0-.4.06-.53.1Z"/><path class="247f6145-3b09-4bce-978d-657661ee5100" d="M52.15,20.91a1.52,1.52,0,0,1,.15-.17,3,3,0,0,1,.44-.42,2.75,2.75,0,0,1,.33-.23,3.78,3.78,0,0,1,.4-.22,1.57,1.57,0,0,1,.23-.09l.23-.08.25-.06.25,0,.26,0h.38l.12,0,.24.05a.79.79,0,0,1,.22.06l.21.08a2.55,2.55,0,0,1,.37.18,2.43,2.43,0,0,1,.29.19l.21.16.17.14-.2-.1-.23-.13a1.68,1.68,0,0,0-.3-.14L56,20,55.81,20l-.21-.06-.21-.05-.23,0-.11,0h-.36a.93.93,0,0,0-.23,0l-.24,0-.23.05-.44.14c-.14.07-.27.12-.39.19s-.24.13-.35.19a5.86,5.86,0,0,0-.48.34Z"/><path class="bd25141f-ae0a-4381-9991-ba894bb66402" d="M44.19,18.59s3.7.68,3.93,2.79.63,1.77.68.57,1.43-3.14,4.05-3.7-.56-.52-3.42,1.19c-1.14.69-1.48-.4-3.82-1.08S43,18.36,44.19,18.59Z"/><path class="544ee4e0-772c-4885-a7cc-66a6aed9c0f0" d="M48,23.94A19.59,19.59,0,0,1,47.87,26C47.76,26.68,48.56,25.54,48,23.94Z"/><g class="3bff8028-b7dc-4d18-aaa9-b192a5894b4e"><path class="3dc87cb0-4f09-4572-831a-c536830b6c0a" d="M61.74,21.27c-1.56-1.73-2.66,2.52-2.66,2.52a74.74,74.74,0,0,0,.38-8.68,2.44,2.44,0,0,0-2.05-2.3s.11-.19,1.14-.26a5.5,5.5,0,0,0-2.13-.42,8.79,8.79,0,0,0,1.79-.8,12.17,12.17,0,0,0-1.87.23,2.65,2.65,0,0,1-1.51.72,5.56,5.56,0,0,1-.95,1,2.42,2.42,0,0,1-1.45,1.52,1.71,1.71,0,0,0,1.29-.8,2.67,2.67,0,0,1-2.24,2.4c-4.33,2.81-6.57-1.94-6.42-4.14a5.58,5.58,0,0,0-2.54.07s.25.15,1.36.88c-3.53,2.58-2.42,8.54-2.62,10.25v.06c.39,3.93.94,7.4,4.29,8.82,1.42,1.85,4.81,2.31,6.36,1.34,2-.29,5.94-2.84,6.74-5.94a1.28,1.28,0,0,0,1.09-1,11.21,11.21,0,0,1,1.6-3.53A2.26,2.26,0,0,0,61.74,21.27Zm-3.08-3.39c-.08,2.77.4,9.2-1.77,11.76-1.85,2.2-4.09,3.61-3.72,2.8s-1.26,1.46-3.86,1.22a6,6,0,0,1-4.07-2.44s-.12-.32-.08.24-4.6-2.19-2.85-13c0,0,.8-5.42,2.12-3.63.94,1.27,2.11,3.7,6.1,2.68S54,14,55.37,13.53,58.74,15.11,58.66,17.88Z"/></g><path class="17b38599-9589-4a19-8065-c4fc5a3ee18a" d="M60.87,22.62a1.27,1.27,0,0,0,0-.25,1,1,0,0,0,0-.29.28.28,0,0,0-.49-.21.73.73,0,0,0-.23.37,2.1,2.1,0,0,0-.06.51,3.25,3.25,0,0,0,0,.54l0,.27c0,.1,0,.19,0,.28a.75.75,0,0,1,0,.15.77.77,0,0,1,0,.15.34.34,0,0,1,0,.14.6.6,0,0,1-.09.13,2.23,2.23,0,0,1-.43.28l0,0h0l-.05,0a.23.23,0,0,0-.07.07,1,1,0,0,0-.13.16,2.58,2.58,0,0,0-.26.6c0,.15-.06.25-.06.25a1.56,1.56,0,0,1,0-.26,2,2,0,0,1,.19-.65,2.14,2.14,0,0,1,.13-.19l.09-.09,0,0h0l0,0a3,3,0,0,0,.39-.28.62.62,0,0,0,.1-.44,2.65,2.65,0,0,0,0-.27l0-.28A3,3,0,0,1,60,22.19a.77.77,0,0,1,.31-.44.34.34,0,0,1,.12-.06l0,0h.07a.4.4,0,0,1,.25,0,.3.3,0,0,1,.13.19.63.63,0,0,1,0,.19,1.23,1.23,0,0,1,0,.29A2.09,2.09,0,0,1,60.87,22.62Z"/><path class="17b38599-9589-4a19-8065-c4fc5a3ee18a" d="M60.59,23.66a.64.64,0,0,1-.11-.09l-.09-.08,0,0h-.1s0,0,0,0l-.05,0-.11.09v0a.45.45,0,0,1,0-.11l0-.07,0-.07a.17.17,0,0,1,.08-.06.2.2,0,0,1,.13,0,.39.39,0,0,1,.11.06.2.2,0,0,1,.06.07.42.42,0,0,1,.06.14A.38.38,0,0,1,60.59,23.66Z"/><path class="8b5f3c09-e30e-4193-881d-7aa1c979128e" d="M46.68,49.84c-1.72,0-2.29.15-1-.28s2.86-.86,1.72-3.15C46,44,39.46,40.18,36.87,42.58c-2,1.82-.95,6.66-.51,9,1,5.3,7.74,7.6,9.75,5S48.4,49.84,46.68,49.84Z"/><path class="8b5f3c09-e30e-4193-881d-7aa1c979128e" d="M56.77,42.91s-7,1-8.34,5.63c-.36,2.19.88,2.78,2.49,3.73s.07.36-1.46-.37-2.19,2.41-.22,4.75,7.82,2.78,11,.81S68.47,39.91,56.77,42.91Z"/><path class="4766bda9-dc41-4886-a78c-5d713ff6fe92" d="M48.33,61.21s-.55,2.21-4.7,2.15c.93.12,4.23.75,4.35,2.72,0,0,1.72-2.55,4.45-2.55C49,63.53,48.21,62.14,48.33,61.21Z"/><path class="450cb381-4615-442c-862d-93dd8f4bc9f8" d="M48.17,62.54s-.25,1-2.13,1c.42,0,1.92.34,2,1.23a2.72,2.72,0,0,1,2-1.16C48.45,63.59,48.12,63,48.17,62.54Z"/><path class="4766bda9-dc41-4886-a78c-5d713ff6fe92" d="M47.79,67.77s-.51,1.81-3.73,1.58c.72.09,3.37.66,3.46,2.19a5.49,5.49,0,0,1,3.71-2C48.45,69.38,47.7,68.49,47.79,67.77Z"/><path class="450cb381-4615-442c-862d-93dd8f4bc9f8" d="M47.71,68.77s-.24.85-1.73.74c.33,0,1.57.31,1.61,1a2.54,2.54,0,0,1,1.73-.94C48,69.53,47.67,69.11,47.71,68.77Z"/><path class="8b5f3c09-e30e-4193-881d-7aa1c979128e" d="M56.77,42.91s-7,1-8.34,5.63c-.36,2.19.88,2.78,2.49,3.73s.07.36-1.46-.37-2.19,2.41-.22,4.75,7.82,2.78,11,.81S68.47,39.91,56.77,42.91Z"/><path class="8b5f3c09-e30e-4193-881d-7aa1c979128e" d="M46.68,49.84c-1.72,0-2.29.15-1-.28s2.86-.86,1.72-3.15C46,44,39.46,40.18,36.87,42.58c-2,1.82-.95,6.66-.51,9,1,5.3,7.74,7.6,9.75,5S48.4,49.84,46.68,49.84Z"/><g class="9d7f7ba8-b3ea-4cee-acb7-c4bcf917216a"><path class="2a29ce53-7983-4cb0-b0bb-4830a998dbbb" d="M31.65,59.68a25.27,25.27,0,0,1-1.26-5,41,41,0,0,0,.08,4.86s-.36.57-.85,1.5A4.61,4.61,0,0,1,31.65,59.68Z"/></g><g class="9d7f7ba8-b3ea-4cee-acb7-c4bcf917216a"><path class="2a29ce53-7983-4cb0-b0bb-4830a998dbbb" d="M31.81,47.83a5.33,5.33,0,0,1-.42-.4s0,0,0,.06c-.09.35-.17.7-.25,1A6.31,6.31,0,0,1,31.81,47.83Z"/></g><g class="9d7f7ba8-b3ea-4cee-acb7-c4bcf917216a"><path class="247f6145-3b09-4bce-978d-657661ee5100" d="M68,109.07c-.12-.24-.22-.49-.32-.74,0,3.08.4,6.3-3.11,6-4-.37-4.85-4.12-7.39-10.18s-8.73-16.85-5.94-20.36c2.32-2.93,8.25-4.93,10.17-5.52-.23-.52-.37-.81-.37-.81A42.81,42.81,0,0,0,54.74,80c-4.91,2.24-6.09,3.7-6.31,5.36-.92.22-2.53-.15-4.55-3a20.46,20.46,0,0,0-7.09-6.14s-.12.31-.32.87a10.16,10.16,0,0,1,5.33,4.07c2.54,3.88,5,4.61,4.48,7.88s-3.51,9-5.81,16S39,117.47,36.1,117.35a7.72,7.72,0,0,1-4.79-2.16c-.45,2.94-.68,6-.68,6l9.68.91a46,46,0,0,0-.56-7.18c-.46-4.79,1.61-9,4.21-14.81,2.85-6.39,4.56-11.4,4.9-13.57,2.51,7.41,6.27,15.16,9.57,22,1.6,3.08,1.83,7.52,2.51,10.37l9.23-3.53A22.34,22.34,0,0,0,68,109.07Z"/></g><path class="bd25141f-ae0a-4381-9991-ba894bb66402" d="M35.08,85.19s-3.26,12.65-2.74,20.47c.65,6.53,2.48,2.22,4.83-3.91S38.34,76.45,35.08,85.19Z"/><path class="bd25141f-ae0a-4381-9991-ba894bb66402" d="M63,86.49s1.83,3.26,2.22,11.87.65,11.87-.52,12-5-9.26-4.83-14.87S61,82.06,63,86.49Z"/><path class="bd25141f-ae0a-4381-9991-ba894bb66402" d="M31.52,43.13a5.54,5.54,0,0,0,.4,3.76c1,1.84,1.68.08,1.52-2.32S31.84,40.64,31.52,43.13Z"/><path class="bd25141f-ae0a-4381-9991-ba894bb66402" d="M31.36,49.46a15.65,15.65,0,0,0-.4,7c.72,3.6,3.45,2.4,3.37-1.37S32.4,47,31.36,49.46Z"/><path class="bd25141f-ae0a-4381-9991-ba894bb66402" d="M31.78,60.13s-1.06.28-2,2,2.22,1.22,3,.06S33.05,59.52,31.78,60.13Z"/><path class="11bed727-124f-4a25-8562-2bf9fd5f9d12" d="M41.61,34.62a43.71,43.71,0,0,0,8.5,7.52c3.8-2.36,9.58-5.78,12.46-6s5.62.15,7.6,1.9,1.9,3,1.9,3-9.72-1.37-22.33,2.73C40.31,40.39,36.22,39.1,34.24,38s1.16-3.61,4.21-2.26C39.25,36.24,40.61,33.75,41.61,34.62Z"/><path class="8e7eee16-f1ae-4e9c-baeb-4f904d40d692" d="M41.45,34.68A38,38,0,0,0,50,42.22a.23.23,0,0,0,.24,0C52.12,41,54,39.87,56,38.81a25.32,25.32,0,0,1,5.56-2.4,10.65,10.65,0,0,1,7.09.77c1.2.6,3.29,2.26,3.23,3.84l.23-.12a33.36,33.36,0,0,0-5.38-.21,59.53,59.53,0,0,0-13,1.79q-1,.26-2,.54c-.6.17-1.64.72-2.25.5-1.33-.48-2.66-.94-4-1.41l-5.75-2c-1.26-.45-2.52-.9-3.76-1.4-.78-.32-2.6-.85-2.08-2a2.86,2.86,0,0,1,2.18-1.21,8.16,8.16,0,0,1,2.51.42c1,.14,1.86-2,2.88-1.24.09.07.39-.07.26-.17a1.07,1.07,0,0,0-1.14-.05c-.49.21-1.47,1.44-2,1.21a4.46,4.46,0,0,0-4.41.39c-1,.78-.84,1.65.24,2.2A27.58,27.58,0,0,0,37,39.36c3.64,1.38,7.33,2.6,11,3.89a7.64,7.64,0,0,0,1.68.59,5.5,5.5,0,0,0,1.45-.44q2.12-.63,4.26-1.11a59.49,59.49,0,0,1,7.39-1.17,40.22,40.22,0,0,1,9.24,0c.06,0,.22,0,.23-.12a3.64,3.64,0,0,0-1-2.12,8,8,0,0,0-4.67-2.67c-3.34-.68-6.24.25-9.19,1.7-1.68.83-3.31,1.76-4.91,2.71-.75.44-1.49.9-2.23,1.35-.36.23-2.43-1.63-2.73-1.87a44,44,0,0,1-5.72-5.53C41.68,34.45,41.36,34.58,41.45,34.68Z"/><g class="5efb0312-9034-4f96-bfb5-c5a3f9113405"><path class="f6686f99-ad7f-4df4-8f01-4e6248b7ad60" d="M70.17,38a6.94,6.94,0,0,0-2.38-1.38,8.38,8.38,0,0,1-4,1.45c-1.43,0-2.29,1.93-4.13,2.52s-2.47,0,0-.94,2.33-1.26.49-.77-6.24,2.07-3.91.68a29.87,29.87,0,0,1,6.92-3.5l-.54,0c-2.88.22-8.66,3.64-12.46,6a43.71,43.71,0,0,1-8.5-7.52.78.78,0,0,0-.92-.07c3.49,3.77,6.5,6.7,3.24,5.05s-6-2.74-4.35-1.68c2.57,1.67,7.26,4,3.48,2.61-2.78-1-7.18-2.91-9.29-3.83A.91.91,0,0,0,34.24,38c2,1.06,6.07,2.35,15.5,5.69C62.35,39.63,72.07,41,72.07,41S72.15,39.78,70.17,38Z"/></g><path class="8e7eee16-f1ae-4e9c-baeb-4f904d40d692" d="M39.77,37.7l1.27.64L42.3,39l2.52,1.31,2.51,1.32,1.25.67,1.25.67-.09.2-2.11-.8-2.11-.82-2.11-.82-2.1-.84,2.13.75,2.13.76c.71.26,1.42.51,2.13.78l2.12.79-.09.19-1.26-.66-1.24-.68-2.5-1.35-2.48-1.37L41,38.4Z"/><path class="8e7eee16-f1ae-4e9c-baeb-4f904d40d692" d="M49.78,43.06l.46-.21c.3-.13.72-.33,1.24-.54s1.11-.46,1.76-.71l2-.75c.7-.24,1.4-.46,2.07-.66l.49-.15.48-.12.87-.21.39-.09.36-.06a5.58,5.58,0,0,1,.58-.09l.51-.06-.5.1c-.16,0-.35.08-.57.13l-.35.08-.39.11-.86.25-.95.3c-.66.2-1.36.44-2.06.69s-1.4.48-2,.72l-1.79.64Z"/><path class="21d0e90a-1340-45c7-a451-0a1162a6656e" d="M37.29,153.23c-1.71,1-2.27.34-4.44,1.76-2.28,1.83-4.79,4.22-12.88,4.33-5.31-.19-7.6-1.12-8.59-1.89a2,2,0,0,0-.12.75c.05,1.49,4.44,2.25,7,2.28,4.33.06,10,.17,13.56-2.9,1.65-1.43,3.42-2.57,4.44-2.62A6.7,6.7,0,0,0,39.57,153a6.25,6.25,0,0,0,0-1.71A5.68,5.68,0,0,1,37.29,153.23Z"/><path class="1d76baef-58f9-4428-bf8d-73ebc1f491a0" d="M40.24,117.05a6.9,6.9,0,0,1-4.75,1.17,6.62,6.62,0,0,1-4.67-2.43s-1.22,4.56-.7,14.42.56,14.13-.4,15.21-.4,1.37-.92,1.54a4.51,4.51,0,0,0-2.05,1.71c-1,1.19-3,3-8.71,4.62-4.21,1.24-6.17,2.8-6.66,4.14,1,.77,3.28,1.7,8.59,1.89,8.09-.11,10.6-2.5,12.88-4.33,2.17-1.42,2.73-.74,4.44-1.76a5.68,5.68,0,0,0,2.23-1.94,10,10,0,0,0-1.37-3.93c-.74-1-.8-.63-.29-1.6s-.85-.51-.79-1.54c0-1.42,1.82-8.43,3.42-16.29S40.24,117.05,40.24,117.05Z"/><path class="07b09052-cba1-4e25-8d2a-60988e3cddd0" d="M40.09,117.06c-2.54,2.08-7.19,1.28-9.11-1.31-.05-.07-.3,0-.32.07a26.89,26.89,0,0,0-.68,5.06,130.5,130.5,0,0,0,.23,14.8c.07,1.88.13,3.77.09,5.65A13.31,13.31,0,0,1,30,144.6a2.1,2.1,0,0,1-.36.79,3.59,3.59,0,0,0-.59.9c-.17.41-.08.52-.54.74-1.18.56-1.84,1.76-2.79,2.61-2.41,2.16-5.69,2.93-8.68,3.91-2,.66-4.93,1.75-5.78,3.91,0,0,0,0,0,0a8.2,8.2,0,0,0,3,1.24,24.93,24.93,0,0,0,6.38.65,19.59,19.59,0,0,0,9.89-2.5c1.14-.71,2.1-1.7,3.28-2.34a13.83,13.83,0,0,1,2.54-.78,8,8,0,0,0,2.39-1.37,3.71,3.71,0,0,0,.74-.74c.36-.48.22-.75.09-1.34a7.61,7.61,0,0,0-1.21-3c-.21-.27-.69-.63-.56-1s.41-.58.4-.89c0-.58-.88-.5-.91-1.22a9.69,9.69,0,0,1,.32-2.07c.25-1.26.54-2.52.82-3.78.81-3.59,1.63-7.17,2.35-10.78a24.6,24.6,0,0,0,.42-8A7,7,0,0,0,40.4,117c0-.08-.36,0-.33.09,1,1.62.94,4,.89,5.8a45.38,45.38,0,0,1-1.29,8.18c-.54,2.53-1.12,5.05-1.68,7.58-.37,1.61-.76,3.23-1,4.86a2,2,0,0,0,0,1.22c.1.19.35.28.53.37.5.25.13.75-.06,1.11-.32.59.43,1,.72,1.52a7,7,0,0,1,.63,1.46c.19.53.73,1.8.4,2.33a6.1,6.1,0,0,1-3.32,2.23,14,14,0,0,0-2.12.63,21.9,21.9,0,0,0-3.2,2.24,13.93,13.93,0,0,1-4.49,1.95,24.69,24.69,0,0,1-8,.57A17.61,17.61,0,0,1,12.64,158c-.17-.07-1.15-.47-1.05-.72A4.22,4.22,0,0,1,13,155.62c2-1.56,4.6-2.09,7-2.88a20.72,20.72,0,0,0,4.91-2.29A14.65,14.65,0,0,0,27.51,148a4.23,4.23,0,0,1,1-.82,3.28,3.28,0,0,0,.54-.24.79.79,0,0,0,.22-.51,2.54,2.54,0,0,1,.65-1.06,3.78,3.78,0,0,0,.54-1.77,52,52,0,0,0,0-9.42,120.27,120.27,0,0,1-.15-13.56,26.77,26.77,0,0,1,.66-4.81l-.33.07A7.31,7.31,0,0,0,40.39,117C40.46,117,40.15,117,40.09,117.06Z"/><g class="5efb0312-9034-4f96-bfb5-c5a3f9113405"><path class="21d0e90a-1340-45c7-a451-0a1162a6656e" d="M40.49,127.93c1.59-7.87-.25-10.88-.25-10.88a6.9,6.9,0,0,1-4.75,1.17,6.62,6.62,0,0,1-4.67-2.43s0,.16-.11.47a8.44,8.44,0,0,0,5.74,2.9c4.69.38,1.6,1.84,1.79,6.26.14,3.58-1.42,16.4-2.39,18.56s-1.12,1.57.15,1.42.74,1.19-.15,2.38.89-.22,1.49-.15,1.79,4.62-2.76,5.15c-3.2.44-5.51,4.77-13.41,5.51a46,46,0,0,1-7.33.24,27.05,27.05,0,0,0,6.13.79c8.09-.11,10.6-2.5,12.88-4.33,2.17-1.42,2.73-.74,4.44-1.76a5.68,5.68,0,0,0,2.23-1.94,10,10,0,0,0-1.37-3.93c-.74-1-.8-.63-.29-1.6s-.85-.51-.79-1.54C37.07,142.8,38.89,135.79,40.49,127.93Z"/></g><g class="94536072-878b-415d-8dfc-601f17f2c0be"><path class="8a6319c6-6336-4651-a83f-39bf8b6ca11e" d="M16.3,154.89c2.38-.79,6.34-.86,9.29-3.17s3.1-3.82,4.33-3.82,2,.36,1.29-.36-1.08-.57-.21-1.8,1.15-4.75.79-10.73,1.15-12-.21-14.48a8.82,8.82,0,0,1-.84-4.41c-.25,1.19-1.06,5.74-.62,14.09.51,9.86.56,14.13-.4,15.21s-.4,1.37-.92,1.54a4.51,4.51,0,0,0-2.05,1.71c-1,1.19-3,3-8.71,4.62-4.21,1.24-6.17,2.8-6.66,4.14a6.29,6.29,0,0,0,1.92.94C12.13,156.74,14.61,155.45,16.3,154.89Z"/></g><g class="5efb0312-9034-4f96-bfb5-c5a3f9113405"><path d="M39.52,151.29a5.68,5.68,0,0,1-2.23,1.94c-1.71,1-2.27.34-4.44,1.76-2.28,1.83-4.79,4.22-12.88,4.33-5.31-.19-7.6-1.12-8.59-1.89a2,2,0,0,0-.12.75c0,.61.76,1.09,1.79,1.45.1-.33.42-.6,1.3-.47,2,.27,6.91.9,10.45.36,1.66-.26,2.42-.11,2.77.19a10.7,10.7,0,0,0,4.2-2.15c1.65-1.43,3.42-2.57,4.44-2.62A6.7,6.7,0,0,0,39.57,153,6.25,6.25,0,0,0,39.52,151.29Z"/></g><path class="a21b30d5-cb24-49bd-a7fe-26fd786a162b" d="M72.15,152a.59.59,0,0,1,0-.15.58.58,0,0,1,0-.16c0-.07,0-.14.08-.22a3.12,3.12,0,0,1,.27-.5c0-.09.11-.18.17-.27a2.56,2.56,0,0,1,.2-.26c.08-.09.14-.18.22-.26l.22-.22.22-.21.21-.16a4,4,0,0,1,.45-.32s-.14.17-.36.41l-.18.19c-.06.07-.12.15-.19.22l-.21.24-.2.25-.21.25-.18.25-.17.24-.15.21c-.08.14-.16.26-.2.34A.92.92,0,0,0,72.15,152Z"/><path class="a21b30d5-cb24-49bd-a7fe-26fd786a162b" d="M80.88,148.19l.23.06c.14.05.35.1.59.19s.53.18.83.31l.45.19.46.23.46.24.42.26c.14.08.26.18.39.27s.22.18.32.26a2,2,0,0,1,.25.25,2.59,2.59,0,0,1,.18.21,2.07,2.07,0,0,1,.13.19l-.16-.16a1.37,1.37,0,0,0-.21-.18L85,150.3c-.21-.14-.46-.3-.73-.46l-.21-.12-.22-.12-.45-.23-.45-.23-.44-.21-.79-.37Z"/><path class="1d76baef-58f9-4428-bf8d-73ebc1f491a0" d="M86.86,155A8.77,8.77,0,0,0,85,150.09c-1.15-1.14-1.37-1.9-4.26-5.09s-2.51-4.25-3.19-4.78.38-1-.53-2-2.2-4.63-3.65-10.48-1.44-11-3.57-14.28c-2.66,3.57-9.65,2.5-9.65,2.5,1.07,7.22,5.4,14.28,7.45,19.53s3.26,7.29,3,7.59-.38.53.07.76,1.52,6,1.45,7.83a13.22,13.22,0,0,0-.05,3.23,12.1,12.1,0,0,0,7.64,2.54C84.92,157.63,86.22,156.36,86.86,155Z"/><path d="M87,155a9,9,0,0,0-2.32-5.42c-.92-1-1.7-2.18-2.59-3.23a22.56,22.56,0,0,1-3.75-5,9.9,9.9,0,0,0-.44-.93c-.12-.19-.32-.3-.44-.5s.09-.77.05-1.06c-.05-.48-.66-1-.9-1.44a16.39,16.39,0,0,1-.87-2,66.85,66.85,0,0,1-2-6.65c-.67-2.64-1.13-5.31-1.58-8a24.28,24.28,0,0,0-1.69-6.33,8.41,8.41,0,0,0-.57-1c0-.08-.26,0-.3.07-2.07,2.65-6.3,2.88-9.39,2.42-.07,0-.29,0-.27.13.79,5.17,3,9.93,5.26,14.62,1.76,3.75,3.32,7.6,4.93,11.42a3.72,3.72,0,0,1,.32.92c0,.16-.16.33-.23.47s.23.39.35.52a3.72,3.72,0,0,1,.47,1.42c.21.85.36,1.7.51,2.56a20.52,20.52,0,0,1,.28,5.13,9.15,9.15,0,0,0,0,1.57c0,.4.24.47.55.7a10.15,10.15,0,0,0,2,1.14,16.29,16.29,0,0,0,9.06.83A4.58,4.58,0,0,0,87,155c0-.08-.28,0-.33.05a4.1,4.1,0,0,1-3,2.07,16.23,16.23,0,0,1-7.89-.38,11.45,11.45,0,0,1-2.38-1,9.2,9.2,0,0,1-1-.66c-.55-.43-.3-1.7-.25-2.3a19.27,19.27,0,0,0-.28-4.67,15.12,15.12,0,0,0-1-4.1c-.08-.18-.41-.41-.4-.57s.22-.26.23-.45a2.56,2.56,0,0,0-.27-.88c-1.55-3.77-3.12-7.57-4.86-11.25-2.25-4.78-4.57-9.62-5.38-14.89l-.27.13c3.26.48,7.72.21,9.9-2.59l-.3.06a17.29,17.29,0,0,1,2,6.15c.48,2.6.84,5.2,1.45,7.77a71,71,0,0,0,2,7.19,12.17,12.17,0,0,0,1.59,3.52c.33.43.56.7.46,1.25a.84.84,0,0,0,0,.71,10.24,10.24,0,0,1,.63.9,15,15,0,0,0,2.71,4c1.17,1.31,2.27,2.68,3.36,4.07.32.41.68.79,1,1.17a7.64,7.64,0,0,1,1.55,3.54,8.48,8.48,0,0,1,.18,1.23C86.71,155.18,87,155.11,87,155Z"/><path class="21d0e90a-1340-45c7-a451-0a1162a6656e" d="M79.74,157.46a12.1,12.1,0,0,1-7.64-2.54,3.66,3.66,0,0,0,2.63,2.85c5,1.74,11.7,1,12.08-1.22a6.28,6.28,0,0,0,0-1.51C86.22,156.36,84.92,157.63,79.74,157.46Z"/><g class="5efb0312-9034-4f96-bfb5-c5a3f9113405"><path class="21d0e90a-1340-45c7-a451-0a1162a6656e" d="M86.32,152.47c.16,1.64-.58,3-3.2,3.17-4.6.24-9.08-.12-9.21-4.61s-1.57-7.15-.48-8,1.94-1-.49-1.34-.24-5.45-2.06-6.54-2.78-3.39-3.63-7.76S62,118,65.92,116.86a7.3,7.3,0,0,0,4.1-3c-.07-.13-.15-.25-.23-.37-2.66,3.57-9.65,2.5-9.65,2.5,1.07,7.22,5.4,14.28,7.45,19.53s3.26,7.29,3,7.59-.38.53.07.76,1.52,6,1.45,7.83a13.22,13.22,0,0,0-.05,3.23,12.1,12.1,0,0,0,7.64,2.54c5.18.17,6.48-1.1,7.12-2.42A10.14,10.14,0,0,0,86.32,152.47Z"/></g><g class="94536072-878b-415d-8dfc-601f17f2c0be"><path class="8a6319c6-6336-4651-a83f-39bf8b6ca11e" d="M69.55,118.31c-.36,3.28.85,7,2.67,11.88s4.48,8.48,4,9.21-1.09,1.21,0,1.33,1.69,3.15,2.3,4.25-.12,3.75,2.3,3.63a7.51,7.51,0,0,1,4.38,1.73l-.21-.25c-1.15-1.14-1.37-1.9-4.26-5.09s-2.51-4.25-3.19-4.78.38-1-.53-2-2.2-4.63-3.65-10.48-1.44-11-3.57-14.28l-.05,0A37.62,37.62,0,0,1,69.55,118.31Z"/></g><g class="5efb0312-9034-4f96-bfb5-c5a3f9113405"><path d="M86.81,156.55a6.28,6.28,0,0,0,0-1.51c-.64,1.32-1.94,2.59-7.12,2.42a12.1,12.1,0,0,1-7.64-2.54,3.66,3.66,0,0,0,2.63,2.85l.21.07c.09-.3.37-.49,1-.34,1.8.42,5.52.83,7.73.14,1.17-.37,1.85-.3,2.24,0A1.7,1.7,0,0,0,86.81,156.55Z"/></g><g class="94536072-878b-415d-8dfc-601f17f2c0be"><path class="11bed727-124f-4a25-8562-2bf9fd5f9d12" d="M39.44,36.76c1.5.73,4.23,2.49,2.25,1S39.59,36,40,35.5a1.27,1.27,0,0,0,.25-.7c-.67.49-1.35,1.25-1.82,1a4.34,4.34,0,0,0-3.5,0A9.26,9.26,0,0,1,39.44,36.76Z"/></g><g class="94536072-878b-415d-8dfc-601f17f2c0be"><path class="11bed727-124f-4a25-8562-2bf9fd5f9d12" d="M62.28,37.24c-2.24,1.55,1.83-.54,5-.77a13,13,0,0,0-3.89-.38C63.26,36.39,63,36.77,62.28,37.24Z"/></g><g class="5efb0312-9034-4f96-bfb5-c5a3f9113405"><path class="247f6145-3b09-4bce-978d-657661ee5100" d="M65,38.42,49.13,43.28l-14.92-6a6.16,6.16,0,0,0-2.91,4.12l0,0s1.21-1.46,2.34,1.13,1.29,4.83.73,5.4c.89,1.29,2.66,8.87,1,11.13.88,4.11-1.21,9.84-2.74,7.09S30,63.47,29,64.44a3.28,3.28,0,0,1-1.13.69c-.21.63-.39,1.27-.54,1.93l6.3,2.8s3.23-5.1,4.25-9.27c.25,6.47,1,8.93,1,8.93l-.26,1.79c.24,0,.49.14.92.42,0,0-1.08-2.14,1.27-2.51-1.61-1.48-2.47-5.31.61-5.8-2.59-1.85.14-6.48,6.67-3.42,5.4-2.09,11.32.58,7.37,3.49,2.84.86,4.44,4.67-1.08,6.35,4.2.37,3.69,3.29,3.69,3.29.51-.13,1-.25,1.57-.4.1-2.76.05-3.31.7-5S63.9,61,64.7,58.19,65,38.42,65,38.42ZM46.11,56.58c-2,2.58-8.74.28-9.75-5-.44-2.32-1.45-7.16.51-9C39.46,40.18,46,44,47.4,46.41c1.14,2.29-.43,2.72-1.72,3.15s-.72.28,1,.28S48.11,54,46.11,56.58Zm14.17.88c-3.22,2-9.07,1.53-11-.81s-1.32-5.48.22-4.75,3.07,1.32,1.46.37-2.85-1.54-2.49-3.73c1.39-4.61,8.34-5.63,8.34-5.63C68.47,39.91,63.5,55.48,60.28,57.46Z"/></g><path class="bd25141f-ae0a-4381-9991-ba894bb66402" d="M43.07,44.91s-4.45.54-3.82,6.9c.37,4.46-2.45,1.55-2.81-3.9s1.81-5.73,4.72-4.64S45.34,45,43.07,44.91Z"/><path class="8894dbfc-455c-4d82-a050-c9f521700330" d="M61.22,55a12,12,0,0,0,4.85,5.14c3.25,1.65,8.15-1.12,9.21-2.89A119.83,119.83,0,0,0,61.22,55Z"/><path class="f877aa1c-a9a8-49db-98fe-38a545951602" d="M61.06,55c1.1,2.38,3.5,5.19,6.21,5.59a8.39,8.39,0,0,0,4.65-.77,8,8,0,0,0,3.52-2.65s0,0,0,0a108,108,0,0,0-14.08-2.25c-.08,0-.38.13-.21.15a107.09,107.09,0,0,1,13.67,2.16c.6.12-.85,1.26-.94,1.34a10.68,10.68,0,0,1-2.3,1.31,6.44,6.44,0,0,1-5.57.07,11.12,11.12,0,0,1-4.59-5C61.35,54.82,61,54.93,61.06,55Z"/><g class="9d7f7ba8-b3ea-4cee-acb7-c4bcf917216a"><path class="de28bd6d-9d92-4163-b5ae-12097baf7207" d="M66.61,58.07c1.79.44,1.92-.31,4.33.44a5.43,5.43,0,0,0,3.14-.06,4.91,4.91,0,0,0,1.2-1.25A119.83,119.83,0,0,0,61.22,55a12,12,0,0,0,4.85,5.14,5,5,0,0,0,2.24.51C66.07,59.72,65.26,57.75,66.61,58.07Z"/></g><path class="8894dbfc-455c-4d82-a050-c9f521700330" d="M71.37,39.73c1.65.05,2.28,1.42,2.5,2.67,1.43.17,4.28,1.37,4.45,4a1.52,1.52,0,0,1,1.15.73c.4-4.44-2.32-8.22-4.78-9.28s-6.56-1.72-9.94.86a12.64,12.64,0,0,1,2.06.91C68,40.35,69.72,39.67,71.37,39.73Z"/><path class="f877aa1c-a9a8-49db-98fe-38a545951602" d="M71.26,39.81c1.51.12,2.18,1.28,2.45,2.64,0,0,0,0,.06,0,2.09.29,4.17,1.73,4.38,3.95,0,0,0,0,.07,0a1.48,1.48,0,0,1,1.08.69c0,.09.33,0,.33-.07.27-3.61-1.45-7.92-5-9.41a10.23,10.23,0,0,0-10,1s-.06.08,0,.1c.87.3,1.66.79,2.51,1.12,1.24.49,2.9-.1,4.17-.09.11,0,.36-.17.13-.17-1.33,0-2.73.46-4,.11a8,8,0,0,1-1.21-.6A12.93,12.93,0,0,0,65,38.66s1.35-.83,1.62-.95a8.86,8.86,0,0,1,2-.6,10.18,10.18,0,0,1,3.69.1,7.94,7.94,0,0,1,4.91,2.9,10.09,10.09,0,0,1,2.09,7l.33-.07a1.25,1.25,0,0,0-.5-.52c-.17-.09-.64-.2-.67-.45a3.45,3.45,0,0,0-.24-.89A4.67,4.67,0,0,0,76,43a7,7,0,0,0-1.4-.53l-.48-.1c-.15,0-.26-.69-.3-.82a2.61,2.61,0,0,0-2.35-1.88C71.38,39.64,71.08,39.79,71.26,39.81Z"/><g class="9d7f7ba8-b3ea-4cee-acb7-c4bcf917216a"><path class="de28bd6d-9d92-4163-b5ae-12097baf7207" d="M71.93,37.09h.22a9.25,9.25,0,0,0-7.4,1.62,12.64,12.64,0,0,1,2.06.91,2.4,2.4,0,0,0,1.26.35A4.37,4.37,0,0,1,71.93,37.09Z"/></g><g class="08a0c567-7669-4e71-ae41-2a85290ee94a"><path class="8894dbfc-455c-4d82-a050-c9f521700330" d="M75.34,38.18v0a6.73,6.73,0,0,1,2.27,6.26,3.51,3.51,0,0,1,.71,1.9,1.52,1.52,0,0,1,1.15.73A9.83,9.83,0,0,0,75.34,38.18Z"/></g><path class="66413e8b-1de6-4ba5-bc96-5b93367330ee" d="M78.32,46.39c-.17-2.62-3-3.82-4.45-4-.22-1.25-.85-2.62-2.5-2.67s-3.42.62-4.56-.12a12.64,12.64,0,0,0-2.06-.91c-3.25-1.52-4.44,6.44-4.44,6.44-.68,2.31-.93,3.23-2.52,5s-.4,3.7,3.58,5.36,5.7,2.52,8.28,1.92c3.72,1.39,7-.33,8-3.25,2.59-2.25,3.45-4.84,1.86-7A1.52,1.52,0,0,0,78.32,46.39Z"/><path class="b5f319f1-7be0-4538-940c-9ebf8e4c4678" d="M78.48,46.35a4.48,4.48,0,0,0-3-3.62,6,6,0,0,0-1-.32c-.42-.1-.43-.26-.55-.68a2.75,2.75,0,0,0-1.43-1.85,5.4,5.4,0,0,0-2.62-.13,6.46,6.46,0,0,1-2.44,0,11.68,11.68,0,0,1-1.42-.7,3.5,3.5,0,0,0-2.77-.45A4.34,4.34,0,0,0,61.3,41a16.69,16.69,0,0,0-1,3.47,16,16,0,0,1-1,3.39,10,10,0,0,1-1.72,2.41A2.2,2.2,0,0,0,57,51.91c.09,1.21,1.38,2.09,2.3,2.66a32,32,0,0,0,5.32,2.35,10,10,0,0,0,3.58.74,6,6,0,0,1,1.94,0,7.35,7.35,0,0,0,2.24.31,6.22,6.22,0,0,0,3.39-1.08,5,5,0,0,0,1.34-1.32,6.49,6.49,0,0,0,.55-1,5,5,0,0,1,1.06-1.31,5.7,5.7,0,0,0,1.75-4.19,2.93,2.93,0,0,0-2-2.75c-.08,0-.37.12-.27.14,2.14.44,2.15,3.44,1.45,5a7,7,0,0,1-1.06,1.59c-.25.31-1,.78-1.12,1.13a5.49,5.49,0,0,1-2,2.69,5.74,5.74,0,0,1-4,.89c-.57-.07-1.13-.38-1.68-.43a9.47,9.47,0,0,0-1.27.18c-2.09.14-4.17-.92-6-1.7S57.82,54.11,57.3,52a2.39,2.39,0,0,1,.83-2.08,8.76,8.76,0,0,0,1.51-2.26c1-2.19,1.08-4.64,2-6.83a3.88,3.88,0,0,1,1.75-2.14c.82-.34,2.39.55,3,.91,1.26.68,2.5.4,3.87.26,2-.19,3,.79,3.35,2.62,0,0,0,0,.06,0,2.09.29,4.17,1.74,4.38,4C78.16,46.51,78.49,46.45,78.48,46.35Z"/><path class="376cad12-cd8b-4234-a9c6-97796c252caa" d="M67.32,39.84l.51,0,.51.06.59.06a11,11,0,0,1,1.09.19,3.61,3.61,0,0,1,.49.13s-.2,0-.5,0-.71,0-1.11-.1c-.2,0-.4-.05-.59-.09a2.61,2.61,0,0,1-.27-.06L67.81,40C67.51,39.91,67.32,39.84,67.32,39.84Z"/><path class="376cad12-cd8b-4234-a9c6-97796c252caa" d="M63.73,41.32s0,.14-.06.38-.09.59-.14,1-.11.91-.16,1.43-.09,1.07-.1,1.63c0,.27,0,.55,0,.82s0,.55,0,.81,0,.5.1.74,0,.23.06.34.05.21.08.31.06.2.09.28l.09.26c0,.07.07.15.1.21a1.5,1.5,0,0,0,.09.18,1.12,1.12,0,0,0,.15.24l0,.09L64.07,50a2.07,2.07,0,0,1-.18-.23l-.11-.17-.11-.21a2.91,2.91,0,0,1-.23-.53,3,3,0,0,1-.1-.32,3.37,3.37,0,0,1-.09-.34c0-.24-.1-.49-.13-.75s-.06-.54-.07-.82,0-.56,0-.84c0-.56.06-1.12.13-1.65s.15-1,.23-1.42.17-.75.23-1Z"/><path class="376cad12-cd8b-4234-a9c6-97796c252caa" d="M64.75,38.7l.64.22.64.25c.21.09.42.18.62.29l.15.09.15.07a1.35,1.35,0,0,0,.3.14,3.55,3.55,0,0,0,.65.12c.23,0,.45,0,.67,0,.45,0,.9-.1,1.35-.16a12.6,12.6,0,0,1,1.37-.09c.13,0,.23,0,.35,0l.35.06a2.39,2.39,0,0,1,.65.29,2.43,2.43,0,0,1,.54.47,2.83,2.83,0,0,1,.38.59A4.83,4.83,0,0,1,74,42.38l-.09-.08.4.07.2.05.2,0,.39.13c.13,0,.25.1.38.15l.37.17.36.2a4,4,0,0,1,.34.22l.32.25a2.06,2.06,0,0,1,.31.28,3.83,3.83,0,0,1,.28.29,1.83,1.83,0,0,1,.13.16l.12.17.12.16.1.18L78,45c0,.06,0,.13.08.19a1.79,1.79,0,0,1,.13.39,2.59,2.59,0,0,1,.09.4l0,.4,0,0,.18,0a.84.84,0,0,1,.17.05l.16.07a.83.83,0,0,1,.16.09l.07,0,.07.06a.5.5,0,0,1,.13.12.87.87,0,0,1,.12.14l.09.14-.1-.14-.12-.13-.14-.11a.71.71,0,0,0-.14-.1s-.1-.06-.16-.08l-.16-.06-.17,0-.17,0h0v0l-.06-.4a2.66,2.66,0,0,0-.1-.38,2.35,2.35,0,0,0-.14-.37l-.08-.18-.1-.17-.1-.17-.12-.16-.12-.16-.13-.15c-.09-.09-.18-.19-.28-.28a3.61,3.61,0,0,0-.3-.25,3.19,3.19,0,0,0-.32-.23c-.12-.07-.22-.15-.34-.21l-.35-.19c-.12-.05-.24-.12-.36-.16s-.24-.11-.37-.15-.25-.09-.38-.12l-.19-.05-.19,0-.39-.07h-.08v-.08a5,5,0,0,0-.41-1.26c0-.1-.11-.19-.16-.28a2.61,2.61,0,0,0-.19-.27,2.43,2.43,0,0,0-.48-.43,2.21,2.21,0,0,0-.59-.26l-.32-.07-.33,0a10.19,10.19,0,0,0-1.35.08c-.45,0-.9.1-1.36.12a5.3,5.3,0,0,1-.69,0,2.29,2.29,0,0,1-.68-.14,1.33,1.33,0,0,1-.32-.15l-.15-.08-.14-.09a4.25,4.25,0,0,0-.6-.31L65.38,39Z"/><path class="376cad12-cd8b-4234-a9c6-97796c252caa" d="M68.58,41.15s.12.2.3.57a12.42,12.42,0,0,1,.65,1.58c.06.17.11.35.16.53s.11.37.16.57.05.2.08.3L70,45c.05.21.09.42.12.64.08.44.12.89.17,1.36,0,.23,0,.46,0,.7s0,.47,0,.71,0,.47,0,.71,0,.23,0,.35a1,1,0,0,0,0,.18l0,.17a4.09,4.09,0,0,1-.47,1.31,3.55,3.55,0,0,1-.83,1c-.08.07-.16.12-.24.18a2.56,2.56,0,0,1-.25.16l-.26.13-.25.11-.13,0-.12,0-.25.06-.45.06h-.41l-.34,0-.15,0-.12,0-.2,0-.17,0,.17,0,.2,0,.13,0h.48l.4,0,.44-.09.23-.07.12,0,.12,0,.24-.11.24-.14a1.19,1.19,0,0,0,.23-.16,1.3,1.3,0,0,0,.23-.18,3.55,3.55,0,0,0,.77-1A4.24,4.24,0,0,0,70,49.8l0-.17v-.17c0-.11,0-.23,0-.34s0-.47,0-.7,0-.47,0-.7l0-.7c0-.46-.08-.91-.15-1.34,0-.22-.08-.43-.11-.64l-.06-.3-.06-.3c0-.2-.09-.39-.14-.57s-.09-.36-.14-.53c-.1-.34-.2-.64-.3-.91s-.19-.5-.27-.69-.14-.34-.19-.44Z"/><path class="376cad12-cd8b-4234-a9c6-97796c252caa" d="M61.78,48.79s0,.05,0,.14a3.91,3.91,0,0,0,0,.41A2.52,2.52,0,0,0,62,50a3.62,3.62,0,0,0,.39.71l.29.37c.12.11.23.24.36.35a7.39,7.39,0,0,0,.86.64c.16.1.32.2.49.29l.53.26,1.1.51a23.15,23.15,0,0,1,2.1,1.13,8.07,8.07,0,0,1,.91.63,3.93,3.93,0,0,1,.71.7,1.63,1.63,0,0,1,.37.76,1.06,1.06,0,0,1-.09.64,1.25,1.25,0,0,1-.22.35l-.1.11.09-.11a1.46,1.46,0,0,0,.19-.36,1,1,0,0,0,0-.61,1.59,1.59,0,0,0-.39-.7A6.33,6.33,0,0,0,68,54.38c-.65-.39-1.37-.75-2.1-1.1l-1.09-.52-.53-.27-.51-.3c-.16-.1-.31-.22-.46-.33s-.27-.25-.41-.36-.24-.26-.35-.38l-.29-.39a3.19,3.19,0,0,1-.36-.75,3,3,0,0,1-.13-.64,2.46,2.46,0,0,1,0-.41A.45.45,0,0,1,61.78,48.79Z"/><path class="376cad12-cd8b-4234-a9c6-97796c252caa" d="M65.33,50.55l.19.09a3.83,3.83,0,0,0,.52.2c.1,0,.22.06.35.1l.4.08.21,0,.22,0h.44l.45,0,.43-.07.39-.1a3.07,3.07,0,0,0,.36-.11c.1,0,.21-.06.29-.1l.22-.1.2-.07-.18.11-.2.13a1.57,1.57,0,0,1-.29.15A1.52,1.52,0,0,1,69,51a3.93,3.93,0,0,1-.41.14l-.44.09c-.16,0-.31,0-.47,0a2.43,2.43,0,0,1-.47,0,3,3,0,0,1-.45-.07,2.45,2.45,0,0,1-.41-.11L66,51l-.28-.15a1,1,0,0,1-.21-.13A.68.68,0,0,1,65.33,50.55Z"/><path class="376cad12-cd8b-4234-a9c6-97796c252caa" d="M73.87,42.4s0,.24.12.65c0,.21.07.47.11.76s.06.62.1,1,0,.75.06,1.16,0,.86,0,1.31c0,.22,0,.45,0,.68s0,.24,0,.36v.17l0,.18c0,.23-.07.47-.1.71l0,.36v.14l0,0,0,.17-.06.17-.07.18a3.31,3.31,0,0,1-.15.33,6.65,6.65,0,0,1-.39.63,5.89,5.89,0,0,1-1,1,6.78,6.78,0,0,1-1.06.77,3.08,3.08,0,0,1-.54.28,2.35,2.35,0,0,1-.57.13,2.26,2.26,0,0,1-1-.1c-.14,0-.26-.12-.38-.17l-.3-.19L68.24,53a1.06,1.06,0,0,1-.15-.14L68,52.69l.13.12.15.13.23.16.3.18c.11,0,.24.1.38.14a2.64,2.64,0,0,0,1,.06,2.51,2.51,0,0,0,.52-.14,3.39,3.39,0,0,0,.52-.29,8.83,8.83,0,0,0,1-.78,6.35,6.35,0,0,0,.92-1,4.54,4.54,0,0,0,.36-.6,1.73,1.73,0,0,0,.14-.31l.07-.16,0-.17,0-.18v0s0,0,0,0v-.11l0-.35c0-.24.07-.47.11-.71l0-.17,0-.17,0-.35c0-.23,0-.46,0-.68q0-.68,0-1.29c0-.42,0-.8,0-1.16s0-.69-.06-1,0-.54-.06-.75,0-.37,0-.49Z"/><path class="376cad12-cd8b-4234-a9c6-97796c252caa" d="M78.32,46.39s0,0,0,.13a2.49,2.49,0,0,1-.06.37c0,.16-.06.35-.12.56L78,47.8l-.12.37c-.07.27-.19.54-.3.84l-.09.22a2.29,2.29,0,0,1-.1.23l-.21.46c-.07.15-.16.3-.24.46s-.18.31-.26.47-.38.61-.59.92c-.1.16-.22.3-.33.45s-.23.29-.35.42a3.41,3.41,0,0,1-.38.38,4.46,4.46,0,0,1-.42.34,2.83,2.83,0,0,1-.92.42,1.85,1.85,0,0,1-.46.08h-.44l-.39-.06-.35-.1c-.21-.06-.39-.15-.54-.2l-.44-.23.46.18a5.31,5.31,0,0,0,.55.17l.34.07.38,0a3,3,0,0,0,.42,0,1.65,1.65,0,0,0,.43-.09,2.92,2.92,0,0,0,.85-.42,5.51,5.51,0,0,0,.75-.71c.12-.13.22-.27.34-.41l.31-.44c.2-.29.41-.6.59-.9s.36-.61.51-.92l.22-.44.11-.22a1.47,1.47,0,0,0,.1-.22,8.64,8.64,0,0,0,.33-.81c.1-.25.18-.49.25-.7s.12-.4.16-.55C78.28,46.57,78.32,46.39,78.32,46.39Z"/><path class="376cad12-cd8b-4234-a9c6-97796c252caa" d="M73.4,53.84l.15.14a2.86,2.86,0,0,0,.41.31,2.29,2.29,0,0,0,.31.18l.17.08.18.07.19.06.2,0c.13,0,.28,0,.42.05l.42,0c.13,0,.27,0,.4-.06l.37-.11.33-.13.14-.05.13-.07.21-.1.18-.09-.16.13-.19.14-.11.08-.15.08-.32.17-.38.14c-.13,0-.28.06-.43.09a3.39,3.39,0,0,1-.45,0,3.62,3.62,0,0,1-.46-.06l-.21-.06-.21-.08a.76.76,0,0,1-.18-.09l-.18-.09-.29-.22a2.28,2.28,0,0,1-.22-.21L73.51,54a1.17,1.17,0,0,1-.08-.13Z"/><g class="5efb0312-9034-4f96-bfb5-c5a3f9113405"><path class="66413e8b-1de6-4ba5-bc96-5b93367330ee" d="M76.93,51.25c.72-1.34,1.57-3.33,2.09-4.6a1.6,1.6,0,0,0-.7-.26,2.63,2.63,0,0,0-.07-.49c-1.4,6.28-4,6.26-3.75,2.85.2-2.41.2-4.82.18-6.17a4.8,4.8,0,0,0-.81-.18,4.55,4.55,0,0,0-.41-1.28,39.1,39.1,0,0,1,.43,7.32c-.07,2.66-3.11,3.12-3.19.54s-.15-5.63-1.21-7.68a1.76,1.76,0,0,1-.23-1.41,5,5,0,0,1-2,0,16.72,16.72,0,0,1,2.25,5.94C70.25,50.12,68,51,66.07,50s-2.36-3.19-2-6.53-1-3.95-1.67.45-2.43,5.7-.91,7.14,6.53,3.12,7.14,4.71-3,.61-6.53-1.29-5.24-2.58-3.72-4.25a9,9,0,0,0,2.43-5.85c0-.57.07-1.26.11-2a20.93,20.93,0,0,0-.63,2.73c-.68,2.31-.93,3.23-2.52,5s-.4,3.7,3.58,5.36,5.7,2.52,8.28,1.92c3.72,1.39,7-.33,8-3.25a9.82,9.82,0,0,0,1.57-1.69C77.67,53.36,76.17,52.69,76.93,51.25Z"/></g><path class="1a7b00c4-a899-4368-afb2-bce627a760a7" d="M67.16,40.48A8.72,8.72,0,0,1,68,41.7c.12.19.24.41.36.63s.25.48.36.74.22.54.32.82.18.58.25.88a8.91,8.91,0,0,1,.16.9c0,.3,0,.6,0,.89a5.55,5.55,0,0,1-.09.83,4.28,4.28,0,0,1-.2.71l-.13.31-.14.26a2.44,2.44,0,0,1-.26.41l-.19.24-.07.08.19-.37c0-.12.12-.26.17-.43s.06-.17.09-.27.06-.2.09-.3.08-.45.11-.69a6.61,6.61,0,0,0,0-.78l0-.42c0-.14,0-.28,0-.42a8.46,8.46,0,0,0-.16-.85,7.39,7.39,0,0,0-.23-.84c-.09-.28-.17-.55-.27-.81-.19-.52-.4-1-.58-1.4C67.44,41,67.16,40.48,67.16,40.48Z"/><path class="1a7b00c4-a899-4368-afb2-bce627a760a7" d="M73,41.35a10.55,10.55,0,0,1,.38,1.31c0,.2.1.42.15.65s.09.47.13.72.08.51.1.78.06.54.08.81,0,.55,0,.82,0,.54,0,.79-.05.51-.09.74a5.38,5.38,0,0,1-.15.66,3.9,3.9,0,0,1-.21.53l-.12.21a1.11,1.11,0,0,1-.11.16l-.11.13-.08.08-.07.07a.44.44,0,0,1,0-.09.44.44,0,0,0,.06-.1l.07-.14a.87.87,0,0,0,.07-.17.81.81,0,0,0,.07-.22,3.33,3.33,0,0,0,.12-.52c0-.2,0-.41.07-.64s0-.23,0-.35,0-.24,0-.37,0-.5,0-.76,0-.53,0-.8,0-.53,0-.8,0-.52-.07-.77c0-.5-.09-1-.13-1.37C73.08,41.9,73,41.35,73,41.35Z"/><path class="1a7b00c4-a899-4368-afb2-bce627a760a7" d="M77.06,44.5l.07,0a1.29,1.29,0,0,1,.18.14,2.28,2.28,0,0,1,.23.27,2,2,0,0,1,.24.41,2.63,2.63,0,0,1,.18.54,2.6,2.6,0,0,1,.05.63,3.05,3.05,0,0,1-.07.67l0,.08,0,.09,0,.16a2.55,2.55,0,0,1-.11.33c0,.11-.08.21-.13.32l-.15.3c-.1.2-.23.38-.34.56s-.25.34-.37.49l-.18.21-.18.2a5.48,5.48,0,0,1-.84.73s.27-.36.64-.9l.29-.44.3-.5.29-.55c0-.09.09-.19.13-.29s.08-.19.11-.29a2.65,2.65,0,0,0,.11-.3l0-.15,0-.07,0-.08c0-.2.08-.4.1-.59a2.63,2.63,0,0,0,0-.56l0-.26a2,2,0,0,0,0-.24,3.26,3.26,0,0,0-.14-.41c-.06-.12-.11-.22-.16-.3A2,2,0,0,0,77.06,44.5Z"/><path class="1a7b00c4-a899-4368-afb2-bce627a760a7" d="M79.45,47.88a1.58,1.58,0,0,1,.16.2,2.65,2.65,0,0,1,.3.61,2.51,2.51,0,0,1,.1.45,2.11,2.11,0,0,1,0,.51,2.77,2.77,0,0,1-.07.56,2.68,2.68,0,0,1-.07.27,1.09,1.09,0,0,1-.11.27c0,.09-.07.18-.12.27l-.13.23a5.3,5.3,0,0,1-.34.45,3.09,3.09,0,0,1-.38.35,1.15,1.15,0,0,1-.19.14l-.2.11-.19.09-.17,0a1.18,1.18,0,0,1-.29.05h-.26a3.52,3.52,0,0,0,.48-.21,2.17,2.17,0,0,0,.29-.2,3.92,3.92,0,0,0,.31-.28c.1-.11.19-.23.29-.35l.13-.2a2.39,2.39,0,0,1,.13-.21l.12-.24a4937546135574,4937546135574,0,0,1,.2-.46,2.17,2.17,0,0,0,.07-.24,2.73,2.73,0,0,0,.1-.48,3.52,3.52,0,0,0,0-.45c0-.15,0-.29,0-.42a4.45,4.45,0,0,0-.12-.63Z"/><path class="66413e8b-1de6-4ba5-bc96-5b93367330ee" d="M29.83,66.72c-.41-.06-3,2.51-4.12,3.68a51.28,51.28,0,0,0,.12,9.91,38.87,38.87,0,0,0-3,2.88c-.75,1-.54,2.25.51,4.56,1,2,2.1,1.8,2.1,1.8s.3.9,2,.66c.42.54,1.28.18,1.58-.06.66.57,1.71.06,2.19-1.32s.06-2-.37-1.93a4.45,4.45,0,0,0,.95-3,2.42,2.42,0,0,0-1-2.22c-.56-.54-.54-1.74.32-3.37.76-1.45,2-4,3-6C33.08,70.84,30.27,66.78,29.83,66.72Z"/><path class="b5f319f1-7be0-4538-940c-9ebf8e4c4678" d="M29.9,66.64c-.82,0-1.71,1.18-2.25,1.69s-1.16,1.13-1.73,1.7c-.24.25-.37.31-.39.64,0,.5-.06,1-.08,1.49a53.88,53.88,0,0,0,0,6.48c0,.42.07.83.13,1.25s.13.38-.16.63c-.58.51-1.15,1-1.7,1.56a6.2,6.2,0,0,0-1.36,1.58,3.18,3.18,0,0,0,0,2.15c.32,1.23,1.07,3.52,2.57,3.8a1.15,1.15,0,0,0,.32,0c.21,0-.06-.1,0,0a1.29,1.29,0,0,0,.87.58,3.73,3.73,0,0,0,.94.07c.25,0,.53.19.78.24a1.84,1.84,0,0,0,1.29-.4l-.28,0a1.42,1.42,0,0,0,1.86-.31c.49-.45,1.47-2.54.53-3a.56.56,0,0,0-.26-.07c.15,0,.41-.58.46-.67A4.52,4.52,0,0,0,32,83.83a2.77,2.77,0,0,0-.46-1.66c-.38-.52-.84-.73-.93-1.43-.22-1.57,1.16-3.39,1.84-4.73.4-.81.8-1.62,1.19-2.44.21-.44.41-.88.61-1.33,0-.06-.22-.34-.25-.39-.74-1.07-1.49-2.14-2.26-3.19-.4-.54-1.06-1.8-1.75-2-.08,0-.38.11-.26.15.43.13.83.86,1.09,1.18.57.73,1.11,1.49,1.64,2.24s.94,1.33,1.4,2c.18.26-.56,1.42-.68,1.68-.3.64-.61,1.27-.93,1.9-.51,1-1.09,2-1.57,3.11a3.11,3.11,0,0,0-.22,2.56,2.41,2.41,0,0,0,.56.59,2.1,2.1,0,0,1,.6,1.27,4.72,4.72,0,0,1-.89,3.58c0,.06,0,.07.09.07.72,0,.45,1.25.37,1.57-.17.75-1,2.26-2,1.54-.07-.06-.22,0-.28,0a10.13,10.13,0,0,1-2.68-.07,1.05,1.05,0,0,1-.66-.56s-.1,0-.14,0c-.9.16-1.65-1.17-2-1.77a6.19,6.19,0,0,1-.88-3.78c.22-1,1.42-1.85,2.14-2.51.36-.35.74-.68,1.12-1,.21-.19.11-.31.07-.61a43.72,43.72,0,0,1-.13-8.25A2,2,0,0,1,26.23,70c.4-.41.81-.82,1.22-1.22s.93-.89,1.42-1.32c.18-.16.64-.67.89-.69C29.86,66.79,30.12,66.63,29.9,66.64Z"/><path class="8894dbfc-455c-4d82-a050-c9f521700330" d="M32.19,67.17c-1.94-2.51-2.06-3.11-3-2.24s-3.26,3-3.26,3-.09,1-.18,2.43c1.14-1.17,3.71-3.74,4.12-3.68s3.25,4.12,4.23,5.55c.11-.27.23-.52.33-.77C34.92,70.4,34.12,69.68,32.19,67.17Z"/><path class="f877aa1c-a9a8-49db-98fe-38a545951602" d="M32.34,67.11c-.48-.62-.94-1.27-1.43-1.89a1.87,1.87,0,0,0-.83-.72c-.51-.16-1,.37-1.33.66-.95.85-1.87,1.73-2.79,2.6-.16.16-.23.19-.25.41-.07.76-.12,1.52-.17,2.28,0,.09.29,0,.32,0,.79-.81,1.59-1.61,2.41-2.38A15.31,15.31,0,0,1,29.5,67c.31-.23.35-.09.59.16a42.89,42.89,0,0,1,3.8,5.19c.06.08.29,0,.33-.07.36-.81.68-1.38.27-2.22a17.77,17.77,0,0,0-2.15-2.91c-.05-.07-.37,0-.31.12a22.08,22.08,0,0,1,2.13,2.88c.43.79.06,1.43-.27,2.18l.33-.07c-.7-1-1.4-2-2.13-3A8.6,8.6,0,0,0,30,66.67c-.38-.22-1.07.49-1.29.68-1.11,1-2.15,2-3.17,3.06l.31,0c0-.62.09-1.24.13-1.86,0-.2,0-.47.13-.62.6-.58,1.22-1.15,1.83-1.73.43-.41,1.53-1.83,2.15-1.35A12.61,12.61,0,0,1,32,67.23C32.08,67.3,32.4,67.19,32.34,67.11Z"/><path class="b5f319f1-7be0-4538-940c-9ebf8e4c4678" d="M23,85a.31.31,0,0,1,0,.07,1.36,1.36,0,0,0,.06.2,2.1,2.1,0,0,0,.14.24.62.62,0,0,0,.09.12.6.6,0,0,0,.12.11l.13.1.14.07.14,0L24,86l.2,0,.08,0H24.2A.72.72,0,0,1,24,86l-.14,0-.16,0-.15-.07-.15-.1-.13-.12-.1-.14a1,1,0,0,1-.07-.15c0-.05,0-.09,0-.13A.94.94,0,0,1,23,85Z"/><path class="b5f319f1-7be0-4538-940c-9ebf8e4c4678" d="M25.16,86.17l.39.15.86.34c.31.12.63.23.87.3l.29.07.12,0h-.25a.62.62,0,0,1-.18,0l-.42-.09-.47-.16a7.74,7.74,0,0,1-.85-.39Z"/><path class="b5f319f1-7be0-4538-940c-9ebf8e4c4678" d="M30.76,84.38a.57.57,0,0,0-.22,0,.84.84,0,0,0-.24.06,1,1,0,0,0-.26.18,1.5,1.5,0,0,0-.24.3,3.36,3.36,0,0,0-.19.38,1.8,1.8,0,0,1-.08.21,2,2,0,0,1-.07.23,1.32,1.32,0,0,0-.05.23.86.86,0,0,0-.05.23,2.08,2.08,0,0,0,0,.23,1.76,1.76,0,0,0,0,.23.67.67,0,0,0,.14.4.59.59,0,0,0,.36.18,1.11,1.11,0,0,0,.37,0l.17,0,.14,0,.24-.1.19-.1-.05,0a.68.68,0,0,1-.14.09l-.22.12a.52.52,0,0,1-.15.07l-.16,0a1.29,1.29,0,0,1-.4,0,.63.63,0,0,1-.42-.19.85.85,0,0,1-.18-.46,1.92,1.92,0,0,1,0-.24,1.9,1.9,0,0,1,0-.25,2,2,0,0,1,.05-.24,2,2,0,0,1,.06-.23,2,2,0,0,0,.07-.23l.09-.22a2.12,2.12,0,0,1,.48-.69.71.71,0,0,1,.14-.1.51.51,0,0,1,.15-.07.59.59,0,0,1,.25,0A.53.53,0,0,1,30.76,84.38Z"/><path class="b5f319f1-7be0-4538-940c-9ebf8e4c4678" d="M24.05,86.44l.22.48c.12.3.28.69.45,1.08s.33.78.46,1.07l.1.2s0,.11.07.15l.07.13-.09-.12a.8.8,0,0,0-.09-.14c0-.06-.08-.12-.11-.19L25,88.87c0-.08-.09-.16-.13-.25l-.25-.57c-.08-.2-.16-.4-.23-.59a5.31,5.31,0,0,1-.18-.51Z"/><path class="b5f319f1-7be0-4538-940c-9ebf8e4c4678" d="M26,87.34l.23.45c.06.14.14.3.22.47l.26.53.26.53.24.45.11.18.08.14.07.12-.09-.11-.1-.13-.12-.16L27,89.6a1.38,1.38,0,0,1-.14-.24c-.09-.16-.19-.34-.28-.52l-.25-.54c-.07-.17-.14-.34-.19-.48S26,87.34,26,87.34Z"/><path class="b5f319f1-7be0-4538-940c-9ebf8e4c4678" d="M27.48,87.68s.1.16.23.4l.23.41.27.46c.09.16.19.32.28.46s.18.28.26.39l.11.15.1.11.08.09-.1-.08L28.83,90l-.13-.14-.15-.17-.14-.2c-.1-.14-.2-.3-.3-.46s-.17-.32-.25-.48-.15-.3-.2-.42S27.48,87.68,27.48,87.68Z"/><g class="5efb0312-9034-4f96-bfb5-c5a3f9113405"><path class="66413e8b-1de6-4ba5-bc96-5b93367330ee" d="M31.81,83.88a2.42,2.42,0,0,0-1-2.22c-.56-.54-.54-1.74.32-3.37.76-1.45,2-4,3-6-.7-1-2.32-3.36-3.36-4.66.25,1,.53,2.07.83,2.93.82,2.36-.27,4.36-1.82,8.63C29.08,81,30,83,28.26,84.81c-1.32,1.51-1.48,1.46-2.7.66S23,85,23,83.93s2.34-2.61,3.2-3.2-.16-1.65-.59-5.53l0-.19a33,33,0,0,0,.3,5.3,38.87,38.87,0,0,0-3,2.88c-.7.93-.56,2.1.33,4.16-.11-.52-.13-.92,0-.94.36,0,1.39,2.06,1.88,3.12a1,1,0,0,0,.37,0,.83.83,0,0,0,.21.29c-.39-1-1-2.74-.62-2.82s1.42,2.21,1.84,3.23a4.66,4.66,0,0,0,.61,0,.75.75,0,0,0,.16.15c-.46-1-1.28-2.75-.88-3s1.59,2,2.07,2.89a1.14,1.14,0,0,0,.23-.15,1,1,0,0,0,.44.21c-.52-.78-1.27-2-1.07-2.67S30,89,30.65,89.86a3,3,0,0,0,.58-1c.48-1.38.06-2-.37-1.93A4.45,4.45,0,0,0,31.81,83.88Z"/></g><g class="9d7f7ba8-b3ea-4cee-acb7-c4bcf917216a"><path class="de28bd6d-9d92-4163-b5ae-12097baf7207" d="M25.89,68s-.09,1-.18,2.43c.46-.47,1.15-1.17,1.84-1.83,0-.88.13-1.7.21-2.37C26.83,67.07,25.89,68,25.89,68Z"/><path class="de28bd6d-9d92-4163-b5ae-12097baf7207" d="M33,68.14A18.85,18.85,0,0,1,32.47,70c.64.9,1.23,1.76,1.59,2.28.11-.27.23-.52.33-.77C34.84,70.56,34.32,69.89,33,68.14Z"/></g><g class="94536072-878b-415d-8dfc-601f17f2c0be"><path class="8894dbfc-455c-4d82-a050-c9f521700330" d="M29.15,64.93l-.38.34-.13,2.28c.58-.51,1-.86,1.19-.83a6.39,6.39,0,0,1,1.44,1.62l.33-1.94C30.21,64.55,30,64.15,29.15,64.93Z"/></g><path class="1a7b00c4-a899-4368-afb2-bce627a760a7" d="M28.42,68.56s-1.86,1.2-2.19,2.43a19.38,19.38,0,0,0,0,6.83c.46,3,.54,0,.54-2.92S30.76,67.33,28.42,68.56Z"/><path class="1a7b00c4-a899-4368-afb2-bce627a760a7" d="M24.89,82.26s-1.09,1.21.12,1.88,2.19,1.46.13.79-2.25-.91-1.52-1.64S25.14,81.66,24.89,82.26Z"/></g></g></svg>