<svg xmlns="http://www.w3.org/2000/svg" xmlns:xlink="http://www.w3.org/1999/xlink" viewBox="0 0 121 170.54"><defs><style>.\37 dcf28b1-d3cb-445b-97bf-29072b7d1ec3{fill:#f7f2f0;}.\32 a041d0b-88b3-474b-a068-6c856ddc81a9{fill:none;}.\37 acad303-57ec-4c3d-96de-aea6caac965a{isolation:isolate;}.\35 3cdc062-4fac-46fd-a077-1e21d590dad2{fill:#fad2b9;}.\37 4ae21e4-99ef-4b3e-af83-a9f3c979de14{fill:#cc5931;}.\39 301ff13-a890-4b9f-b127-20d3ae1232a4{fill:#3c3c3b;}.\33 bc31d6a-9ae6-4368-b3b2-dc8d71e84738{fill:#1d1d1b;}.\34 0c2bcc2-d400-4a3c-9909-3825276446a4,.\37 90cbdbd-3a4e-4420-a803-d60fd4feddac,.d1ab0b6f-a192-449d-94bf-321c285d90d1{opacity:0.3;}.\30 5353890-6d1c-455d-a7d5-ed04711889d1,.\32 ca5cd67-4988-4ade-96e9-5ab381dca7ca,.\33 35dc917-9bd2-467e-a575-8053bf373b75,.\34 0c2bcc2-d400-4a3c-9909-3825276446a4,.\34 c083754-7ab3-40d4-be33-a166215faeee,.\37 051d313-ddec-4e0e-a6df-77a67d847929,.\37 90cbdbd-3a4e-4420-a803-d60fd4feddac,.\38 5bfacd9-53eb-4e99-921f-4c6bf824a4f8,.b3c42b29-cc0b-4bbd-bbd8-95910ff17b11,.eb877a60-153b-4c8e-9eda-2d78f40623d4{mix-blend-mode:multiply;}.\32 c92eb46-5dc8-4550-bbbc-afffbd3e339d{fill:#fcfe04;}.\31 3c6f37f-ea00-4f30-b272-7ca16b4a3a0f{fill:#a28118;}.\33 421c9a0-3508-427f-b31d-0ec97abfa9d2{fill:#ed1c25;}.\31 3124545-ca76-4a4c-8a74-2405cef1068d,.d0d95ed3-c23a-4484-90e9-2b8fa65119ef{fill:#e00e19;}.\31 e43a1bb-3bad-4b27-bcd1-4bb7ca56930f,.\34 0c2bcc2-d400-4a3c-9909-3825276446a4{fill:#a91917;}.\30 5353890-6d1c-455d-a7d5-ed04711889d1,.\38 5bfacd9-53eb-4e99-921f-4c6bf824a4f8{opacity:0.7;}.\30 1fdff95-e404-4aec-bfe5-d335d93ae931{fill:#112755;}.\30 7f6d14d-9140-401d-b59e-0fda97a7c3c9,.\34 c083754-7ab3-40d4-be33-a166215faeee{fill:#4c4e4b;}.\33 5154c8b-643e-4bc3-9325-382679ba8231,.\34 c083754-7ab3-40d4-be33-a166215faeee,.dfd37ea0-90cc-45cf-8ccd-51e528b7eb55,.eb877a60-153b-4c8e-9eda-2d78f40623d4{opacity:0.5;}.\39 9d720c5-44f1-4edf-8b8d-664b64ffa962{fill:#8a5117;}.\35 c56b1d7-aafc-4c65-a56d-005f0ccd51f0{fill:#d1d1cc;}.\31 c0ce099-f481-43e8-8d5c-9c649b3b655e{fill:#674a91;}.\37 cdfd5fc-a2a3-4411-af37-386f717b32f2{fill:#0745aa;}.\34 a59dbf9-dc67-46de-9337-2bd94c6b1a80,.\37 3fbec6b-1445-45f9-a482-f290b589377b,.dfd37ea0-90cc-45cf-8ccd-51e528b7eb55{fill:#ff3028;}.\31 3124545-ca76-4a4c-8a74-2405cef1068d,.\31 eb3c93c-2f83-495f-9e88-bb95cc28a89d,.\37 3fbec6b-1445-45f9-a482-f290b589377b,.\39 474b3e9-06ba-42a9-9d73-59dd7711f21c,.a967df17-05d2-4647-bf33-24d37efa1e4c,.ada07a21-8267-4133-ade3-d74605f426f5,.b20c8d31-a541-4f81-b230-c6295b67a435,.d1ab0b6f-a192-449d-94bf-321c285d90d1,.dfd37ea0-90cc-45cf-8ccd-51e528b7eb55{mix-blend-mode:screen;}.a967df17-05d2-4647-bf33-24d37efa1e4c,.e5c0e9c5-1d37-4cdf-8078-844ab1183530{fill:#fff;}.\32 8c004d0-abaa-40fd-9a34-2a2a60b43bc8{fill:#ed7020;}.\32 ca5cd67-4988-4ade-96e9-5ab381dca7ca,.\39 474b3e9-06ba-42a9-9d73-59dd7711f21c,.f0991fed-d067-46fc-b785-1ace79077262{fill:#ffd100;}.\30 d6bb2d0-0c56-42a9-a20d-13e214a4b08d{fill:#f48020;}.\30 5353890-6d1c-455d-a7d5-ed04711889d1,.\38 086513d-22d3-47be-b867-84ad3e7297db{fill:#f8d1ba;}.\33 76dfc13-bc2b-49df-af1f-368aaa6d23c0{fill:#f7e5d4;}.e1a8b3c7-8562-4f27-9e8c-78c3e3c088b7{clip-path:url(#855e6af7-59b9-44df-b5ab-f98c7ccdb1cf);}.\31 eb3c93c-2f83-495f-9e88-bb95cc28a89d,.\33 08a7b0e-1fcb-42b4-80b3-17959639f011{fill:#61c9e8;}.\32 90214f2-90c8-445a-b722-ae84e61d707b{fill:#366d7d;}.\37 051d313-ddec-4e0e-a6df-77a67d847929{fill:#4d96ac;}.aa0280b1-ca97-4f30-beeb-f8cc1e4e71cc{fill:#dbccc8;}.bfe3195c-f0c5-472a-b4c2-4fbe78064457{clip-path:url(#8478a47f-e4c6-40f7-b1c3-6a5855c1d249);}.fabd58c4-a30d-4ecb-a227-98483581dd2b{fill:#b90003;}.\30 5c026b3-95ab-4253-b582-7e027d1c1283{fill:#f59478;}.\33 35dc917-9bd2-467e-a575-8053bf373b75,.ada07a21-8267-4133-ade3-d74605f426f5,.d0616328-44e9-4d18-98ff-79a4eead03f1{fill:#c92223;}.\30 ce99001-b0bc-418f-951f-7960797dea61{fill:#901613;}</style><clipPath id="855e6af7-59b9-44df-b5ab-f98c7ccdb1cf"><path class="7dcf28b1-d3cb-445b-97bf-29072b7d1ec3" d="M59.65,45.57a3.64,3.64,0,0,0,4.72,2.23c1.32-.46,1.25-2.9-.77-4.08S59.38,43.81,59.65,45.57Z"/></clipPath><clipPath id="8478a47f-e4c6-40f7-b1c3-6a5855c1d249"><path class="2a041d0b-88b3-474b-a068-6c856ddc81a9" d="M51.83,41.43a2.93,2.93,0,0,0,.84,2.67c1.22,1.13,2.62.11,2.85-1.39C55.79,40.84,53.11,38,51.83,41.43Z"/></clipPath></defs><title>Hero5</title><g class="7acad303-57ec-4c3d-96de-aea6caac965a"><g id="054166ce-eb99-4b01-8b51-21a7e15b264b" data-name="Layer 1"><path class="53cdc062-4fac-46fd-a077-1e21d590dad2" d="M62.43,55.82a2,2,0,0,1-.2-.79s-4.76,1.18-7-.45a2.94,2.94,0,0,1-.47.85A8.38,8.38,0,0,0,62.43,55.82Z"/><path class="74ae21e4-99ef-4b3e-af83-a9f3c979de14" d="M54.62,55.45l.06-.07a2.66,2.66,0,0,0,.45-.83l0-.11.1.07c2.2,1.58,6.89.45,6.94.44l.1,0V55a1.9,1.9,0,0,0,.2.75l0,.08-.09,0a8.47,8.47,0,0,1-7.76-.4Zm.64-.74a3.08,3.08,0,0,1-.39.7,8.36,8.36,0,0,0,7.44.36,2.24,2.24,0,0,1-.16-.63C61.45,55.3,57.4,56.14,55.26,54.71Z"/><path class="9301ff13-a890-4b9f-b127-20d3ae1232a4" d="M60.68,122.67a15.43,15.43,0,0,0-1.12,3.67,11.63,11.63,0,0,1-1.43,4.72c-.79,1.13,2.21,3.26,4.77-.9S60.68,122.67,60.68,122.67Z"/><path class="3bc31d6a-9ae6-4368-b3b2-dc8d71e84738" d="M60.57,122.61a15,15,0,0,0-1.17,4,15.71,15.71,0,0,1-.78,3.25c-.18.47-.7,1-.72,1.5-.06,1.44,2.05,1.47,2.92,1.07a5.81,5.81,0,0,0,2.65-3.12,4.56,4.56,0,0,0-.11-3.46,7.51,7.51,0,0,0-2.63-3.17c-.08-.06-.24-.07-.1,0A7.74,7.74,0,0,1,63,125.33c1.19,2.19.37,4.58-1.33,6.24a2.93,2.93,0,0,1-2.59.92,1.17,1.17,0,0,1-.9-.83c-.09-.37.21-.68.38-1,.84-1.45,1-3.22,1.26-4.83a13.81,13.81,0,0,1,1-3.13S60.59,122.56,60.57,122.61Z"/><g class="790cbdbd-3a4e-4420-a803-d60fd4feddac"><path class="9301ff13-a890-4b9f-b127-20d3ae1232a4" d="M59.45,130.27c.71-.89,1.64-.54,1.49-2.37A9.2,9.2,0,0,1,62.13,124a8.49,8.49,0,0,0-1.45-1.36,15.43,15.43,0,0,0-1.12,3.67,11.63,11.63,0,0,1-1.43,4.72c-.37.53.11,1.29,1,1.5C58.23,131.91,58.87,131,59.45,130.27Z"/></g><path class="2c92eb46-5dc8-4550-bbbc-afffbd3e339d" d="M67.7,58s7,0,9.63,3.06,3.47,5,6.64,8.07,5.53,6,5.15,7.88-7.44,5.43-15.31,4.8c-.52-3-1-4.8-1-4.8a17.77,17.77,0,0,0,5.14-2.67c-1.82-1.55-4.67-4.32-5.24-5.44-.67,1.41-1.25,2.66-1.25,2.66l-1.72-2.3Z"/><path class="13c6f37f-ea00-4f30-b272-7ca16b4a3a0f" d="M67.75,58.14A16.22,16.22,0,0,1,75.88,60c1.79,1.07,3,3.14,4.22,4.79a41,41,0,0,0,4.25,4.87,20.65,20.65,0,0,1,4.28,5.39,2.28,2.28,0,0,1-.49,3.1,12.47,12.47,0,0,1-3.84,2.09,24,24,0,0,1-6,1.42,21.12,21.12,0,0,1-2.38.15c-.45,0-.9,0-1.34,0-.7,0-.74-.2-.86-.87-.22-1.22-.48-2.43-.79-3.63-.07-.27-.14-.15,0-.21.46-.16.91-.33,1.37-.52A13.85,13.85,0,0,0,78,74.46s0-.11,0-.14c-1-.86-2-1.77-2.92-2.71a12.7,12.7,0,0,1-2.28-2.68c0-.06-.18-.15-.22-.05l-1.26,2.66.21,0-1-1.42c-.22-.3-.62-.71-.66-1-.21-1.16-.41-2.32-.62-3.47l-1.38-7.68c0-.11-.26-.17-.24,0L69,65.86l.6,3.34c0,.29.35.55.51.77l1.24,1.67s.17.11.21,0c.41-.89.83-1.78,1.25-2.67l-.22,0a10.72,10.72,0,0,0,1.84,2.24c.89.94,1.83,1.83,2.8,2.69.09.08.62.41.44.56a7.09,7.09,0,0,1-.76.56,14.87,14.87,0,0,1-2.08,1.12,18.11,18.11,0,0,1-2.11.83.07.07,0,0,0,0,.08c.44,1.58.74,3.2,1,4.81a.15.15,0,0,0,.13.11,24.77,24.77,0,0,0,11.57-1.89,11,11,0,0,0,3.21-2,2.1,2.1,0,0,0,.53-2.34,12.5,12.5,0,0,0-3-4.44c-1.6-1.79-3.39-3.38-4.89-5.27-1.3-1.64-2.48-3.38-3.85-5a8.5,8.5,0,0,0-4.05-2.31,19.48,19.48,0,0,0-5.72-.81C67.5,57.94,67.64,58.14,67.75,58.14Z"/><path class="13c6f37f-ea00-4f30-b272-7ca16b4a3a0f" d="M77.93,74.38l.31-.23a9.76,9.76,0,0,1,.88-.49,8.55,8.55,0,0,1,1.34-.51,6.93,6.93,0,0,1,.79-.17,7.53,7.53,0,0,1,.83-.1,5.89,5.89,0,0,1,.84,0l.41,0,.39.06.38.08.36.1c.23.07.44.15.64.23s.37.16.52.24a4,4,0,0,1,.38.21l.33.2L86,73.87l-.4-.19c-.15-.07-.33-.13-.52-.2a5.35,5.35,0,0,0-.64-.2l-.35-.08-.38-.07a2.6,2.6,0,0,0-.39,0l-.4,0a7.51,7.51,0,0,0-.82,0,7.17,7.17,0,0,0-.81.08,6.33,6.33,0,0,0-.78.17,6.6,6.6,0,0,0-.71.21,4.6,4.6,0,0,0-.63.24,8.78,8.78,0,0,0-.9.43Z"/><polygon class="3421c9a0-3508-427f-b31d-0ec97abfa9d2" points="75.94 62.44 75.3 65.94 77.78 64.86 78.71 69.03 80.02 67.77 80.66 70.93 80.89 66.07 79.17 67.26 78.56 63.49 76.49 64.32 75.94 62.44"/><g class="790cbdbd-3a4e-4420-a803-d60fd4feddac"><path class="13c6f37f-ea00-4f30-b272-7ca16b4a3a0f" d="M89.12,77.05c.34-1.63-1.46-4.11-4.06-6.79a1.58,1.58,0,0,0,.38.57c2.92,3-1.66,2.68-7.08-1s-6.44-8.52-3.64-9.12,6.16,5.39,6.16,5.39l.42.14c-1.3-1.63-2.24-3.12-4-5.11C74.65,58,67.7,58,67.7,58l2,11.26,1.72,2.3s.58-1.25,1.25-2.66c.54,1,3.06,3.54,4.88,5.12,7.23-2.75,11.62,1.45,7.87,4.08-3,2.13-8.87,2.76-9.7.52a8.79,8.79,0,0,0-1.27-2.26c-1,.41-1.68.65-1.68.65s.5,1.76,1,4.8C81.68,82.48,88.74,78.9,89.12,77.05Z"/></g><path class="2c92eb46-5dc8-4550-bbbc-afffbd3e339d" d="M52.33,55.78c-1.63-.64-3.39-1.57-5.78-1.1-2.65.51-7.18,1-9.87.52a30.47,30.47,0,0,1,.77-5.83c-1,.25-3.87-1.8-3.87-1.8s-4.09,3.94-5.37,7.85.36,6.86,3,6.79c4.83.82,11.2,3.16,13.81,3A28.84,28.84,0,0,1,52.33,55.78Z"/><path class="13c6f37f-ea00-4f30-b272-7ca16b4a3a0f" d="M52.34,55.69a12.33,12.33,0,0,0-4.74-1.23,17.72,17.72,0,0,0-2.6.38c-1,.15-2,.26-3,.35s-1.9.11-2.86.11a14.66,14.66,0,0,1-1.62-.09,4.48,4.48,0,0,1-.64-.08c-.1,0,0-.75,0-.82a27.8,27.8,0,0,1,.69-4.9c0-.08-.1-.15-.17-.14-.78.14-1.71-.5-2.36-.87-.48-.28-.94-.58-1.39-.89,0,0-.12-.07-.17,0a26.52,26.52,0,0,0-4,5c-1.4,2.28-2.74,5.8-1,8.28a3.31,3.31,0,0,0,2.44,1.49,36.38,36.38,0,0,1,5.46,1.18c1.68.44,3.34.91,5,1.3a13.6,13.6,0,0,0,3.69.53.08.08,0,0,0,.07,0,27.59,27.59,0,0,1,7.32-9.42c.1-.08-.11-.23-.19-.16a30.62,30.62,0,0,0-7,8.72c-.11.23-.23.47-.33.7S43.21,65,43,64.94c-2.07-.35-4.1-1-6.13-1.5a30.73,30.73,0,0,0-6.05-1.34c-2.1-.11-2.92-2.36-2.92-4.15,0-3.74,2.87-7.25,5.32-9.83l.32-.33c.17-.17.13-.06,0-.16.33.23.66.44,1,.65.78.49,2,1.36,3,1.19l-.17-.14a33.61,33.61,0,0,0-.77,5.83c0,.07.07.12.14.13a26.37,26.37,0,0,0,7.68-.15,19.89,19.89,0,0,1,4.06-.46,13.26,13.26,0,0,1,3.87,1.19C52.47,55.94,52.47,55.74,52.34,55.69Z"/><path class="d0d95ed3-c23a-4484-90e9-2b8fa65119ef" d="M53.65,109.22a2.85,2.85,0,0,0-1-2.72c1.3-3.1,2.28-7.56,1.74-10.53-2.42-3.49-7.54-9.65-8.71-10.33,0,0-3.52,14.57-2.48,21.22.68,2.89,2,4.22,5.85,6.57C52.06,113.74,53.42,110.9,53.65,109.22Z"/><path class="1e43a1bb-3bad-4b27-bcd1-4bb7ca56930f" d="M53.76,109.26a3.15,3.15,0,0,0-.82-2.59l-.2-.17a7.92,7.92,0,0,0,.38-.88,24,24,0,0,0,.73-2.32,23.15,23.15,0,0,0,.76-4.36,13,13,0,0,0,0-2.25,2.19,2.19,0,0,0-.54-1.33c-1.5-2.09-3.11-4.09-4.77-6.06a17.8,17.8,0,0,0-3.58-3.72s-.13,0-.14,0A98.73,98.73,0,0,0,43,100.75c-.23,2.91-.5,6.22,1.17,8.78A12.42,12.42,0,0,0,48,112.82a2.7,2.7,0,0,0,2.15.68,3.76,3.76,0,0,0,2.24-1.2,5.64,5.64,0,0,0,1.41-3c0-.08-.22-.18-.23-.08a4.85,4.85,0,0,1-3.13,4.06c-1.38.42-2.41-.52-3.48-1.28a11.08,11.08,0,0,1-2.31-2.12c-2-2.58-1.58-6.38-1.32-9.42a93.16,93.16,0,0,1,1.5-10.1c.23-1.15.47-2.3.72-3.44l.21-.91c.08-.33,0-.24.12-.13a22.26,22.26,0,0,1,3,3.16c1.35,1.57,2.65,3.19,3.9,4.83l.77,1a3.6,3.6,0,0,1,.81,1.29,12.93,12.93,0,0,1,0,3.23,24.63,24.63,0,0,1-1.81,7.06s0,.08,0,.11a2.82,2.82,0,0,1,1,2.63C53.52,109.26,53.75,109.37,53.76,109.26Z"/><path class="9301ff13-a890-4b9f-b127-20d3ae1232a4" d="M59.13,120l.36-4s-1.83-3-4.18-6.59c-1.66-2.52-1.76-3.22-2.67-2.91a2.85,2.85,0,0,1,1,2.72c-.23,1.68-1.59,4.52-4.61,4.21l.82.5C54.31,116.61,59.13,120,59.13,120Z"/><path class="3bc31d6a-9ae6-4368-b3b2-dc8d71e84738" d="M59.24,120c.11-1.11.21-2.22.31-3.34,0-.2.12-.53,0-.72-.31-.51-.63-1-1-1.52-1.37-2.21-2.81-4.37-4.18-6.58-.43-.69-.89-1.73-1.86-1.43-.08,0,0,.12,0,.15,1.26.9,1.09,2.65.61,3.92A4.1,4.1,0,0,1,49,113.33c-.14,0-.11.12,0,.17,3.4,2.09,6.78,4.23,10.06,6.51.11.08.27,0,.13-.1-2.7-1.89-5.47-3.7-8.28-5.43l-1.56-1a2.48,2.48,0,0,0,1,0,3.8,3.8,0,0,0,2-1.17,5.18,5.18,0,0,0,1.39-4.1,2.77,2.77,0,0,0-.8-1.54,1,1,0,0,0-.15-.14c-.15-.14,0,0,0,0,.36-.12.58.09.79.36A23.47,23.47,0,0,1,55,109.16c.74,1.13,1.48,2.27,2.2,3.42s1.44,2.28,2.14,3.42a6.88,6.88,0,0,1-.1,1L59.09,119c0,.29-.06.59-.08.88C59,120,59.23,120.12,59.24,120Z"/><g class="b3c42b29-cc0b-4bbd-bbd8-95910ff17b11"><path class="1e43a1bb-3bad-4b27-bcd1-4bb7ca56930f" d="M53.65,109.22a2.85,2.85,0,0,0-1-2.72c1.3-3.1,2.28-7.56,1.74-10.53-2.42-3.49-7.54-9.65-8.71-10.33,0,0-1.19,4.92-2,10.34.54-1.58,2.24-5.87,4.19-3.58,2.36,2.78,2.93,3.66,4.55,4.76s-.61,9.24-2.76,11.11-5.37,2.35-6.63-2.89c0,.53.08,1,.15,1.48.68,2.89,2,4.22,5.85,6.57C52.06,113.74,53.42,110.9,53.65,109.22Z"/></g><path class="d0d95ed3-c23a-4484-90e9-2b8fa65119ef" d="M61.24,118.61c2.61.65,5-2.83,4.19-5.27,0-.1-.06-.2-.08-.3-.62-2.31-1.34-4.34-.53-7.2s4.34-13.13,2.11-17.92c0,0-8.61,1.5-12.47,7.41,0,0-1.28,10.81,2.21,16.92a17.46,17.46,0,0,1,1.76,3.54A3.44,3.44,0,0,0,61.24,118.61Z"/><path class="1e43a1bb-3bad-4b27-bcd1-4bb7ca56930f" d="M61.26,118.71c2.59.55,4.56-2.28,4.43-4.63a13.25,13.25,0,0,0-.59-2.39,16.36,16.36,0,0,1-.49-2.49,11.37,11.37,0,0,1,.67-4.47,70,70,0,0,0,2.11-8.45c.45-2.69.8-5.81-.35-8.37a.17.17,0,0,0-.16-.09,22.81,22.81,0,0,0-6.71,2.4A16.65,16.65,0,0,0,55.32,94c-.3.35-.94.92-1,1.39,0,.31-.06.63-.08.94a42.47,42.47,0,0,0,.25,9.36,21.48,21.48,0,0,0,1.46,5.4c.65,1.5,1.61,2.86,2.24,4.37.12.3.15.61.26.91a3.86,3.86,0,0,0,2.77,2.35c.16,0,.15-.14,0-.18a3.56,3.56,0,0,1-2.71-2.76,15.83,15.83,0,0,0-1.46-3,25,25,0,0,1-2.72-11.56c0-1.45,0-2.91.09-4.36,0-.39,0-.78.09-1.16a2.26,2.26,0,0,1,.66-1.18c2.43-3.14,6.31-5,10-6.09.43-.12.85-.23,1.28-.32l.35-.08c.17,0,0,0,.08.2a11.08,11.08,0,0,1,.56,4.68,42.16,42.16,0,0,1-1.87,9.69c-.3,1-.62,2.07-.92,3.11a10.27,10.27,0,0,0,0,5.28c.41,1.76,1.13,3.29.4,5.07a3.63,3.63,0,0,1-3.87,2.46C61.05,118.48,61.14,118.68,61.26,118.71Z"/><g class="85bfacd9-53eb-4e99-921f-4c6bf824a4f8"><path class="1e43a1bb-3bad-4b27-bcd1-4bb7ca56930f" d="M65.43,113.34c0-.1-.06-.2-.08-.3-.62-2.31-1.34-4.34-.53-7.2s4.34-13.13,2.11-17.92c0,0-8.61,1.5-12.47,7.41,0,0-1.28,10.81,2.21,16.92a17.46,17.46,0,0,1,1.76,3.54,3.44,3.44,0,0,0,2.81,2.82C63.85,119.26,66.22,115.78,65.43,113.34ZM58.24,113c-2.77-3.18-3.24-8.71-2.65-13.54s6-7.14,6-7.14c6.54-3.77,5.72,2.11,4.26,7.82S63,107.79,62.8,111.41,61,116.17,58.24,113Z"/></g><path class="d0d95ed3-c23a-4484-90e9-2b8fa65119ef" d="M55,66.87c0-.17.11-.33.17-.49a49.29,49.29,0,0,0,2.11-10,7.18,7.18,0,0,1-2.56-1,1.62,1.62,0,0,1-1.93.54l-.49-.19A28.84,28.84,0,0,0,45,65.21a18.55,18.55,0,0,0-.1,12.05,19.26,19.26,0,0,1,.49,4.18C45.39,80.48,45.8,73.45,55,66.87Z"/><path class="01fdff95-e404-4aec-bfe5-d335d93ae931" d="M55.14,66.93a48.82,48.82,0,0,0,2.28-10.47c0-.07-.13-.12-.17-.13a7.53,7.53,0,0,1-2.48-.94s-.1-.06-.13,0a1.81,1.81,0,0,1-2.32.35.12.12,0,0,0-.1,0,27.56,27.56,0,0,0-7.34,9.43,15.94,15.94,0,0,0-1,7,22.06,22.06,0,0,0,.75,4.49,22,22,0,0,1,.66,4.78c0,.07.22.17.23.1a12.93,12.93,0,0,1,1.32-5.09,24.6,24.6,0,0,1,8.31-9.46c.06,0-.15-.19-.2-.15a25.13,25.13,0,0,0-8.26,9.33,13,13,0,0,0-1.4,5.27l.23.1a23.65,23.65,0,0,0-.37-3.66c-.23-1.16-.6-2.27-.8-3.43a18.73,18.73,0,0,1,0-6.51,16.07,16.07,0,0,1,2.9-6.29,31.8,31.8,0,0,1,4.23-4.89c.41-.39.78-.89,1.38-.67a2,2,0,0,0,1,.1,1.48,1.48,0,0,0,.81-.4c.32-.26.48-.05.81.12a7.68,7.68,0,0,0,1.29.47c.45.13.47.09.41.56-.11,1-.26,1.94-.42,2.91a45.48,45.48,0,0,1-1.79,7C54.89,66.88,55.12,67,55.14,66.93Z"/><path class="2c92eb46-5dc8-4550-bbbc-afffbd3e339d" d="M55,66.87c-9.23,6.58-9.64,13.61-9.65,14.57,0,.11,0,.24,0,.35a23.15,23.15,0,0,0,6.84,2.77c0-1.28.15-4.24.34-6.47A46.65,46.65,0,0,1,55,66.87Z"/><path class="13c6f37f-ea00-4f30-b272-7ca16b4a3a0f" d="M54.93,66.79C50.67,69.86,46.8,74,45.56,79.28c-.09.38-.61,2.28-.19,2.56a22.7,22.7,0,0,0,6.89,2.79s.08,0,.08,0c.09-2.64.17-5.31.49-7.94a47.94,47.94,0,0,1,2.31-9.74c0-.08-.2-.19-.22-.13a49.33,49.33,0,0,0-2.58,12.81c-.07,1-.12,2.1-.16,3.15,0,.42,0,.85,0,1.27,0,.19.09.47-.26.38s-.81-.22-1.22-.35a21.63,21.63,0,0,1-4.94-2.13c-.3-.18-.22-.29-.21-.62s0-.53.07-.79a13.83,13.83,0,0,1,.72-2.83,21.47,21.47,0,0,1,5.86-8.35,29.79,29.79,0,0,1,3-2.4C55.19,66.89,55,66.75,54.93,66.79Z"/><path class="d0d95ed3-c23a-4484-90e9-2b8fa65119ef" d="M69,76.21c3.24-6,3.43-5.82,2.1-10.92s-2.56-7.24-3.64-7.37c-2.36-.27-4.43-.79-5.07-2.1a9.6,9.6,0,0,1-4.72.65,48.1,48.1,0,0,1-2.11,10c-.05.13-.09.25-.13.38,4.06,4.65,8.66,9,11.1,16.6A20,20,0,0,1,69,76.21Z"/><path class="01fdff95-e404-4aec-bfe5-d335d93ae931" d="M69.15,76.27a25.6,25.6,0,0,0,2.73-5.65c.42-1.62-.11-3.33-.51-4.9-.6-2.33-1.2-5-2.62-7a2.13,2.13,0,0,0-1.13-.9c-1.7-.39-4.1-.28-5.08-2a.19.19,0,0,0-.19-.09,9.89,9.89,0,0,1-4.66.65s-.09,0-.1.06a48,48,0,0,1-2.23,10.34.08.08,0,0,0,0,.09c2,2.27,4.06,4.46,5.91,6.85a32.27,32.27,0,0,1,5.17,9.7c0,.07.21.19.23.06a20.72,20.72,0,0,1,2.46-7.2c.06-.1-.16-.23-.22-.12a20.69,20.69,0,0,0-2.48,7.24l.24,0a35.77,35.77,0,0,0-7.1-12.11c-.69-.8-1.4-1.59-2.11-2.39-.35-.38-.7-.78-1-1.17-.18-.19-.35-.39-.52-.58-.32-.36-.25-.54-.1-1a40.76,40.76,0,0,0,1.59-6.63c.14-.81.25-1.62.35-2.43,0-.37,0-.61.39-.57a9.21,9.21,0,0,0,1.39,0c.29,0,2.88-.62,2.89-.6a3.44,3.44,0,0,0,1.77,1.29,13,13,0,0,0,3.33.72c.5.06.85.53,1.12.91a17.31,17.31,0,0,1,2.13,5.4c.52,1.83,1.27,3.94,1,5.87-.35,2.1-1.8,4.11-2.79,6C68.87,76.25,69.1,76.37,69.15,76.27Z"/><path class="2c92eb46-5dc8-4550-bbbc-afffbd3e339d" d="M66.57,83.43c-2.44-7.64-7-12-11.1-16.6A47,47,0,0,0,53,78.17c-.19,2.24-.3,5.22-.34,6.49a30.83,30.83,0,0,0,13.87,0A11.11,11.11,0,0,1,66.57,83.43Z"/><path class="13c6f37f-ea00-4f30-b272-7ca16b4a3a0f" d="M66.68,83.45a32.58,32.58,0,0,0-4.87-9.33c-1.91-2.58-4.14-4.9-6.26-7.31,0,0-.17-.12-.19,0a49.75,49.75,0,0,0-2.3,9.47,80.74,80.74,0,0,0-.55,8.37c0,.07.09.12.15.13a31.74,31.74,0,0,0,13.92,0s0,0,0,0a11.87,11.87,0,0,1,.07-1.19c0-.09-.23-.19-.23-.09,0,.26,0,.51-.06.76,0,.51-.49.5-.9.58-.78.16-1.58.28-2.37.38a31.15,31.15,0,0,1-4.63.22A30.31,30.31,0,0,1,54.7,85c-.57-.09-1.13-.2-1.7-.31s-.22-.88-.21-1.26c.1-2.51.21-5,.56-7.54a49.75,49.75,0,0,1,2.23-9l-.2,0c2,2.33,4.18,4.58,6.06,7.05a32.09,32.09,0,0,1,5,9.5C66.48,83.48,66.72,83.56,66.68,83.45Z"/><g class="790cbdbd-3a4e-4420-a803-d60fd4feddac"><path class="13c6f37f-ea00-4f30-b272-7ca16b4a3a0f" d="M66.57,83.43c-2.44-7.64-7-12-11.1-16.6A47,47,0,0,0,53,78.17c-.19,2.24-.3,5.22-.34,6.49a30.83,30.83,0,0,0,13.87,0A11.11,11.11,0,0,1,66.57,83.43Zm-6.72.26c-1.48.52-6,.32-6.07-1.09-.2-2.33,1.32-10.53,1.32-10.53.71-3.25,2.6-1.57,4.4,2.9S61.34,83.17,59.85,83.69Z"/></g><path class="2c92eb46-5dc8-4550-bbbc-afffbd3e339d" d="M45.36,84.62c0,.48,0,.93,0,1.31s1.7,1,3.55,4.49S51.8,95.2,54.38,96a25.63,25.63,0,0,1,8.52-5.88c3.44-1.24,4.28-1.54,4.36-2.1a5.17,5.17,0,0,0-.4-1.62C55.75,92.27,45.56,84.77,45.36,84.62Z"/><path class="13c6f37f-ea00-4f30-b272-7ca16b4a3a0f" d="M45.25,84.57c0,1-.2,1.38.51,2a13.68,13.68,0,0,1,3,3.81,16.45,16.45,0,0,0,2.72,4,7.17,7.17,0,0,0,3,1.64s.06,0,.08,0a24.11,24.11,0,0,1,8.81-6,22.61,22.61,0,0,0,3.58-1.42c.85-.5.35-1.45.08-2.21,0,0-.16-.15-.21-.12a19.76,19.76,0,0,1-14.7,1.43,20.8,20.8,0,0,1-6.65-3.13c-.08-.06-.24-.07-.09,0A21.47,21.47,0,0,0,52,87.8a19.85,19.85,0,0,0,15-1.36l-.21-.12c.29.83.74,1.69-.15,2.22a20.07,20.07,0,0,1-3.2,1.26,24.38,24.38,0,0,0-8.09,5.1c-.53.49-.83,1.07-1.6.8a6.08,6.08,0,0,1-2.2-1.4,19,19,0,0,1-2.86-4.41A12.1,12.1,0,0,0,46.4,87c-.27-.24-.56-.47-.82-.73s-.12-1.16-.11-1.61C45.48,84.61,45.25,84.51,45.25,84.57Z"/><path class="07f6d14d-9140-401d-b59e-0fda97a7c3c9" d="M45.39,81.79c0,1.24,0,1.62,0,2.83.2.15,10.39,7.65,21.5,1.75l-.27-.7a5,5,0,0,1-.09-1.06C53.93,87.45,45.62,82,45.39,81.79Z"/><g class="790cbdbd-3a4e-4420-a803-d60fd4feddac"><path class="13c6f37f-ea00-4f30-b272-7ca16b4a3a0f" d="M67.26,88a5.17,5.17,0,0,0-.4-1.62c-11.11,5.9-21.3-1.6-21.5-1.75,0,.48,0,.93,0,1.31s1.7,1,3.55,4.49S51.8,95.2,54.38,96a25.63,25.63,0,0,1,8.52-5.88C66.34,88.85,67.18,88.55,67.26,88ZM49.81,91c-1.19-2.73-1.27-4.13-.29-3.41a19.07,19.07,0,0,0,6.25,1.51c2.69,0-.46,2.82-1.84,4.48S51,93.72,49.81,91Z"/></g><g class="35154c8b-643e-4bc3-9325-382679ba8231"><path class="4c083754-7ab3-40d4-be33-a166215faeee" d="M64,86.72a2.25,2.25,0,0,1,1.67.25c.41-.19.82-.38,1.23-.6l-.27-.7a5,5,0,0,1-.09-1.06C53.93,87.45,45.62,82,45.39,81.79c0,1.24,0,1.62,0,2.83a18.87,18.87,0,0,0,2.78,1.63c.07-.6.28-1.33.84-1.25.81.12.86,1,1.14,2.12a22.48,22.48,0,0,0,5.21,1.34c0-.64.29-1.67,1.59-1.6,1.55.08,2.36.62,2.44,1.71a17.6,17.6,0,0,0,3-.47C62.38,87.59,62.69,86.91,64,86.72Z"/></g><path class="99d720c5-44f1-4edf-8b8d-664b64ffa962" d="M65.35,113.37a2.49,2.49,0,0,1-.08-.32l.16,0c0,.11.06.21.08.31Z"/><g class="b3c42b29-cc0b-4bbd-bbd8-95910ff17b11"><path class="5c56b1d7-aafc-4c65-a56d-005f0ccd51f0" d="M57.35,112.84a1.78,1.78,0,0,1,.07.17,3,3,0,0,0,.2.44c0,.09.1.18.15.28s.13.19.21.28l.12.15a1.49,1.49,0,0,0,.12.14,2.37,2.37,0,0,0,.28.27l.3.25.32.2.32.16a1.85,1.85,0,0,0,.29.13,1.63,1.63,0,0,0,.25.1l.2.06.18.06-.18,0-.21,0a1.54,1.54,0,0,1-.27-.07,1.86,1.86,0,0,1-.31-.1c-.11,0-.23-.09-.34-.15a3,3,0,0,1-.34-.2c-.1-.08-.22-.16-.32-.25a4,4,0,0,1-.29-.29,2.34,2.34,0,0,1-.24-.31,2.59,2.59,0,0,1-.19-.31l-.14-.3a2,2,0,0,1-.09-.26c0-.08,0-.15-.06-.21S57.35,112.84,57.35,112.84Z"/><path class="5c56b1d7-aafc-4c65-a56d-005f0ccd51f0" d="M64.82,105.84l-.1.28c-.07.18-.15.44-.25.74s-.21.66-.32,1c-.06.19-.1.39-.16.6l-.15.62c0,.21-.09.42-.12.62s-.08.42-.11.61-.06.39-.07.58a4.87,4.87,0,0,0,0,.51c0,.16,0,.31,0,.44v.34c0,.19,0,.29,0,.29l0-.29c0-.09,0-.21,0-.34s0-.28,0-.44,0-.34,0-.52,0-.39.05-.59.06-.4.09-.61.09-.43.13-.64.1-.42.15-.62.12-.41.18-.6c.12-.39.25-.74.37-1a7.24,7.24,0,0,1,.31-.72Z"/><path class="5c56b1d7-aafc-4c65-a56d-005f0ccd51f0" d="M52.73,106.41l-.06.16c0,.09-.11.22-.19.38l-.14.25-.17.28a6.75,6.75,0,0,1-.41.57l-.23.27-.24.25a2.32,2.32,0,0,1-.25.21l-.23.18a1.57,1.57,0,0,1-.21.12l-.17.09-.15.06.14-.09.15-.11a2,2,0,0,0,.18-.15l.21-.19.22-.23c.15-.16.3-.33.45-.52s.29-.37.42-.55.24-.35.35-.49Z"/><path class="5c56b1d7-aafc-4c65-a56d-005f0ccd51f0" d="M48.35,110.1a.83.83,0,0,1-.15.13l-.2.12-.12.07-.15.07-.34.1-.19,0-.2,0a2.44,2.44,0,0,1-.87-.08,2.92,2.92,0,0,1-.42-.13,2.25,2.25,0,0,1-.38-.19l-.34-.21-.28-.21-.12-.1-.1-.1-.16-.16-.14-.15.16.12.18.14.24.17.29.19.34.18a2.43,2.43,0,0,0,.37.16,3.1,3.1,0,0,0,.4.13c.14,0,.28,0,.41.08s.28,0,.41,0h.19l.19,0,.33-.07.27-.1.21-.1Z"/></g><path class="07f6d14d-9140-401d-b59e-0fda97a7c3c9" d="M55.6,66.45a48.1,48.1,0,0,0,2.11-10l-.4-.06a49.29,49.29,0,0,1-2.11,10,47.18,47.18,0,0,0-2.63,11.71c-.19,2.23-.3,5.19-.34,6.47l.4.1c0-1.27.15-4.25.34-6.49A47.24,47.24,0,0,1,55.6,66.45Z"/><g class="b3c42b29-cc0b-4bbd-bbd8-95910ff17b11"><path class="1c0ce099-f481-43e8-8d5c-9c649b3b655e" d="M51,57.44l.21.16.54.45c.22.18.5.39.77.62s.58.48.88.73l.87.73.39.36a3.38,3.38,0,0,1,.31.37l.1.19.06.18c0,.12,0,.22.06.31s0,.26,0,.26l-.06-.26c0-.08,0-.18-.09-.29a.87.87,0,0,1-.07-.17s-.07-.11-.11-.17a2.45,2.45,0,0,0-.32-.33c-.12-.11-.26-.21-.4-.33l-.43-.35-.45-.37-.87-.75-.74-.66-.5-.49Z"/><path class="1c0ce099-f481-43e8-8d5c-9c649b3b655e" d="M58.07,61.81l.09,0,.24-.08.38-.12.5-.13c.18,0,.39-.08.6-.12s.44-.09.67-.12L62,61l2.74-.39.91-.11.35,0-.34.07-.9.18c-.37.06-.81.16-1.27.23L62,61.14l-1.47.21-.67.09c-.21,0-.42.05-.6.09l-.51.1-.38.09-.25.06Z"/><path class="1c0ce099-f481-43e8-8d5c-9c649b3b655e" d="M54.75,55.43a3.48,3.48,0,0,1,0,.39,3.17,3.17,0,0,1,0,.41,3.87,3.87,0,0,1-.06.46l-.06.23a1.8,1.8,0,0,1-.06.22,3.4,3.4,0,0,1-.16.37.85.85,0,0,1-.09.14.43.43,0,0,1-.07.1l-.07.09,0-.1c0-.06.06-.16.1-.27a1.54,1.54,0,0,1,0-.17c0-.07,0-.13,0-.2s.07-.3.1-.45l.09-.44c0-.15,0-.28.07-.4S54.75,55.43,54.75,55.43Z"/><path class="1c0ce099-f481-43e8-8d5c-9c649b3b655e" d="M62.43,55.82a2.57,2.57,0,0,1,0,.28,2.48,2.48,0,0,1,0,.29c0,.1,0,.22,0,.33s0,.22,0,.33v.29c0,.08,0,.15,0,.2v.08l0-.07,0-.09,0-.11,0-.14a.77.77,0,0,1,0-.15c0-.11,0-.22,0-.34s0-.23,0-.33a2,2,0,0,1,0-.29A1.37,1.37,0,0,1,62.43,55.82Z"/></g><path class="7cdfd5fc-a2a3-4411-af37-386f717b32f2" d="M42.53,55.24a31.44,31.44,0,0,1-3.72.15c.4,1.39.67,4.44-2.93,7.88,1.41.37,2.83.76,4.13,1.09C43.74,60.15,43.09,56.7,42.53,55.24Z"/><path class="01fdff95-e404-4aec-bfe5-d335d93ae931" d="M42.48,55.15a35.58,35.58,0,0,1-3.72.14.07.07,0,0,0-.07.08c.84,3-.84,5.8-2.91,7.82-.06.06,0,.15.09.17,1.38.36,2.75.74,4.13,1.09a.11.11,0,0,0,.11,0c2.18-2.51,3.77-5.89,2.53-9.21,0-.1-.27-.13-.22,0a7.31,7.31,0,0,1,.11,4.53,10.69,10.69,0,0,1-1.74,3.41c-.17.25-.71,1.1-1.07,1l-1.25-.33-2.58-.69c0,.06,0,.12.08.17a9.72,9.72,0,0,0,3.13-5.47,5.84,5.84,0,0,0-.06-2,2.74,2.74,0,0,0-.09-.39,8.35,8.35,0,0,0,1.12,0c.84,0,1.67-.08,2.51-.15C42.73,55.32,42.59,55.13,42.48,55.15Z"/><path class="13c6f37f-ea00-4f30-b272-7ca16b4a3a0f" d="M36.68,55.2a2.57,2.57,0,0,1,0,.27c0,.17,0,.42-.1.72s-.12.63-.22,1c-.05.18-.11.37-.17.55s-.14.38-.22.56-.16.37-.25.54-.18.35-.28.51a3.88,3.88,0,0,1-.29.45c-.11.14-.2.28-.3.39a2.7,2.7,0,0,1-.27.3l-.22.22-.2.19.17-.21.21-.24.24-.32c.09-.12.17-.26.26-.4a5.06,5.06,0,0,0,.27-.46,3.36,3.36,0,0,0,.26-.5,3.28,3.28,0,0,0,.24-.54,5.09,5.09,0,0,0,.22-.54c.06-.19.13-.36.18-.54.11-.35.21-.68.28-1s.13-.53.16-.71Z"/><path class="13c6f37f-ea00-4f30-b272-7ca16b4a3a0f" d="M33.56,61.54l-.07.08-.21.16-.16.1a.75.75,0,0,1-.18.08l-.2.09-.21.07-.21.06-.22,0-.2,0h-.55a2.28,2.28,0,0,1,.36-.08l.17,0,.19,0,.21,0,.2-.07.21-.05.19-.07.19-.07.16-.07.24-.1Z"/><path class="13c6f37f-ea00-4f30-b272-7ca16b4a3a0f" d="M47.31,57.88s0,.12,0,.33a7.84,7.84,0,0,1,0,.89c0,.18-.05.38-.09.59s0,.21,0,.31,0,.22-.07.33-.12.45-.19.68-.14.47-.22.7l-.27.68c-.1.22-.19.43-.29.64l-.3.58c-.1.19-.21.35-.3.51s-.18.3-.27.43l-.21.31c-.13.18-.19.28-.19.28a3,3,0,0,1,.16-.29c0-.1.11-.21.19-.34s.15-.27.23-.43.19-.34.28-.52.17-.39.28-.6.18-.42.27-.64.17-.44.26-.67.16-.46.23-.68.14-.45.19-.67S47,60.08,47,60s0-.21.07-.31.08-.4.11-.57.06-.35.07-.49,0-.28,0-.39S47.31,57.88,47.31,57.88Z"/><path class="2c92eb46-5dc8-4550-bbbc-afffbd3e339d" d="M47.83,82.87v3.32l-1.22-.53V82.32S47.35,82.7,47.83,82.87Z"/><path class="13c6f37f-ea00-4f30-b272-7ca16b4a3a0f" d="M47.72,82.82c0,.81,0,1.61,0,2.41,0,.3,0,.6,0,.9,0,0,.16,0,0-.06l-.33-.14-.67-.29c-.07,0,.06.14.06,0s0-.34,0-.51V82.43c0-.1,0,0-.08-.05l.33.16c.3.15.61.28.91.4s0-.11-.07-.13a13.29,13.29,0,0,1-1.22-.54s-.1,0-.1,0c0,1.11,0,2.23,0,3.34,0,0,.09.09.13.1l1.21.53s.1,0,.1,0c0-1.11,0-2.21,0-3.31C48,82.86,47.72,82.76,47.72,82.82Z"/><path class="2c92eb46-5dc8-4550-bbbc-afffbd3e339d" d="M60.15,85.2s-.24,2.86-.29,3.4a8.13,8.13,0,0,0,1.68-.26c.21-3,.05-3.16.05-3.16Z"/><path class="13c6f37f-ea00-4f30-b272-7ca16b4a3a0f" d="M60,85.16c-.1,1.13-.18,2.27-.29,3.4,0,.08.09.15.17.14a5.27,5.27,0,0,0,1.71-.27s0,0,0-.05c.05-.82.11-1.65.11-2.48a3.07,3.07,0,0,0-.05-.68c-.09-.35-1.35-.12-1.62-.12s0,.19.1.19h1.37c.11,0-.1-.18-.07,0s0,.26,0,.39c0,.8,0,1.6-.09,2.39,0,.44-.6.38-1,.42q-.33,0-.66.06l.17.14c.1-1.13.19-2.27.29-3.41C60.27,85.13,60,85,60,85.16Z"/><path class="dfd37ea0-90cc-45cf-8ccd-51e528b7eb55" d="M44.82,95.28s-1.72,7.21-.35,11.33c1.22,3.63,3.6-1.49,4.75-6.08S46.45,90,44.82,95.28Z"/><g class="85bfacd9-53eb-4e99-921f-4c6bf824a4f8"><path class="1e43a1bb-3bad-4b27-bcd1-4bb7ca56930f" d="M53.65,109.22a2.92,2.92,0,0,0-.83-2.56,8.35,8.35,0,0,1-2.25,2.81c2.48-.6,2,1.18.75,2.48a3.38,3.38,0,0,1-3.77.53c.45.3.94.61,1.49,1C52.06,113.74,53.42,110.9,53.65,109.22Z"/></g><path class="2a041d0b-88b3-474b-a068-6c856ddc81a9" d="M65.87,100.13c1.46-5.71,2.28-11.59-4.26-7.82,0,0-5.44,2.32-6,7.14s-.12,10.36,2.65,13.54,4.36,2,4.56-1.58S64.42,105.85,65.87,100.13Z"/><g class="b3c42b29-cc0b-4bbd-bbd8-95910ff17b11"><path class="1e43a1bb-3bad-4b27-bcd1-4bb7ca56930f" d="M65.43,113.34c0-.1-.06-.2-.08-.3-.52-2-1.12-3.69-.81-5.9a14.88,14.88,0,0,0-1.16,6c.12,2.51.36-.46.89-1s1.12,3.13-.39,4.94a2.69,2.69,0,0,1-4.41-.4c-.77-1.2.36-.45,1.25-.91.68-.35-.9.22-2.93-1.45a7.21,7.21,0,0,1,.64,1.46,3.44,3.44,0,0,0,2.81,2.82C63.85,119.26,66.22,115.78,65.43,113.34Z"/></g><path class="73fbec6b-1445-45f9-a482-f290b589377b" d="M60.87,94a9.79,9.79,0,0,0-4.79,6.43c-.75,4.34,1.44,12.67,3.69,12.8s1.32-3.79,3.1-9.51S64.63,92.25,60.87,94Z"/><path class="dfd37ea0-90cc-45cf-8ccd-51e528b7eb55" d="M49.38,110.84a6.4,6.4,0,0,1-1.6.51c-1,.17.26,1.68,1.94.94S50.66,110.19,49.38,110.84Z"/><g class="eb877a60-153b-4c8e-9eda-2d78f40623d4"><path class="1e43a1bb-3bad-4b27-bcd1-4bb7ca56930f" d="M75.64,59.77c-2.81-1.57-6.91-1.72-7.77-1.73a1.14,1.14,0,0,0-.37-.12c-2.36-.27-4.43-.79-5.07-2.1a9.6,9.6,0,0,1-4.72.65,54.79,54.79,0,0,1-1.08,6.42,17.48,17.48,0,0,1,4.45-1.24A123.69,123.69,0,0,1,75.64,59.77Z"/><path class="1e43a1bb-3bad-4b27-bcd1-4bb7ca56930f" d="M54.75,55.43a1.62,1.62,0,0,1-1.93.54l-.49-.19c-1.59-.62-3.29-1.51-5.59-1.13a16.78,16.78,0,0,1,3.45,2.56c3.73,3.48,4.3,4,5,5.39.31.58.46.65.93.48a56.13,56.13,0,0,0,1.15-6.67A7.18,7.18,0,0,1,54.75,55.43Z"/></g><g class="b3c42b29-cc0b-4bbd-bbd8-95910ff17b11"><path class="1e43a1bb-3bad-4b27-bcd1-4bb7ca56930f" d="M61.59,57.23l1,1.59.63-1.45a8.4,8.4,0,0,0,5,.68h-.32a1.14,1.14,0,0,0-.37-.12c-2.36-.27-4.43-.79-5.07-2.1a9.6,9.6,0,0,1-4.72.65c-.07.6-.2,1.71-.42,3.05C58.67,60.6,60,58.38,61.59,57.23Z"/><path class="1e43a1bb-3bad-4b27-bcd1-4bb7ca56930f" d="M54.75,55.43a1.62,1.62,0,0,1-1.93.54l-.49-.19-.28-.11a4,4,0,0,0,1.59,1.09c1,.23.42,1.84.42,1.84l1-1.37s.46.45,1.84,2c.2-1.22.32-2.21.38-2.77A7.18,7.18,0,0,1,54.75,55.43Z"/></g><g class="790cbdbd-3a4e-4420-a803-d60fd4feddac"><path class="13c6f37f-ea00-4f30-b272-7ca16b4a3a0f" d="M52.33,55.78c-1.63-.64-3.39-1.57-5.78-1.1a44.44,44.44,0,0,1-4.86.63c.83,0,3.37.22,4.32,1.14,1.13,1.11-1,4.91-6.69,4.74-4.51-.14-3-2.91-2.48-6l-.16,0a30.47,30.47,0,0,1,.77-5.83c-1,.25-3.87-1.8-3.87-1.8s-.62.6-1.46,1.56A4.13,4.13,0,0,0,35.58,51c.69,3.37-1.87,10.87-5.17,10.35-1.29-.21-2.11-1.55-2.64-3.12.09,2.41,1.49,4,3.41,4,4.83.82,11.2,3.16,13.81,3A28.84,28.84,0,0,1,52.33,55.78Z"/></g><g class="eb877a60-153b-4c8e-9eda-2d78f40623d4"><path class="13c6f37f-ea00-4f30-b272-7ca16b4a3a0f" d="M77.85,74.31a6.77,6.77,0,0,0-.85.77,9.81,9.81,0,0,0,.93-.7Z"/><path class="13c6f37f-ea00-4f30-b272-7ca16b4a3a0f" d="M45.48,74.74c-2-6,1-11.33,1.51-14.34-2.53,4.54-9.35,3.24-13.05.69a5.39,5.39,0,0,1-2.55,1.15c4.8.86,11,3.13,13.6,3a18.55,18.55,0,0,0-.1,12.05,19.26,19.26,0,0,1,.49,4.18c0,.11,0,.24,0,.35,0,1.24,0,1.62,0,2.83,0,.48,0,.93,0,1.31s1.7,1,3.55,4.49a20.64,20.64,0,0,0,2,3.27c-1.12-2-1.93-4.38-3.4-6.63C44.92,83.12,47.9,80.68,45.48,74.74Z"/><path class="13c6f37f-ea00-4f30-b272-7ca16b4a3a0f" d="M81.13,73.13c-2.18-.69-6.55-3.85-8.93-8.08-2-3.51-.38,1.85-2.64,7.42S66.38,75.4,64.69,75s-3.61-.36-6.45,3.85a1.29,1.29,0,0,0,.66,1.91,5.4,5.4,0,0,0,1.23,2.16c.34,1.6,1.81,4-.81,6.35-2.25,2-4.55,5.3-6.12,6.24a8.54,8.54,0,0,0,1.18.44,25.63,25.63,0,0,1,8.52-5.88c3.44-1.24,4.28-1.54,4.36-2.1a5.17,5.17,0,0,0-.4-1.62l-.27-.7a5,5,0,0,1-.09-1.06,11.11,11.11,0,0,1,.07-1.18A20,20,0,0,1,69,76.21c1.17-2.16,1.94-3.52,2.39-4.62h0s.58-1.25,1.25-2.66c.57,1.1,3.34,3.81,5.16,5.37A5.38,5.38,0,0,1,81.13,73.13Z"/><path class="13c6f37f-ea00-4f30-b272-7ca16b4a3a0f" d="M77,75.08l-.14.09,0,0Z"/></g><path class="7cdfd5fc-a2a3-4411-af37-386f717b32f2" d="M72,82.68c.84-.25,2.26-.1,2.46-.47a4.77,4.77,0,0,0-2-6.28,14.25,14.25,0,0,0-3.19,1.32c-.47.19-.14.62-.06.82a1.09,1.09,0,0,1,1.47.68c.4,1.11.61,3.27-.35,3.65C70.42,83.09,71.11,82.93,72,82.68Z"/><path class="01fdff95-e404-4aec-bfe5-d335d93ae931" d="M72,82.78c.7-.18,1.49-.06,2.17-.29s.62-.92.73-1.43a4.88,4.88,0,0,0-1.05-4.12,3.63,3.63,0,0,0-1.38-1.11c-.49-.15-1.54.48-2,.67s-.89.42-1.32.65-.26.57-.09.94a.16.16,0,0,0,.19.08c1-.4,1.37.77,1.52,1.55s.28,2.16-.55,2.58a.07.07,0,0,0,0,.08c.24.89,1.14.59,1.82.39.14,0,0-.22-.14-.19l-.51.14a.68.68,0,0,1-.84-.3.84.84,0,0,0,.24-.22,1.78,1.78,0,0,0,.32-.89,5.15,5.15,0,0,0-.25-2.4,1.34,1.34,0,0,0-1.07-1,1.27,1.27,0,0,0-.51,0c-.22.06,0,0,0,0a.5.5,0,0,1,.18-.68,16.86,16.86,0,0,1,2.25-1,1.32,1.32,0,0,1,1.54.34A4.51,4.51,0,0,1,74.32,78a4.77,4.77,0,0,1,.29,3.18c-.06.29-.16.86-.45,1a1.87,1.87,0,0,1-.68.13,10.64,10.64,0,0,0-1.58.19C71.75,82.61,71.88,82.81,72,82.78Z"/><path class="53cdc062-4fac-46fd-a077-1e21d590dad2" d="M70.67,78.75a1.09,1.09,0,0,0-1.47-.68s-4.69-3.07-6.1-2.9-3.4,2.62-4.05,3.48a1.53,1.53,0,0,0,.62,2.16c-.38.75.63,1.8,1.08,1.76a1.68,1.68,0,0,0,.78,2.13c.26,1.5,2.4,1.93,3.18,1.5s1.57-1.56.15-1.81c1.54.25,3.33.92,5.46-2C71.28,82,71.07,79.86,70.67,78.75Z"/><path class="74ae21e4-99ef-4b3e-af83-a9f3c979de14" d="M62,85.69a1.76,1.76,0,0,1-.51-.93,1.07,1.07,0,0,1-.34-.23,1.82,1.82,0,0,1-.5-1.89,1.25,1.25,0,0,1-.56-.35,1.45,1.45,0,0,1-.49-1.43.81.81,0,0,1-.32-.21A1.71,1.71,0,0,1,59,78.6c.43-.56,2.6-3.3,4.12-3.52s5.65,2.59,6.13,2.9a1.18,1.18,0,0,1,1.21.22,1.48,1.48,0,0,1,.32.52c.41,1.12.63,3.32-.38,3.75C68.54,85,67,84.85,65.56,84.6a.57.57,0,0,1,.16.5,1.88,1.88,0,0,1-1,1.17A2.76,2.76,0,0,1,62,85.69Zm-.36-1.06v.05a1.65,1.65,0,0,0,.47.89,2.59,2.59,0,0,0,2.58.55,1.78,1.78,0,0,0,.9-1c0-.32-.21-.52-.71-.61l0-.17.43.08c1.43.27,3,.57,4.94-2l0,0h0c.52-.21.62-1,.63-1.47a6,6,0,0,0-.33-2.07,1.28,1.28,0,0,0-.28-.46,1.08,1.08,0,0,0-1.07-.17l0,0,0,0s-4.68-3-6-2.89-3.74,3.12-4,3.45a1.52,1.52,0,0,0,.25,1.82.62.62,0,0,0,.33.2l.11,0,0,.09a1.25,1.25,0,0,0,.42,1.33,1,1,0,0,0,.57.32l.18,0-.1.15a1.58,1.58,0,0,0,.41,1.79,1,1,0,0,0,.32.21Z"/><path class="74ae21e4-99ef-4b3e-af83-a9f3c979de14" d="M59.67,80.81a1.94,1.94,0,0,1,.1-.19,1.51,1.51,0,0,1,.12-.2l.16-.26c.07-.1.15-.19.22-.3l.26-.31.29-.33.33-.31a3.19,3.19,0,0,1,.33-.31l.33-.28.32-.25.3-.21.46-.3.18-.11-.16.14c-.1.08-.24.21-.42.35l-.28.23-.3.27-.32.28c-.12.09-.22.21-.33.31s-.21.21-.32.3l-.3.32c-.09.1-.19.19-.27.29l-.24.27-.19.24-.15.19A1.48,1.48,0,0,0,59.67,80.81Z"/><path class="74ae21e4-99ef-4b3e-af83-a9f3c979de14" d="M60.75,82.57s.11-.17.29-.4a4.92,4.92,0,0,1,.33-.39l.39-.42.21-.21.21-.19.38-.34.28-.22.11-.09-.09.11a3.4,3.4,0,0,1-.23.27l-.35.37-.4.42-.4.41-.36.35-.27.24Z"/><path class="74ae21e4-99ef-4b3e-af83-a9f3c979de14" d="M63.78,82l-.38.4-.39.41-.43.47c-.15.16-.29.33-.42.49L62,84l-.16.22-.13.18-.09.15-.07.13a1,1,0,0,1,0-.15,1.7,1.7,0,0,1,.16-.37,3.35,3.35,0,0,1,.3-.48,2.26,2.26,0,0,1,.2-.26l.21-.25a5.13,5.13,0,0,1,.46-.47l.42-.37.33-.24Z"/><path class="74ae21e4-99ef-4b3e-af83-a9f3c979de14" d="M63.44,75.61a.71.71,0,0,0-.12.1,1.19,1.19,0,0,0-.25.28.85.85,0,0,0-.09.22.43.43,0,0,0,0,.25l.06.14a.66.66,0,0,1,0,.15,1.35,1.35,0,0,1,.06.34c0,.11,0,.22,0,.33a3,3,0,0,1,0,.31c0,.2-.06.39-.08.55a3.8,3.8,0,0,0,0,.38c0,.1,0,.15,0,.15s0,0,0-.15a3.68,3.68,0,0,1,0-.39c0-.16,0-.35,0-.55s0-.21,0-.31,0-.21,0-.31a2.72,2.72,0,0,0,0-.3.78.78,0,0,0-.05-.14l0-.07,0-.08a.73.73,0,0,1,0-.33.68.68,0,0,1,.13-.24,1.08,1.08,0,0,1,.31-.26A.73.73,0,0,1,63.44,75.61Z"/><path class="74ae21e4-99ef-4b3e-af83-a9f3c979de14" d="M63.21,79.86a.28.28,0,0,1,0,.06s0,.09,0,.14,0,.07,0,.1,0,.07,0,.11a.41.41,0,0,0,0,.11.49.49,0,0,0,0,.12v.24a.34.34,0,0,1,0,.1v.1a.93.93,0,0,1,0,.22A1.05,1.05,0,0,1,63,81a.42.42,0,0,1,0-.1l0-.12a.5.5,0,0,0,0-.12V80.5a.66.66,0,0,0,0-.14l0-.12a.36.36,0,0,1,0-.11l0-.1a.48.48,0,0,1,.09-.13Z"/><path class="74ae21e4-99ef-4b3e-af83-a9f3c979de14" d="M65.13,83.57l-.35.37c-.11.12-.23.24-.35.35s-.49.46-.74.69l-.1-.14.18-.09.18-.1.19-.08.19-.06.2-.06.2,0,.2,0h.21l-.2,0-.19,0-.19.06-.19.07-.35.17-.17.1-.17.09-.64.37.54-.5.75-.66.39-.32Z"/><g class="790cbdbd-3a4e-4420-a803-d60fd4feddac"><path class="13c6f37f-ea00-4f30-b272-7ca16b4a3a0f" d="M52.57,78.09A46.65,46.65,0,0,1,55,66.87c-9.23,6.58-9.64,13.61-9.65,14.57,0,.11,0,.24,0,.35a23.15,23.15,0,0,0,6.84,2.77C52.27,83.28,52.38,80.32,52.57,78.09Zm-3.76,4.08c-1.62-.52-2.1-4.36.24-8.14s4.57-5.26,3.82-2.43a34.9,34.9,0,0,0-1,8.64C51.74,83.11,50.42,82.69,48.81,82.17Z"/></g><path class="13124545-ca76-4a4c-8a74-2405cef1068d" d="M49.79,57.77s3.82,3.09,4.41,5.57-1.34,2.5-4.74,6.64-3.7-.28-3.18-4.38S48.25,56.1,49.79,57.77Z"/><path class="13124545-ca76-4a4c-8a74-2405cef1068d" d="M67.74,61.17a37.63,37.63,0,0,0-8.33,2c-3.67,1.48-1.8,3.31,1.21,7s6.09,6,7.8,1.27S74.07,60.53,67.74,61.17Z"/><g class="eb877a60-153b-4c8e-9eda-2d78f40623d4"><path class="7cdfd5fc-a2a3-4411-af37-386f717b32f2" d="M74.41,82.21a4.93,4.93,0,0,0-.28-4.72,6.38,6.38,0,0,1,.17,2.94c-.5,1.25-1.07.58-2.08,1s-.57-.56-.88-2-1.28-2.17-2.25-1.56c0,.1.09.18.11.24a1.09,1.09,0,0,1,1.47.68c.4,1.11.61,3.27-.35,3.65.1.69.79.53,1.63.28S74.21,82.58,74.41,82.21Z"/></g><g class="b20c8d31-a541-4f81-b230-c6295b67a435"><path class="7cdfd5fc-a2a3-4411-af37-386f717b32f2" d="M71,76.91c1.49-.61,2-.39,2.77.25a1.86,1.86,0,0,0,.2.14,4.65,4.65,0,0,0-1.55-1.37,14.25,14.25,0,0,0-3.19,1.32c-.3.12-.27.35-.19.55C69.38,77.33,69.82,77.41,71,76.91Z"/></g><g class="85bfacd9-53eb-4e99-921f-4c6bf824a4f8"><path class="9301ff13-a890-4b9f-b127-20d3ae1232a4" d="M57.86,118c-1-1.43-2.35-2.22-3-3.42s.14-1.79-1.73-1.92a2.21,2.21,0,0,1-1-.28,3.68,3.68,0,0,1-3.11,1.1l.82.5c4.45,2.68,9.27,6,9.27,6l0-.61A9.25,9.25,0,0,1,57.86,118Z"/></g><path class="9301ff13-a890-4b9f-b127-20d3ae1232a4" d="M67,134.2c1.1-1.94.53-2.66.36-3.7s-.65-.71-.62-1.64A106.55,106.55,0,0,0,67.37,118c-.32-3.41-1.26-4.48-1.94-4.68.79,2.44-1.58,5.92-4.19,5.27a3.44,3.44,0,0,1-2.81-2.82,1.4,1.4,0,0,0-.22,1.29c.21.84,1.8,6.6,3.13,10.36s2.31,5.11.11,9.07c-1.73,3.4-2.43,4.69-.37,5.75S66.51,140.35,67,134.2Z"/><path class="3bc31d6a-9ae6-4368-b3b2-dc8d71e84738" d="M67.08,134.26a4.21,4.21,0,0,0,.64-2.46,4.92,4.92,0,0,0-.61-2.1,3.15,3.15,0,0,1-.16-2.21c.11-1.11.21-2.21.3-3.32a28.81,28.81,0,0,0,0-7.87c-.2-1-.62-2.67-1.79-3-.06,0-.16,0-.14.08a4.45,4.45,0,0,1-2.19,4.94,3.3,3.3,0,0,1-4.57-2.46c0-.07-.15-.16-.21-.09-.66.73-.09,2,.13,2.76.51,1.81,1,3.63,1.6,5.44s1.18,3.58,1.83,5.36a7.83,7.83,0,0,1,.59,4.37c-.4,1.94-1.67,3.63-2.43,5.44a2.34,2.34,0,0,0,.17,2.7c2.14,2.2,4.68-.66,5.61-2.54a13.78,13.78,0,0,0,1.24-5c0-.12-.23-.21-.24-.08a12.68,12.68,0,0,1-1.9,6.14c-.74,1.13-2.14,2.44-3.62,2-1.84-.59-1.4-2.25-.79-3.6a28.21,28.21,0,0,0,2.2-4.93,6.61,6.61,0,0,0-.3-3.6c-.56-1.67-1.21-3.31-1.75-5q-.91-2.86-1.72-5.75c-.24-.83-1.11-2.75-.43-3.51l-.21-.1a3.58,3.58,0,0,0,5.1,2.59,4.76,4.76,0,0,0,2.2-3.14c.07-.29.27-1.64-.14-1.77.53.17.84.79,1,1.25.86,1.87.76,4.07.69,6.07s-.25,3.93-.44,5.88c-.07.7-.52,2.29,0,2.92a4.46,4.46,0,0,1,.67,1.9,3.81,3.81,0,0,1-.58,2.66C66.79,134.25,67,134.37,67.08,134.26Z"/><g class="85bfacd9-53eb-4e99-921f-4c6bf824a4f8"><path class="9301ff13-a890-4b9f-b127-20d3ae1232a4" d="M61.39,141.45c-1.42-1.14.59-4.42,2.16-7.57s.18-4.74-.61-7.5.3-5-.35-5.49-2-1.14-.63-2a1.3,1.3,0,0,0,.33-.26,2.67,2.67,0,0,1-1,0,3.44,3.44,0,0,1-2.81-2.82,1.4,1.4,0,0,0-.22,1.29c.21.84,1.8,6.6,3.13,10.36s2.31,5.11.11,9.07c-1.73,3.4-2.43,4.69-.37,5.75,1,.51,2.31.07,3.45-1.22C63.34,141.75,62.12,142,61.39,141.45Z"/></g><g class="35154c8b-643e-4bc3-9325-382679ba8231"><g class="b20c8d31-a541-4f81-b230-c6295b67a435"><path class="e5c0e9c5-1d37-4cdf-8078-844ab1183530" d="M67.29,130.56c-.17-1-.64-.71-.61-1.61a104.58,104.58,0,0,0,.66-10.68c-.31-3.36-1-4.53-1.68-4.73a4.18,4.18,0,0,1-.22,2.19,2,2,0,0,1-.09,1.76c-.88,1.38.54-.19.69,2.68S66,127.39,66,129.3s.2,1.85.74,1.9.15,2.51-.32,3-.07,4-1.76,6.65a11.62,11.62,0,0,0,2.31-6.64C68,132.29,67.46,131.58,67.29,130.56Z"/></g></g><path class="28c004d0-abaa-40fd-9a34-2a2a60b43bc8" d="M51.54,84.25s-.66,2.15-.26,3.2c2.78,1,3.39.92,3.39.92l.44-3.25Z"/><path class="f0991fed-d067-46fc-b785-1ace79077262" d="M51.16,84.16s-.66,2.14-.26,3.19c2.78,1.06,3.38.93,3.38.93L54.73,85Z"/><path class="0d6bb2d0-0c56-42a9-a20d-13e214a4b08d" d="M50.83,87.42v0c-.41-1.07.23-3.17.26-3.26l0-.07,3.72.9-.46,3.39H54.3s-.66.12-3.43-.92Zm.39-3.16a6.4,6.4,0,0,0-.25,3,11,11,0,0,0,3.24.91l.42-3.12Z"/><path class="2ca5cd67-4988-4ade-96e9-5ab381dca7ca" d="M54.21,85.42a13.71,13.71,0,0,1-.44,1.75c-.2.53-2.7.14-2.7.14s2.66.64,2.84.72a14,14,0,0,0,.55-2.8Z"/><path class="9474b3e9-06ba-42a9-9d73-59dd7711f21c" d="M53.45,85l-2.07-.52a7.42,7.42,0,0,0-.28,2.37,13,13,0,0,1,.56-2Z"/><g class="d1ab0b6f-a192-449d-94bf-321c285d90d1"><path class="e5c0e9c5-1d37-4cdf-8078-844ab1183530" d="M52.69,84.53,50.79,86c0,.22,0,.43,0,.63l2.52-1.95Z"/><path class="e5c0e9c5-1d37-4cdf-8078-844ab1183530" d="M54.73,85l-3.27,2.53c.45.16.83.29,1.15.38l1.92-1.49Z"/></g><path class="a967df17-05d2-4647-bf33-24d37efa1e4c" d="M32.29,50.71s-3.42,5.79-2.85,8.39-2.52-.6-.18-5C31.23,50.84,32.79,50.07,32.29,50.71Z"/><path class="e5c0e9c5-1d37-4cdf-8078-844ab1183530" d="M83.59,74.23a13.7,13.7,0,0,0-6.84,2.13c-2.33,1.65,0-1.39,3-2.57S85.52,74.08,83.59,74.23Z"/><path class="74ae21e4-99ef-4b3e-af83-a9f3c979de14" d="M69.08,78.07l.08,0a.91.91,0,0,1,.2.08,1.11,1.11,0,0,1,.25.17l.12.12.1.14a1.3,1.3,0,0,1,.1.15,1.11,1.11,0,0,0,.07.16,1.21,1.21,0,0,1,0,.14,1,1,0,0,1,0,.14c0,.17,0,.29,0,.29s-.06-.1-.13-.25l-.06-.13L69.86,79l-.08-.14s-.06-.08-.09-.13l-.09-.13-.1-.12a.52.52,0,0,0-.1-.11l-.09-.09-.16-.13Z"/><path class="74ae21e4-99ef-4b3e-af83-a9f3c979de14" d="M70.42,80.85a.9.9,0,0,1,.1.23l0,.12a.68.68,0,0,1,0,.14,1,1,0,0,1,0,.3s0,.1,0,.15l0,.14a1.45,1.45,0,0,1-.09.25,1.79,1.79,0,0,1-.12.22,1.33,1.33,0,0,1,0-.25.5.5,0,0,1,0-.12.62.62,0,0,1,0-.13l0-.28a2.62,2.62,0,0,0,0-.28v-.12a.47.47,0,0,0,0-.12Z"/><path class="53cdc062-4fac-46fd-a077-1e21d590dad2" d="M49.58,39.63c-1.21-.63-3.09.24-3.73.65,0,0,5.13-7.85,3.4-7.87,0-.6-.46-1.24-1.13-.87-.25-1-1.29-.15-1.88.46a18.94,18.94,0,0,1-2.31,1.47,18.73,18.73,0,0,0-4.86,3.35c-1.19,1.38-2.8,2.93-2.52,4.53a9.28,9.28,0,0,1,.23,1.8l-.89,1.24s-.75.88.74,1.88,2.16.33,2.51,0l.63-.65a5.63,5.63,0,0,0,4.36-1.54c1.71-1.83,3.46-2.89,4.9-2.91S50.79,40.26,49.58,39.63Z"/><path class="74ae21e4-99ef-4b3e-af83-a9f3c979de14" d="M36.11,46h0a1.18,1.18,0,0,1-.29-1.64l.87-1.21a10.28,10.28,0,0,0-.22-1.76c-.26-1.44,1-2.84,2.08-4.07l.45-.52a18.48,18.48,0,0,1,4.74-3.29l.14-.08a17.88,17.88,0,0,0,2.3-1.47c.38-.38,1.34-1.26,1.83-.78a.72.72,0,0,1,.16.27.69.69,0,0,1,.81.13,1.35,1.35,0,0,1,.35.78.38.38,0,0,1,.22.1c.83.81-2.5,6.14-3.43,7.59.81-.43,2.4-1,3.5-.47.62.32.9.76.76,1.12s-.65.57-1.34.58c-1.41,0-3.13,1-4.85,2.88a5.69,5.69,0,0,1-4.38,1.56l-.62.64c-.35.34-1.07,1-2.61,0A3.85,3.85,0,0,1,36.11,46Zm11.78-14.7c-.31-.3-1,.21-1.59.79A18.89,18.89,0,0,1,44,33.55l-.15.08a18.15,18.15,0,0,0-4.69,3.25c-.14.17-.3.34-.46.52-1.06,1.21-2.28,2.58-2,3.93a9.55,9.55,0,0,1,.22,1.83v0L36,44.44s-.51.63.28,1.4h0a3.38,3.38,0,0,0,.45.36c1.42.95,2,.34,2.39,0l.67-.69h0A5.57,5.57,0,0,0,44.07,44c1.75-1.88,3.51-2.92,5-2.94.62,0,1.08-.18,1.19-.46s-.15-.63-.68-.91c-1.19-.61-3.08.28-3.64.65l-.34.21.22-.33c1.8-2.76,4.26-7.08,3.66-7.67a.25.25,0,0,0-.19-.07h-.08v-.08a1.2,1.2,0,0,0-.31-.74.54.54,0,0,0-.7-.06l-.1.05,0-.1A.71.71,0,0,0,47.89,31.27Z"/><path class="53cdc062-4fac-46fd-a077-1e21d590dad2" d="M49.58,39.63c-1.21-.63-3.09.24-3.73.65,0,0,5.13-7.85,3.4-7.87,0-.6-.46-1.24-1.13-.87-.25-1-1.29-.15-1.88.46a18.94,18.94,0,0,1-2.31,1.47,18.73,18.73,0,0,0-4.86,3.35c-1.19,1.38-2.8,2.93-2.52,4.53a9.28,9.28,0,0,1,.23,1.8l-.89,1.24s-.75.88.74,1.88,2.16.33,2.51,0l.63-.65a5.63,5.63,0,0,0,4.36-1.54c1.71-1.83,3.46-2.89,4.9-2.91S50.79,40.26,49.58,39.63Z"/><path class="74ae21e4-99ef-4b3e-af83-a9f3c979de14" d="M36.11,46h0a1.18,1.18,0,0,1-.29-1.64l.87-1.21a10.28,10.28,0,0,0-.22-1.76c-.26-1.44,1-2.84,2.08-4.07l.45-.52a18.48,18.48,0,0,1,4.74-3.29l.14-.08a17.88,17.88,0,0,0,2.3-1.47c.38-.38,1.34-1.26,1.83-.78a.72.72,0,0,1,.16.27.69.69,0,0,1,.81.13,1.35,1.35,0,0,1,.35.78.38.38,0,0,1,.22.1c.83.81-2.5,6.14-3.43,7.59.81-.43,2.4-1,3.5-.47.62.32.9.76.76,1.12s-.65.57-1.34.58c-1.41,0-3.13,1-4.85,2.88a5.69,5.69,0,0,1-4.38,1.56l-.62.64c-.35.34-1.07,1-2.61,0A3.85,3.85,0,0,1,36.11,46Zm11.78-14.7c-.31-.3-1,.21-1.59.79A18.89,18.89,0,0,1,44,33.55l-.15.08a18.15,18.15,0,0,0-4.69,3.25c-.14.17-.3.34-.46.52-1.06,1.21-2.28,2.58-2,3.93a9.55,9.55,0,0,1,.22,1.83v0L36,44.44s-.51.63.28,1.4h0a3.38,3.38,0,0,0,.45.36c1.42.95,2,.34,2.39,0l.67-.69h0A5.57,5.57,0,0,0,44.07,44c1.75-1.88,3.51-2.92,5-2.94.62,0,1.08-.18,1.19-.46s-.15-.63-.68-.91c-1.19-.61-3.08.28-3.64.65l-.34.21.22-.33c1.8-2.76,4.26-7.08,3.66-7.67a.25.25,0,0,0-.19-.07h-.08v-.08a1.2,1.2,0,0,0-.31-.74.54.54,0,0,0-.7-.06l-.1.05,0-.1A.71.71,0,0,0,47.89,31.27Z"/><path class="7cdfd5fc-a2a3-4411-af37-386f717b32f2" d="M36.63,46.27c-1.49-1-.74-1.88-.74-1.88a.74.74,0,0,0-.74.15c-.3.3-2.07,2.31-2.07,2.31a3.35,3.35,0,0,0,1.29,3.08c1.57,1.06,3.49-.17,3.49-.17a19.5,19.5,0,0,0,1.28-3.5C38.79,46.6,38.13,47.27,36.63,46.27Z"/><path class="01fdff95-e404-4aec-bfe5-d335d93ae931" d="M36.68,46.25c-.53-.38-1.22-1.13-.68-1.8,0,0-.13-.12-.15-.13-.54-.15-.83.17-1.16.53-.53.59-1.06,1.19-1.58,1.79-.27.3-.16.75-.12,1.13A3.24,3.24,0,0,0,34.32,50a3.35,3.35,0,0,0,3.61-.1c.27-.15.45-1,.56-1.23a8.35,8.35,0,0,0,.76-2.31c0-.06-.18-.16-.22-.12-.73.71-1.45.63-2.35.06-.08,0-.25,0-.1,0,.91.57,1.83.85,2.67,0L39,46.21a11.3,11.3,0,0,1-1.21,3.33c-.33.73-2,.8-2.59.7a2.74,2.74,0,0,1-2-2.68,1,1,0,0,1,.14-.8l1.15-1.29c.34-.4.83-1.2,1.44-1l-.14-.12c-.6.73.24,1.55.8,2C36.67,46.35,36.82,46.36,36.68,46.25Z"/><path class="74ae21e4-99ef-4b3e-af83-a9f3c979de14" d="M45.85,40.28l-.2,0a4.2,4.2,0,0,0-.55,0,2.3,2.3,0,0,0-.36,0l-.4.07-.2,0-.21.07-.2.08-.2.09-.39.21-.35.25-.31.26-.26.26-.21.23-.15.18-.14.16.11-.18a2.36,2.36,0,0,0,.13-.2l.08-.12.11-.13c.08-.09.15-.19.24-.28s.2-.19.3-.29l.36-.27c.13-.08.26-.16.4-.23l.21-.1.22-.07.22-.07.22-.05c.14,0,.28,0,.41,0h.37a1.47,1.47,0,0,1,.32,0l.23.05A.8.8,0,0,1,45.85,40.28Z"/><path class="74ae21e4-99ef-4b3e-af83-a9f3c979de14" d="M46.24,32a2.93,2.93,0,0,1,.13.37,2.29,2.29,0,0,1,.08.45,1.42,1.42,0,0,1-.08.59,1,1,0,0,1-.07.15.46.46,0,0,1-.09.15A3.11,3.11,0,0,1,46,34l-.29.26c-.1.09-.22.15-.32.23s-.47.29-.72.42l-.38.2-.39.18-.78.33-.38.17-.35.19a1.5,1.5,0,0,0-.52.51,1.83,1.83,0,0,0-.19.63,2.44,2.44,0,0,1-.06.31c0,.09-.06.18-.09.27a2,2,0,0,1-.12.21,1.42,1.42,0,0,1-.11.18l-.19.22-.08.06a.36.36,0,0,0,.07-.07l.17-.23.1-.18c0-.07.07-.14.1-.22a1.63,1.63,0,0,0,.07-.26,2.68,2.68,0,0,0,0-.3,1.81,1.81,0,0,1,.18-.68.59.59,0,0,1,.1-.17L42,36.1a.93.93,0,0,1,.15-.13,1,1,0,0,1,.16-.12l.36-.21.39-.18.77-.33L44.2,35l.38-.19a8.13,8.13,0,0,0,.71-.4l.31-.22a3.36,3.36,0,0,0,.29-.24l.24-.25.08-.13.07-.14a1.48,1.48,0,0,0,.1-.56,2.65,2.65,0,0,0,0-.44A2.58,2.58,0,0,0,46.24,32Z"/><path class="74ae21e4-99ef-4b3e-af83-a9f3c979de14" d="M39.24,38.78l.23-.11.27-.09.35-.12.43-.1.49-.08a4.55,4.55,0,0,1,.53,0h.54l.55.05a4.67,4.67,0,0,1,.52.08,3.74,3.74,0,0,1,.48.12l.41.13.35.14.26.12.23.11-.24-.08-.27-.09c-.1,0-.23-.06-.36-.1a2.45,2.45,0,0,0-.41-.11c-.16,0-.31-.07-.48-.09s-.34-.06-.51-.07-.36,0-.53,0h-.54l-.52,0a8.95,8.95,0,0,0-1.78.35Z"/><path class="74ae21e4-99ef-4b3e-af83-a9f3c979de14" d="M48.12,31.54a1.49,1.49,0,0,1,0,.37,2.71,2.71,0,0,1-.3,1,2.65,2.65,0,0,1-.36.56,4.47,4.47,0,0,1-.52.55l-1.16,1.11c-.39.38-.79.76-1.14,1.13-.18.19-.35.36-.5.54a6.31,6.31,0,0,0-.44.5l-.35.43-.24.36a1.75,1.75,0,0,0-.14.24l-.05.08,0-.09c0-.05.06-.14.12-.25s.13-.23.22-.37.2-.3.32-.46.27-.35.42-.52.32-.37.49-.56c.35-.38.74-.77,1.13-1.15s.81-.75,1.18-1.1c.19-.18.37-.34.52-.51a3.18,3.18,0,0,0,.73-1.45A2.52,2.52,0,0,0,48.12,31.54Z"/><path class="74ae21e4-99ef-4b3e-af83-a9f3c979de14" d="M49.25,32.41a2.77,2.77,0,0,1-.11.32c0,.1-.1.22-.17.36a1.57,1.57,0,0,1-.12.21,1.5,1.5,0,0,1-.15.23,4.78,4.78,0,0,1-.37.48c-.14.16-.31.33-.46.49s-.33.34-.49.53l-.45.57-.45.6c-.15.19-.28.39-.42.58-.27.38-.53.73-.74,1l-.72,1s.24-.43.64-1.07l.32-.5c.12-.18.24-.38.38-.57l.41-.59.44-.6.48-.58c.16-.19.33-.35.49-.52s.33-.32.48-.47a5.3,5.3,0,0,0,.39-.46c.11-.14.21-.29.29-.41s.14-.24.19-.34a2.17,2.17,0,0,0,.11-.23Z"/><path class="74ae21e4-99ef-4b3e-af83-a9f3c979de14" d="M40.17,38.44l0,.12c0,.07,0,.18,0,.31a1.55,1.55,0,0,1,0,.22,1.91,1.91,0,0,1,0,.24,2.11,2.11,0,0,1,0,.25,2.06,2.06,0,0,1,0,.26c0,.09,0,.18-.05.26a1.83,1.83,0,0,1-.06.25c0,.08-.05.16-.07.23a.93.93,0,0,1-.08.2l-.13.29-.06.11a1.13,1.13,0,0,0,0-.12c0-.07,0-.18.08-.31s0-.13,0-.2a2.23,2.23,0,0,1,0-.23,2,2,0,0,0,.05-.24c0-.09,0-.18,0-.26a4.61,4.61,0,0,0,.07-.5,1.94,1.94,0,0,0,0-.24,1.49,1.49,0,0,0,0-.21c0-.13,0-.24,0-.31Z"/><path class="74ae21e4-99ef-4b3e-af83-a9f3c979de14" d="M36.76,42.84l.11.19.1.2.1.22c0,.08.07.15.1.23s.06.13.08.19l0,.08,0,.06,0,.06-.05,0-.06,0a.19.19,0,0,1-.07-.06l-.07-.08a.33.33,0,0,1-.06-.1,1,1,0,0,1-.12-.23,1.17,1.17,0,0,1-.09-.24,2.25,2.25,0,0,1,0-.22A1.6,1.6,0,0,1,36.76,42.84Z"/><path class="74ae21e4-99ef-4b3e-af83-a9f3c979de14" d="M39.8,45.57a.6.6,0,0,1-.2,0,1,1,0,0,1-.21,0l-.22-.09L39,45.28a1.17,1.17,0,0,1-.16-.15,1.48,1.48,0,0,1-.12-.17l.18.1a1.51,1.51,0,0,1,.18.09l.2.11.21.1.18.11Z"/><g class="eb877a60-153b-4c8e-9eda-2d78f40623d4"><path class="7cdfd5fc-a2a3-4411-af37-386f717b32f2" d="M39.14,46.26c-.35.34-1,1-2.51,0-.11-.08-.22-.15-.31-.23a1.39,1.39,0,0,0,1,.9c.92.2.88.48.33,1.66a2.44,2.44,0,0,1-4.09.53,2.72,2.72,0,0,0,.79.8c1.57,1.06,3.49-.17,3.49-.17A19.5,19.5,0,0,0,39.14,46.26Z"/></g><g class="b20c8d31-a541-4f81-b230-c6295b67a435"><path class="7cdfd5fc-a2a3-4411-af37-386f717b32f2" d="M33.94,46.65c.88-.86,1.15-1.48,1.53-1.13a1.38,1.38,0,0,0,.62.3,1,1,0,0,1-.2-1.43.74.74,0,0,0-.74.15c-.3.3-2.07,2.31-2.07,2.31a3.62,3.62,0,0,0,.58,2.39A2.11,2.11,0,0,1,33.94,46.65Z"/></g><path class="05353890-6d1c-455d-a7d5-ed04711889d1" d="M50.21,40.14c-.07.18-.28.31-.71.32-2.17.09-3.42,1-5,2.59s-3.73,2.72-5.61,1.67c-.85-.48-.72.06-.08.57s-.8,1.6-2,.59A2.59,2.59,0,0,1,36,44.24l-.1.15s-.75.88.74,1.88,2.16.33,2.51,0l.63-.65a5.63,5.63,0,0,0,4.36-1.54c1.71-1.83,3.46-2.89,4.9-2.91C50.11,41.15,50.56,40.65,50.21,40.14Z"/><path class="05353890-6d1c-455d-a7d5-ed04711889d1" d="M49.58,39.63c-1.21-.63-3.09.24-3.73.65,0,0,.44-.68,1-1.62a1.68,1.68,0,0,0-.19.24c-.77,1.16-2,.46-.78-1.11s1.86-2.47,2.73-3.77a5.41,5.41,0,0,1,1-1.15c0-.29-.11-.46-.36-.46a1.1,1.1,0,0,0,0-.18,6.81,6.81,0,0,1-1.5,2c-1.79,1.79-3,4.65-3.78,4.44s-.6-1.26.81-2.5,3-2.34,3.39-3.63c.12-.39.22-.76.31-1.09a.8.8,0,0,0-.34.11c0-.05,0-.09,0-.13a3,3,0,0,1-.93,2.07,20.77,20.77,0,0,0-3.81,3.93,1.43,1.43,0,0,1-1.52.83c-.56,0,0-.63.23-1.45s.75-.85,2.07-1.55,2.33-1.05,2.58-2.52A6,6,0,0,1,47,31.35a4.48,4.48,0,0,0-.77.65l-.07.06a1.52,1.52,0,0,1-.06,1.25c-.51.81-1,.89-2.89,1.86s-1.75.9-1.82,1.71-.35,1.2-1.33,1.44-1.18.47-1.4.74.68-.33,1.12-.26.12,1.15-.13,2-1.85,3.15-2.48,1.4.07-3.36,2.09-5.51c.16-.17.31-.35.45-.53a6.64,6.64,0,0,0-.65.65c-1.19,1.38-2.8,2.93-2.52,4.53a9.28,9.28,0,0,1,.23,1.8l-.89,1.24s-.75.88.74,1.88,2.16.33,2.51,0l.63-.65a5.63,5.63,0,0,0,4.36-1.54c1.71-1.83,3.46-2.89,4.9-2.91S50.79,40.26,49.58,39.63ZM44,39.89a8.12,8.12,0,0,0-2.72,2.32c-.72.92-1.41.81-1-1.07s.08-2.61,2-2.47S45.49,39.33,44,39.89Z"/><path class="8086513d-22d3-47be-b867-84ad3e7297db" d="M49.47,39.74a2.89,2.89,0,0,0-2.55.18c-1.15.64-.41.95,0,.77S50.42,40.28,49.47,39.74Z"/><path class="8086513d-22d3-47be-b867-84ad3e7297db" d="M45.09,40.53A3.56,3.56,0,0,0,42.3,42c-.95,1.1.19,2,1.62,1S46.22,40.63,45.09,40.53Z"/><path class="05353890-6d1c-455d-a7d5-ed04711889d1" d="M70.32,82.4c1-.38.75-2.54.35-3.65a1.09,1.09,0,0,0-1.47-.68s-.87-.57-2-1.2A7.16,7.16,0,0,1,69.52,79a2.67,2.67,0,0,1-1,3.45C67.1,83.54,65,83.6,64.17,80.86s-1.12-5.34.2-5.39h.06a3.16,3.16,0,0,0-1.33-.29,5.8,5.8,0,0,0-2.68,1.88h0s1.18-1.3,1.88-.59-1.39,1.94-2.15,3c-.53.71-1,.71-1.31.36a1.32,1.32,0,0,0,.8,1,.88.88,0,0,0-.07.23c.84-1,2.62-3,3-2.3s-1.23,2.66-2.21,3.73a.59.59,0,0,0,.33.1,1,1,0,0,0-.16.5c.59-.73,1.92-2.23,2.43-1.71s-.89,1.81-1.34,2.52c-.32.51-.51.53-.66.41a1.15,1.15,0,0,0,.51.41.44.44,0,0,0,0,.1c.58-.75,2-2.36,2.48-2s-.29,1.47-.8,2-.49.89-.1.68,1.94-.82,2.49-.33c.09-.35-.08-.67-.76-.79C66.4,84.64,68.19,85.31,70.32,82.4Z"/><path class="376dfc13-bc2b-49df-af1f-368aaa6d23c0" d="M64.52,75.8s-.63,1.13-.16,3.66-.56-.56-.58-1.68S63.88,75.73,64.52,75.8Z"/><path class="376dfc13-bc2b-49df-af1f-368aaa6d23c0" d="M61.45,76.53a11,11,0,0,0-2.05,2.4C59.11,79.72,59.12,77.94,61.45,76.53Z"/><path class="376dfc13-bc2b-49df-af1f-368aaa6d23c0" d="M62.09,78.8A11.12,11.12,0,0,0,60,81.21C59.75,82,59.76,80.22,62.09,78.8Z"/><path class="376dfc13-bc2b-49df-af1f-368aaa6d23c0" d="M62.59,81.38A7.13,7.13,0,0,0,61,83.32C60.81,84,60.64,82.41,62.59,81.38Z"/><path class="376dfc13-bc2b-49df-af1f-368aaa6d23c0" d="M63.61,83.1a8.65,8.65,0,0,0-1.51,1.7c-.35.59-.22-.39.62-1.16S63.83,82.85,63.61,83.1Z"/><path class="53cdc062-4fac-46fd-a077-1e21d590dad2" d="M70.1,53.48c1.2.38,2.58-2.32,3.38-2.49a1.59,1.59,0,0,0,.69-2.42c-.73-.8-2.12.55-2.12.55l1.68-4.24a11.66,11.66,0,0,0-2.54,2.28A21.56,21.56,0,0,1,73,42.27l-3.94,2.15a27.84,27.84,0,0,1,2.52-4C67,40.24,66,38.88,66,38.88s1.15-.28,2.84-.74c-3.4-1-8.3,2.16-8.3,2.16s1.58-3.18,3.21-3.86c-2.57-.07-6,1.63-6,1.63s.25-1,3.61-2.31c0,0-4.82-.35-7.78,1.83a13.13,13.13,0,0,1,2.71-3.39S52,35.69,51.11,36.83a6.08,6.08,0,0,0-.21,2.66c.31,2,.07,2.21-.72,3.18a6.93,6.93,0,0,0,.5,8.83c3.34,4,5.93,5.69,13.65,3.28a17.26,17.26,0,0,0,5.27-2.5S69.09,53,70.1,53.48Z"/><path class="74ae21e4-99ef-4b3e-af83-a9f3c979de14" d="M52.31,53.43a23.37,23.37,0,0,1-1.69-1.88,7,7,0,0,1-.51-8.93l0-.06c.75-.92,1-1.17.66-3.05A6.08,6.08,0,0,1,51,36.8v0c.91-1.15,5-2.6,5.15-2.65l.4-.15-.32.29a14,14,0,0,0-2.55,3.07,11.29,11.29,0,0,1,4.78-1.57,17.28,17.28,0,0,1,2.79-.1l.39,0-.36.14c-2.38.9-3.18,1.68-3.44,2a15.56,15.56,0,0,1,5.82-1.53h.39l-.36.16c-1.3.55-2.59,2.76-3,3.54,1.07-.64,5.16-2.88,8.11-2l.28.08-.28.08c-1.33.36-2.34.61-2.7.7.33.29,1.69,1.26,5.45,1.4h.18l-.12.13a26.45,26.45,0,0,0-2.37,3.75l3.93-2.15-.13.25a22.76,22.76,0,0,0-1.72,4.53,12.75,12.75,0,0,1,2.34-2l.22-.14-1.64,4.16c.45-.36,1.39-.95,2-.32A1.5,1.5,0,0,1,74.49,50a1.51,1.51,0,0,1-1,1.07c-.29.06-.7.52-1.12,1-.71.81-1.52,1.73-2.31,1.48a1.52,1.52,0,0,1-.44-.28h0a.8.8,0,0,1-.22-.77,16.94,16.94,0,0,1-5.06,2.35C57.65,57,54.86,55.92,52.31,53.43ZM51.18,36.87A6.61,6.61,0,0,0,51,39.49c.3,1.95.07,2.24-.7,3.18l0,.06a6.88,6.88,0,0,0,.51,8.72,24.55,24.55,0,0,0,1.67,1.85c2.52,2.45,5.26,3.47,11.89,1.4a17.22,17.22,0,0,0,5.24-2.49l.38-.28-.26.39a.67.67,0,0,0,.08.84,1.24,1.24,0,0,0,.38.24c.67.21,1.44-.66,2.12-1.43.47-.54.87-1,1.21-1.07a1.35,1.35,0,0,0,.87-.95,1.32,1.32,0,0,0-.22-1.32c-.66-.72-2,.54-2,.55l-.28.27,1.71-4.34a11.85,11.85,0,0,0-2.29,2.1l-.21.27.06-.34a21.18,21.18,0,0,1,1.69-4.67l-4,2.16.14-.25a29.22,29.22,0,0,1,2.41-3.89C67.58,40.31,66.27,39.31,66,39l-.06-.07-.09-.1.13,0s1-.25,2.53-.66c-3.31-.72-7.87,2.2-7.92,2.23l-.26.17.14-.28c.06-.13,1.41-2.82,2.93-3.73a17.25,17.25,0,0,0-5.64,1.61l-.16.08.05-.17s.27-1,3.28-2.22c-1.23,0-4.91.06-7.32,1.83l-.25.18.12-.28a11.6,11.6,0,0,1,2.43-3.13C54.8,34.82,51.91,36,51.18,36.87Z"/><path class="05353890-6d1c-455d-a7d5-ed04711889d1" d="M48.93,45.86l6.35.33,13.36,6.62-.61.43s-4.4-1.39-7.1-2.28-3.87-1.69-4.75-2.86-2.45-2-2.92-1.27.56,1.7.56,1.7A1.4,1.4,0,0,1,53,46.69a33.46,33.46,0,0,0-4.09-.19Z"/><path class="d0d95ed3-c23a-4484-90e9-2b8fa65119ef" d="M54.34,45.31c2.41-1.7,2.21-6,1.91-8.32a12.68,12.68,0,0,0-5.14-.16c-.63.43-.41.94-.3,2.53s.11,1.6-.78,2.81a8.49,8.49,0,0,0-1.56,2.7c-.56,1.6.82,1.11,2,1.27a12.62,12.62,0,0,0,2.74.29A5.24,5.24,0,0,1,54.34,45.31Z"/><path class="4a59dbf9-dc67-46de-9337-2bd94c6b1a80" d="M71.85,49.38a10.89,10.89,0,0,0,.86-1.91A26.08,26.08,0,0,0,56.25,37c.3,2.3.5,6.62-1.91,8.32a5.24,5.24,0,0,0-1.1,1.12l.15,0c.78-.13,1.72-.11,2.94,1.38a8.9,8.9,0,0,0,4.79,3c2.66.87,5.14,1.39,7.26,2.32C70.14,52.41,71.41,50.08,71.85,49.38Z"/><path class="40c2bcc2-d400-4a3c-9909-3825276446a4" d="M61.54,42.58a3.93,3.93,0,0,1,3.65,1.62c1.2,1.69.67,4.31-2,4.06a5,5,0,0,1-4.48-5c.37.75.68,1.45.68,1.45S59.12,43.15,61.54,42.58Z"/><path class="40c2bcc2-d400-4a3c-9909-3825276446a4" d="M51.35,41.88a3.18,3.18,0,0,0,1.3,2.53c1.33.91,3.39.06,3-3.13C55,38.8,51.56,37.76,51.35,41.88Z"/><path class="05353890-6d1c-455d-a7d5-ed04711889d1" d="M51.1,47.46s1.22,2.19,2.29,2.44,3.83.38,5.39,1.35a1,1,0,0,1,.24-.86A6.24,6.24,0,0,0,60,52.25a1.9,1.9,0,0,1-.79-.47,4,4,0,0,1-3.28,1.36c-2-.23-3-2.55-3.36-3S50.79,48.56,51.1,47.46Z"/><path class="7dcf28b1-d3cb-445b-97bf-29072b7d1ec3" d="M59.65,45.57a3.64,3.64,0,0,0,4.72,2.23c1.32-.46,1.25-2.9-.77-4.08S59.38,43.81,59.65,45.57Z"/><g class="e1a8b3c7-8562-4f27-9e8c-78c3e3c088b7"><path class="308a7b0e-1fcb-42b4-80b3-17959639f011" d="M63.88,46.67a1.62,1.62,0,1,1-.8-2.43A1.84,1.84,0,0,1,63.88,46.67Z"/><path class="290214f2-90c8-445a-b722-ae84e61d707b" d="M61.2,47.82a2.15,2.15,0,0,1-.36-2.23,2.4,2.4,0,0,1,.95-1.24,1.45,1.45,0,0,1,1.31-.19,1.18,1.18,0,0,1,.49.3A2.15,2.15,0,0,1,64,46.69a2.45,2.45,0,0,1-1,1.24,1.47,1.47,0,0,1-1.32.19A1.25,1.25,0,0,1,61.2,47.82Zm2.27-3.24a1.14,1.14,0,0,0-.42-.26,1.32,1.32,0,0,0-1.17.18A2.27,2.27,0,0,0,61,45.64a2,2,0,0,0,.32,2,1.16,1.16,0,0,0,.43.27,1.32,1.32,0,0,0,1.17-.18,2.27,2.27,0,0,0,.88-1.14A2,2,0,0,0,63.47,44.58Z"/><g class="b3c42b29-cc0b-4bbd-bbd8-95910ff17b11"><path class="308a7b0e-1fcb-42b4-80b3-17959639f011" d="M63.08,44.24a1.73,1.73,0,0,0-2,1h0s.81-1,1.52-.71-1,0-1.26,1.49.9,1.57,1.46,1.1,0,1.29-1.4.73a1.23,1.23,0,0,0,.32.17,2.08,2.08,0,0,0,1.36-3.8Z"/></g><path class="7051d313-ddec-4e0e-a6df-77a67d847929" d="M63.28,46.43a1.09,1.09,0,0,1-1.27.81,1.22,1.22,0,1,1,1.27-.81Z"/><path d="M63.08,46.36a.74.74,0,1,1-.36-1.12A.84.84,0,0,1,63.08,46.36Z"/><path class="e5c0e9c5-1d37-4cdf-8078-844ab1183530" d="M63.65,46c-.15.48-.51.77-.82.65a.9.9,0,0,1-.28-1.09c.15-.48.52-.77.83-.65S63.8,45.48,63.65,46Z"/><path class="1eb3c93c-2f83-495f-9e88-bb95cc28a89d" d="M61.22,45.63s-.41,1.71.72,1.87c.51.06-.13.5-.67.08C60.47,47,61.11,45.17,61.22,45.63Z"/></g><g class="b3c42b29-cc0b-4bbd-bbd8-95910ff17b11"><path class="aa0280b1-ca97-4f30-beeb-f8cc1e4e71cc" d="M63.6,43.72c-2-1.18-4.22.09-4,1.85a3.64,3.64,0,0,0,4.72,2.23C65.69,47.34,65.62,44.9,63.6,43.72Zm.43,3.7a3,3,0,0,1-3.85-1.82c-.21-1.44,1.57-2.47,3.22-1.51S65.1,47,64,47.42Z"/></g><path class="7dcf28b1-d3cb-445b-97bf-29072b7d1ec3" d="M51.83,41.43a2.93,2.93,0,0,0,.84,2.67c1.22,1.13,2.62.11,2.85-1.39C55.79,40.84,53.11,38,51.83,41.43Z"/><path d="M51.83,41.43a2.55,2.55,0,0,0,0,.56,3.36,3.36,0,0,0,.07.65,2.75,2.75,0,0,0,.31.78,2.67,2.67,0,0,0,.65.74,1.4,1.4,0,0,0,2-.13,2.45,2.45,0,0,0,.56-1,1.67,1.67,0,0,0,.06-.29l0-.16V42.4a2.33,2.33,0,0,0-.08-.59,3.28,3.28,0,0,0-.5-1.05,2.34,2.34,0,0,0-.81-.73,1.26,1.26,0,0,0-.94-.12,1.53,1.53,0,0,0-.69.46l-.11.15a1.13,1.13,0,0,0-.1.13l-.16.26-.1.22-.07.16Zm0,0,.05-.14.07-.17.11-.21a2.43,2.43,0,0,1,.15-.26l.09-.14a1.88,1.88,0,0,1,.81-.64,1.39,1.39,0,0,1,1,.09,2.8,2.8,0,0,1,1.19,1.24,3.57,3.57,0,0,1,.23.57,3.19,3.19,0,0,1,.1.63,3,3,0,0,1,0,.31c0,.12,0,.22-.06.32a2.67,2.67,0,0,1-.62,1.1,1.6,1.6,0,0,1-1.11.51,1.65,1.65,0,0,1-1.05-.42,2.71,2.71,0,0,1-.63-.78A3,3,0,0,1,51.77,42,2.88,2.88,0,0,1,51.83,41.43Z"/><g class="bfe3195c-f0c5-472a-b4c2-4fbe78064457"><path class="308a7b0e-1fcb-42b4-80b3-17959639f011" d="M55.13,43.29a1.62,1.62,0,1,1-3.1-.48,1.62,1.62,0,1,1,3.1.48Z"/><path class="290214f2-90c8-445a-b722-ae84e61d707b" d="M52.5,44.74a2.29,2.29,0,0,1-.56-2,2.45,2.45,0,0,1,.71-1.39A1.45,1.45,0,0,1,53.9,41a1.38,1.38,0,0,1,.76.38,2.25,2.25,0,0,1,.55,1.95,2.43,2.43,0,0,1-.69,1.39,1.52,1.52,0,0,1-1.26.44A1.46,1.46,0,0,1,52.5,44.74Zm2-3.26a1.22,1.22,0,0,0-.66-.35,1.32,1.32,0,0,0-1.12.4,2.15,2.15,0,0,0-.64,1.29,2.05,2.05,0,0,0,.5,1.79,1.22,1.22,0,0,0,.66.35,1.32,1.32,0,0,0,1.12-.4,2.19,2.19,0,0,0,.65-1.29A2.06,2.06,0,0,0,54.54,41.48Z"/><g class="b3c42b29-cc0b-4bbd-bbd8-95910ff17b11"><path class="308a7b0e-1fcb-42b4-80b3-17959639f011" d="M53.89,41.05a1.73,1.73,0,0,0-1.77,1.37h0s.6-1.18,1.36-1-1,.19-.95,1.7c.13,1.35,1.17,1.37,1.64.8s.21,1.28-1.25,1a1.42,1.42,0,0,0,.35.11,2.08,2.08,0,0,0,.62-4Z"/></g><path class="7051d313-ddec-4e0e-a6df-77a67d847929" d="M54.5,43.16c-.1.65-.6,1.12-1.1,1a1.23,1.23,0,1,1,1.1-1Z"/><path d="M54.29,43.13a.74.74,0,1,1-1.42-.22.86.86,0,0,1,.85-.81A.85.85,0,0,1,54.29,43.13Z"/><path class="e5c0e9c5-1d37-4cdf-8078-844ab1183530" d="M54.78,42.64c-.06.5-.37.85-.69.78s-.53-.52-.47-1,.36-.85.68-.79S54.84,42.14,54.78,42.64Z"/><path class="1eb3c93c-2f83-495f-9e88-bb95cc28a89d" d="M52.33,42.76s-.09,1.77,1.06,1.71c.51,0,0,.51-.65.2C51.84,44.22,52.13,42.33,52.33,42.76Z"/></g><path class="fabd58c4-a30d-4ecb-a227-98483581dd2b" d="M52.77,49.93a6.67,6.67,0,0,0,2.33.61,12,12,0,0,1,3.7,1c-.95.74-1.51,1.45-3,1.22S53.65,51.56,52.77,49.93Z"/><path class="74ae21e4-99ef-4b3e-af83-a9f3c979de14" d="M72.63,50.75a1.87,1.87,0,0,0,.09-.19.58.58,0,0,0,.07-.21.39.39,0,0,0,0-.26l0-.05-.07,0-.07,0-.09,0a.4.4,0,0,0-.3.12,1.1,1.1,0,0,0-.21.33c0,.13-.09.27-.13.41s-.07.28-.11.42a.85.85,0,0,1-.09.22.35.35,0,0,1-.2.16,1.47,1.47,0,0,1-.42,0h-.18a.39.39,0,0,0-.14,0,1.27,1.27,0,0,0-.4.32l-.12.16a.78.78,0,0,1,.09-.18,1.36,1.36,0,0,1,.38-.39.75.75,0,0,1,.18-.07l.09,0H71c.12,0,.27,0,.37,0s.15-.15.18-.28.07-.28.11-.43a3,3,0,0,1,.14-.42,1,1,0,0,1,.26-.38.47.47,0,0,1,.42-.13l.1,0,.09,0a.24.24,0,0,1,.08.06.23.23,0,0,1,.07.07.36.36,0,0,1,0,.32.64.64,0,0,1-.1.22A1.8,1.8,0,0,1,72.63,50.75Z"/><path class="74ae21e4-99ef-4b3e-af83-a9f3c979de14" d="M72.12,51.36l-.07-.1a.41.41,0,0,0,0-.09l-.06-.08s0,0,0,0l0,0h-.21l0,0a.15.15,0,0,1,0-.07s0,0,.06,0l.07,0a.12.12,0,0,1,.1,0l.08,0a.33.33,0,0,1,.09.28A.39.39,0,0,1,72.12,51.36Z"/><path class="1e43a1bb-3bad-4b27-bcd1-4bb7ca56930f" d="M56.25,40.11l0,.08a1,1,0,0,1,0,.23,3.33,3.33,0,0,1,0,.37,1.64,1.64,0,0,1,0,.23v.25a3.82,3.82,0,0,1,0,.57c0,.1,0,.2-.05.3a3,3,0,0,1-.07.32l-.09.33-.12.32-.15.32a1.82,1.82,0,0,1-.16.31c-.06.1-.12.21-.18.3l-.21.29a1.94,1.94,0,0,1-.21.27l-.22.26c-.16.16-.32.29-.47.43l-.42.37-.64.55-.25.2.23-.22c.15-.14.35-.36.6-.6l.84-.83c.13-.18.28-.34.41-.52l.19-.29a2.82,2.82,0,0,0,.18-.29,3,3,0,0,0,.16-.31l.15-.3.12-.32c0-.1.06-.2.1-.31s0-.2.08-.3,0-.2.06-.3.05-.38.07-.55,0-.34,0-.48a3.53,3.53,0,0,0,0-.36C56.27,40.23,56.25,40.11,56.25,40.11Z"/><path class="74ae21e4-99ef-4b3e-af83-a9f3c979de14" d="M53.08,46.77a1.1,1.1,0,0,0-.06.16s0,.1,0,.18a.88.88,0,0,0,0,.23.69.69,0,0,0,0,.13l0,.13a.84.84,0,0,0,.06.14l0,.06,0,.07a1.13,1.13,0,0,0,.1.13l.11.11a1.83,1.83,0,0,0,.26.21l.29.18c.1.06.21.1.3.15l.29.12.26.11.41.14.15,0-.16,0L54.77,49l-.28-.08a2.22,2.22,0,0,1-.31-.1,2.12,2.12,0,0,1-.31-.14l-.32-.18a3.08,3.08,0,0,1-.27-.24l-.13-.14-.1-.14,0-.08,0-.08a.94.94,0,0,1-.06-.15l0-.15v-.15a1.64,1.64,0,0,1,0-.25,1.89,1.89,0,0,1,.06-.18A1.1,1.1,0,0,1,53.08,46.77Z"/><path class="e5c0e9c5-1d37-4cdf-8078-844ab1183530" d="M55.93,51.58a9.86,9.86,0,0,0,2.43.28c.14-.12.28-.24.44-.36a12,12,0,0,0-3.7-1A10.52,10.52,0,0,1,54,50.35,4.33,4.33,0,0,0,55.93,51.58Z"/><path class="05c026b3-95ab-4253-b582-7e027d1c1283" d="M54.14,51.92a3,3,0,0,0,1.67.8,2.47,2.47,0,0,0,1.73-.27A4.92,4.92,0,0,0,54.14,51.92Z"/><path class="3bc31d6a-9ae6-4368-b3b2-dc8d71e84738" d="M59.65,45.57a3.7,3.7,0,0,0,.31.63,4.89,4.89,0,0,0,.47.65,4.14,4.14,0,0,0,.79.67,3.22,3.22,0,0,0,1.15.42,3.63,3.63,0,0,0,1.35,0,5.41,5.41,0,0,0,.69-.19,1.14,1.14,0,0,0,.52-.45,1.91,1.91,0,0,0,.19-1.41,3,3,0,0,0-.66-1.32,3.08,3.08,0,0,0-.52-.5l-.3-.21-.07,0-.08,0-.16-.08A3.28,3.28,0,0,0,62,43.3a2.56,2.56,0,0,0-1.19.23,2.2,2.2,0,0,0-.81.63l-.13.18a1.74,1.74,0,0,0-.1.19,2,2,0,0,0-.12.34,1.78,1.78,0,0,0,0,.52C59.64,45.51,59.65,45.57,59.65,45.57Zm0,0s0-.06,0-.18a2.11,2.11,0,0,1,0-.52,1.46,1.46,0,0,1,.12-.35,1.63,1.63,0,0,1,.09-.19l.13-.18a2.32,2.32,0,0,1,.81-.65A2.66,2.66,0,0,1,62,43.22a3.58,3.58,0,0,1,2.55,1.21,3.13,3.13,0,0,1,.7,1.38,2,2,0,0,1-.22,1.53,1.25,1.25,0,0,1-.26.3l-.16.12-.18.08a3.79,3.79,0,0,1-.72.18,4.05,4.05,0,0,1-1.39,0,3.26,3.26,0,0,1-1.14-.47,3.91,3.91,0,0,1-.79-.69A4.15,4.15,0,0,1,60,46.2,3.12,3.12,0,0,1,59.65,45.57Z"/><path d="M58.76,43.47a1.16,1.16,0,0,0,.05.2c0,.13.08.31.15.52a3.54,3.54,0,0,0,.12.34c0,.12.09.24.14.37s.11.26.18.39a3.6,3.6,0,0,0,.2.39c.07.12.14.25.22.37l.12.19.12.16.13.17.12.15a3.08,3.08,0,0,0,.24.26l.21.22.18.15.15.14-.17-.11a1.74,1.74,0,0,0-.2-.13l-.24-.2a3,3,0,0,1-.26-.25l-.14-.14L60,46.5c-.05-.06-.09-.12-.14-.17l-.12-.19c-.09-.12-.16-.25-.24-.38s-.13-.27-.2-.4L59.08,45c-.09-.26-.16-.52-.21-.73a4.31,4.31,0,0,1-.1-.54C58.76,43.55,58.76,43.47,58.76,43.47Z"/><path class="1e43a1bb-3bad-4b27-bcd1-4bb7ca56930f" d="M59,40.29a2.17,2.17,0,0,0,.09.44,1.9,1.9,0,0,0,.21.47,1.19,1.19,0,0,0,.46.46,1.29,1.29,0,0,0,.74.12l.21,0,.22-.05.45-.09a7.06,7.06,0,0,1,1-.11h.5a4.23,4.23,0,0,1,.5,0,3.88,3.88,0,0,1,.49.11l.47.17.44.22.4.27.35.3a1.21,1.21,0,0,1,.16.16l.14.16a5.34,5.34,0,0,1,.5.64c.14.21.24.41.34.59a3.32,3.32,0,0,1,.23.47L67,45l-.22-.4c-.07-.12-.14-.29-.25-.45l-.17-.27a3,3,0,0,0-.2-.29,5.5,5.5,0,0,0-.51-.61,1.07,1.07,0,0,1-.14-.16,1.07,1.07,0,0,0-.16-.14L65,42.43l-.39-.26c-.13-.07-.28-.13-.42-.21l-.45-.15a3.94,3.94,0,0,0-.47-.1,4.36,4.36,0,0,0-.49-.06h-.48a7.12,7.12,0,0,0-.94.1l-.45.08-.21,0-.23,0a1.43,1.43,0,0,1-.8-.16,1.38,1.38,0,0,1-.47-.5,2.37,2.37,0,0,1-.18-.5,1.76,1.76,0,0,1,0-.33A1.09,1.09,0,0,1,59,40.29Z"/><path class="1e43a1bb-3bad-4b27-bcd1-4bb7ca56930f" d="M55.87,39.12s0,.09,0,.24a1.33,1.33,0,0,1,0,.29.39.39,0,0,1,0,.18.21.21,0,0,1-.18.14.46.46,0,0,1-.23-.06l-.18-.14q-.18-.15-.36-.33a4.24,4.24,0,0,0-.4-.31L54.31,39a.94.94,0,0,0-.23-.1,1.23,1.23,0,0,0-.49-.09,1.06,1.06,0,0,0-.25,0l-.12,0a.45.45,0,0,0-.11,0l-.12,0-.1,0a1,1,0,0,0-.21.1l-.19.12-.16.12a2.3,2.3,0,0,0-.28.23,1.33,1.33,0,0,0-.21.19l-.18.16a1.5,1.5,0,0,0,.15-.19l.19-.21a2.21,2.21,0,0,1,.27-.25,1.07,1.07,0,0,1,.16-.14l.19-.13a1.37,1.37,0,0,1,.2-.13l.12-.05.12,0,.12,0,.13,0a1.27,1.27,0,0,1,.28,0,1.37,1.37,0,0,1,.28,0,2.76,2.76,0,0,1,.27.08l.25.11a1.2,1.2,0,0,1,.24.15,3.35,3.35,0,0,1,.4.33c.12.12.23.25.34.35a.65.65,0,0,0,.16.13.34.34,0,0,0,.17.07c.09,0,.14-.14.16-.24a1.37,1.37,0,0,0,0-.27C55.88,39.21,55.87,39.12,55.87,39.12Z"/><path class="1e43a1bb-3bad-4b27-bcd1-4bb7ca56930f" d="M57.56,39.88a1.26,1.26,0,0,1,.07.18,3.42,3.42,0,0,1,.09.4,3,3,0,0,1,0,.41c0,.11,0,.19,0,.19a1.28,1.28,0,0,1-.08-.18,1.79,1.79,0,0,1-.1-.4,1.65,1.65,0,0,1,0-.21v-.19A1.38,1.38,0,0,1,57.56,39.88Z"/><path d="M62.8,42.74l.23.09a5.27,5.27,0,0,1,.57.27,5.6,5.6,0,0,1,.73.52,4.14,4.14,0,0,1,.38.35c.12.13.22.27.33.41s.18.31.25.47a2.38,2.38,0,0,1,.15.5,2,2,0,0,1,0,.24c0,.08,0,.16,0,.23s0,.16,0,.23l0,.2a2.61,2.61,0,0,1-.08.35,2.39,2.39,0,0,1-.1.26l-.1.22s0-.08.07-.23,0-.16.07-.26a.88.88,0,0,0,0-.17l0-.18c0-.06,0-.13,0-.2v-.21l0-.22a1,1,0,0,0,0-.23,2.06,2.06,0,0,0-.15-.46,3.83,3.83,0,0,0-.25-.44,5.21,5.21,0,0,0-1.34-1.29,5,5,0,0,0-.54-.33Z"/><g class="b3c42b29-cc0b-4bbd-bbd8-95910ff17b11"><path class="aa0280b1-ca97-4f30-beeb-f8cc1e4e71cc" d="M55.52,42.71c.27-1.87-2.41-4.67-3.69-1.28a2.93,2.93,0,0,0,.84,2.67C53.89,45.23,55.29,44.21,55.52,42.71Zm-2.78,1.21a2.35,2.35,0,0,1-.69-2.16c1-2.74,3.21-.47,3,1C54.86,44,53.72,44.84,52.74,43.92Z"/></g><path class="74ae21e4-99ef-4b3e-af83-a9f3c979de14" d="M54,51.94a8.11,8.11,0,0,1-1.35-2l-.14-.25.26.14a7.2,7.2,0,0,0,2.3.6,11.79,11.79,0,0,1,3.73,1l.11,0-.1.09c-.14.11-.27.21-.39.32a3,3,0,0,1-2.67.91A3,3,0,0,1,54,51.94ZM53,50.12a7.08,7.08,0,0,0,1.19,1.7,3,3,0,0,0,1.66.82,2.79,2.79,0,0,0,2.53-.89l.29-.24a12.54,12.54,0,0,0-3.55-.88A8.06,8.06,0,0,1,53,50.12Z"/><path class="74ae21e4-99ef-4b3e-af83-a9f3c979de14" d="M58.8,51.5l.07,0a.37.37,0,0,1,.15,0,.38.38,0,0,1,.16,0,.16.16,0,0,1,.07,0l-.07,0a.26.26,0,0,1-.15,0,.38.38,0,0,1-.16,0Z"/><path class="74ae21e4-99ef-4b3e-af83-a9f3c979de14" d="M59,50.7l.08.21a1.8,1.8,0,0,0,.08.21,1.6,1.6,0,0,0,.1.23l.06.12.06.1a1.57,1.57,0,0,0,.12.19.92.92,0,0,0,.09.13l0,.06-.06,0-.14-.09-.09-.08a.24.24,0,0,1-.08-.09,1.14,1.14,0,0,1-.15-.23,1.61,1.61,0,0,1-.09-.26,1.2,1.2,0,0,1,0-.24A.65.65,0,0,1,59,50.7Z"/><path class="74ae21e4-99ef-4b3e-af83-a9f3c979de14" d="M51.17,47.88l.06.1c0,.06.09.15.15.25a.91.91,0,0,1,.11.16l.13.18.14.19.15.19c.06.06.1.13.16.18l.15.18a2.09,2.09,0,0,1,.14.17l.14.14.19.22.08.09-.1-.06-.24-.18-.16-.12-.16-.16-.17-.17a1,1,0,0,1-.16-.19l-.15-.19a2.39,2.39,0,0,1-.13-.21,2.29,2.29,0,0,1-.2-.37,2.55,2.55,0,0,1-.1-.29Z"/><g class="85bfacd9-53eb-4e99-921f-4c6bf824a4f8"><path class="8086513d-22d3-47be-b867-84ad3e7297db" d="M74.17,48.57c-.73-.8-2.12.55-2.12.55l1.68-4.24a11.66,11.66,0,0,0-2.54,2.28A21.56,21.56,0,0,1,73,42.27l-3.94,2.15a27.84,27.84,0,0,1,2.52-4C67,40.24,66,38.88,66,38.88s1.15-.28,2.84-.74c-3.4-1-8.3,2.16-8.3,2.16s1.58-3.18,3.21-3.86c-2.57-.07-6,1.63-6,1.63s.25-1,3.61-2.31c0,0-4.82-.35-7.78,1.83a13.13,13.13,0,0,1,2.71-3.39S52,35.69,51.11,36.83a3.6,3.6,0,0,0-.21,1.09,15,15,0,0,1,2.57-1.87l-.67,2a42.33,42.33,0,0,1,5.27-1.38,9.46,9.46,0,0,0-1.36,2.12s2.82-.75,4.53-1.3c-1.68,2.46-1.71,3.28-1.71,3.28A42.5,42.5,0,0,1,64.89,39a30.89,30.89,0,0,0,5.2,2,13.67,13.67,0,0,0-1.86,4.11,7.44,7.44,0,0,0,3.15-1.22,15.39,15.39,0,0,1-7.18,9.55c-6,3.48-10.41,2.37-14.42-3.29h0a9.69,9.69,0,0,0,.93,1.36c3.34,4,5.93,5.69,13.65,3.28a17.26,17.26,0,0,0,5.27-2.5s-.51.76.5,1.2c1.2.38,2.58-2.32,3.38-2.49A1.59,1.59,0,0,0,74.17,48.57Z"/></g><g class="790cbdbd-3a4e-4420-a803-d60fd4feddac"><path class="1e43a1bb-3bad-4b27-bcd1-4bb7ca56930f" d="M71.85,49.38a10.89,10.89,0,0,0,.86-1.91c-8.57-11.64-21-11.07-21.6-10.64l-.12.09a4,4,0,0,1,2.09.26l-.07,1,2.08-.74,2.09.13s-.94,1.86,0,1.33a3.1,3.1,0,0,1,3.33.08c-.27.84-1.1,2.26.26,1.68,2.12-.71,3.41-.4,5.88,1.3s.76,3.2,1.6,3.1,2.56-.38,2.46,1.1-2.24,4-3.27,5-4.66-.41-7.28-1.3c-2.28-.77-3.76-2.56-3.09-3.42s1.08-2.47.45-1.26-1.33,2.08-1.74,1.2-2.25-.21-1.21-1c2.19-1.59,2.26-5.08,1.61-3s-2.41,3.6-3.58,3.26-3.89.08-3.5-1.13,1.9-2.11,2.2-3.39a3.82,3.82,0,0,0-.51-2.32c0,.14,0,.3,0,.46.11,1.6.11,1.6-.78,2.81a8.49,8.49,0,0,0-1.56,2.7c-.56,1.6.82,1.11,2,1.27a10.75,10.75,0,0,0,2.89.27c.78-.13,1.72-.11,2.94,1.38a8.9,8.9,0,0,0,4.79,3c2.66.87,5.14,1.39,7.26,2.32C70.14,52.41,71.41,50.08,71.85,49.38Z"/></g><path class="05353890-6d1c-455d-a7d5-ed04711889d1" d="M53,47.1a2.51,2.51,0,0,0,1.3,1.27,2.66,2.66,0,0,0,2.11.08s-.24,1-1.77.41S52.85,47.83,53,47.1Z"/><path class="376dfc13-bc2b-49df-af1f-368aaa6d23c0" d="M53.43,46.56A1.85,1.85,0,0,0,54.56,48C55.58,48.43,52.39,48,53.43,46.56Z"/><path d="M51.45,42.49l0,.12c0,.08.09.18.15.31a3.87,3.87,0,0,0,.24.41c0,.07.1.14.15.21l.17.22.19.19.09.09.1.09a.39.39,0,0,1,.1.08l.1.06.19.12.17.09.13.06.12.05-.12,0-.15,0-.19-.06a1,1,0,0,1-.21-.1l-.12-.06-.11-.07-.11-.08-.1-.1a2,2,0,0,1-.21-.2c-.06-.08-.12-.15-.17-.23a1.58,1.58,0,0,1-.15-.24,2.76,2.76,0,0,1-.2-.44A2.59,2.59,0,0,1,51.45,42.49Z"/><path d="M52.39,39.8a1.07,1.07,0,0,1,.21-.15,2.12,2.12,0,0,1,.65-.22,2.3,2.3,0,0,1,.46,0,2,2,0,0,1,.5.13,2.27,2.27,0,0,1,.48.27l.23.18.18.21a2.66,2.66,0,0,1,.59,1.95,2.59,2.59,0,0,1-.15.66,1.13,1.13,0,0,1-.1.24,1.23,1.23,0,0,0,.07-.25,3.06,3.06,0,0,0,.09-.65,2.8,2.8,0,0,0-.13-.92,2.74,2.74,0,0,0-.49-.92l-.19-.2-.2-.17a2.82,2.82,0,0,0-.44-.26,2,2,0,0,0-.89-.16,2.52,2.52,0,0,0-.64.15Z"/><path class="74ae21e4-99ef-4b3e-af83-a9f3c979de14" d="M54.64,53.3l.09.08.25.21c.06,0,.11.09.18.13l.2.12.23.11a1.83,1.83,0,0,0,.25.06L56,54h.13a2.09,2.09,0,0,0,.25,0l.23-.05.2-.07.17-.07.12-.07.11-.06-.09.08-.11.1a.62.62,0,0,1-.16.1.64.64,0,0,1-.2.11,2.25,2.25,0,0,1-.24.08l-.28,0H56l-.15,0a2.76,2.76,0,0,1-.27-.08,1.36,1.36,0,0,1-.24-.13l-.21-.15-.16-.15a3.08,3.08,0,0,1-.22-.26Z"/><path class="d0616328-44e9-4d18-98ff-79a4eead03f1" d="M81,48.94a4.09,4.09,0,0,0,0-3.77,3.15,3.15,0,0,1,.82,3c3.13-5.43-1.47-8.6-1.47-8.6a7.8,7.8,0,0,1,3,3.23,10.68,10.68,0,0,0-4.71-7.52,6,6,0,0,1,3.77,2.13c-1.7-4.16-4.93-4.47-4.93-4.47s2.17-.81,5.5,1.16a8.71,8.71,0,0,0-7.36-3.84s.74-.49,3-.16c-.84-.91-3.1-1.14-3.1-1.14a12.59,12.59,0,0,1,4.09-.05c-3.79-3.61-8.63-1-8.63-1A7.41,7.41,0,0,1,74.49,26a7.62,7.62,0,0,0-5.09.8s1.72-2.46,3.23-3a8.15,8.15,0,0,0-6.1,2.56,6.74,6.74,0,0,1,1-2.45,7.18,7.18,0,0,0-2.11,1.81s-.31-3.74-2.62-4.54a4,4,0,0,1-.22,4L62,23s-.47.14-.85,1.66c-.67-1.51,0-4.53,0-4.53a4.82,4.82,0,0,0-2.6,4.35s-2-1.72-2-3.24a5.5,5.5,0,0,0-1,4.36,5.56,5.56,0,0,1-2.2-2.06,7.9,7.9,0,0,0,.81,2.77c-4.65.71-5.81,5.43-5.81,5.43s1.85-2.24,3.76-2.27a7.32,7.32,0,0,0-2.95,4.26s.21-.39,1.38-.8a7.86,7.86,0,0,0-2.37,5.34c.71-2.31,3.87-3.7,3.87-3.7s-2.2,2.35-2.43,3.72a13.18,13.18,0,0,1,1.42-1.42c.9-1.14,5.11-2.63,5.11-2.63a13.13,13.13,0,0,0-2.71,3.39c3-2.18,7.78-1.83,7.78-1.83-3.36,1.27-3.61,2.31-3.61,2.31s3.45-1.7,6-1.63c-1.63.68-3.21,3.86-3.21,3.86s4.9-3.18,8.3-2.16c-1.69.46-2.84.74-2.84.74s1.07,1.36,5.62,1.53a27.84,27.84,0,0,0-2.52,4L73,42.27a21.56,21.56,0,0,0-1.8,4.89,11.66,11.66,0,0,1,2.54-2.28l-1.68,4.24s1.39-1.35,2.12-.55A1.59,1.59,0,0,1,73.48,51c-.8.17-2.18,2.87-3.38,2.49-1-.44-.5-1.2-.5-1.2a17.26,17.26,0,0,1-5.27,2.5c1.84,1.44,5.08-.2,5.08-.2a2.14,2.14,0,0,1-1.23.76c1.66.07,4-1.64,4-1.64a6.94,6.94,0,0,1-1.33,1.41c2.53-.41,4.74-1.36,6.13-3.83a6.42,6.42,0,0,0,3.22-4.67A3.17,3.17,0,0,1,81,48.94Z"/><path class="0ce99001-b0bc-418f-951f-7960797dea61" d="M81.16,49a4.12,4.12,0,0,0,0-3.83l-.19,0a3.06,3.06,0,0,1,.79,2.91c0,.08.19.19.23.11a6.52,6.52,0,0,0-.21-7.4,6.73,6.73,0,0,0-1.24-1.26c-.08-.06-.2,0-.13.08A4.1,4.1,0,0,1,81,40a8.42,8.42,0,0,1,2.38,2.79s.23.15.22,0A10.55,10.55,0,0,0,79.93,36q-.42-.36-.87-.69a1.37,1.37,0,0,1-.2-.13c-.1-.06,0,.12,0,.13a6.2,6.2,0,0,1,3.55,2.06s.25.12.2,0c-.88-2.07-2.67-4.32-5.09-4.58l.13.18c1.74-.63,3.91.28,5.39,1.12,0,0,.21,0,.13-.05-1.69-2.26-4.55-4.18-7.51-3.93l.15.17a4.88,4.88,0,0,1,2.93-.16c.07,0,.12,0,.06-.11a5.56,5.56,0,0,0-3.22-1.2l.11.17a12.44,12.44,0,0,1,4-.05c.07,0,.12,0,0-.1A7.72,7.72,0,0,0,71,27.78l.19.15a6.82,6.82,0,0,1,3.36-1.85c.12,0-.06-.16-.11-.17a7.29,7.29,0,0,0-5.15.8l.21.14a7.69,7.69,0,0,1,3.19-2.93c.13,0-.06-.18-.13-.17a8.35,8.35,0,0,0-6.17,2.58l.23.11a6.55,6.55,0,0,1,1-2.44c.06-.08-.14-.17-.21-.14a7.29,7.29,0,0,0-2.12,1.83l.22.1c-.15-1.8-.92-3.95-2.73-4.66,0,0-.15,0-.12.06a4,4,0,0,1-.21,4l.23.08c-.19-.75-.37-1.51-.55-2.26a.2.2,0,0,0-.2-.11c-.57.21-.75,1.22-.89,1.71l.24.07a8,8,0,0,1,0-4.51c0-.09-.15-.15-.21-.12a5,5,0,0,0-2.63,4.37h.18a4.89,4.89,0,0,1-1.94-3.16c0-.08-.17-.19-.23-.11a6,6,0,0,0-1.09,3.75,2,2,0,0,0,0,.42c0,.28,0,.11.17.19a5.46,5.46,0,0,1-2.11-2c0-.05-.24-.16-.22,0a8.85,8.85,0,0,0,.79,2.73c.06.12-.41.08-.54.11a6.22,6.22,0,0,0-1.08.36,6.39,6.39,0,0,0-1.73,1.09,7.8,7.8,0,0,0-2.44,3.89c0,.09.18.18.23.11a5.7,5.7,0,0,1,3.71-2.24c-.06-.05-.11-.11-.16-.16a7.43,7.43,0,0,0-3,4.29c0,.08.18.19.23.11A2.68,2.68,0,0,1,50.7,33l-.18-.16a7.85,7.85,0,0,0-2.39,5.37c0,.07.2.2.23.11a6.89,6.89,0,0,1,3.86-3.69l-.2-.16a8.94,8.94,0,0,0-2.45,3.75c0,.09.17.17.23.11a11.24,11.24,0,0,1,3.25-2.65,27.11,27.11,0,0,1,3.24-1.37,1.29,1.29,0,0,0-.17-.16,10.9,10.9,0,0,0-2.72,3.4c0,.08.14.19.21.14a12.22,12.22,0,0,1,7.73-1.82l-.13-.18a11,11,0,0,0-3.08,1.64,1.64,1.64,0,0,0-.57.71c0,.09.15.15.22.12a13.8,13.8,0,0,1,6-1.61l-.16-.17c-1.49.7-2.51,2.46-3.22,3.87,0,.09.14.19.21.14,2.28-1.46,5.5-2.9,8.23-2.15l-.11-.17c-.94.26-1.88.51-2.84.74-.06,0,0,.08,0,.11a3,3,0,0,0,1.12.73,12.23,12.23,0,0,0,4.63.86l-.16-.15a23.27,23.27,0,0,0-2.52,4c0,.1.14.18.21.14l3.93-2.15-.21-.13a19,19,0,0,0-1.8,4.91c0,.08.17.17.23.1A11.12,11.12,0,0,1,73.83,45l-.21-.14-1.68,4.23c0,.09.15.2.21.14.51-.48,1.72-1.37,2.18-.17A1.7,1.7,0,0,1,74,50.49c-.23.33-.59.36-.9.55a12.13,12.13,0,0,0-1.64,1.72,2.08,2.08,0,0,1-1.16.67c-.75.07-.83-.7-.59-1.09.05-.08-.15-.19-.21-.14a15.79,15.79,0,0,1-5.25,2.5c-.07,0,0,.1,0,.12,1.51,1.1,3.67.62,5.24-.16a1.64,1.64,0,0,1-.22-.14,2.26,2.26,0,0,1-1.19.74c-.12,0,.07.17.13.17a7.42,7.42,0,0,0,4.09-1.66l-.2-.13A6.46,6.46,0,0,1,70.8,55c-.1.07.12.17.17.16a10.72,10.72,0,0,0,3.74-1.28,6,6,0,0,0,1.43-1.18,8.35,8.35,0,0,0,.69-.88,5.16,5.16,0,0,1,1.23-1.15,6.18,6.18,0,0,0,2.31-4l-.2,0a3.23,3.23,0,0,1,.76,2.26c0,.09.23.19.23.09a3.37,3.37,0,0,0-.82-2.4s-.2-.12-.2,0a6.29,6.29,0,0,1-2.49,4.14,7.11,7.11,0,0,1-.72.5c-.16.1-.37.58-.49.75a6.59,6.59,0,0,1-1.71,1.66A9.58,9.58,0,0,1,70.82,55l.17.16a6.28,6.28,0,0,0,1.35-1.42c0-.08-.15-.18-.21-.14a7.35,7.35,0,0,1-4,1.63l.13.18a2.42,2.42,0,0,0,1.26-.78c0-.09-.15-.17-.21-.14a9.36,9.36,0,0,1-1.42.53,6.76,6.76,0,0,1-1.54.24,3.82,3.82,0,0,1-.89-.07s-1-.35-.78-.41a15.33,15.33,0,0,0,5-2.45l-.21-.13c-.45.72.33,1.44,1.05,1.37,1.23-.12,1.92-1.85,2.86-2.45.55-.36.9-.44,1.14-1.15a1.44,1.44,0,0,0-.3-1.46c-.73-.66-1.7-.05-2.29.51l.21.14,1.68-4.24c0-.09-.14-.18-.21-.14a11.92,11.92,0,0,0-2.56,2.3l.23.1a19,19,0,0,1,1.8-4.87c0-.09-.15-.17-.21-.14L69,44.34l.21.14a23.11,23.11,0,0,1,2.52-4c.06-.07-.12-.15-.17-.15a10.25,10.25,0,0,1-5.16-1.2,1.71,1.71,0,0,1-.26-.21c-.09-.09-.08.06.06,0,.91-.22,1.82-.46,2.72-.71.12,0-.06-.16-.1-.17-2.79-.76-6,.67-8.38,2.17l.21.14c.71-1.41,1.72-3.15,3.2-3.84.1-.05-.11-.17-.15-.17A13.94,13.94,0,0,0,57.58,38l.21.12a1.8,1.8,0,0,1,.53-.64,9.73,9.73,0,0,1,3-1.62c.12-.05-.08-.17-.14-.18a12.45,12.45,0,0,0-7.82,1.84l.21.14a10.72,10.72,0,0,1,2.7-3.37c.08-.07-.11-.19-.18-.16a30.57,30.57,0,0,0-3.29,1.39,11.11,11.11,0,0,0-3.28,2.67l.23.11a8.74,8.74,0,0,1,2.42-3.68c.08-.09-.12-.19-.2-.16a7.06,7.06,0,0,0-3.89,3.72l.23.11A7.81,7.81,0,0,1,50.72,33c.07-.08-.11-.19-.18-.16a2.69,2.69,0,0,0-1.41.82l.22.11a7.41,7.41,0,0,1,2.94-4.23c.08-.07-.1-.17-.15-.16a5.7,5.7,0,0,0-3.82,2.29l.22.1a7.36,7.36,0,0,1,5.78-5.38s0-.05,0-.09a7.74,7.74,0,0,1-.81-2.75l-.22,0a5.86,5.86,0,0,0,2.27,2.12s.18.06.15,0a5.52,5.52,0,0,1,1-4.32l-.23-.11a5.12,5.12,0,0,0,2.06,3.33s.17.09.18,0a4.89,4.89,0,0,1,2.58-4.31l-.21-.12a7.92,7.92,0,0,0,0,4.55c0,.07.2.18.23.07A3.48,3.48,0,0,1,62,23.15c.22-.23,0,.09,0-.2,0,.1,0,.21.08.31.15.65.31,1.29.47,1.93,0,.07.17.16.22.09a4,4,0,0,0,.41-3.57c-.13-.42.06-.28.37-.06a3.24,3.24,0,0,1,.79.86,5.31,5.31,0,0,1,.66,1.43,7.09,7.09,0,0,1,.38,1.76c0,.09.17.19.23.11a7.13,7.13,0,0,1,2.1-1.8l-.21-.13a6.64,6.64,0,0,0-1,2.47c0,.09.17.17.23.1a8.21,8.21,0,0,1,6-2.53,1.09,1.09,0,0,1-.13-.17,7.83,7.83,0,0,0-3.27,3c-.06.08.15.17.21.14a7.09,7.09,0,0,1,5-.79,1,1,0,0,0-.1-.17A6.71,6.71,0,0,0,71,27.78c-.09.08.12.19.19.15a8.44,8.44,0,0,1,4.5-.84,6.67,6.67,0,0,1,2.23.61,7,7,0,0,1,1,.64c.61.45.39.42-.23.37a10.93,10.93,0,0,0-3.18.14c-.12,0,0,.17.1.17a8.94,8.94,0,0,1,1.15.21,6,6,0,0,1,1.29.46c.75.37,0,.23-.29.21a3.84,3.84,0,0,0-2.17.27c-.09,0,.1.17.15.16A8.35,8.35,0,0,1,82.15,33l.36.39c.12.14.74.63.13.29-.4-.21-.81-.38-1.23-.55a8.09,8.09,0,0,0-2-.47,4.23,4.23,0,0,0-1.87.14c-.13,0,.08.16.14.17,2.25.24,3.93,2.43,4.76,4.36h.2a6.4,6.4,0,0,0-3.91-2.2c-.13,0,0,.12,0,.15a10.28,10.28,0,0,1,4.62,7.42l.22,0a8,8,0,0,0-3.11-3.29c-.1-.05-.22,0-.1.1a6.25,6.25,0,0,1,1.83,2.16,6.45,6.45,0,0,1-.41,6.33l.23.11a3.26,3.26,0,0,0-.85-3c-.05,0-.27-.12-.2,0a4,4,0,0,1,0,3.71C80.89,49,81.11,49.09,81.16,49Z"/><path class="0ce99001-b0bc-418f-951f-7960797dea61" d="M69.53,31.46l.15-.09.16-.06.18,0a.86.86,0,0,1,.17,0l.17,0h.53l.18,0,.17,0,.18,0,.17,0c.22.06.45.11.67.18l-.18.21L72,31.57l-.1-.14a2.62,2.62,0,0,0-.22-.25,1.31,1.31,0,0,0-.12-.11l-.13-.1a2.82,2.82,0,0,0-.29-.18l-.3-.14a2.08,2.08,0,0,0-.32-.12,1.89,1.89,0,0,0-.34-.09l-.33-.07a5.35,5.35,0,0,0-.7-.08c-.23,0-.47,0-.7,0s-.47,0-.7.05-.24,0-.35.06a1.39,1.39,0,0,0-.35.09,2.77,2.77,0,0,1,.67-.27,5.89,5.89,0,0,1,.71-.13,4.48,4.48,0,0,1,.73-.05h.37l.36,0,.36.06.36.09.36.12a3.36,3.36,0,0,1,.33.16,2.66,2.66,0,0,1,.33.21l.15.12a1.59,1.59,0,0,1,.13.13,2.26,2.26,0,0,1,.25.29c0,.06.07.11.1.16l.09.18.17.32-.35-.11-.65-.22-.16,0-.16,0a2,2,0,0,0-.33-.08l-.34,0a.88.88,0,0,0-.16,0H70.2a1,1,0,0,0-.17,0l-.17,0-.17,0Z"/><path class="0ce99001-b0bc-418f-951f-7960797dea61" d="M66.23,30c0-.06,0-.12,0-.19a1.09,1.09,0,0,1,0-.18,1.15,1.15,0,0,1,0-.19l0-.19a1.21,1.21,0,0,1,0-.18l.05-.18a1.34,1.34,0,0,1,.07-.18l.08-.17.08-.17c0-.05.07-.1.1-.16l.21-.31.12-.15.13-.14.25-.28.16.29-.16.05-.16.05-.31.13-.3.15-.15.09-.15.09a2.75,2.75,0,0,0-.28.19l-.13.11-.14.11-.12.12-.12.13-.12.13-.11.14a3.31,3.31,0,0,1,.15-.33l.1-.15.1-.15.12-.14.13-.14.27-.24a3.06,3.06,0,0,1,.29-.21l.32-.19.33-.15.17-.06.19-.06L68,27.1l-.39.44-.24.26-.12.13a1.49,1.49,0,0,0-.12.14l-.21.28a1.34,1.34,0,0,0-.11.14l-.09.15a3.14,3.14,0,0,0-.18.31l-.08.16c0,.06,0,.1-.07.16s-.09.22-.12.34S66.25,29.84,66.23,30Z"/><path class="0ce99001-b0bc-418f-951f-7960797dea61" d="M64.15,29.66a3.25,3.25,0,0,0-.74-.26l-.39,0h-.19a.67.67,0,0,0-.2,0,1.13,1.13,0,0,0-.18,0l-.19,0-.18.06-.18.08-.16.08-.16.1a.83.83,0,0,0-.15.11l-.15.12-.12-.3h.22a1.38,1.38,0,0,1,.2,0l.21,0,.2.05c.13.05.26.09.38.15l.36.19a3.78,3.78,0,0,1,.33.22,2.43,2.43,0,0,1,.32.24,5.89,5.89,0,0,1,.58.54,5.82,5.82,0,0,0-.63-.48l-.33-.2-.35-.17-.36-.14-.37-.1-.18,0h-.37l-.18,0h0l-.55,0,.43-.28.17-.11a1.18,1.18,0,0,1,.19-.11l.19-.09.19-.07a1.52,1.52,0,0,1,.2-.06l.2,0,.21,0h.41l.2,0c.14,0,.27.06.4.09A3.16,3.16,0,0,1,64.15,29.66Z"/><path class="0ce99001-b0bc-418f-951f-7960797dea61" d="M57.78,30.34a2.49,2.49,0,0,0-.43-.22A2.45,2.45,0,0,0,56.9,30a1.55,1.55,0,0,0-.23-.06l-.23-.05-.23,0-.24,0h-.7l-.24,0-.23,0-.23,0a2,2,0,0,0-.23.06l-.23,0-.35.08.16-.31.17-.33a2.8,2.8,0,0,1,.2-.32,1.28,1.28,0,0,1,.23-.29l.12-.14.14-.13.14-.12.16-.11a1.49,1.49,0,0,1,.31-.2,2.16,2.16,0,0,1,.34-.17,3.42,3.42,0,0,1,.34-.13,2.42,2.42,0,0,1,.36-.1l.36-.07c.12,0,.24,0,.36,0l.37,0h.36a2.19,2.19,0,0,1,.36,0l.36.05.35.07H57.88l-.35,0-.35,0a1.86,1.86,0,0,0-.34.07L56.5,28c-.11,0-.22.08-.33.12a2.88,2.88,0,0,0-.31.13,3.07,3.07,0,0,0-.31.17,2.68,2.68,0,0,0-.28.18l-.14.11-.12.11-.13.12-.11.12a2.78,2.78,0,0,0-.21.27,2.2,2.2,0,0,0-.18.28l-.16.31L54,29.65l.24,0,.24-.05.25,0,.25,0h.5l.24,0,.25,0,.25.05.24.06.23.08a1.57,1.57,0,0,1,.23.09,2.64,2.64,0,0,1,.44.23,1.37,1.37,0,0,1,.2.13Z"/><path class="0ce99001-b0bc-418f-951f-7960797dea61" d="M52.13,34.58l.1-.11.13-.11c.06,0,.11-.09.18-.13l.22-.15.25-.15.28-.13.3-.13.31-.1c.1,0,.2,0,.3-.08l.28-.06.26,0a4.48,4.48,0,0,1,.55,0,5.35,5.35,0,0,1-.5.21l-.24.09-.26.1-.29.1-.29.11-.29.11-.28.11-.27.1-.24.09-.36.13Z"/><path class="0ce99001-b0bc-418f-951f-7960797dea61" d="M50.66,32.91a3.6,3.6,0,0,1,.39-.51,5,5,0,0,1,.46-.46l.28-.24.31-.22.32-.2a2.15,2.15,0,0,1,.34-.17l.32-.14.29-.09.26-.06a.79.79,0,0,1,.2,0H54l-.16.07-.18.08-.23.12-.26.14-.28.17c-.1.05-.2.13-.3.19l-.31.2L52,32l-.29.2-.52.38C50.88,32.77,50.66,32.91,50.66,32.91Z"/><path class="0ce99001-b0bc-418f-951f-7960797dea61" d="M56.26,34.25l.21-.21a1.6,1.6,0,0,1,.27-.22,4.17,4.17,0,0,1,.38-.26,4,4,0,0,1,.46-.25c.17-.09.36-.17.55-.25a5.27,5.27,0,0,1,.6-.2l.64-.17c.22,0,.44-.08.65-.1l.64-.06h.59l.53,0a3.1,3.1,0,0,1,.45.05l.34,0,.29,0h-.3l-.34,0-.44,0-.52,0-.58.06-.61.08-.63.12-.62.14c-.2.06-.4.11-.59.18l-.55.19a4.15,4.15,0,0,0-.47.2l-.4.19-.3.16-.19.12Z"/><path class="d0616328-44e9-4d18-98ff-79a4eead03f1" d="M50.26,29.18l0,0Z"/><path class="0ce99001-b0bc-418f-951f-7960797dea61" d="M50.37,29.25l0,0s-.16-.18-.22-.12l0,0c0,.05.16.19.22.13l0,0-.22-.12,0,0S50.31,29.31,50.37,29.25Z"/><g class="b3c42b29-cc0b-4bbd-bbd8-95910ff17b11"><path class="d0616328-44e9-4d18-98ff-79a4eead03f1" d="M81,48.94a4.09,4.09,0,0,0,0-3.77,3.15,3.15,0,0,1,.82,3c3.13-5.43-1.47-8.6-1.47-8.6a7.8,7.8,0,0,1,3,3.23,9.14,9.14,0,0,0-.28-1.54A5.46,5.46,0,0,0,79.44,39c3.93,3.61,2.73,6.8,2.73,6.8-.43-1.85-2.84-1.9-2.06-1.06a5,5,0,0,1,1,2.11s0-.28-1.34-.83c0,2.93-3.58,5.87-3,4.05s.33-2.53-.91-2.31,1.43-1.39-.41-.8-2.13.22-2.13.22l2.2-4.36a6.33,6.33,0,0,0-2.79,1.56,40.13,40.13,0,0,1,2.36-4.28l-4.71,2.7a22.53,22.53,0,0,0,2.89-3.52,6.31,6.31,0,0,1-5.5-.06s.72-.41,2.63-1.63a11.45,11.45,0,0,0-8.18.73,13.06,13.06,0,0,1,4.26-2.74,23.38,23.38,0,0,0-5.33.59,8.32,8.32,0,0,1,2.43-1,20.87,20.87,0,0,0-6.43-.57s2.15-1.79,6.61-2a10.77,10.77,0,0,0-7.82.93s0-.52,1-1.45a13.78,13.78,0,0,0-6.91,3s2.68-3.81,4.92-4.8a7.64,7.64,0,0,0-4.36,1.54,31.14,31.14,0,0,1,3.17-3.33c-2.3-.26-3.27.53-3.45.69l0,0,0,0A12.26,12.26,0,0,1,55.2,26.4,6.21,6.21,0,0,1,53.52,24a7.18,7.18,0,0,0,.72,2.23c-4.65.71-5.81,5.43-5.81,5.43s1.85-2.24,3.76-2.27a7.32,7.32,0,0,0-2.95,4.26s.21-.39,1.38-.8a7.86,7.86,0,0,0-2.37,5.34c.71-2.31,3.87-3.7,3.87-3.7s-2.2,2.35-2.43,3.72a13.18,13.18,0,0,1,1.42-1.42c.9-1.14,5.11-2.63,5.11-2.63a13.13,13.13,0,0,0-2.71,3.39c3-2.18,7.78-1.83,7.78-1.83-3.36,1.27-3.61,2.31-3.61,2.31s3.45-1.7,6-1.63c-1.63.68-3.21,3.86-3.21,3.86s4.9-3.18,8.3-2.16c-1.69.46-2.84.74-2.84.74s1.07,1.36,5.62,1.53a27.84,27.84,0,0,0-2.52,4L73,42.27a21.56,21.56,0,0,0-1.8,4.89,11.66,11.66,0,0,1,2.54-2.28l-1.68,4.24s1.39-1.35,2.12-.55A1.59,1.59,0,0,1,73.48,51c-.8.17-2.18,2.87-3.38,2.49-1-.44-.5-1.2-.5-1.2a17.26,17.26,0,0,1-5.27,2.5c1.84,1.44,5.08-.2,5.08-.2a2.14,2.14,0,0,1-1.23.76c1.66.07,4-1.64,4-1.64a6.94,6.94,0,0,1-1.33,1.41c2.53-.41,4.74-1.36,6.13-3.83a6.42,6.42,0,0,0,3.22-4.67A3.17,3.17,0,0,1,81,48.94Z"/></g><path class="335dc917-9bd2-467e-a575-8053bf373b75" d="M63.36,30.74A2.53,2.53,0,0,0,60.87,30,2.38,2.38,0,0,1,64,29.44s.81-1.31,1.1-.25a3.74,3.74,0,0,1,2.61-2,4.37,4.37,0,0,0-1.5,3.13c1.81-.5,4.35-1.16,6,1.28-.41-1.9-3-3-4.59-2.56,1.28-2.25,1.15-2.61,1.15-2.61a3.41,3.41,0,0,0-3.44,1.62c-1.39-1.36-1.46-.73-1.41.25s-2.14-1.08-4.26,1.82C62.45,30,63.36,30.74,63.36,30.74Z"/><g class="b3c42b29-cc0b-4bbd-bbd8-95910ff17b11"><path class="d0616328-44e9-4d18-98ff-79a4eead03f1" d="M68.75,27.26a32.41,32.41,0,0,1,3.4-1,7.86,7.86,0,0,0-1.73,2.17,7.75,7.75,0,0,1,7.45-.24C75,28,73.94,29.24,73.94,29.24a9.16,9.16,0,0,1,2.88.31c-2.14.41-2.57.85-2.57.85s4.38.05,6.74,2c-3.32-.54-4.38.44-4.38.44A9.36,9.36,0,0,1,81,35.49c-2.6-1.58-3.28-.6-3.28-.6a15.48,15.48,0,0,1,4,3.22,11.24,11.24,0,0,0-2.93-2.85,6,6,0,0,1,3.77,2.13c-1.7-4.16-4.93-4.47-4.93-4.47s2.17-.81,5.5,1.16a8.71,8.71,0,0,0-7.36-3.84s.74-.49,3-.16c-.84-.91-3.1-1.14-3.1-1.14a12.59,12.59,0,0,1,4.09-.05c-3.79-3.61-8.63-1-8.63-1A7.41,7.41,0,0,1,74.49,26a7.62,7.62,0,0,0-5.09.8s1.72-2.46,3.23-3c-.36,0-.71,0-1,.07A7.62,7.62,0,0,0,68.75,27.26Z"/><path class="d0616328-44e9-4d18-98ff-79a4eead03f1" d="M61.13,25.3,61.8,24l.46,1.6s2.6-.82,1.36-4a2.5,2.5,0,0,0-.81-.46,4,4,0,0,1-.22,4L62,23s-.47.14-.85,1.66c-.67-1.51,0-4.53,0-4.53a4.06,4.06,0,0,0-.68.42A6.29,6.29,0,0,0,61.13,25.3Z"/></g><path class="ada07a21-8267-4133-ade3-d74605f426f5" d="M66.11,33.08a11.18,11.18,0,0,0-4.58.57c4,.36,4.49.25,3.53.93s1.89.23,3.16.26-.65.47-1.51,1.14,1.83,0,4.85.61,0,.76-1.25,1.8,2,.54,4-.66.11.41-.49,1.64,1.47-.48,2.43-1.56.54-1.59-2.06-1.71,3.61-1.11-.43-1.63-4.7-.86-2.57-1.4S68.6,32,66,31.91,68.87,33.05,66.11,33.08Z"/><path class="ada07a21-8267-4133-ade3-d74605f426f5" d="M76.83,39.41s-2.51,2.48-1,1.85,1.17.29,0,2.56-.07,1.41,1.51,0,1-.48.18,1.4.81-.1,1.35-.94c1.24-2,1.67-4-.19-2.54s1-3.17-.22-2.06S78.06,38.23,76.83,39.41Z"/><path class="ada07a21-8267-4133-ade3-d74605f426f5" d="M60.86,31.45A5.94,5.94,0,0,0,58.1,32c-1.08.62-.13-.72.47-1s-1.27,0-3,.46,1-1.16,2.88-1.24,1.93.22,1.15.65S62.66,31.18,60.86,31.45Z"/></g></g></svg>