<svg xmlns="http://www.w3.org/2000/svg" xmlns:xlink="http://www.w3.org/1999/xlink" viewBox="0 0 121 170.54"><defs><style>.\37 1a1bde4-7af6-4f90-b181-a3dd8d5beb9b{mask:url(#a9e7171b-aa89-4b33-9705-9fc283955912);filter:url(#0995bb27-8562-43a2-8202-60c191a48186);}.\30 2ae3fbf-570c-486e-9985-707ba9e673ca,.\30 de6da4c-0af5-48e3-9999-8b9e25221d0b,.\32 161106f-e25b-4e15-b936-ded0615dc60b,.\32 211f44d-15a6-43e5-8d3f-199972a8e385,.\32 6a646a0-5eea-4b7c-85f5-602d82b15406,.\32 a848094-e5d4-4b0e-b568-fefb1a8e9772,.\32 ec50d36-53e0-49c2-b7d9-fe977545d849,.\33 4b1e947-97f5-428a-86ac-5b56f28921c3,.\35 7a8a6d3-66d0-43e7-b1ef-d31e0f741def,.\35 7b10dc9-ca78-428c-a300-e6b961b2ae52,.\36 67d9f3c-0190-4efa-a514-5e0f101443f8,.\39 3fc29c0-46a9-405a-90d7-ed6241625e54,.\39 5ce1adf-cfa5-42ae-b467-a28b941af3ad,.\39 8887e9c-2c27-4956-bc2c-68a63ab9b05b,.a7dc4efe-2187-4533-b7bc-5246434db42e,.b710f265-8596-498a-815b-abdcc1a91afa,.bdb8e67d-bf81-4b85-bdc7-be79ca8a34fd,.bfad5271-7af5-432b-9231-49e6faa3e793,.c9c3a6c6-af0b-4a13-a033-18ad6f7ce43f,.cd84156a-3ea7-4921-a119-3e1187465685,.ce65b0b4-8ddb-4b46-abe8-c57d4aff6414,.d0461d24-6194-428b-8617-7f0e114c11e9,.d53c2720-1219-4f6b-be00-67b06cb3091c,.eb56ab6c-fe16-4077-bb23-aeeca68f9ad8,.f3d6ef00-3c73-4308-a9ca-1efb6751f1cf{mix-blend-mode:multiply;}.\32 6a646a0-5eea-4b7c-85f5-602d82b15406{fill:url(#4dc7c603-e05f-498f-ad1f-453cad1a6e3d);}.\34 c1a15bd-d095-459c-891c-464e07fa2242{mask:url(#1eb46eea-1046-46e9-9113-87cd3059bc1a);filter:url(#c20b2a95-c32e-4728-92c1-72cfb2f039d8);}.c9c3a6c6-af0b-4a13-a033-18ad6f7ce43f{fill:url(#dd6f3112-da93-4931-96df-a774145866cb);}.\35 99415e1-e3d5-4fc3-8c99-2864ae768d99{isolation:isolate;}.a80f3f4c-ac25-43f7-996f-33cd1b440ada{fill:#ffe8c8;}.f4b93142-06f4-4e91-9073-16394f0c6cc3{fill:#fbbb95;}.\30 2ae3fbf-570c-486e-9985-707ba9e673ca,.\32 161106f-e25b-4e15-b936-ded0615dc60b,.cd84156a-3ea7-4921-a119-3e1187465685{fill:#fdd4a7;}.\30 2ae3fbf-570c-486e-9985-707ba9e673ca,.\32 211f44d-15a6-43e5-8d3f-199972a8e385,.\32 a848094-e5d4-4b0e-b568-fefb1a8e9772,.\33 031b29d-6950-4301-a899-54130d8a0627,.\33 4b1e947-97f5-428a-86ac-5b56f28921c3,.\34 5fa6afc-3383-4a55-a17d-5b272a274614,.\36 67d9f3c-0190-4efa-a514-5e0f101443f8,.\38 53ef9a9-4742-47c5-8742-e789d85714d4,.\39 5ce1adf-cfa5-42ae-b467-a28b941af3ad,.\39 6b220db-69f4-4859-b6d6-945b9c78f768,.a7dc4efe-2187-4533-b7bc-5246434db42e,.eb56ab6c-fe16-4077-bb23-aeeca68f9ad8{opacity:0.5;}.\35 8817517-def9-4f66-ae39-c083faaabb07,.bfad5271-7af5-432b-9231-49e6faa3e793,.cd84156a-3ea7-4921-a119-3e1187465685,.d0461d24-6194-428b-8617-7f0e114c11e9{opacity:0.7;}.\38 c41a127-e69b-481c-bc0e-06bb7f4cf4b8{fill:#00401c;}.\33 d99cb73-a84c-4313-97f5-ff256946cb16{fill:#e00e19;}.\39 5ce1adf-cfa5-42ae-b467-a28b941af3ad,.bfad5271-7af5-432b-9231-49e6faa3e793,.cbed17be-6c65-4e1f-9ff4-05927f6dd25a{fill:#a91917;}.cb791311-31af-47fe-a914-7a303d6a6a62{fill:#6c1917;}.\37 49b083a-24db-44ea-9807-1ed67d433f68{fill:#fff200;}.\39 60961b5-3a56-4e92-b52b-2bd7711ed266{fill:#fcb32a;}.b710f265-8596-498a-815b-abdcc1a91afa{fill:#f9dd27;}.\30 b7ecf56-437b-49b5-86d1-e16a50fd4d9f,.b9205a6c-e0e1-4e32-959b-86f3f1705665,.eb56ab6c-fe16-4077-bb23-aeeca68f9ad8{fill:#ff3028;}.\30 b7ecf56-437b-49b5-86d1-e16a50fd4d9f,.b9205a6c-e0e1-4e32-959b-86f3f1705665{opacity:0.8;}.\30 b7ecf56-437b-49b5-86d1-e16a50fd4d9f,.\31 ba29929-d2b6-4d28-bdfb-6773f0f1a5f2,.\33 031b29d-6950-4301-a899-54130d8a0627,.\39 6b220db-69f4-4859-b6d6-945b9c78f768,.cb97a93e-108c-4088-b9ea-869040ca2736{mix-blend-mode:screen;}.d74b9361-285c-4ae8-aa51-4fb4a8cddbf8{fill:none;}.\30 795541d-609d-44d0-ae4b-c07de6cda6d3,.\39 8887e9c-2c27-4956-bc2c-68a63ab9b05b{fill:#006a34;}.f3d6ef00-3c73-4308-a9ca-1efb6751f1cf{fill:#fddcc2;}.dcd9606e-72ee-41ae-a2c3-455261d3930e{fill:#f8a375;}.\38 f51c38b-50eb-4508-9e35-74f4a17cd2a8{fill:#f5c42c;}.\36 67d9f3c-0190-4efa-a514-5e0f101443f8,.\39 3fc29c0-46a9-405a-90d7-ed6241625e54,.fbb6d48d-612f-40d2-9e5c-be33e1d6becd{fill:#27348b;}.\34 7903e07-20d8-4635-b939-393f2816e80f,.d0461d24-6194-428b-8617-7f0e114c11e9{fill:#06004c;}.\30 de6da4c-0af5-48e3-9999-8b9e25221d0b,.\38 bad8c60-22b5-45bd-bc53-a91a761e7307{fill:#2f69bb;}.\30 de6da4c-0af5-48e3-9999-8b9e25221d0b,.\32 ec50d36-53e0-49c2-b7d9-fe977545d849{opacity:0.9;}.fb766693-f816-4440-8112-89902e108230{fill:#f3bb2d;}.\32 ec50d36-53e0-49c2-b7d9-fe977545d849{fill:#e3c522;}.b0544815-b313-427e-a3ad-6076dda46484{fill:#fffbce;}.\39 6b220db-69f4-4859-b6d6-945b9c78f768{fill:#f9f28e;}.\35 7b10dc9-ca78-428c-a300-e6b961b2ae52,.f86575e7-3570-4e0b-856e-96971c994ac4{fill:#fffbcc;}.\37 7c2d076-fc51-440b-bb1e-dd026272e285{fill:#fbcb7c;}.bdb8e67d-bf81-4b85-bdc7-be79ca8a34fd{fill:#fef2b7;}.\32 ae13d85-3150-4e06-9274-eca6bdf6493f{fill:#fff;}.\38 37cad8e-01d6-42a3-85e3-f3eaaea84be0{fill:#220e00;}.\37 6051196-eec1-4540-afb9-13b8b4d2f3f6{fill:#3c1f03;}.\32 211f44d-15a6-43e5-8d3f-199972a8e385,.b55d6d81-7aec-4474-a2da-8aa9575e4cdf{fill:#854d1f;}.\36 e208913-3d51-42c6-a886-928815d809f5{fill:#4c2800;}.\35 8817517-def9-4f66-ae39-c083faaabb07,.\38 1e1c1b1-01dd-471d-a8af-89b2396b1a8d,.\38 53ef9a9-4742-47c5-8742-e789d85714d4,.e87abf1c-08b4-40a9-b509-60bed6d535e7{fill:#b16d11;}.\35 7a8a6d3-66d0-43e7-b1ef-d31e0f741def,.\39 0baa947-007d-4f77-b015-114cdc1480b0,.\39 8887e9c-2c27-4956-bc2c-68a63ab9b05b,.dd18cf87-9b64-4a89-848c-e64c21e8086f,.e87abf1c-08b4-40a9-b509-60bed6d535e7{opacity:0.3;}.\32 fab66ed-df52-43cb-b50f-43d546e5d8f8,.\34 5fa6afc-3383-4a55-a17d-5b272a274614,.\39 0baa947-007d-4f77-b015-114cdc1480b0{fill:#df8a1b;}.\37 defc77c-1f32-4980-816e-b70617cfa958{fill:#fab793;}.ab2eb55e-548f-4999-a1be-b63197f0a181{fill:#b90003;}.\32 a4be4a3-d4a8-4b25-930d-5641ec5a2810{fill:#6a1917;}.fc996659-b94a-470c-83c7-418e5fd63816{mask:url(#89ffca6e-5f85-4b3c-bd8a-d04394597f8b);}.\30 2b05689-6a04-4446-b31b-30f5a24c5490{fill:#7c0000;}.\35 7a8a6d3-66d0-43e7-b1ef-d31e0f741def{fill:#810e19;}.b9467815-b6fb-41b4-8f10-cc02b7c736cf{fill:#febe29;}.\33 4b1e947-97f5-428a-86ac-5b56f28921c3{fill:#6e1917;}.\32 a848094-e5d4-4b0e-b568-fefb1a8e9772{fill:#7e1917;}.\31 ba29929-d2b6-4d28-bdfb-6773f0f1a5f2{fill:url(#ef9ca11e-7abb-4ed6-ba49-dd413ed13414);}.e4c56abe-b560-475a-a750-fb2b75886e18{mask:url(#8065aaec-ea53-489a-a6c9-6ab545ae6da6);}.c8ad60c3-7f4a-43d6-b420-7662b3c18d93{fill:#ba6a1f;}.fff5803c-bf99-4e89-85ac-2161e7b88b77{fill:#1d1d1b;}.e3903399-7041-42db-b9d9-f9b9621f7a97{fill:#f7f2f0;}.a8813338-3713-4348-bf57-b3d6e5d4a5b6{fill:#634534;}.b102228c-9578-4656-bc19-0e6cabe82a57{fill:#392315;}.d53c2720-1219-4f6b-be00-67b06cb3091c{fill:#ef6886;}.dd18cf87-9b64-4a89-848c-e64c21e8086f{fill:#f1edbf;}.ce65b0b4-8ddb-4b46-abe8-c57d4aff6414{fill:#dbccc8;}.\33 031b29d-6950-4301-a899-54130d8a0627,.\38 8737308-b27c-4140-9978-fe08c68f5804{fill:#f59478;}.cb97a93e-108c-4088-b9ea-869040ca2736{fill:url(#06ac69af-e17c-4824-b34b-bca4365789ea);}.c5df01e5-3f68-48a8-9ac3-77e1b54956d5{filter:url(#960e9b9f-b96b-4456-8a70-1d56330eca90);}.\31 71f40b2-7b0c-406d-911f-86f128105ee1{filter:url(#6c639026-f94e-4a09-8dc5-4621c79548e4);}</style><filter id="6c639026-f94e-4a09-8dc5-4621c79548e4" x="55.33" y="-8280.41" width="13.95" height="32766" filterUnits="userSpaceOnUse" color-interpolation-filters="sRGB"><feFlood flood-color="#fff" result="bg"/><feBlend in="SourceGraphic" in2="bg"/></filter><mask id="a9e7171b-aa89-4b33-9705-9fc283955912" x="55.33" y="-8280.41" width="13.95" height="32766" maskUnits="userSpaceOnUse"><g class="171f40b2-7b0c-406d-911f-86f128105ee1"/></mask><linearGradient id="4dc7c603-e05f-498f-ad1f-453cad1a6e3d" x1="66.66" y1="38.53" x2="58.83" y2="24.06" gradientUnits="userSpaceOnUse"><stop offset="0.34"/><stop offset="0.4" stop-color="#050505"/><stop offset="0.49" stop-color="#141414"/><stop offset="0.58" stop-color="#2d2d2d"/><stop offset="0.67" stop-color="#505050"/><stop offset="0.77" stop-color="#7d7d7d"/><stop offset="0.88" stop-color="#b4b4b4"/><stop offset="0.98" stop-color="#f4f4f4"/><stop offset="1" stop-color="#fff"/></linearGradient><filter id="960e9b9f-b96b-4456-8a70-1d56330eca90" x="40.55" y="-8280.41" width="28.73" height="32766" filterUnits="userSpaceOnUse" color-interpolation-filters="sRGB"><feFlood flood-color="#fff" result="bg"/><feBlend in="SourceGraphic" in2="bg"/></filter><mask id="1eb46eea-1046-46e9-9113-87cd3059bc1a" x="40.55" y="-8280.41" width="28.73" height="32766" maskUnits="userSpaceOnUse"><g class="c5df01e5-3f68-48a8-9ac3-77e1b54956d5"/></mask><linearGradient id="dd6f3112-da93-4931-96df-a774145866cb" x1="54.91" y1="38.08" x2="54.91" y2="26.5" gradientUnits="userSpaceOnUse"><stop offset="0" stop-color="#fff"/><stop offset="0.12" stop-color="#c7c7c7"/><stop offset="0.28" stop-color="#8c8c8c"/><stop offset="0.42" stop-color="#5a5a5a"/><stop offset="0.56" stop-color="#333"/><stop offset="0.68" stop-color="#171717"/><stop offset="0.79" stop-color="#060606"/><stop offset="0.87"/></linearGradient><filter id="0995bb27-8562-43a2-8202-60c191a48186" x="55.33" y="23.86" width="13.95" height="14.2" filterUnits="userSpaceOnUse" color-interpolation-filters="sRGB"><feFlood flood-color="#fff" result="bg"/><feBlend in="SourceGraphic" in2="bg"/></filter><mask id="89ffca6e-5f85-4b3c-bd8a-d04394597f8b" x="55.33" y="23.86" width="13.95" height="14.2" maskUnits="userSpaceOnUse"><g class="71a1bde4-7af6-4f90-b181-a3dd8d5beb9b"><path class="26a646a0-5eea-4b7c-85f5-602d82b15406" d="M67.64,37.29s3.53-5.23.23-13.43a2.08,2.08,0,0,0,.12.51c.94,2.64.63,5.4-1.43,4.13-3.21-2-6.72-1.95-9.52.25s-1.32,6.38-1.32,6.38a3.08,3.08,0,0,0,.31.64C58.56,36.79,62.51,39.34,67.64,37.29Z"/></g></mask><linearGradient id="ef9ca11e-7abb-4ed6-ba49-dd413ed13414" x1="54.91" y1="11.64" x2="54.91" y2="26.8" gradientUnits="userSpaceOnUse"><stop offset="0" stop-color="#fff"/><stop offset="0.87"/></linearGradient><filter id="c20b2a95-c32e-4728-92c1-72cfb2f039d8" x="40.55" y="25.1" width="28.73" height="13.24" filterUnits="userSpaceOnUse" color-interpolation-filters="sRGB"><feFlood flood-color="#fff" result="bg"/><feBlend in="SourceGraphic" in2="bg"/></filter><mask id="8065aaec-ea53-489a-a6c9-6ab545ae6da6" x="40.55" y="25.1" width="28.73" height="13.24" maskUnits="userSpaceOnUse"><g class="4c1a15bd-d095-459c-891c-464e07fa2242"><path class="c9c3a6c6-af0b-4a13-a033-18ad6f7ce43f" d="M54.91,29.77c-4.1-3.16-9.28-4.11-13.65-4.26a16.29,16.29,0,0,0,.85,11.8s2.13,1.74,6.32.72c4.73-1.16,4.1-2.44,6-2.57,2.26-.15,6.83,4.45,13.22,1.9,0,0,3.17-4.7.69-12.17C61.58,24.36,54.91,29.77,54.91,29.77Z"/></g></mask><linearGradient id="06ac69af-e17c-4824-b34b-bca4365789ea" x1="54.39" y1="29.77" x2="54.87" y2="42.31" gradientUnits="userSpaceOnUse"><stop offset="0.13"/><stop offset="0.22" stop-color="#050505"/><stop offset="0.33" stop-color="#141414"/><stop offset="0.44" stop-color="#2d2d2d"/><stop offset="0.57" stop-color="#505050"/><stop offset="0.7" stop-color="#7d7d7d"/><stop offset="0.84" stop-color="#b4b4b4"/><stop offset="0.98" stop-color="#f4f4f4"/><stop offset="1" stop-color="#fff"/></linearGradient></defs><title>Hero7</title><g class="599415e1-e3d5-4fc3-8c99-2864ae768d99"><g id="25ea9bba-96a1-49a7-a7ad-cb308a154bd5" data-name="Layer 1"><path class="a80f3f4c-ac25-43f7-996f-33cd1b440ada" d="M65,80.09S65.7,89,66.66,92.41L58,95.78S53.63,86.2,53.5,81.55Z"/><path class="f4b93142-06f4-4e91-9073-16394f0c6cc3" d="M57.9,95.9l0-.08c0-.1-4.34-9.65-4.47-14.27v-.09L65.09,80v.1c0,.09.71,8.92,1.66,12.3l0,.09-.08,0ZM53.6,81.63c.17,4.38,4,13.07,4.4,14l8.54-3.3C65.66,89.09,65,81.19,64.92,80.2Z"/><path class="a80f3f4c-ac25-43f7-996f-33cd1b440ada" d="M52.83,80.76l.65,2.53s-.89,10-1.31,11l-8.84.36s-2.29-10.07-2-13.93Z"/><path class="f4b93142-06f4-4e91-9073-16394f0c6cc3" d="M43.25,94.79l0-.08c0-.1-2.28-10.12-2-14v-.09H52.9l.67,2.63h0c0,.41-.89,10-1.31,11.07l0,.06ZM41.38,80.85c-.19,3.69,1.81,12.8,2,13.74l8.7-.35c.41-1.29,1.24-10.48,1.28-10.94l-.63-2.45Z"/><path class="02ae3fbf-570c-486e-9985-707ba9e673ca" d="M56.53,92.37c.79,2,1.42,3.41,1.42,3.41l8.71-3.37c-.19-.7-.38-1.63-.55-2.66C60.83,87.23,57.61,90.82,56.53,92.37Z"/><path class="cd84156a-3ea7-4921-a119-3e1187465685" d="M64.13,85.3a9.1,9.1,0,0,0,1.38,0c-.32-2.78-.5-5.17-.5-5.17L53.5,81.55A26.09,26.09,0,0,0,55,88.15a6.09,6.09,0,0,0,3-.74S62.16,87.7,64.13,85.3Z"/><path class="02ae3fbf-570c-486e-9985-707ba9e673ca" d="M42.62,91.3c.39,2,.71,3.39.71,3.39l8.84-.36a20.73,20.73,0,0,0,.47-2.89A7.75,7.75,0,0,0,42.62,91.3Z"/><path class="cd84156a-3ea7-4921-a119-3e1187465685" d="M52.83,80.76H41.28a28,28,0,0,0,.38,5,5.73,5.73,0,0,0,3.43,1c1.07,1.41,5,1.18,5,1.18a8.28,8.28,0,0,0,2.94.38c.27-2.58.49-5,.49-5Z"/><path class="8c41a127-e69b-481c-bc0e-06bb7f4cf4b8" d="M79.62,147.15c-1.72-.11-3.65-.82-4.15-2.33a2.25,2.25,0,0,0,.88,2.5c1.17.87,6.19,1.92,7.24-.94.07-.19.13-.39.19-.59C83.26,147,81.82,147.29,79.62,147.15Z"/><path class="8c41a127-e69b-481c-bc0e-06bb7f4cf4b8" d="M80.09,148.34a7.61,7.61,0,0,1-3.8-1,2.36,2.36,0,0,1-.91-2.59l.07-.33.11.32c.5,1.51,2.5,2.17,4.06,2.27l.94,0c1.77,0,2.74-.41,3.13-1.33l.17.06a5.08,5.08,0,0,1-.18.59C83.22,147.65,81.94,148.34,80.09,148.34Zm-4.58-3.21a2.1,2.1,0,0,0,.89,2.11,7.34,7.34,0,0,0,3.69.92c1.23,0,2.82-.31,3.39-1.75a3.82,3.82,0,0,1-2.92.86l-1,0C77.26,147.08,76,146.1,75.51,145.13Z"/><path class="3d99cb73-a84c-4313-97f5-ff256946cb16" d="M83.08,138.75c-.36-1.36-1.59-4.52-1.68-5.51s-.55-.48-.52-1.17-.18-.72-.84-1.08-1.4-2.32-1.58-3.9a118,118,0,0,0-2.88-12.58c-1.08-3.43-3.66-7.52-4.32-8s-.63-.6-.42-1.29-.36-.79-.63-1.11-.95-.64-.63-1.31-.27-2.17-.81-5.28-1.4-7-1.4-7c-6.32-2.3-11.1,2.62-11.1,2.62s5.76,12.39,6.09,13.41.15,2.32,1,2.71.43,1.77.91,2.07.66,1.29,1.47,3.28,2.47,4.12,4.15,6.91,5.71,9.63,6.1,10.26.09,1.11.48,2.19.94,6.89-.27,9a6.47,6.47,0,0,0-.75,1.8c.5,1.51,2.43,2.22,4.15,2.33,2.2.14,3.64-.15,4.16-1.36C84.48,143.07,83.42,140,83.08,138.75Z"/><path class="cbed17be-6c65-4e1f-9ff4-05927f6dd25a" d="M80.56,147.27h0l-1,0c-2.59-.17-3.88-1.35-4.22-2.4v0a6.37,6.37,0,0,1,.77-1.83c1.2-2.08.64-7.83.26-8.88a4.4,4.4,0,0,1-.24-1.27,1.92,1.92,0,0,0-.23-.91c-.18-.29-1.06-1.78-2.18-3.66-1.34-2.25-3-5-3.93-6.6-.59-1-1.16-1.86-1.72-2.71a27.17,27.17,0,0,1-2.43-4.22c-.27-.65-.47-1.2-.63-1.64-.33-.91-.51-1.41-.81-1.59s-.28-.5-.32-.87-.12-1-.57-1.2c-.64-.29-.75-1-.87-1.76a6.56,6.56,0,0,0-.2-1c-.33-1-6-13.28-6.09-13.4l0-.06.05,0A11.86,11.86,0,0,1,64,89.9a10,10,0,0,1,3.44.62l0,0v0s.86,3.88,1.4,7c.19,1.12.39,2,.55,2.75.3,1.37.47,2.12.25,2.59s.08.71.37,1a3,3,0,0,1,.25.25,1.43,1.43,0,0,0,.26.22.78.78,0,0,1,.39,1c-.2.67-.24.77.38,1.2s3.3,4.69,4.35,8a114.59,114.59,0,0,1,2.89,12.6c.19,1.64.94,3.5,1.54,3.83l.19.1c.51.27.72.39.69,1.06,0,.28,0,.32.15.38s.32.26.37.78a21.12,21.12,0,0,0,1,3.32c.29.85.56,1.64.7,2.17,0,.15.08.31.13.5.42,1.45,1.2,4.16.56,6.6C83.43,146.83,82.42,147.27,80.56,147.27Zm-5-2.46c.51,1.5,2.5,2.15,4.05,2.25l.94,0c1.77,0,2.74-.41,3.13-1.33.62-2.38-.15-5.06-.56-6.49,0-.19-.1-.36-.14-.5-.14-.52-.41-1.32-.69-2.16a21.24,21.24,0,0,1-1-3.36c0-.49-.18-.57-.29-.65s-.24-.19-.22-.53c0-.57-.1-.63-.61-.9l-.19-.1c-.72-.39-1.45-2.42-1.63-4a116.18,116.18,0,0,0-2.88-12.56c-1.1-3.48-3.66-7.5-4.28-7.92s-.68-.67-.45-1.4c.13-.43-.07-.58-.33-.77a1.42,1.42,0,0,1-.29-.26,2.49,2.49,0,0,0-.23-.22c-.29-.26-.68-.6-.41-1.18a5.06,5.06,0,0,0-.27-2.47c-.16-.73-.36-1.64-.55-2.75-.5-2.89-1.29-6.44-1.39-6.9A9.87,9.87,0,0,0,64,90.08a11.73,11.73,0,0,0-7.58,3.16c.48,1,5.75,12.37,6.07,13.36a6.07,6.07,0,0,1,.21,1c.11.71.21,1.38.76,1.62s.62.86.67,1.35c0,.32.08.63.24.73.35.23.54.74.89,1.69.16.44.36,1,.62,1.64a27.3,27.3,0,0,0,2.42,4.18c.56.85,1.14,1.74,1.73,2.72.93,1.54,2.59,4.34,3.92,6.59l2.18,3.66a2.06,2.06,0,0,1,.26,1,3.81,3.81,0,0,0,.23,1.22c.38,1.07,1,6.92-.28,9A6.18,6.18,0,0,0,75.57,144.81Z"/><path class="cbed17be-6c65-4e1f-9ff4-05927f6dd25a" d="M79.62,147.15c-1.72-.11-3.65-.82-4.15-2.33a2.25,2.25,0,0,0,.88,2.5c1.17.87,6.19,1.92,7.24-.94.07-.19.13-.39.19-.59C83.26,147,81.82,147.29,79.62,147.15Z"/><path class="cb791311-31af-47fe-a914-7a303d6a6a62" d="M80.09,148.34a7.61,7.61,0,0,1-3.8-1,2.36,2.36,0,0,1-.91-2.59l.07-.33.11.32c.5,1.51,2.5,2.17,4.06,2.27l.94,0c1.77,0,2.74-.41,3.13-1.33l.17.06a5.08,5.08,0,0,1-.18.59C83.22,147.65,81.94,148.34,80.09,148.34Zm-4.58-3.21a2.1,2.1,0,0,0,.89,2.11,7.34,7.34,0,0,0,3.69.92c1.23,0,2.82-.31,3.39-1.75a3.82,3.82,0,0,1-2.92.86l-1,0C77.26,147.08,76,146.1,75.51,145.13Z"/><polygon class="8c41a127-e69b-481c-bc0e-06bb7f4cf4b8" points="75.56 131.27 75.54 131.25 75.69 131.15 75.56 131.27"/><path class="95ce1adf-cfa5-42ae-b467-a28b941af3ad" d="M65.4,109.36a1.54,1.54,0,0,0,0-.17,18.1,18.1,0,0,0,3.87,2.15c.33-.18,1-5.49.82-6.25s-5.32-5.25-5.32-5.25c-.37-.27-1.09,3.4-1.41,5.76-.51-1.12-1.56-2.85-3.24-6.42-2.83-6-1.65-7.64.36-8.58h0a12.28,12.28,0,0,0-4.27,2.62s5.76,12.39,6.09,13.41.15,2.32,1,2.71.43,1.77.91,2.07.66,1.29,1.47,3.28,2.47,4.12,4.15,6.91c.91,1.52,2.51,4.21,3.84,6.46C68.79,119.41,65,110.38,65.4,109.36Z"/><path class="749b083a-24db-44ea-9807-1ed67d433f68" d="M65.08,100.61s4.91,3.81,5.06,4.48a21.82,21.82,0,0,1-1.23,5.74c-.27.15-5-2.89-5.15-3.44S64.64,100.27,65.08,100.61Z"/><path class="960961b5-3a56-4e92-b52b-2bd7711ed266" d="M68.88,110.92c-.46,0-5-2.91-5.21-3.5s.75-6.2,1.22-6.82c.07-.1.17-.12.24-.06.51.39,5,3.84,5.1,4.53s-.93,5.64-1.28,5.83ZM65,100.69a11.91,11.91,0,0,0-.8,3.23,20.55,20.55,0,0,0-.4,3.45,10.52,10.52,0,0,0,2.41,1.87,15.69,15.69,0,0,0,2.62,1.5,24.08,24.08,0,0,0,1.18-5.63C70,104.64,67,102.21,65,100.69Z"/><path class="b710f265-8596-498a-815b-abdcc1a91afa" d="M70.14,105.09c-.15-.67-5.06-4.48-5.06-4.48-.44-.34-1.48,6.23-1.32,6.78s4.88,3.59,5.15,3.44A21.82,21.82,0,0,0,70.14,105.09Zm-1.26,4.75a15.79,15.79,0,0,1-4.16-2.77c-.13-.45.71-5.76,1.06-5.48,0,0,4,3.08,4.1,3.62A17.39,17.39,0,0,1,68.88,109.84Z"/><path class="0b7ecf56-437b-49b5-86d1-e16a50fd4d9f" d="M80.88,132.07c0-.69-.18-.72-.84-1.08s-1.4-2.32-1.58-3.9a118,118,0,0,0-2.88-12.58c-1.08-3.43-3.66-7.52-4.32-8s-.63-.6-.42-1.29-.36-.79-.63-1.11-.95-.64-.63-1.31-.27-2.17-.81-5.28-1.4-7-1.4-7a12.09,12.09,0,0,0-1.44-.41c1.22.79,1.64,3.1,2.49,7.13,1,4.47-.15,6.15,1.13,7s-.25,1.71,1.35,2.76,4.38,6.29,5.37,11.89,1.61,11.49,3.11,12.28-.15,1.35,1.27,1.89c.54.21,1.1,1.59,1.52,2.77a16,16,0,0,1-.77-2.71C81.31,132.25,80.85,132.76,80.88,132.07Z"/><path class="b9205a6c-e0e1-4e32-959b-86f3f1705665" d="M60.71,97.88c-.8-2-1.85-6.88,1.68-7.28s5.17,4.64,5.26,7.94-4-4-4.39,1.57C62.91,104.6,61.09,98.84,60.71,97.88Z"/><path class="b9205a6c-e0e1-4e32-959b-86f3f1705665" d="M69.08,112.36c1,.39,1.43.71,1.61-1.13.5-5,8.18,21.49,5.6,18.19S65.41,111,69.08,112.36Z"/><path class="bfad5271-7af5-432b-9231-49e6faa3e793" d="M79.62,147.15c-3.18-.29-4-1.83-2.66-4.46s.45-4.54.41-7.66-.54-2.07-.59-3.2-1.35-1-2.73-3.21c1,1.66,1.77,3,1.93,3.24.39.63.09,1.11.48,2.19s.93,6.89-.27,9a6.18,6.18,0,0,0-.75,1.8c.5,1.51,2.43,2.3,4.14,2.33,2.33,0,3.65-.15,4.16-1.36a7.4,7.4,0,0,0,.18-1C83.53,146.53,81.44,147.31,79.62,147.15Z"/><path class="b9205a6c-e0e1-4e32-959b-86f3f1705665" d="M78.71,136c.42,2,.47,5.64-.9,6.93s-.33,3.34,2.57,3.46,4.28-2.6,2.21-7.61S78.17,133.44,78.71,136Z"/><path class="3d99cb73-a84c-4313-97f5-ff256946cb16" d="M52,147.68a2.88,2.88,0,0,0,2.28-1.9,7.8,7.8,0,0,0-.56-1.46,29.55,29.55,0,0,1-2.32-6.83c-.27-1.35-1.06-1.81-.45-2.64s0-1.35-.27-1.67-.59-1.92-.23-5.32,2-13.44,1.56-17.29-.57-4.06-.24-4.57.12-.6-.09-1,.3-2.11.81-5.59,1-7,1-7a10.92,10.92,0,0,0-11.85,0s.92,4.43,1.42,7.07,1,4.73.68,5.35-.76,1.33-.34,1.87a1.36,1.36,0,0,1,0,1.6,1.38,1.38,0,0,0,0,1.61c.42.45-.69,3.13-.61,8.44a48.43,48.43,0,0,0,1.87,12c.78,3.3,1.32,5.59.9,5.71s.12,1.08-.12,1.62-.13,3.71-.13,6.41a13.22,13.22,0,0,0,.16,2.67C47,148.67,49.14,148.25,52,147.68Z"/><path class="cbed17be-6c65-4e1f-9ff4-05927f6dd25a" d="M48.53,148.26h0a3.64,3.64,0,0,1-3.08-1.37h0v0a12.88,12.88,0,0,1-.16-2.56v-.13c0-.64,0-1.31,0-2a23.36,23.36,0,0,1,.16-4.47,1.63,1.63,0,0,0,0-.85c-.07-.38-.12-.74.18-.83s-.32-2.88-1-5.58v0c-.1-.44-.2-.87-.31-1.31a43.72,43.72,0,0,1-1.56-10.73,35.29,35.29,0,0,1,.53-6.67c.15-.93.25-1.55.1-1.71a1.49,1.49,0,0,1-.05-1.72,1.27,1.27,0,0,0,0-1.5c-.41-.52-.07-1.18.23-1.77a1.74,1.74,0,0,0,.1-.19c.24-.48-.06-2-.44-4-.08-.41-.17-.84-.25-1.29-.49-2.6-1.4-7-1.41-7.06l0-.06.06,0a11.89,11.89,0,0,1,6-1.74,10.75,10.75,0,0,1,5.9,1.75l0,0v.06s-.53,3.52-1,7c-.21,1.42-.42,2.57-.58,3.41a6.4,6.4,0,0,0-.24,2.12,1,1,0,0,0,.11.2.66.66,0,0,1,0,.89c-.26.41-.24.62.08,3.11.05.41.11.87.18,1.4.36,2.93-.53,9.52-1.12,13.89-.19,1.39-.35,2.6-.44,3.42-.37,3.53,0,5,.21,5.26l.12.14a1.19,1.19,0,0,1,.15,1.64c-.35.48-.2.8,0,1.34a5,5,0,0,1,.43,1.22,29.7,29.7,0,0,0,2.31,6.82,8.3,8.3,0,0,1,.57,1.46v.06a3,3,0,0,1-2.35,2A19,19,0,0,1,48.53,148.26Zm-2.93-1.47a3.44,3.44,0,0,0,2.93,1.29h0a18.6,18.6,0,0,0,3.43-.49,2.79,2.79,0,0,0,2.21-1.82,8.54,8.54,0,0,0-.55-1.41,30.5,30.5,0,0,1-2.33-6.85,4.87,4.87,0,0,0-.41-1.18c-.25-.54-.44-1,0-1.53a1,1,0,0,0-.15-1.41l-.13-.16c-.28-.39-.58-2.16-.24-5.38.09-.82.25-2,.44-3.43.59-4.35,1.48-10.93,1.12-13.84-.07-.53-.13-1-.18-1.4-.32-2.55-.35-2.76,0-3.23s.18-.46,0-.7a1.76,1.76,0,0,1-.12-.2c-.14-.26,0-.92.22-2.24.16-.84.37-2,.58-3.41.47-3.19,1-6.44,1-6.9a10.6,10.6,0,0,0-5.74-1.68,11.74,11.74,0,0,0-5.91,1.68c.12.56,1,4.58,1.4,7,.09.45.17.88.25,1.29.41,2.08.7,3.58.43,4.12,0,.06-.06.13-.1.2-.29.56-.59,1.14-.25,1.57a1.45,1.45,0,0,1,0,1.71,1.28,1.28,0,0,0,0,1.49c.21.23.12.78,0,1.87a34.92,34.92,0,0,0-.53,6.64,43.57,43.57,0,0,0,1.55,10.69c.11.44.22.87.32,1.31v0c.92,3.91,1.31,5.65.83,5.78-.14,0-.11.27,0,.63a1.8,1.8,0,0,1,0,.95,23.54,23.54,0,0,0-.14,4.4c0,.66,0,1.33,0,2v.13A13,13,0,0,0,45.6,146.79Z"/><path class="8c41a127-e69b-481c-bc0e-06bb7f4cf4b8" d="M52,147.68c-2.84.57-5,1-6.46-.85.32,1.46,1.24,2.43,4,2.23,4.18-.31,5.31-1.26,4.78-3.28A2.88,2.88,0,0,1,52,147.68Z"/><path class="8c41a127-e69b-481c-bc0e-06bb7f4cf4b8" d="M48.8,149.18c-2,0-3-.72-3.37-2.33l-.08-.38.24.31a3.43,3.43,0,0,0,2.94,1.3,18.6,18.6,0,0,0,3.43-.49,2.8,2.8,0,0,0,2.22-1.84l.09-.27.08.27a2.15,2.15,0,0,1-.19,1.92c-.59.83-2,1.28-4.67,1.48Zm-3.09-2c.45,1.41,1.63,1.95,3.77,1.79,2.58-.19,4-.63,4.53-1.4a1.85,1.85,0,0,0,.23-1.5,3,3,0,0,1-2.24,1.7,19,19,0,0,1-3.47.49A3.69,3.69,0,0,1,45.71,147.18Z"/><path class="b9205a6c-e0e1-4e32-959b-86f3f1705665" d="M44.14,98c-.56-5.35.65-6.33,3.23-6.43,3.8-.14,3.24,5.36,3.17,8.66s-2.07-5.28-4.36.8C44.86,104.56,44.24,99,44.14,98Z"/><path class="b9205a6c-e0e1-4e32-959b-86f3f1705665" d="M48.25,112.59c-.93.78-1.22,1.25-2.07-.58-2.32-5,.1,24.08,1.57,19.73S51.53,109.84,48.25,112.59Z"/><path class="b9205a6c-e0e1-4e32-959b-86f3f1705665" d="M49,138.09A11.31,11.31,0,0,0,52.18,144c1.37,1.3.33,3.34-2.57,3.46s-4.5-2.44-3.4-7.75C47.23,134.78,48.58,135.55,49,138.09Z"/><path class="d74b9361-285c-4ae8-aa51-4fb4a8cddbf8" d="M45.61,136.13a.09.09,0,0,0,.06,0Z"/><path class="0b7ecf56-437b-49b5-86d1-e16a50fd4d9f" d="M44.34,126.91c-1-4.1-1.16-10.51-.63-12.81s.4-3.61-.11-4.37S44,108,44,107.29s-.58-1.23,0-1.89c.28-.35.86-1.68-.9-8a11.7,11.7,0,0,1-.36-5.48q-.49.24-1,.54s.92,4.43,1.42,7.07,1,4.73.68,5.35-.76,1.33-.34,1.87a1.36,1.36,0,0,1,0,1.6,1.38,1.38,0,0,0,0,1.61c.42.45-.69,3.13-.61,8.44a48.43,48.43,0,0,0,1.87,12c.74,3.12,1.26,5.33,1,5.67C46.47,135.47,45.31,130.92,44.34,126.91Z"/><path class="0795541d-609d-44d0-ae4b-c07de6cda6d3" d="M45.54,136.17l.07,0Z"/><path class="8c41a127-e69b-481c-bc0e-06bb7f4cf4b8" d="M45.58,136.25l-.1-.15a.24.24,0,0,1,.11-.06l.06.17Z"/><path class="95ce1adf-cfa5-42ae-b467-a28b941af3ad" d="M52,147.68a2.88,2.88,0,0,0,2.28-1.9,7.8,7.8,0,0,0-.56-1.46,29.55,29.55,0,0,1-2.32-6.83c-.27-1.35-1.06-1.81-.45-2.64s0-1.35-.27-1.67-.59-1.92-.23-5.32,2-13.44,1.56-17.29-.57-4.06-.24-4.57.12-.6-.09-1,.3-2.11.81-5.59,1-7,1-7a9.81,9.81,0,0,0-3.22-1.41c2,1.48,1.3,10,.77,12-.35,1.34-1.52-1.67-2.63-2.5s-4,4.89-4,5.7,2.33,6.86,3.33,5.91,3.08-4.74,3.34-1.22a65.42,65.42,0,0,1-.67,12.81c-.54,3.93-1,8.48,0,9.56.55.55.37,1,0,1.72-.66,1.14.66.45,2.61,8.54.26,1,1.13,2.45-.6,3.55s-5.18,1.33-6.95-.66l.06.32C47,148.67,49.14,148.25,52,147.68Z"/><path class="cbed17be-6c65-4e1f-9ff4-05927f6dd25a" d="M54.26,145.78a2.88,2.88,0,0,1-2.28,1.9c-2.84.57-5,1-6.46-.85.32,1.46,1.24,2.43,4,2.23C53.66,148.75,54.79,147.8,54.26,145.78Z"/><path class="cb791311-31af-47fe-a914-7a303d6a6a62" d="M48.8,149.18h0c-2,0-3-.72-3.37-2.33l-.08-.38.24.31a3.43,3.43,0,0,0,2.94,1.3,18.6,18.6,0,0,0,3.43-.49,2.8,2.8,0,0,0,2.22-1.84l.09-.27.08.27a2.15,2.15,0,0,1-.19,1.92c-.59.83-2,1.28-4.67,1.48Zm-3.09-2c.4,1.25,1.37,1.82,3.09,1.82h0l.68,0c2.58-.19,4-.63,4.53-1.4a1.85,1.85,0,0,0,.23-1.5,3,3,0,0,1-2.24,1.7,19,19,0,0,1-3.47.49A3.69,3.69,0,0,1,45.71,147.18Z"/><path class="749b083a-24db-44ea-9807-1ed67d433f68" d="M48.13,101c-.6.07-3.68,4.62-3.75,5.34s2.58,5.38,3,5.42,3.7-4.74,3.68-5.38S48.74,100.88,48.13,101Z"/><path class="960961b5-3a56-4e92-b52b-2bd7711ed266" d="M47.38,111.82h0c-.51-.07-3.15-4.81-3.07-5.53s3.15-5.33,3.83-5.42h0c.4,0,1.17,1.36,1.76,2.5a14.29,14.29,0,0,1,1.23,3c0,.6-2.47,4.27-3.38,5.2C47.53,111.78,47.44,111.82,47.38,111.82Zm.77-10.77c-.51.06-3.6,4.49-3.68,5.26s2.53,5.18,2.91,5.32c.47-.11,3.6-4.73,3.58-5.29a15,15,0,0,0-1.21-2.89C48.9,101.79,48.33,101.05,48.15,101.05Z"/><path class="b710f265-8596-498a-815b-abdcc1a91afa" d="M48.13,101c-.6.07-3.68,4.62-3.75,5.34s2.58,5.38,3,5.42,3.7-4.74,3.68-5.38S48.74,100.88,48.13,101Zm-.68,10c-.35,0-2.56-4.06-2.49-4.68s2.62-4.55,3.12-4.62,2.41,4.1,2.43,4.65S47.79,111,47.45,111Z"/><path class="a80f3f4c-ac25-43f7-996f-33cd1b440ada" d="M58,42s-.36,1.5-.55,2.35c-.29,1.29.82,2,3.68,1.92s3.46-.42,6.67,2.74,8.49,8.06,8.49,8.06-1.84,3-4.3,3c0,0-5.36-3.57-7-4.63L42.56,54.7s-2.7,2.08-4.46,3.11l-4-2.7s4.59-4.51,6.42-6.41,3-4.16,7.57-3,3.15-2.86,3.15-2.86Z"/><path class="f4b93142-06f4-4e91-9073-16394f0c6cc3" d="M72,60.15l0,0s-5.32-3.55-7-4.61L42.59,54.8c-.29.22-2.8,2.12-4.44,3.1l-.06,0L34,55.12l.09-.08s4.61-4.53,6.42-6.41c.24-.24.46-.49.68-.74,1.2-1.33,2.33-2.58,4.67-2.58a9,9,0,0,1,2.32.34c1.46.39,2.45.25,2.91-.39a3.07,3.07,0,0,0,.11-2.35l0-.11,7-.93,0,.13s-.37,1.52-.56,2.36a1.14,1.14,0,0,0,.19,1c.46.57,1.59.83,3.4.77l.68,0,1,0c1.64,0,2.59.41,5.05,2.82,3.18,3.12,8.43,8,8.48,8.06l.06.05,0,.07c-.08.12-1.89,3-4.38,3ZM42.53,54.6h0L65,55.33h0c1.61,1,6.61,4.35,7,4.62,2.17-.05,3.86-2.46,4.15-2.9-.59-.55-5.42-5.06-8.42-8-2.41-2.37-3.34-2.77-4.92-2.77l-1,0-.68,0H60.7c-1.6,0-2.64-.28-3.1-.85a1.38,1.38,0,0,1-.22-1.19c.16-.69.43-1.82.52-2.21L51.39,43a3.09,3.09,0,0,1-.17,2.42,1.86,1.86,0,0,1-1.62.68h0a6,6,0,0,1-1.49-.23,9.07,9.07,0,0,0-2.27-.33c-2.25,0-3.35,1.23-4.52,2.52-.22.25-.45.51-.69.75-1.67,1.73-5.71,5.7-6.34,6.32L38.1,57.7c1.74-1,4.38-3.06,4.4-3.08Z"/><path class="02ae3fbf-570c-486e-9985-707ba9e673ca" d="M70,55c-3-.6-6.46-4.14-6.46-4.14a2,2,0,0,0-.11,1.79c-6.34-5-18-2.25-19.3-1.35a2.48,2.48,0,0,0,.72-1.38c0-.65-.79-1.31-.79-1.31s-2.15,3.41-5,4.31c-1.25.4-1.69-.31-2.7-.09-1.26,1.26-2.28,2.26-2.28,2.26l4,2.7c1.76-1,4.46-3.11,4.46-3.11L65,55.42c1.68,1.06,7,4.63,7,4.63,2.46,0,4.3-3,4.3-3s-1.2-1.11-2.8-2.62C72.74,54.56,71.75,55.36,70,55Z"/><path class="f3d6ef00-3c73-4308-a9ca-1efb6751f1cf" d="M70.51,56.6c-4.2-1.29-7-4.14-7.18-5.1a1.79,1.79,0,0,0,.11,1.16,4.68,4.68,0,0,1,1.6,2.8c1.75,1.1,7,4.59,7,4.59a5.11,5.11,0,0,0,3.5-2C73.91,57.62,72.13,57.09,70.51,56.6Z"/><path class="f3d6ef00-3c73-4308-a9ca-1efb6751f1cf" d="M44.58,50.76a1.68,1.68,0,0,0,.28-.82,1.58,1.58,0,0,0-.38-.88c.12.41-3.3,5.62-6.28,6.36-1.86.47-2.45,1.83-3,2.39H38.1c1.52-.89,3.74-2.56,4.32-3a9.28,9.28,0,0,1,1.72-3.49C44.28,51.13,44.43,50.94,44.58,50.76Z"/><path class="cd84156a-3ea7-4921-a119-3e1187465685" d="M49.19,46.73a9.13,9.13,0,0,1-1.76-.14,15.52,15.52,0,0,0,5.09.53s.87-.24,1.28.24,1,.06,1.53-.17a8.46,8.46,0,0,1,2.7-.31c.4,0,1.28-.16,2.34-.31,0,0-3.22-.24-.81-.37h0c-1.67-.19-2.32-.86-2.09-1.87C57.67,43.48,58,42,58,42l-6.76.9s1.38,4.06-3.15,2.86l-.27-.07a3.54,3.54,0,0,0,1.29.43C50.8,46.38,50.15,46.67,49.19,46.73Z"/><path class="dcd9606e-72ee-41ae-a2c3-455261d3930e" d="M51.33,46.1a1.59,1.59,0,0,0,.2-.47,1.83,1.83,0,0,0,.06-.25l0-.27a2.71,2.71,0,0,0,0-.29v-.16l0-.15a1.54,1.54,0,0,0,0-.3c0-.05,0-.1,0-.15l0-.15a2.14,2.14,0,0,0-.06-.27l-.06-.25c0-.15-.07-.27-.1-.36l0-.15a.92.92,0,0,0,.07.13c0,.09.11.2.17.35s.06.15.09.24a1.84,1.84,0,0,1,.09.28,2.21,2.21,0,0,1,.07.3,1.65,1.65,0,0,1,0,.32v.32a1.62,1.62,0,0,1,0,.31,2.47,2.47,0,0,1-.06.29l-.09.25a.86.86,0,0,1-.11.19.85.85,0,0,1-.1.14Z"/><path class="dcd9606e-72ee-41ae-a2c3-455261d3930e" d="M57.16,45.86a.83.83,0,0,1,0-.17c0-.06,0-.12,0-.2s0-.16,0-.26,0-.2,0-.31,0-.22,0-.34,0-.24,0-.37a2.74,2.74,0,0,1,.08-.37l.09-.37a3.4,3.4,0,0,1,.12-.34l.13-.32a1.82,1.82,0,0,1,.13-.28c.09-.17.18-.3.23-.4L58,42l-.05.17c0,.1-.09.25-.16.42a2,2,0,0,0-.11.29l-.09.32a3.38,3.38,0,0,0-.11.34l-.09.36c0,.13-.06.25-.08.37l-.06.35c0,.12,0,.23-.05.33s0,.21,0,.3,0,.18,0,.26a1.48,1.48,0,0,0,0,.2C57.16,45.8,57.16,45.86,57.16,45.86Z"/><path class="dcd9606e-72ee-41ae-a2c3-455261d3930e" d="M62.3,46.37l-.26.06-.71.13-1,.15-.56.08-.58.06c-.4,0-.79.09-1.16.11l-.53,0L57,47h-.21l-.18,0a.75.75,0,0,0-.16,0,.45.45,0,0,0-.12.06.27.27,0,0,0-.12.15s0,.06,0,.06,0,0,0-.07a.24.24,0,0,1,.11-.16.27.27,0,0,1,.12-.09.76.76,0,0,1,.16-.06l.19-.06.21,0,.48-.06.53-.05.56-.06.58-.07,1.15-.12,1-.09.71-.06Z"/><path class="dcd9606e-72ee-41ae-a2c3-455261d3930e" d="M55.22,47.18a1.63,1.63,0,0,1-.33.19,1.88,1.88,0,0,1-.41.15,1,1,0,0,1-.57,0,1.89,1.89,0,0,1-.28-.17l-.15-.07-.07,0-.08,0a2.11,2.11,0,0,0-.71,0l-.78.07H51l-.41,0-.41,0c-.27,0-.53-.07-.78-.11a7.28,7.28,0,0,1-.73-.14c-.23,0-.44-.11-.64-.15l-.54-.16-.41-.14-.34-.14.36.1a2.64,2.64,0,0,0,.41.11l.54.12.65.13.72.11.78.1.4,0,.4,0h.81l.78,0a2.16,2.16,0,0,1,.76,0l.09,0,.08,0a.75.75,0,0,1,.15.09,2.85,2.85,0,0,0,.26.17.94.94,0,0,0,.52,0,1.43,1.43,0,0,0,.41-.11A2.3,2.3,0,0,0,55.22,47.18Z"/><path class="dcd9606e-72ee-41ae-a2c3-455261d3930e" d="M53.55,46.37l.17.21.19.19a.48.48,0,0,0,.11.09l.12.07a.33.33,0,0,0,.13,0,.34.34,0,0,0,.14,0h.13l.12,0,.1,0,.08,0,.07,0a.17.17,0,0,1,0,.05.45.45,0,0,1-.16.13.29.29,0,0,1-.12.07.75.75,0,0,1-.16,0,1.08,1.08,0,0,1-.18,0l-.18,0-.15-.1-.12-.12a.7.7,0,0,1-.16-.25A.88.88,0,0,1,53.55,46.37Z"/><path class="dcd9606e-72ee-41ae-a2c3-455261d3930e" d="M44.17,48.72a1.63,1.63,0,0,1,.22.19,2,2,0,0,1,.44.65,1.24,1.24,0,0,1,.1.52,1.07,1.07,0,0,1-.06.3l-.06.14,0,0,0,0,0,.07-.16.25-.19.26c-.13.16-.26.33-.38.5a5.91,5.91,0,0,0-.35.52l-.16.26-.14.27c-.08.17-.18.34-.25.51s-.13.32-.19.47a1.8,1.8,0,0,0-.08.21l-.06.2-.11.31c-.06.18-.1.28-.1.28l.06-.28c0-.1.05-.21.08-.33a2.72,2.72,0,0,1,.11-.43c0-.15.11-.31.16-.49s.15-.35.23-.53l.13-.28.16-.27c.1-.18.23-.36.35-.54s.27-.33.39-.5l.19-.23a2.71,2.71,0,0,1,.17-.25l0-.07,0,0v0a.41.41,0,0,0,.06-.11,1.25,1.25,0,0,0,.07-.26,1.27,1.27,0,0,0-.06-.48,1.91,1.91,0,0,0-.18-.38,2.43,2.43,0,0,0-.19-.27A1.47,1.47,0,0,0,44.17,48.72Z"/><path class="dcd9606e-72ee-41ae-a2c3-455261d3930e" d="M63.44,51l0,.21c0,.13,0,.32-.06.55s0,.23,0,.36a1.11,1.11,0,0,0,.08.37,2,2,0,0,0,.29.29c.1.12.22.23.31.36s.18.25.27.38.15.26.22.39a4.16,4.16,0,0,1,.29.74,4,4,0,0,1,.14.54l0,.21s0-.07-.07-.2-.11-.3-.2-.51l-.15-.34L64.37,54l-.11-.19-.12-.18c-.08-.12-.17-.25-.26-.36a3.24,3.24,0,0,0-.29-.34l-.16-.16-.08-.09,0,0,0-.06a1,1,0,0,1-.07-.44,2.34,2.34,0,0,1,0-.38,4.07,4.07,0,0,1,.14-.54A1.3,1.3,0,0,1,63.44,51Z"/><path class="f3d6ef00-3c73-4308-a9ca-1efb6751f1cf" d="M59.26,46.73l-2.12.21a4.8,4.8,0,0,0-2.16.42,1.1,1.1,0,0,1-1.43-.15,3.78,3.78,0,0,0-1.64,0A8.71,8.71,0,0,1,49.42,47s4.32.11,4.17-.55c0,0,.21,1,1.4.4S59.26,46.73,59.26,46.73Z"/><path class="f3d6ef00-3c73-4308-a9ca-1efb6751f1cf" d="M57.37,43.92s-.37,1.73-.16,2,1.41.12,1.41.12S57.21,46.1,57.37,43.92Z"/><path class="f3d6ef00-3c73-4308-a9ca-1efb6751f1cf" d="M51.55,43.62a8.08,8.08,0,0,1,0,2.16c-.34.55-1.31.14-1.31.14S51.72,45.8,51.55,43.62Z"/><path class="749b083a-24db-44ea-9807-1ed67d433f68" d="M62.49,64.5c.26-.69.58-1.5,1-2.49C65.34,57.63,65,55,65,55a16.54,16.54,0,0,0-11.11-4.27C54.94,55.31,61,62.86,62.49,64.5Z"/><path class="8f51c38b-50eb-4508-9e35-74f4a17cd2a8" d="M62.53,64.68l-.1-.12c-1.46-1.62-7.57-9.2-8.65-13.79l0-.11h.12A16.59,16.59,0,0,1,65,55l0,0v0s.34,2.69-1.5,7c-.39.92-.72,1.76-1,2.49ZM54,50.84c1.12,4.47,6.89,11.67,8.48,13.49.26-.7.58-1.49.95-2.36a15.06,15.06,0,0,0,1.48-6.91A16.4,16.4,0,0,0,54,50.84Z"/><path class="749b083a-24db-44ea-9807-1ed67d433f68" d="M53.86,50.75a28.7,28.7,0,0,0-11.3,2.19c-.59,5.23,1.56,9.69,2.59,12.31h0C46.23,59.84,53.59,51.06,53.86,50.75Z"/><path class="8f51c38b-50eb-4508-9e35-74f4a17cd2a8" d="M45.12,65.41l0-.13c-.11-.28-.24-.57-.36-.89-1.11-2.69-2.77-6.76-2.24-11.46v0l0,0a29.34,29.34,0,0,1,11.34-2.2h.19l-.12.15c-.31.37-7.62,9.08-8.69,14.45v0ZM42.64,53c-.5,4.63,1.14,8.65,2.23,11.32.09.22.18.42.26.63,1.21-5.14,7.55-12.92,8.54-14.12A29.33,29.33,0,0,0,42.64,53Z"/><path class="fbb6d48d-612f-40d2-9e5c-be33e1d6becd" d="M64.44,74.25s-2.25,1.65-4.65,3.53a52.66,52.66,0,0,1,7.58,4.75l.22.23a21.29,21.29,0,0,0,2.32-3.35S65.14,75.47,64.44,74.25Z"/><path class="47903e07-20d8-4635-b939-393f2816e80f" d="M67.6,82.89l-.3-.3a52.87,52.87,0,0,0-7.55-4.73l-.13-.06.11-.09c2.38-1.86,4.63-3.52,4.65-3.54l.08-.06.05.09c.69,1.2,5.41,5.11,5.46,5.14l0,0,0,.07a21.51,21.51,0,0,1-2.33,3.36ZM60,77.76a53.5,53.5,0,0,1,7.46,4.7l.17.16a21.49,21.49,0,0,0,2.2-3.18c-.55-.46-4.57-3.82-5.38-5.06C64,74.68,62,76.13,60,77.76Z"/><path class="8bad8c60-22b5-45bd-bc53-a91a761e7307" d="M45.47,73.83,40.8,83.11l-.36.67a19.75,19.75,0,0,0,4.72,1.84l.15-.21s2.21-5.25,3.6-8Z"/><path class="47903e07-20d8-4635-b939-393f2816e80f" d="M45.21,85.71h-.06a19.23,19.23,0,0,1-4.75-1.85l-.08,0,.4-.74,4.73-9.4L49,77.37l0,0c-1.38,2.75-3.59,8-3.61,8v0Zm-4.65-2a19.07,19.07,0,0,0,4.56,1.78l.11-.15c.1-.25,2.22-5.26,3.58-8L45.5,74l-4.62,9.17Z"/><path class="fbb6d48d-612f-40d2-9e5c-be33e1d6becd" d="M43.15,71.42a55.67,55.67,0,0,0-5.41,10.16l3.06,1.53,4.67-9.28Z"/><path class="47903e07-20d8-4635-b939-393f2816e80f" d="M40.84,83.23l-3.22-1.6,0-.08a56.72,56.72,0,0,1,5.42-10.18l.07-.09,2.44,2.53Zm-3-1.69L40.76,83l4.61-9.14-2.21-2.29A56.54,56.54,0,0,0,37.85,81.54Z"/><path class="fbb6d48d-612f-40d2-9e5c-be33e1d6becd" d="M48.91,77.38c-1.39,2.78-3.6,8-3.6,8s.7,1.13,4.94,1.34c.2-1.57.81-4.49,1.28-6.66Z"/><path class="47903e07-20d8-4635-b939-393f2816e80f" d="M50.33,86.84h-.08c-4.25-.21-5-1.33-5-1.38l0,0,0,0c0-.06,2.23-5.29,3.6-8l.06-.12,2.74,2.84v0c-.47,2.17-1.08,5.09-1.28,6.65ZM45.41,85.4c.17.18,1.13,1.06,4.76,1.25.21-1.57.8-4.4,1.26-6.53l-2.49-2.58C47.63,80.16,45.64,84.87,45.41,85.4Z"/><path class="8bad8c60-22b5-45bd-bc53-a91a761e7307" d="M58,79.23c2.51,2,5.55,5.15,5.55,5.15s1.73.11,3.87-1.85a52.66,52.66,0,0,0-7.58-4.75Z"/><path class="47903e07-20d8-4635-b939-393f2816e80f" d="M63.55,84.47h-.09l0,0S60.37,81.3,57.9,79.3l-.09-.07.09-.07c.56-.45,1.17-.94,1.83-1.45l.05,0,0,0a54,54,0,0,1,7.59,4.77l.09.06-.08.08A6.1,6.1,0,0,1,63.55,84.47Zm0-.18a5.79,5.79,0,0,0,3.69-1.75,52.18,52.18,0,0,0-7.43-4.66l-1.7,1.35C60.44,81.14,63.24,84,63.54,84.29Z"/><path class="8bad8c60-22b5-45bd-bc53-a91a761e7307" d="M54.11,82.76l-2.58-2.67c-.47,2.17-1.08,5.09-1.28,6.66v.51a16.69,16.69,0,0,0,7.61-.75s-1-2.88-2.07-5.46A9.65,9.65,0,0,0,54.11,82.76Z"/><path class="47903e07-20d8-4635-b939-393f2816e80f" d="M52.44,87.5a14.62,14.62,0,0,1-2.2-.15h-.08v-.59c.2-1.58.81-4.5,1.28-6.67l0-.17,2.61,2.7A12.86,12.86,0,0,1,55.73,81l.09-.09,0,.12c1.05,2.56,2.07,5.44,2.08,5.47l0,.08-.09,0A16.14,16.14,0,0,1,52.44,87.5Zm-2.1-.31a16.45,16.45,0,0,0,2.1.13,15.92,15.92,0,0,0,5.31-.87c-.18-.48-1.07-3-2-5.25a10.57,10.57,0,0,0-1.57,1.6l-.06.1-2.53-2.62c-.47,2.15-1.06,5-1.25,6.48Z"/><path class="fbb6d48d-612f-40d2-9e5c-be33e1d6becd" d="M58,79.23c-.79.64-1.54,1.26-2.16,1.82,1.06,2.58,2.07,5.46,2.07,5.46s2.3.51,5.88-1.89l-.24-.24S60.46,81.26,58,79.23Z"/><path class="47903e07-20d8-4635-b939-393f2816e80f" d="M58.46,86.64h0a3.22,3.22,0,0,1-.62,0h-.05v0s-1-2.91-2.08-5.46l0-.06,0,0c.58-.51,1.31-1.12,2.17-1.82l.05,0,.06,0c2.48,2,5.52,5.13,5.55,5.16l.32.32-.09.06A9.77,9.77,0,0,1,58.46,86.64Zm-.53-.21c.34,0,2.49.28,5.67-1.82l-.16-.16s-3-3.1-5.49-5.11c-.81.66-1.5,1.24-2.05,1.73C56.86,83.43,57.79,86,57.93,86.43Z"/><path class="0de6da4c-0af5-48e3-9999-8b9e25221d0b" d="M64.44,74.25s-2.25,1.65-4.65,3.53L58,79.23c-.79.64-1.54,1.26-2.16,1.82a9.65,9.65,0,0,0-1.68,1.71l-2.58-2.67-2.62-2.71-3.44-3.55-2.32-2.41a44.5,44.5,0,0,0-3.95,6.79c-.55,1.14.42,2.55,2.24.55,2.88-3.16-.64,4.35-.64,4.35,8.63-12.76,4.51,2.3,4.51,2.3,6.55-11.47,4.94,1.34,4.94,1.34,1.15-2.79,2.31-4.48,3.37-4.68,1.68-.32,4.24,4.29,4.24,4.29-3.51-10.94,5.64-2,5.64-2-7.64-8.11.51-4.19.51-4.19-1.85-1.25-2-2.72-.27-1.43a40.58,40.58,0,0,0,4.73,2.88,16.48,16.48,0,0,0,1.44-2.23S65.14,75.47,64.44,74.25Z"/><path class="3d99cb73-a84c-4313-97f5-ff256946cb16" d="M61.5,68.32a14,14,0,0,1,1-3.82c-1.46-1.64-7.55-9.19-8.62-13.75h0c-.27.31-7.63,9.09-8.71,14.5h0a5.22,5.22,0,0,1,.52,1.9C45.58,68.91,42.88,71,42.88,71L54.11,82.76l10-8.71C63.64,72.29,61.41,69.14,61.5,68.32Z"/><path class="cbed17be-6c65-4e1f-9ff4-05927f6dd25a" d="M54.1,82.88,42.74,71l.08-.06s2.68-2.07,2.76-3.76a5.59,5.59,0,0,0-.51-1.87l0,0,0,0c1.12-5.44,8.41-14.14,8.72-14.51l0,0h.11l0,.07c1.08,4.55,7.16,12.09,8.61,13.71l0,0,0,0a13,13,0,0,0-1,3.68l0,.12a8.34,8.34,0,0,0,1.15,2.56A17.53,17.53,0,0,1,64.21,74l0,0ZM43,71l11.1,11.64L64,74a19,19,0,0,0-1.45-3,7.52,7.52,0,0,1-1.16-2.67v-.12a12.94,12.94,0,0,1,1-3.67c-1.5-1.69-7.4-9-8.57-13.58-1,1.15-7.54,9.21-8.58,14.3a5.25,5.25,0,0,1,.52,1.92C45.68,68.78,43.47,70.63,43,71Z"/><g class="a7dc4efe-2187-4533-b7bc-5246434db42e"><path class="fb766693-f816-4440-8112-89902e108230" d="M43.9,53.1A8.64,8.64,0,0,1,45.31,52a25,25,0,0,0-2.75,1,16.76,16.76,0,0,0-.06,2.91A5.94,5.94,0,0,1,43.9,53.1Z"/><path class="fb766693-f816-4440-8112-89902e108230" d="M48.42,75.34c-8.13-7.26,1.56-6.09-1.33-8.9-.17-.17-1.78-1.52-2.21-1.86.1.24.19.46.27.67a5.22,5.22,0,0,1,.52,1.9C45.58,68.91,42.88,71,42.88,71L53.81,82.44l.25-.23A34.4,34.4,0,0,0,48.42,75.34Z"/><path class="fb766693-f816-4440-8112-89902e108230" d="M61.5,68.32A12.41,12.41,0,0,1,62.32,65a24.72,24.72,0,0,1-2.56,2.79c-2.72,2.87,10.32,1.87-5.7,14.43l.25.37,9.82-8.53C63.64,72.29,61.41,69.14,61.5,68.32Z"/><path class="fb766693-f816-4440-8112-89902e108230" d="M64.24,56.09a10.37,10.37,0,0,1,.59,1.48A9.65,9.65,0,0,0,65,55a15.65,15.65,0,0,0-3.46-2.43C62.49,53.08,64.07,55.75,64.24,56.09Z"/></g><path class="cbed17be-6c65-4e1f-9ff4-05927f6dd25a" d="M51.22,62.12a1.52,1.52,0,0,1,.15-.17c0-.05.11-.11.18-.18l.26-.2.16-.11.18-.09a2.46,2.46,0,0,1,.4-.19,3.45,3.45,0,0,1,.46-.12l.24,0h.37l.13,0,.24,0c.16,0,.31.09.46.13l.4.19a2.66,2.66,0,0,1,.33.21l.14.1a1.27,1.27,0,0,1,.12.1l.19.17.16.16L55.61,62l-.21-.15a1.47,1.47,0,0,0-.28-.16,2.59,2.59,0,0,0-.33-.19l-.39-.15L54,61.23l-.23,0-.11,0h-.35l-.23,0c-.15,0-.3.07-.44.1l-.2.07-.19.08-.18.09-.16.09a2.29,2.29,0,0,0-.28.17l-.2.14Z"/><path class="eb56ab6c-fe16-4077-bb23-aeeca68f9ad8" d="M61.5,68.32a14,14,0,0,1,1-3.82c.26-.69.58-1.5,1-2.49C65.34,57.63,65,55,65,55a14.87,14.87,0,0,0-2.48-1.88h0s4.46,9.36-6,8.47c0,0,6.68,3.1,2.09,6s8.09,2.14-1,10.56l-3.36,3.3S48,74.63,47,73.1s-.49-4,2.44-4.2-5.37-4.28.65-7.16c0,0-10.72-.7-4.76-9.78h0a25,25,0,0,0-2.75,1c-.59,5.23,1.56,9.69,2.59,12.31a5.22,5.22,0,0,1,.52,1.9C45.58,68.91,42.88,71,42.88,71L54.11,82.76l10-8.71C63.64,72.29,61.41,69.14,61.5,68.32Z"/><path class="2ec50d36-53e0-49c2-b7d9-fe977545d849" d="M63.84,72.93s.93.76.42,3-.19,4,.87,2.87c0,0,.26,1.71,2.1.6,0,0-.63,3.51,2.68,0,0,0-5.55-5.53-5.78-6.67Z"/><path class="93fc29c0-46a9-405a-90d7-ed6241625e54" d="M54.06,83.29S60.91,78,64.51,76.93l1.92-1.16L64.85,74.5,54.11,82.76,43.53,72.42l-1.27,2A131.27,131.27,0,0,1,54.06,83.29Z"/><path class="fbb6d48d-612f-40d2-9e5c-be33e1d6becd" d="M54.06,82.21s8.77-8.75,10.07-9.47a16.42,16.42,0,0,1,2,2.62,46.7,46.7,0,0,0-12.09,7.93s-9.51-9-13.26-11a33,33,0,0,0,2.85-2S52.21,80,54.06,82.21Z"/><path class="47903e07-20d8-4635-b939-393f2816e80f" d="M54.06,83.42,54,83.36c-.1-.09-9.55-9-13.24-11l-.14-.07.13-.09a31,31,0,0,0,2.84-2l.06-.07.07.08c.08.09,8.4,9.46,10.35,11.82.89-.89,8.76-8.72,10-9.41l.06,0,0,.05a15.89,15.89,0,0,1,2,2.64l0,.08-.09,0a47,47,0,0,0-12.06,7.92ZM41,72.29c3.64,2,12.26,10.11,13.08,10.88a47.21,47.21,0,0,1,12-7.85,15.38,15.38,0,0,0-1.91-2.46c-1.46.92-9.9,9.33-10,9.42l-.07.07L54,82.27c-1.74-2.13-9.57-11-10.35-11.83A31.51,31.51,0,0,1,41,72.29Z"/><path class="d0461d24-6194-428b-8617-7f0e114c11e9" d="M64.13,72.74a6.6,6.6,0,0,0-.62.46h0c1.62,2.14-.81,2.71-4.48,5.56-2.11,1.64-3.36,2.67-4.08,3.18l-.89.64S49.12,77.52,46,74.9c-2.17-1.79-2.82-2.93-1.84-4.05l-.47-.53a33,33,0,0,1-2.85,2c3.75,2,13.26,11,13.26,11a46.7,46.7,0,0,1,12.09-7.93A16.42,16.42,0,0,0,64.13,72.74Z"/><path class="b0544815-b313-427e-a3ad-6076dda46484" d="M63.26,74.05,63,74.3c-.17.15-.41.38-.71.64l-1,.91c-.18.16-.36.34-.56.51l-.57.53-.58.52-.55.52-.53.48-.46.43c-.57.54-1,.88-1,.88s.31-.42.83-1c.13-.15.26-.32.42-.48l.5-.52c.17-.17.34-.36.53-.54l.57-.54.59-.52.58-.49c.19-.17.38-.31.56-.45l.51-.38.45-.31.35-.23Z"/><path class="b0544815-b313-427e-a3ad-6076dda46484" d="M44.38,72s.37.29.89.77c.27.24.57.53.88.84l.48.49.49.51.48.52.45.52c.14.17.28.33.4.49l.36.45c.22.28.38.54.5.71l.17.27-.23-.23-.6-.61-.84-.87-.47-.49-.48-.52-.94-1-.42-.48c-.14-.15-.26-.3-.37-.43C44.67,72.42,44.38,72,44.38,72Z"/><path class="96b220db-69f4-4859-b6d6-945b9c78f768" d="M50.19,51.27a18.58,18.58,0,0,1,7.63.64,9.58,9.58,0,0,1,3.5,1.94c4.86,4.33-15.55,8.67-16.83,3.2C44.13,55.5,43.88,52,50.19,51.27Z"/><path class="fbb6d48d-612f-40d2-9e5c-be33e1d6becd" d="M69.31,58.85s1.2-4.33,5.29-4.15c0,0,5.4,4.55,5.08,6.18S76.16,67.51,69.31,74.5l-2.37-1.89s4.17-10.87,5.62-11.82C72.56,60.79,71.79,60.7,69.31,58.85Z"/><path class="47903e07-20d8-4635-b939-393f2816e80f" d="M69.31,74.62l-2.47-2,0-.06c.17-.43,4-10.27,5.5-11.75a13.23,13.23,0,0,1-3.11-1.91l0,0,0-.06s1.27-4.4,5.38-4.22h0l0,0c.22.19,5.43,4.61,5.11,6.27s-3.31,6.44-10.4,13.67Zm-2.26-2,2.25,1.8c7-7.16,10-12,10.29-13.52.13-.63-.7-1.88-2.39-3.61C76,56,74.75,55,74.57,54.79c-3.69-.15-5,3.51-5.16,4,2.37,1.77,3.15,1.89,3.16,1.89l.24,0-.2.13C71.26,61.75,67.39,71.7,67.05,72.58Z"/><path class="47903e07-20d8-4635-b939-393f2816e80f" d="M72.56,60.79a.87.87,0,0,1,.08-.14l.11-.16a.9.9,0,0,1,.16-.19,2.08,2.08,0,0,1,.21-.21,2.65,2.65,0,0,1,.26-.21,3.07,3.07,0,0,1,.31-.17l.17-.08.18-.06a2.29,2.29,0,0,1,.36-.07h.36a1.87,1.87,0,0,1,.34,0,1.29,1.29,0,0,1,.28.08l.24.08.17.09.15.07-.16,0-.18,0a1.69,1.69,0,0,0-.24,0,2.36,2.36,0,0,0-.28,0l-.32,0c-.11,0-.22,0-.33,0a2.09,2.09,0,0,0-.34.08l-.16,0-.16.07a2.8,2.8,0,0,0-.3.15l-.27.17-.22.18c-.13.12-.24.22-.31.3Z"/><path class="667d9f3c-0190-4efa-a514-5e0f101443f8" d="M70.64,56.64l-.13,0a7,7,0,0,0-1.2,2.25c2.48,1.85,3.25,1.94,3.25,1.94-1.45,1-5.62,11.82-5.62,11.82l1.37,1.1c2.73-9.16,7.21-14,7.21-14C74.36,57.76,72.71,57.32,70.64,56.64Z"/><path class="93fc29c0-46a9-405a-90d7-ed6241625e54" d="M74.25,59.56a9.88,9.88,0,0,1-4.48-1.83,6.33,6.33,0,0,0-.46,1.12c2.48,1.85,3.25,1.94,3.25,1.94-1.22.8-4.36,8.62-5.33,11.08l0,0A47.24,47.24,0,0,1,74.25,59.56Z"/><path class="f86575e7-3570-4e0b-856e-96971c994ac4" d="M69.14,78.76a2.22,2.22,0,0,0,.76-1.12c.19-.72.56-3.21-1-4.75a3.52,3.52,0,0,0-4.82,0A10.66,10.66,0,0,1,66.94,75C67.89,76.17,69.48,77.66,69.14,78.76Z"/><path class="77c2d076-fc51-440b-bb1e-dd026272e285" d="M69,79l.08-.25c.27-.85-.72-2-1.6-3-.21-.23-.4-.46-.58-.67a10.35,10.35,0,0,0-2.78-2.12L64,72.88l.08-.08a3.76,3.76,0,0,1,2.54-1,3.28,3.28,0,0,1,2.41,1c1.41,1.44,1.25,3.79,1,4.83a2.21,2.21,0,0,1-.79,1.17Zm-4.69-6.15A10.27,10.27,0,0,1,67,74.94c.17.21.36.44.57.68.82.94,1.74,2,1.68,2.9a2,2,0,0,0,.54-.9c.27-1,.43-3.28-.93-4.66A3.09,3.09,0,0,0,66.6,72,3.63,3.63,0,0,0,64.28,72.84Z"/><path class="57b10dc9-ca78-428c-a300-e6b961b2ae52" d="M65.66,72a1.75,1.75,0,0,1,1.85,1.18,3,3,0,0,1,1.58,1.72s.93.16,1,1.45c0,0-.13,2.07-.79,2.28s-4.61-6.11-4.61-6.11A2.1,2.1,0,0,1,65.66,72Z"/><path class="f86575e7-3570-4e0b-856e-96971c994ac4" d="M64.13,72.86a2.36,2.36,0,0,1,.72,2.27c-.28,1.63-1.16,5,.55,3.05,0,0,.32.7,1.26,0,0,0-2,2.43,1.81,0,0,0-1.15,1.72-.82,2.24s2.26-1.57,2.26-2.66a2.35,2.35,0,0,0-1.26-2.33s-.48-1.75-2-1.75C66.66,73.7,67,71.12,64.13,72.86Z"/><path class="77c2d076-fc51-440b-bb1e-dd026272e285" d="M67.81,80.61h0a.26.26,0,0,1-.23-.12c-.27-.42.28-1.47.61-2a5.17,5.17,0,0,1-1.88.86.24.24,0,0,1-.25-.13c-.08-.17.08-.48.25-.73a1.09,1.09,0,0,1-.41.09.63.63,0,0,1-.51-.24c-.33.36-.57.53-.76.53a.28.28,0,0,1-.22-.11c-.27-.33-.09-1.38.2-2.85.06-.28.11-.55.15-.78a2.25,2.25,0,0,0-.69-2.19l-.1-.07.11-.07c1.13-.7,1.93-.8,2.36-.33a1.73,1.73,0,0,1,.32,1.16c1.35.06,1.88,1.5,2,1.76A2.53,2.53,0,0,1,70,77.78C70,78.78,68.46,80.61,67.81,80.61Zm1-2.71-.23.35c-.43.64-1,1.8-.82,2.14a.08.08,0,0,0,.08,0,3.93,3.93,0,0,0,2-2.65,2.3,2.3,0,0,0-1.21-2.25h0v0s-.48-1.67-1.9-1.67h-.1v-.11a1.62,1.62,0,0,0-.27-1.1c-.35-.4-1-.29-2,.29a2.48,2.48,0,0,1,.66,2.27c0,.23-.1.5-.15.79-.2,1-.48,2.41-.24,2.69a.08.08,0,0,0,.08,0c.08,0,.28-.06.7-.54l.09-.11.06.13a.47.47,0,0,0,.42.24,1.22,1.22,0,0,0,.71-.31l.65-.5-.53.63c-.29.35-.56.8-.51.92s.06,0,.09,0a5.9,5.9,0,0,0,2.12-1Z"/><path class="77c2d076-fc51-440b-bb1e-dd026272e285" d="M65.47,78.24l-.15-.11a8,8,0,0,0,1.25-4.42h.18A8.27,8.27,0,0,1,65.47,78.24Z"/><path class="77c2d076-fc51-440b-bb1e-dd026272e285" d="M66.72,78.22l-.12-.13a5.58,5.58,0,0,0,2-2.66l.18,0A5.64,5.64,0,0,1,66.72,78.22Z"/><path class="77c2d076-fc51-440b-bb1e-dd026272e285" d="M68.53,78.27l-.11-.14a3.41,3.41,0,0,0,1.21-1.51l.17,0A3.59,3.59,0,0,1,68.53,78.27Z"/><path class="bdb8e67d-bf81-4b85-bdc7-be79ca8a34fd" d="M68.47,78.5a9,9,0,0,0,1-1.38,5.82,5.82,0,0,1-1.55,1.19c-1.94,1.09-.56-.84-.56-.84-1.89,1.36-1.06-1.21-1.06-1.21-.48,1.26-1.65,1.76-1.3.86a10.77,10.77,0,0,0,.5-3.79.91.91,0,0,0-.51-.91,5.93,5.93,0,0,0-.87.44,2.36,2.36,0,0,1,.72,2.27c-.28,1.63-1.16,5,.55,3.05,0,0,.32.7,1.26,0,0,0-2,2.43,1.81,0,0,0-1.15,1.72-.82,2.24.07.1.19.1.35,0A2.59,2.59,0,0,1,68.47,78.5Z"/><path class="2ae13d85-3150-4e06-9274-eca6bdf6493f" d="M67.08,72.21l.18,0a1.15,1.15,0,0,1,.2,0,1,1,0,0,1,.25.08,1.38,1.38,0,0,1,.29.12,2.49,2.49,0,0,1,.3.19,1.66,1.66,0,0,1,.3.22c.1.09.19.19.28.28l.24.31c.07.11.14.22.19.32s.11.22.15.32a2.85,2.85,0,0,1,.11.3,1.61,1.61,0,0,1,.07.25c0,.08,0,.15,0,.21s0,.17,0,.17l-.06-.17a1.31,1.31,0,0,1-.07-.19l-.11-.23-.13-.28c0-.09-.11-.19-.16-.3s-.14-.2-.2-.3-.16-.19-.23-.29-.17-.19-.26-.27a3.11,3.11,0,0,0-.28-.23l-.28-.19-.26-.15-.24-.11-.18-.07Z"/><path class="2ae13d85-3150-4e06-9274-eca6bdf6493f" d="M65.64,72.5h0l.13,0,.1,0,.1.06a.71.71,0,0,1,.2.19l.09.13.07.16a1.15,1.15,0,0,1,.06.17,1.16,1.16,0,0,1,0,.18,2.6,2.6,0,0,1,0,.39c0,.13,0,.27,0,.4a2.45,2.45,0,0,1,0,.39c0,.14,0,.26-.06.38s-.06.24-.08.35-.06.22-.09.31-.12.34-.15.45a1.78,1.78,0,0,1-.07.17l0-.18.09-.47c0-.19.07-.41.11-.65s0-.25,0-.37,0-.26,0-.39a2.44,2.44,0,0,0,0-.38,2.23,2.23,0,0,0,0-.37,1,1,0,0,0,0-.17.65.65,0,0,0,0-.16L66.2,73l-.06-.13a.83.83,0,0,0-.16-.2.24.24,0,0,0-.09-.06.14.14,0,0,0-.08,0A.62.62,0,0,0,65.64,72.5Z"/><path class="2ae13d85-3150-4e06-9274-eca6bdf6493f" d="M67.27,74.17l.16.09a1.38,1.38,0,0,1,.39.31,1.34,1.34,0,0,1,.19.26,1.6,1.6,0,0,1,.15.35,1.68,1.68,0,0,1,0,.4,1.41,1.41,0,0,1,0,.2v.07h0v0l0,.09a1.17,1.17,0,0,1-.06.2l-.09.19a2.39,2.39,0,0,1-.21.34,3.11,3.11,0,0,1-.23.28l-.23.22a3.14,3.14,0,0,1-.54.4l.14-.12.32-.35.21-.24.2-.28.1-.16.09-.17A2,2,0,0,0,68,76l0-.1v0h0v0a1.24,1.24,0,0,0,0-.18,1.5,1.5,0,0,0,0-.37.94.94,0,0,0,0-.16.77.77,0,0,0-.07-.16,2.2,2.2,0,0,0-.15-.26,1.8,1.8,0,0,0-.32-.34Z"/><path class="2ae13d85-3150-4e06-9274-eca6bdf6493f" d="M68.84,75.83l.14.1.13.14.15.21a1.23,1.23,0,0,1,.09.29,1,1,0,0,1,0,.17.57.57,0,0,1,0,.18c0,.06,0,.12,0,.18l-.09.16a2.17,2.17,0,0,1-.23.3l-.28.25a2.9,2.9,0,0,1-.29.19,7.67,7.67,0,0,1-.55.29l-.41.16-.16,0,.14-.09a4.19,4.19,0,0,0,.38-.21l.25-.15c.08-.06.18-.11.26-.18l.28-.2.25-.24a2.65,2.65,0,0,0,.21-.26,1,1,0,0,0,.08-.14.94.94,0,0,0,.06-.15.19.19,0,0,0,0-.07v-.08a.65.65,0,0,0,0-.14.76.76,0,0,0,0-.27,1,1,0,0,0-.1-.21L69,76Z"/><path class="2ae13d85-3150-4e06-9274-eca6bdf6493f" d="M69.63,77.33a.4.4,0,0,1,0,.12.78.78,0,0,1,0,.16.74.74,0,0,1,0,.21c0,.07,0,.15,0,.24a1.53,1.53,0,0,1-.08.26,2.53,2.53,0,0,1-.26.52,2.5,2.5,0,0,1-.16.24l-.18.23-.19.19a1.25,1.25,0,0,1-.17.16,3.25,3.25,0,0,1-.28.23l-.1.08.08-.11.23-.27.14-.18a1.56,1.56,0,0,0,.16-.2c.06-.07.11-.15.17-.23l.15-.23.14-.25a1.34,1.34,0,0,0,.12-.24c0-.08.07-.17.1-.24s0-.15.06-.22a1.85,1.85,0,0,0,0-.34Z"/><path class="2ae13d85-3150-4e06-9274-eca6bdf6493f" d="M74.25,55l.77.63c.48.41,1.17,1,2,1.76.39.39.81.81,1.22,1.28.2.24.41.49.61.76a4.52,4.52,0,0,1,.52.89l0,.14,0,.14v.05h0v0s0,0,0,.06a.88.88,0,0,1,0,.17,3,3,0,0,1-.15.53,8,8,0,0,1-.48,1c-.36.63-.76,1.24-1.18,1.84s-.84,1.18-1.28,1.75-.87,1.12-1.29,1.65c-.86,1.06-1.68,2-2.41,2.84S71.26,72,70.82,72.43a8.14,8.14,0,0,1-.74.67l.19-.18.5-.54c.42-.47,1-1.17,1.69-2s1.48-1.83,2.31-2.9c.42-.53.84-1.09,1.27-1.66s.85-1.15,1.26-1.75.81-1.19,1.16-1.8a7.34,7.34,0,0,0,.48-.92,2.38,2.38,0,0,0,.14-.46.38.38,0,0,0,0-.1v-.06h0v0l0-.11,0-.11a3.85,3.85,0,0,0-.47-.84,7.38,7.38,0,0,0-.57-.75c-.39-.48-.78-.92-1.16-1.31-.74-.78-1.39-1.42-1.85-1.86Z"/><path class="fbb6d48d-612f-40d2-9e5c-be33e1d6becd" d="M40.76,56.87s-1.34-4.36-5.37-3.65c0,0-7.53,7.51-7,9.07s2.52,4.4,10.22,10.44l2.1-2.19s-3.73-7.63-5.49-8.8A15.34,15.34,0,0,1,40.76,56.87Z"/><path class="47903e07-20d8-4635-b939-393f2816e80f" d="M38.61,72.85l-.06,0C32.39,68,29,64.55,28.29,62.32c-.22-.68.89-2.44,3.33-5.21,1.8-2,3.69-3.93,3.71-4l0,0h0a5.45,5.45,0,0,1,.89-.08c3.38,0,4.57,3.75,4.58,3.79l0,.08-.08,0a15.39,15.39,0,0,0-5.46,4.76c1.79,1.33,5.3,8.48,5.45,8.79l0,.06ZM35.43,53.3c-2.1,2.1-7.38,7.72-7,9,.74,2.19,4,5.57,10.14,10.35l2-2.08c-.34-.7-3.79-7.62-5.43-8.72l-.08-.05.05-.07a15.64,15.64,0,0,1,5.52-4.87c-.19-.53-1.4-3.59-4.39-3.59A5.93,5.93,0,0,0,35.43,53.3Z"/><path class="47903e07-20d8-4635-b939-393f2816e80f" d="M32.68,60.79l.11-.06a1.18,1.18,0,0,1,.32-.07h.22a2.13,2.13,0,0,1,.25,0l.25.07.25.1.24.13a1.64,1.64,0,0,1,.22.14,2.84,2.84,0,0,1,.36.29l.13.12.1.11.08.09-.1-.07L35,61.6l-.15-.1-.18-.12-.2-.12-.22-.12L34,61l-.23-.1-.24-.08-.22-.05-.21,0H32.8Z"/><path class="667d9f3c-0190-4efa-a514-5e0f101443f8" d="M35.21,61.74a15.34,15.34,0,0,1,5.55-4.87,6.78,6.78,0,0,0-1.25-2.17h0c-2.74,1.2-7.12,5.28-7.12,6.4a43.15,43.15,0,0,1,7.79,10l.52-.55S37,62.91,35.21,61.74Z"/><path class="93fc29c0-46a9-405a-90d7-ed6241625e54" d="M33.65,60.79A33.09,33.09,0,0,1,38.87,67c-1.2-2.17-2.72-4.67-3.66-5.3a15.34,15.34,0,0,1,5.55-4.87,7.08,7.08,0,0,0-.62-1.31A34.13,34.13,0,0,1,33.65,60.79Z"/><path class="f86575e7-3570-4e0b-856e-96971c994ac4" d="M39.49,77a2.18,2.18,0,0,1-.92-1c-.3-.68-1-3.08.24-4.83a3.53,3.53,0,0,1,4.77-.74,10.66,10.66,0,0,0-2.48,2.52C40.34,74.24,39,76,39.49,77Z"/><path class="77c2d076-fc51-440b-bb1e-dd026272e285" d="M39.69,77.19l-.24-.12a2.21,2.21,0,0,1-1-1c-.43-1-.94-3.29.25-4.92a3.34,3.34,0,0,1,2.79-1.39,3.65,3.65,0,0,1,2.1.63l.1.07-.1.07A10.59,10.59,0,0,0,41.18,73c-.14.24-.3.49-.47.76-.72,1.13-1.53,2.4-1.14,3.2Zm1.84-7.29a3.21,3.21,0,0,0-2.65,1.31c-1.13,1.57-.64,3.79-.23,4.75a2.15,2.15,0,0,0,.67.82c-.19-.88.56-2.07,1.24-3.13.17-.27.32-.51.46-.75a10.32,10.32,0,0,1,2.4-2.48A3.57,3.57,0,0,0,41.53,69.9Z"/><path class="57b10dc9-ca78-428c-a300-e6b961b2ae52" d="M41.94,69.83a1.74,1.74,0,0,0-1.65,1.44A3,3,0,0,0,39,73.2a1.37,1.37,0,0,0-.76,1.58s.44,2,1.12,2.14S43,70.2,43,70.2A2.14,2.14,0,0,0,41.94,69.83Z"/><path class="f86575e7-3570-4e0b-856e-96971c994ac4" d="M43.58,70.42a2.33,2.33,0,0,0-.38,2.35c.51,1.57,1.88,4.75-.1,3.1,0,0-.22.73-1.25.16,0,0,2.36,2.1-1.79.31,0,0,1.39,1.54,1.14,2.09s-2.46-1.22-2.62-2.3a2.37,2.37,0,0,1,.91-2.49s.22-1.79,1.7-2C41.19,71.63,40.53,69.11,43.58,70.42Z"/><path class="77c2d076-fc51-440b-bb1e-dd026272e285" d="M41,78.63a4.09,4.09,0,0,1-2.52-2.49,2.51,2.51,0,0,1,.91-2.55c.05-.28.36-1.77,1.68-2a1.67,1.67,0,0,1,.19-1.24c.37-.48,1.17-.48,2.34,0l.12,0-.09.09a2.28,2.28,0,0,0-.36,2.27c.07.22.17.48.26.75.51,1.42.85,2.46.61,2.81a.3.3,0,0,1-.24.11h0a1.52,1.52,0,0,1-.78-.4.69.69,0,0,1-.59.32,1.77,1.77,0,0,1-.3,0c.22.23.42.52.35.69s-.14.16-.32.16a6.29,6.29,0,0,1-1.89-.58c.4.49,1.11,1.44.9,1.9A.28.28,0,0,1,41,78.63Zm1.12-8.5a.86.86,0,0,0-.72.29,1.65,1.65,0,0,0-.13,1.18l0,.1h-.1c-1.41.21-1.63,1.92-1.64,1.94v0l0,0a2.27,2.27,0,0,0-.86,2.4A4,4,0,0,0,41,78.45a.1.1,0,0,0,.11-.06c.16-.36-.6-1.42-1.13-2l-.28-.3.39.16a7.45,7.45,0,0,0,2.17.72c.1,0,.15,0,.15,0s-.29-.53-.64-.83l-.6-.55.71.4a1.39,1.39,0,0,0,.65.21.48.48,0,0,0,.47-.31l0-.14.11.09c.43.37.65.44.75.44h0a.11.11,0,0,0,.09,0c.21-.29-.27-1.65-.63-2.64-.09-.27-.19-.53-.26-.76a2.46,2.46,0,0,1,.32-2.35A3.74,3.74,0,0,0,42.13,70.13Z"/><path class="77c2d076-fc51-440b-bb1e-dd026272e285" d="M43,75.93a8.3,8.3,0,0,1-1.93-4.29l.18,0a8.07,8.07,0,0,0,1.88,4.19Z"/><path class="77c2d076-fc51-440b-bb1e-dd026272e285" d="M41.8,76.11a5.66,5.66,0,0,1-2.4-2.44l.17-.06A5.57,5.57,0,0,0,41.89,76Z"/><path class="77c2d076-fc51-440b-bb1e-dd026272e285" d="M40,76.41A3.59,3.59,0,0,1,38.52,75l.17-.08a3.38,3.38,0,0,0,1.41,1.32Z"/><path class="bdb8e67d-bf81-4b85-bdc7-be79ca8a34fd" d="M40.1,76.63a9.4,9.4,0,0,1-1.2-1.22,5.89,5.89,0,0,0,1.72,1c2.08.79.43-.91.43-.91,2.06,1.06.87-1.36.87-1.36.65,1.18,1.89,1.5,1.41.66a10.56,10.56,0,0,1-1-3.68.89.89,0,0,1,.37-1,5.92,5.92,0,0,1,.93.31,2.33,2.33,0,0,0-.38,2.35c.51,1.57,1.88,4.75-.1,3.1,0,0-.22.73-1.25.16,0,0,2.36,2.1-1.79.31,0,0,1.39,1.54,1.14,2.09-.05.11-.18.13-.34.08A2.6,2.6,0,0,0,40.1,76.63Z"/><path class="2ae13d85-3150-4e06-9274-eca6bdf6493f" d="M40.56,70.21l-.16.08a.62.62,0,0,0-.17.1,1.13,1.13,0,0,0-.22.14c-.08,0-.15.12-.24.19a2.55,2.55,0,0,0-.24.23,3.08,3.08,0,0,0-.24.27c-.08.09-.14.2-.22.3l-.19.32-.15.33-.12.32-.09.29c0,.09-.05.17-.06.25s0,.14-.05.2a1.37,1.37,0,0,1,0,.17s0-.06,0-.18a1.56,1.56,0,0,1,0-.2,1.22,1.22,0,0,1,0-.26c0-.09,0-.2.06-.31s.07-.22.1-.34l.15-.35.19-.34c.08-.1.15-.22.23-.31a2.29,2.29,0,0,1,.27-.27,1.94,1.94,0,0,1,.27-.23l.27-.17.24-.11.19-.08Z"/><path class="2ae13d85-3150-4e06-9274-eca6bdf6493f" d="M42,70.29a.45.45,0,0,0-.16.08l-.07,0-.07.08a1.16,1.16,0,0,0-.13.22,1.21,1.21,0,0,1-.05.14l0,.15a.91.91,0,0,0,0,.17.91.91,0,0,0,0,.17c0,.12,0,.25,0,.37a2.53,2.53,0,0,0,.07.38,2.49,2.49,0,0,0,.09.37,3.1,3.1,0,0,0,.1.36c.07.24.14.45.2.64s.12.34.16.45l.06.17a.83.83,0,0,1-.09-.16c-.06-.1-.13-.24-.22-.42a2.08,2.08,0,0,1-.13-.3c0-.1-.09-.21-.13-.33a3,3,0,0,1-.12-.36,2.48,2.48,0,0,1-.1-.39,2.63,2.63,0,0,1-.06-.39c0-.13,0-.26,0-.39a1,1,0,0,1,0-.18.84.84,0,0,1,0-.18l0-.17.07-.15a1.28,1.28,0,0,1,.17-.22l.09-.07.09,0a.55.55,0,0,1,.13,0Z"/><path class="2ae13d85-3150-4e06-9274-eca6bdf6493f" d="M40.66,72.18a1.21,1.21,0,0,0-.13.13,1.64,1.64,0,0,0-.26.39,1.18,1.18,0,0,0-.12.28.94.94,0,0,0,0,.16,1.1,1.1,0,0,0,0,.18,1.4,1.4,0,0,0,0,.35.58.58,0,0,0,0,.19v.06h0v0l0,.1a2.58,2.58,0,0,0,.18.32l.11.15.12.14.25.25a2.19,2.19,0,0,0,.23.21,3,3,0,0,0,.38.29l.15.11a3.83,3.83,0,0,1-.59-.32,1.88,1.88,0,0,1-.26-.19,3,3,0,0,1-.28-.24,2.48,2.48,0,0,1-.25-.3l-.12-.17A1.63,1.63,0,0,1,40,74.1L40,74v0h0V73.9a.65.65,0,0,1,0-.2,1.34,1.34,0,0,1,0-.4,1.9,1.9,0,0,1,.09-.36,1.15,1.15,0,0,1,.16-.29,1.57,1.57,0,0,1,.33-.37A1,1,0,0,1,40.66,72.18Z"/><path class="2ae13d85-3150-4e06-9274-eca6bdf6493f" d="M39.35,74.05a1.1,1.1,0,0,0-.09.14.6.6,0,0,0-.08.16c0,.07,0,.15-.08.23a1.2,1.2,0,0,0,0,.27.35.35,0,0,0,0,.14v.08l0,.06a.61.61,0,0,0,.07.14l.11.13a1.73,1.73,0,0,0,.24.23l.29.2.3.16.29.13.27.12.4.15.15.07-.16,0-.43-.09-.28-.1a2.33,2.33,0,0,1-.31-.11L39.79,76a3.28,3.28,0,0,0-.31-.2,3.44,3.44,0,0,1-.27-.27l-.11-.15s-.05-.11-.08-.16A1.54,1.54,0,0,1,39,75a.5.5,0,0,1,0-.17,1,1,0,0,1,0-.31,1,1,0,0,1,.12-.23,1,1,0,0,1,.11-.15Z"/><path class="2ae13d85-3150-4e06-9274-eca6bdf6493f" d="M38.79,75.64a.59.59,0,0,0,0,.13,1.22,1.22,0,0,0,.1.34c0,.06.06.13.09.2a2.53,2.53,0,0,0,.13.22l.15.23.18.22.19.21.19.2.19.18.17.15.27.24.09.09L40.45,78c-.08,0-.19-.1-.31-.18l-.2-.14-.2-.17-.22-.19-.2-.21a3,3,0,0,1-.33-.49,1.28,1.28,0,0,1-.11-.24,1.09,1.09,0,0,1-.07-.24,1.77,1.77,0,0,1,0-.2v-.15C38.78,75.69,38.79,75.64,38.79,75.64Z"/><path class="2ae13d85-3150-4e06-9274-eca6bdf6493f" d="M35.54,53.57l-.67.76-1.75,2c-.72.83-1.56,1.8-2.43,2.87-.43.54-.87,1.09-1.27,1.68-.1.15-.19.3-.28.45a1.68,1.68,0,0,0-.19.45v.08s0,.1,0,.13a2.27,2.27,0,0,0,.06.25,4.16,4.16,0,0,0,.16.5,9.24,9.24,0,0,0,1.1,1.84c.44.56.9,1.1,1.37,1.59a36.67,36.67,0,0,0,2.72,2.58l1.15,1c.34.29.65.53.9.73l.78.64L37,70.93l-.62-.42c-.52-.38-1.26-.91-2.13-1.6-.43-.35-.89-.73-1.36-1.15s-1-.87-1.45-1.37A17,17,0,0,1,30,64.79a8.77,8.77,0,0,1-1.16-1.91,5.05,5.05,0,0,1-.18-.55,2.11,2.11,0,0,1-.06-.29s0-.09,0-.14a.27.27,0,0,1,0-.09.34.34,0,0,1,0-.1,2,2,0,0,1,.23-.55c.1-.17.2-.32.3-.47.42-.61.87-1.16,1.31-1.69.89-1.06,1.77-2,2.52-2.81s1.41-1.45,1.86-1.91Z"/><path class="837cad8e-01d6-42a3-85e3-f3eaaea84be0" d="M47.41,43.67s.36-1.17,3.25-1.53c0,0-4.31-3.24-4.08-5.06A4.74,4.74,0,0,0,47.41,43.67Z"/><path class="76051196-eec1-4540-afb9-13b8b4d2f3f6" d="M47.46,43.84l-.11-.09A4.87,4.87,0,0,1,46.5,37l.22-.28,0,.35c-.21,1.75,4,4.94,4,5l.2.15-.24,0c-2.77.35-3.16,1.46-3.17,1.47Zm-1-6.45a4.54,4.54,0,0,0,.9,6.13c.18-.32.84-1.13,3-1.44C49.63,41.46,46.68,39.05,46.48,37.39Z"/><path class="b55d6d81-7aec-4474-a2da-8aa9575e4cdf" d="M46.58,37.08l-.26,1.2s-1.91,3.61,2.66,6a2.83,2.83,0,0,1-2.2.94s-1.29-1.94-1.2-2.9a3.53,3.53,0,0,0,.82,2.77s-2.3-.57-3.16-.84a5.58,5.58,0,0,1,.29-1.75A2.93,2.93,0,0,0,43,44a4.68,4.68,0,0,0-2.51.29,5.66,5.66,0,0,1,1-3.1,4.67,4.67,0,0,0-1.2,2.84s-1.74-.45-2.49.35c0,0-.38-1.18,1-3.08s3.45-2.91,3.43-4,2.11-.71,2.43-.7S46.58,37.08,46.58,37.08Z"/><path class="6e208913-3d51-42c6-a886-928815d809f5" d="M46.83,45.28h-.1l0,0v0l-.32-.08s-2.31-.56-3.16-.83l-.07,0v-.08a7.69,7.69,0,0,1,.09-1,2.36,2.36,0,0,0-.18.84v.11l-.12,0a3.6,3.6,0,0,0-.77-.06,4.12,4.12,0,0,0-1.68.33l-.13.07v-.15a6.27,6.27,0,0,1,.14-1.22,4.68,4.68,0,0,0-.16,1v.11l-.11,0a4.08,4.08,0,0,0-1-.13,1.8,1.8,0,0,0-1.36.44l-.12.12,0-.15c0-.05-.37-1.25,1.07-3.17a13.72,13.72,0,0,1,2-2c.82-.74,1.47-1.32,1.46-1.91a.71.71,0,0,1,.19-.53,1.77,1.77,0,0,1,1.26-.35c.35,0,.68,0,.9.06l.18,0c.32,0,1.87.44,1.94.46l.09,0-.29,1.32a4.12,4.12,0,0,0-.2,2.88A5.19,5.19,0,0,0,49,44.15l.1.05-.07.1A3,3,0,0,1,46.83,45.28Zm-1.13-2A2.75,2.75,0,0,0,46.46,45l.18.17A9.94,9.94,0,0,1,45.7,43.33Zm-.21-1.07.19,0c-.08.85,1,2.52,1.15,2.81a2.86,2.86,0,0,0,2-.82,5.32,5.32,0,0,1-2.81-3,4.17,4.17,0,0,1,.22-3l.23-1.1c-.57-.15-1.58-.41-1.81-.42l-.2,0a6.45,6.45,0,0,0-.87-.06,1.57,1.57,0,0,0-1.12.29.51.51,0,0,0-.14.38c0,.68-.66,1.29-1.52,2.06a14.91,14.91,0,0,0-1.93,2,4.15,4.15,0,0,0-1.07,2.84,2.11,2.11,0,0,1,1.37-.38,4.77,4.77,0,0,1,1,.1,4.79,4.79,0,0,1,1.22-2.79l.15.13a5.44,5.44,0,0,0-1,2.88,4.52,4.52,0,0,1,1.62-.29,4.71,4.71,0,0,1,.7,0,3,3,0,0,1,.6-1.54l.56-.71-.4.82a5.21,5.21,0,0,0-.28,1.64c.69.22,2.13.58,2.77.74A3.8,3.8,0,0,1,45.49,42.26Z"/><path class="2211f44d-15a6-43e5-8d3f-199972a8e385" d="M40.35,40.67c-1.4,1.79-.51,2.48-.51,2.48s-.11-1.75,2.46-3.37,3.28-.72,2.33.29a3.18,3.18,0,0,0,1.68-1.73h0l0-.06.26-1.2s-1.61-.43-1.93-.45-2.45-.41-2.43.7c0,.85-1.19,1.64-2.41,2.84h0C41.37,39,41.75,38.87,40.35,40.67Z"/><path class="837cad8e-01d6-42a3-85e3-f3eaaea84be0" d="M63,35.86l-6.64-.24s-.34,7.87,0,8.08a34.41,34.41,0,0,0,4.32.24,13.76,13.76,0,0,0,2.26-2.55C64.73,38,63.71,36.85,63,35.86Z"/><path class="76051196-eec1-4540-afb9-13b8b4d2f3f6" d="M60.66,44h0a30.48,30.48,0,0,1-4.37-.26c-.35-.21-.15-5.78-.05-8.16v-.1l6.78.25.1.13c.75,1,1.68,2.22-.12,5.54A13.66,13.66,0,0,1,60.69,44Zm-4.25-8.32c-.12,2.94-.24,7.6,0,7.91a33.76,33.76,0,0,0,4.23.22,14.29,14.29,0,0,0,2.21-2.51c1.74-3.2.85-4.38.14-5.32L62.91,36Z"/><path class="b55d6d81-7aec-4474-a2da-8aa9575e4cdf" d="M71.53,39.68s-1.66,1-3-1c-1.76-2.64-2.18-1.45-2.18-1.45L65.7,36,63,35.86c.75,1,1.23,4.07-1.59,7.52-.12.16-.21.32-.32.45a6.44,6.44,0,0,1-.88.89,4.59,4.59,0,0,0,2.55.53c1.26-.9,1.54-3.11,1.54-3.11a4.82,4.82,0,0,1-.77,3,3.94,3.94,0,0,0,3.45-.42c.65-.41.43-2.58.43-2.58a4.76,4.76,0,0,1,.13,2.8A3.08,3.08,0,0,0,70,44.1c.27-1.55-1.13-3.22-1.13-3.22.92.45,1.55,2.36,1.55,2.36C71.74,42.3,71.53,39.68,71.53,39.68Z"/><path class="6e208913-3d51-42c6-a886-928815d809f5" d="M64.81,45.45a4.28,4.28,0,0,1-1.35-.22l-.12,0,.07-.11a5.77,5.77,0,0,0,.8-2.2,4.34,4.34,0,0,1-1.43,2.45h0a3.18,3.18,0,0,1-.38,0,5,5,0,0,1-2.23-.56L60,44.74l.11-.09a6.44,6.44,0,0,0,.86-.89,1.16,1.16,0,0,0,.16-.21c0-.08.11-.15.17-.23,2.81-3.44,2.28-6.47,1.58-7.4l-.12-.16,3,.11L66.34,37a.48.48,0,0,1,.37-.16c.47,0,1.1.59,1.88,1.76a2.37,2.37,0,0,0,2,1.25,2,2,0,0,0,.93-.23l.13-.08,0,.15c0,.11.2,2.69-1.14,3.65l-.1.08,0-.12a6.52,6.52,0,0,0-.94-1.82,4,4,0,0,1,.7,2.66v0l0,0a3.1,3.1,0,0,1-2.23.88,2.17,2.17,0,0,1-.36,0h-.11l0-.11a5.54,5.54,0,0,0,.1-2c0,.69-.08,1.61-.52,1.89A3.82,3.82,0,0,1,64.81,45.45Zm-1.17-.37a4,4,0,0,0,1.17.17,3.63,3.63,0,0,0,2.07-.61c.5-.31.45-1.9.39-2.49l-.06-.57.25.52a4.62,4.62,0,0,1,.16,2.75h.23a3,3,0,0,0,2.07-.8,4.77,4.77,0,0,0-1.11-3.12l-.3-.35.41.2c.82.4,1.4,1.85,1.56,2.3,1-.83,1-2.72,1-3.25a2.32,2.32,0,0,1-.89.19,2.54,2.54,0,0,1-2.12-1.34c-1-1.46-1.49-1.68-1.72-1.68a.31.31,0,0,0-.29.2l-.07.21-.71-1.37L63.15,36c.66,1.13,1,4.13-1.7,7.48l-.16.22c-.06.08-.11.16-.17.23a6.33,6.33,0,0,1-.77.81,4.81,4.81,0,0,0,2,.47h.33a5.14,5.14,0,0,0,1.47-3l.06-.53.13.52A4.63,4.63,0,0,1,63.64,45.08Z"/><path class="2211f44d-15a6-43e5-8d3f-199972a8e385" d="M64.74,42.87c1.27-3-.32-4.62.32-4.42,1.3.4,2.1,2.93,2.1,2.93a6.15,6.15,0,0,0-1-2.53c-.89-1.17.69-.13,1.29.38,2.13,1.79-.77-1,1.81.46a1,1,0,0,0,.72.16,2.72,2.72,0,0,1-1.5-1.22c-1.75-2.64-2.17-1.45-2.17-1.45L65.71,36,63,35.86a3.67,3.67,0,0,1,.57,2C64.75,38.92,64.74,42.87,64.74,42.87Z"/><path class="81e1c1b1-01dd-471d-a8af-89b2396b1a8d" d="M71.07,40.11a2.68,2.68,0,0,1-.52,2.61,1.91,1.91,0,0,0-1.08-2.65A1.79,1.79,0,0,0,71.07,40.11Z"/><path class="58817517-def9-4f66-ae39-c083faaabb07" d="M66.35,38.85s3.25,1.94,3.47,5.09a2.28,2.28,0,0,1-1.95.7A7.12,7.12,0,0,0,66.35,38.85Z"/><path class="853ef9a9-4742-47c5-8742-e789d85714d4" d="M65.13,38.58A5.94,5.94,0,0,1,67,44.33s-.83,1-3.1.64C63.93,45,66.8,41.63,65.13,38.58Z"/><path class="e87abf1c-08b4-40a9-b509-60bed6d535e7" d="M63.81,38.34s.27,3-3.34,6.31a4.67,4.67,0,0,0,2.08.31S64.89,43.13,63.81,38.34Z"/><path class="81e1c1b1-01dd-471d-a8af-89b2396b1a8d" d="M39.81,40.61A5.34,5.34,0,0,0,38,43.92a1.76,1.76,0,0,1,1.86-.25S37.82,43,39.81,40.61Z"/><path class="45fa6afc-3383-4a55-a17d-5b272a274614" d="M66.35,38.85a1.48,1.48,0,0,1,.23.14,5.8,5.8,0,0,1,.6.42,8.5,8.5,0,0,1,.76.67,5.49,5.49,0,0,1,.4.43,5.9,5.9,0,0,1,.37.47,3.32,3.32,0,0,1,.33.5,4.29,4.29,0,0,1,.28.51l.12.25c0,.09.06.17.09.25a3.1,3.1,0,0,1,.14.47,3.7,3.7,0,0,1,.09.4c0,.12,0,.22,0,.31s0,.27,0,.27l-.06-.26-.06-.31c0-.11-.08-.24-.12-.38s-.11-.29-.17-.45a5.24,5.24,0,0,0-.23-.48c-.08-.17-.18-.32-.28-.49s-.22-.32-.33-.48-.24-.32-.36-.47l-.38-.43-.37-.38-.35-.33c-.22-.19-.41-.36-.55-.46Z"/><path class="45fa6afc-3383-4a55-a17d-5b272a274614" d="M65.13,38.58l.22.17.23.22.28.29c.1.12.2.24.3.38a3.52,3.52,0,0,1,.3.45,4.25,4.25,0,0,1,.27.52c0,.09.08.18.13.27l.1.29a5.5,5.5,0,0,1,.16.58l0,.14,0,.15a2.7,2.7,0,0,0,0,.28,1.31,1.31,0,0,1,0,.28,2.35,2.35,0,0,1,0,.26,2.53,2.53,0,0,1,0,.49,1.62,1.62,0,0,1,0,.4c0,.12,0,.22-.06.31s-.06.27-.06.27,0-.1,0-.27,0-.19,0-.32a1.15,1.15,0,0,0,0-.19v-.21a2.46,2.46,0,0,0,0-.47,2.28,2.28,0,0,1,0-.26,2.48,2.48,0,0,0,0-.27c0-.09,0-.18,0-.28a1.57,1.57,0,0,0-.06-.28,3.87,3.87,0,0,0-.15-.56l-.1-.27c0-.09-.08-.18-.11-.27s-.17-.34-.25-.51-.18-.31-.27-.45-.19-.28-.28-.39a6.87,6.87,0,0,0-.46-.55Z"/><path class="2fab66ed-df52-43cb-b50f-43d546e5d8f8" d="M69.47,40.07l.26,0a4,4,0,0,0,.54.06h.54l.1,0,.09,0h.07l-.06,0a.63.63,0,0,1-.17.1.33.33,0,0,1-.12,0l-.14,0a1.67,1.67,0,0,1-.32,0A1.7,1.7,0,0,1,70,40.3a1.45,1.45,0,0,1-.25-.09A1.05,1.05,0,0,1,69.47,40.07Z"/><path class="90baa947-007d-4f77-b015-114cdc1480b0" d="M63.81,38.34s0,.11.09.29a7.28,7.28,0,0,1,.17.79,3.85,3.85,0,0,1,.07.52,2.77,2.77,0,0,1,0,.3c0,.1,0,.2,0,.3s0,.42,0,.64,0,.45-.07.66a6.23,6.23,0,0,1-.13.65,5.62,5.62,0,0,1-.2.62c0,.09-.07.19-.11.28a1.59,1.59,0,0,1-.14.26,3.42,3.42,0,0,1-.27.47c-.09.13-.18.26-.27.37l-.23.25-.21.22.18-.24.21-.27.23-.38a3,3,0,0,0,.24-.47c0-.09.09-.17.12-.26s.07-.19.1-.29.08-.19.1-.29.05-.2.08-.31.08-.42.13-.63,0-.44.07-.65,0-.42,0-.63A5.72,5.72,0,0,0,64,40a4.22,4.22,0,0,0,0-.52,7.14,7.14,0,0,0-.11-.79Z"/><path class="e87abf1c-08b4-40a9-b509-60bed6d535e7" d="M48.53,44.33A3.47,3.47,0,0,1,47,45a4.72,4.72,0,0,1-1.18-3.88S46.64,43.63,48.53,44.33Z"/><path class="853ef9a9-4742-47c5-8742-e789d85714d4" d="M45.44,40.07a6.49,6.49,0,0,0-1.89,3.87l2.12.71A6,6,0,0,1,45.44,40.07Z"/><path class="58817517-def9-4f66-ae39-c083faaabb07" d="M40.71,43.94a4.4,4.4,0,0,1,2-.27s0-3,1.66-4C44.35,39.64,41.85,40.07,40.71,43.94Z"/><path class="2fab66ed-df52-43cb-b50f-43d546e5d8f8" d="M38,43.92a.74.74,0,0,1,0-.17,3.2,3.2,0,0,1,.06-.44,2.16,2.16,0,0,1,.08-.29c0-.1.06-.2.1-.31a2.41,2.41,0,0,1,.15-.33,3.24,3.24,0,0,1,.17-.32c.06-.11.13-.21.19-.31l.22-.29.21-.25a2.13,2.13,0,0,1,.22-.21,3.4,3.4,0,0,1,.33-.29l.13-.1-.11.12-.12.15-.16.19c-.05.07-.12.14-.18.23l-.2.26c-.06.09-.12.19-.19.28s-.12.21-.19.31l-.17.31c-.05.11-.11.21-.15.31s-.17.4-.23.57a2.86,2.86,0,0,0-.12.42A1.45,1.45,0,0,0,38,43.92Z"/><path class="45fa6afc-3383-4a55-a17d-5b272a274614" d="M40.71,43.94a1.68,1.68,0,0,1,0-.26c0-.08,0-.18,0-.29a3.61,3.61,0,0,1,.1-.38c0-.14.1-.29.16-.44a3.79,3.79,0,0,1,.21-.47,3.4,3.4,0,0,1,.29-.48l.16-.23a2,2,0,0,1,.19-.22,3.13,3.13,0,0,1,.39-.42l.1-.1.12-.09.21-.17.22-.15.22-.12a2.35,2.35,0,0,1,.42-.21,3.64,3.64,0,0,1,.36-.16l.29-.08.25-.08-.24.11-.28.12a2.87,2.87,0,0,0-.34.18,2.33,2.33,0,0,0-.39.23l-.2.14-.11.07-.1.08-.21.17-.1.09-.1.1a4.83,4.83,0,0,0-.38.4l-.18.21-.16.23c-.11.15-.19.31-.29.45s-.17.31-.23.46S41,42.91,41,43a5,5,0,0,0-.22.65Z"/><path class="45fa6afc-3383-4a55-a17d-5b272a274614" d="M43.55,44.08a.89.89,0,0,1,0-.19,4.08,4.08,0,0,1,.05-.51,2.33,2.33,0,0,1,.06-.35,3.42,3.42,0,0,1,.09-.38c0-.12.08-.26.13-.39s.1-.27.16-.4l.09-.19c0-.07.07-.13.1-.19a3.13,3.13,0,0,1,.22-.36,2.49,2.49,0,0,1,.23-.31,2,2,0,0,1,.23-.26,2.08,2.08,0,0,1,.2-.21l.18-.15.15-.12-.13.15-.15.16-.18.23c-.06.08-.13.18-.19.28s-.14.2-.21.32a3.9,3.9,0,0,0-.19.35,1.62,1.62,0,0,0-.1.18l-.09.2a8,8,0,0,0-.3.76c0,.13-.08.25-.11.36a2.77,2.77,0,0,0-.09.33c-.05.21-.1.38-.12.5Z"/><path class="90baa947-007d-4f77-b015-114cdc1480b0" d="M45.8,41.08v.18a2.57,2.57,0,0,0,0,.47c0,.1,0,.2,0,.31s0,.23.05.34,0,.12,0,.19,0,.11,0,.18.07.24.1.37.09.24.13.36.09.23.14.34.11.21.15.31l.15.27c.06.09.09.17.14.23l.11.18L47,45l-.13-.13-.14-.16a2.26,2.26,0,0,1-.16-.21,1.7,1.7,0,0,1-.18-.26,3.14,3.14,0,0,1-.18-.31,3.78,3.78,0,0,1-.17-.35c0-.12-.09-.24-.13-.37a2.79,2.79,0,0,1-.1-.39,2.38,2.38,0,0,1-.06-.37c0-.13,0-.25,0-.36s0-.22,0-.32a3.88,3.88,0,0,1,.06-.48A1.37,1.37,0,0,1,45.8,41.08Z"/><path class="a80f3f4c-ac25-43f7-996f-33cd1b440ada" d="M45.58,34.46s.32,10.27,9,10.26c8.35,0,8.78-8.34,8.78-8.34l.24-1.92Z"/><path class="7defc77c-1f32-4980-816e-b70617cfa958" d="M54.6,44.82h0a8.23,8.23,0,0,1-7.86-5.19,15.62,15.62,0,0,1-1.26-5.16v-.1H63.73l-.25,2C63.48,36.47,63,44.82,54.6,44.82ZM45.69,34.56a14.78,14.78,0,0,0,1.23,5,7.93,7.93,0,0,0,7.68,5.07v0A7.9,7.9,0,0,0,62,40.51a10.7,10.7,0,0,0,1.25-4.13l.22-1.82Z"/><path class="ab2eb55e-548f-4999-a1be-b63197f0a181" d="M50.77,40.27s.21.36,1.1,0a10.19,10.19,0,0,1,3.57-.49c1.13,0,2.68.4,3.11-.12a3,3,0,0,0-.35,1.07A2.78,2.78,0,0,1,55.33,43c-2.11.08-3-.78-3.35-1.35S50.83,40.77,50.77,40.27Z"/><path class="7defc77c-1f32-4980-816e-b70617cfa958" d="M55.06,43.12c-2,0-2.84-.88-3.15-1.41a2.8,2.8,0,0,0-.61-.63c-.3-.25-.58-.49-.62-.8a.1.1,0,0,1,.07-.1.1.1,0,0,1,.1,0s.08.12.34.12a1.66,1.66,0,0,0,.65-.16,10.08,10.08,0,0,1,3.26-.49h.34c.3,0,.64.05,1,.08s.8.08,1.15.08.79-.08.93-.25a.09.09,0,0,1,.14.11,3,3,0,0,0-.33,1,2.85,2.85,0,0,1-3,2.36ZM51,40.49a2.82,2.82,0,0,0,.46.45,2.8,2.8,0,0,1,.65.68c.31.51,1.15,1.39,3.27,1.31a2.68,2.68,0,0,0,2.78-2.21,4,4,0,0,1,.21-.8,2.25,2.25,0,0,1-.77.11c-.36,0-.77,0-1.17-.08s-.65-.07-1-.08H55.1a9.57,9.57,0,0,0-3.19.48,2.05,2.05,0,0,1-.72.17A.83.83,0,0,1,51,40.49Z"/><path class="02ae3fbf-570c-486e-9985-707ba9e673ca" d="M62.38,40.06c-.17.34-.29.55-.29.55A3.26,3.26,0,0,0,62.38,40.06Z"/><path class="cd84156a-3ea7-4921-a119-3e1187465685" d="M63.38,36.78l-8.16-2.92-3.5,2.29L46,37.49a7.6,7.6,0,0,0,1.11,2.71c-.21-.74-.15-1.38.52-1.62,2-.69,4.18-1,5.15-2.52a1.89,1.89,0,0,1,3.14-.44l0,0-.33,0s.24.93.31,1.46c0,0,.05-1.09.7-.84.14.11.28.2.44.31h0a10.8,10.8,0,0,0,3.75,1.52c1.63.27,1.88,1.13,1.55,2A10.28,10.28,0,0,0,63.38,36.78Z"/><path class="7defc77c-1f32-4980-816e-b70617cfa958" d="M55.72,38.58l-.15.07c-.1,0-.24.09-.41.13a4.1,4.1,0,0,1-.6.14,2.14,2.14,0,0,1-.36,0,1.21,1.21,0,0,1-.37-.11,1,1,0,0,1-.3-.23.89.89,0,0,1-.18-.33,1.36,1.36,0,0,1-.06-.33v-.16a.68.68,0,0,1,0-.14,1.5,1.5,0,0,1,0-.24,1.89,1.89,0,0,1,.06-.18l.05-.16s0,.06,0,.16a1.11,1.11,0,0,0,0,.19.92.92,0,0,0,0,.24v.13s0,.1,0,.15a1.15,1.15,0,0,0,.08.29.84.84,0,0,0,.06.14,1.25,1.25,0,0,0,.09.12.7.7,0,0,0,.26.19,1.24,1.24,0,0,0,.31.1,1.77,1.77,0,0,0,.32,0l.32,0,.28,0,.42-.08Z"/><path class="cd84156a-3ea7-4921-a119-3e1187465685" d="M53.21,35.86S53,37.7,53,38.35c0,1.31,2.47,1.31,2.75.23,0,0-1.67.68-2.28-.3-.26-.43.24-2,.24-2.73C53.68,35.55,53.41,35.71,53.21,35.86Z"/><path class="3d99cb73-a84c-4313-97f5-ff256946cb16" d="M54.42,35.4c2.26-.15,6.83,4.45,13.22,1.89,0,0,3.83-5.68-.23-14.48s-18.31-9-23.54-2.34a16.24,16.24,0,0,0-1.76,16.77S44.24,39,48.43,38C53.16,36.81,52.53,35.52,54.42,35.4Z"/><path class="2a4be4a3-d4a8-4b25-930d-5641ec5a2810" d="M45.89,38.37h0a6.35,6.35,0,0,1-3.84-1l0,0c-1.34-2.2-3.4-10.28,1.77-16.88,2.31-2.94,6.46-4.7,11.1-4.7s10.19,1.85,12.6,7.07c4,8.73.25,14.5.21,14.56v0h0a10.73,10.73,0,0,1-4,.78,15.57,15.57,0,0,1-6.51-1.77,7,7,0,0,0-2.78-.9,2.5,2.5,0,0,0-1.6.67,10.48,10.48,0,0,1-4.39,1.89A11,11,0,0,1,45.89,38.37Zm-3.71-1.19a6.21,6.21,0,0,0,3.71,1,10.63,10.63,0,0,0,2.51-.31A10.22,10.22,0,0,0,52.72,36a2.76,2.76,0,0,1,1.7-.7,7.1,7.1,0,0,1,2.87.91A15.28,15.28,0,0,0,63.72,38a10.47,10.47,0,0,0,3.86-.75c.25-.4,3.61-6-.25-14.37-2.37-5.13-8-7-12.43-7s-8.69,1.73-11,4.63A16.21,16.21,0,0,0,42.18,37.18Z"/><path class="98887e9c-2c27-4956-bc2c-68a63ab9b05b" d="M67.64,37.29s3.53-5.23.23-13.43a2.08,2.08,0,0,0,.12.51c.94,2.64.63,5.4-1.43,4.13-3.21-2-6.72-1.95-9.52.25s-1.32,6.38-1.32,6.38a3.08,3.08,0,0,0,.31.64C58.56,36.79,62.51,39.34,67.64,37.29Z"/><path class="98887e9c-2c27-4956-bc2c-68a63ab9b05b" d="M52.08,29.13a8.6,8.6,0,0,0-9.54-.24c-1,.56-1.57.28-1.81-.42a13.54,13.54,0,0,0,1.38,8.64S44,38.92,48.48,38a10.06,10.06,0,0,0,4.13-1.76,4.28,4.28,0,0,0,.8-1.23S54.89,31.14,52.08,29.13Z"/><g class="fc996659-b94a-470c-83c7-418e5fd63816"><path class="95ce1adf-cfa5-42ae-b467-a28b941af3ad" d="M67.64,37.29s3.53-5.23.23-13.43a2.08,2.08,0,0,0,.12.51c.94,2.64.63,5.4-1.43,4.13-3.21-2-6.72-1.95-9.52.25s-1.32,6.38-1.32,6.38a3.08,3.08,0,0,0,.31.64C58.56,36.79,62.51,39.34,67.64,37.29Z"/></g><path class="02b05689-6a04-4446-b31b-30f5a24c5490" d="M53.13,29.32s0,.09.1.25.15.39.23.67.08.3.12.46.08.33.11.51a5.21,5.21,0,0,1,.09.57,5.67,5.67,0,0,1,0,.58,5.81,5.81,0,0,1,0,.59,5.09,5.09,0,0,1,0,.56c0,.19,0,.36-.09.53s-.09.32-.13.46-.11.26-.16.37l0,.08a.43.43,0,0,0,0,.07l-.08.12-.14.23.11-.25L53.3,35l0-.08a.31.31,0,0,1,0-.08c0-.11.08-.24.13-.37s.06-.3.09-.46,0-.34.07-.51,0-.37,0-.56,0-.38,0-.57,0-.39,0-.57,0-.19,0-.28a2.36,2.36,0,0,0,0-.28c-.05-.35-.11-.69-.17-1l-.09-.39-.07-.3Z"/><path class="57a8a6d3-66d0-43e7-b1ef-d31e0f741def" d="M41.19,25.67a19.18,19.18,0,0,1,13,4.1s3.44-4.3,14-5c0,0-1.25-3.8-3.68-5.72,0,0-6-1-10.38,7.53,0,0-2.25-6.8-7.79-8.41C46.38,18.18,42.75,20.09,41.19,25.67Z"/><path class="749b083a-24db-44ea-9807-1ed67d433f68" d="M65,19.5c-.06,0-5.94-.28-10.79,7.09,0,0-3.07-6.56-8.75-7.77a10.6,10.6,0,0,0-1.63,1.65,15.53,15.53,0,0,0-2.52,4.7c7.52-.84,13,4.6,13,4.6,3.61-4.08,10.06-5.14,13.76-5.4-.19-.51-.41-1-.65-1.56A10.94,10.94,0,0,0,65,19.5Z"/><path class="8f51c38b-50eb-4508-9e35-74f4a17cd2a8" d="M54.23,29.91l-.07-.07a17.58,17.58,0,0,0-11.3-4.66c-.53,0-1.06,0-1.58.08l-.14,0,0-.13a15.49,15.49,0,0,1,2.53-4.74,10.65,10.65,0,0,1,1.64-1.65l0,0h0A12.18,12.18,0,0,1,52,23.1a19.14,19.14,0,0,1,2.18,3.31c4.45-6.67,9.67-7,10.68-7H65l0,0a11,11,0,0,1,2.4,3.35c.24.51.46,1,.65,1.56l.05.11H68c-3.57.25-10.09,1.29-13.71,5.37ZM42.86,25a17.79,17.79,0,0,1,11.36,4.64c3.63-4,10-5.08,13.64-5.35q-.27-.72-.6-1.44a10.9,10.9,0,0,0-2.34-3.27h-.06a9.79,9.79,0,0,0-3.92,1,16.31,16.31,0,0,0-6.7,6.08l-.09.13-.06-.14c0-.07-3.1-6.51-8.64-7.71a10,10,0,0,0-1.59,1.6,15.46,15.46,0,0,0-2.46,4.55A14.13,14.13,0,0,1,42.86,25Z"/><path class="b9467815-b6fb-41b4-8f10-cc02b7c736cf" d="M54.23,27.85a16.05,16.05,0,0,0-12.18-4.62c-.16.34-.32.71-.46,1.07,7.52-.84,12.64,4.59,12.64,4.59,3.61-4.09,11.18-5.76,13.4-5.4-.12-.33-.3-.67-.45-1C64.41,22.2,57.71,23.91,54.23,27.85Z"/><path class="34b1e947-97f5-428a-86ac-5b56f28921c3" d="M56.31,34.44A4,4,0,0,1,59,30a5.94,5.94,0,0,1,5.4.53s1.28,3.17-.91,5.46C62.47,37,57.13,37.29,56.31,34.44Z"/><path class="2a848094-e5d4-4b0e-b568-fefb1a8e9772" d="M56.85,33.68a4,4,0,0,1,2.65-4.46,6,6,0,0,1,5.4.53s1.27,3.17-.91,5.46C63,36.23,57.67,36.53,56.85,33.68Z"/><path class="34b1e947-97f5-428a-86ac-5b56f28921c3" d="M52.9,34.44A4,4,0,0,0,50.25,30a6,6,0,0,0-5.41.53s-1.27,3.17.92,5.46C46.73,37,52.07,37.29,52.9,34.44Z"/><path class="2a848094-e5d4-4b0e-b568-fefb1a8e9772" d="M52.26,33.68a4,4,0,0,0-2.65-4.46,6,6,0,0,0-5.4.53s-1.27,3.17.91,5.46C46.09,36.23,51.44,36.53,52.26,33.68Z"/><path class="1ba29929-d2b6-4d28-bdfb-6773f0f1a5f2" d="M54,26.59s6.07-5.35,12.35-5.35c-4.94-7.22-17.75-7-22.65-.77l-.22.29C47.35,21.3,51.34,22.87,54,26.59Z"/><g class="e4c56abe-b560-475a-a750-fb2b75886e18"><path class="95ce1adf-cfa5-42ae-b467-a28b941af3ad" d="M54.91,29.77c-4.1-3.16-9.28-4.11-13.65-4.26a16.29,16.29,0,0,0,.85,11.8s2.13,1.74,6.32.72c4.73-1.16,4.1-2.44,6-2.57,2.26-.15,6.83,4.45,13.22,1.9,0,0,3.17-4.7.69-12.17C61.58,24.36,54.91,29.77,54.91,29.77Z"/></g><path class="a80f3f4c-ac25-43f7-996f-33cd1b440ada" d="M64.36,30.76a7,7,0,0,1-.46,4.55c-.82,1.31-4,1.31-5.62.59-1.74-.8-2.39-2.59,0-4.66C60.47,29.35,64.36,30.76,64.36,30.76Z"/><path class="cbed17be-6c65-4e1f-9ff4-05927f6dd25a" d="M60.89,36.48a6.77,6.77,0,0,1-2.65-.5,2.49,2.49,0,0,1-1.59-1.84c-.1-.66.1-1.7,1.57-3a4.68,4.68,0,0,1,3.16-1,9.94,9.94,0,0,1,3,.51h0l0,0A7,7,0,0,1,64,35.36C63.54,36.06,62.39,36.48,60.89,36.48Zm.49-6.13a4.5,4.5,0,0,0-3,1c-1.11,1-1.64,1.92-1.51,2.79a2.33,2.33,0,0,0,1.48,1.7,6.58,6.58,0,0,0,2.57.48c1.43,0,2.53-.39,2.93-1a7.1,7.1,0,0,0,.48-4.42A9.86,9.86,0,0,0,61.38,30.35Z"/><path class="02ae3fbf-570c-486e-9985-707ba9e673ca" d="M64.36,30.76s-3.89-1.41-6.08.48c-2.39,2.07-1.74,3.86,0,4.66,1.59.72,4.8.72,5.62-.59A7,7,0,0,0,64.36,30.76Zm-1,4.48c-.72,1.15-3.54,1.15-4.94.51s-2.1-2.27,0-4.09c1.93-1.67,5.35-.43,5.35-.43A6.22,6.22,0,0,1,63.34,35.24Z"/><path class="a80f3f4c-ac25-43f7-996f-33cd1b440ada" d="M44.91,30.76a7,7,0,0,0,.46,4.55c.83,1.31,4,1.31,5.62.59s2.39-2.59,0-4.66C48.8,29.35,44.91,30.76,44.91,30.76Z"/><path class="cbed17be-6c65-4e1f-9ff4-05927f6dd25a" d="M48.38,36.48h0c-1.5,0-2.65-.42-3.09-1.12a7.07,7.07,0,0,1-.46-4.66l0,0h0a9.76,9.76,0,0,1,3-.51,4.68,4.68,0,0,1,3.16,1c1.47,1.27,1.67,2.31,1.58,3A2.5,2.5,0,0,1,51,36,6.77,6.77,0,0,1,48.38,36.48ZM45,30.84a7.25,7.25,0,0,0,.48,4.42c.41.64,1.5,1,2.93,1h0A6.58,6.58,0,0,0,51,35.81a2.31,2.31,0,0,0,1.48-1.7c.13-.87-.39-1.83-1.5-2.79a4.51,4.51,0,0,0-3-1A9.86,9.86,0,0,0,45,30.84Z"/><path class="2161106f-e25b-4e15-b936-ded0615dc60b" d="M45.37,35.35c.83,1.31,4,1.31,5.62.58s2.39-2.58,0-4.65c-2.19-1.89-6.08-.48-6.08-.48A7,7,0,0,0,45.37,35.35Zm.15-4.08S49,30,50.87,31.7c2.11,1.82,1.53,3.39,0,4.09s-4.22.64-4.94-.51A6.28,6.28,0,0,1,45.52,31.27Z"/><path class="2161106f-e25b-4e15-b936-ded0615dc60b" d="M46.75,32.35s2.14-1.51,4.52.78A3.43,3.43,0,0,0,49,31.28C47.48,31.08,46.81,31.81,46.75,32.35Z"/><path class="b55d6d81-7aec-4474-a2da-8aa9575e4cdf" d="M51.5,32.77a5.75,5.75,0,0,0-3-1.93,2,2,0,0,0-2.17.83,2,2,0,0,1,.62-.15,1.24,1.24,0,0,0-.23.83s.34-.82,1.78-.86a3.33,3.33,0,0,1,2.74,1.64S50.82,32.05,51.5,32.77Z"/><path class="6e208913-3d51-42c6-a886-928815d809f5" d="M51.5,32.77h0v0l0,0-.07-.07-.12-.14L51,32.23c-.19-.17-.39-.33-.59-.49A5,5,0,0,0,49.08,31l-.36-.1a2.5,2.5,0,0,0-.38-.06h-.55l-.18,0a1.77,1.77,0,0,0-.67.29,2.09,2.09,0,0,0-.28.24,1.86,1.86,0,0,0-.22.27l-.11-.12.31-.11a.86.86,0,0,1,.17,0l.17,0a.08.08,0,0,1,.09.08.07.07,0,0,1,0,.06h0a.81.81,0,0,0-.1.18,1.54,1.54,0,0,0-.08.19l0,.1a.31.31,0,0,0,0,.1.28.28,0,0,0,0,.09v.09h-.17a1.34,1.34,0,0,1,.21-.3,1.93,1.93,0,0,1,.28-.22,1.19,1.19,0,0,1,.15-.09l.16-.07.17-.07.17,0a3.43,3.43,0,0,1,.34-.06l.34,0a1.9,1.9,0,0,1,.34,0,1.86,1.86,0,0,1,.34.06,1.59,1.59,0,0,1,.33.1l.31.14.3.17a2.69,2.69,0,0,1,.27.2c.09.08.18.14.26.22l.24.25a2.19,2.19,0,0,1,.39.55h0l-.09-.25a1.19,1.19,0,0,1-.05-.26.17.17,0,0,1,0-.07s0,0,0,0a.34.34,0,0,1,.12.06Zm0,0c-.07-.06-.13-.13-.2-.18a.17.17,0,0,0-.12-.06s0,0,0,0a.17.17,0,0,0,0,.07,1.19,1.19,0,0,0,0,.26l.09.25h0a3,3,0,0,0-.4-.53c-.08-.09-.16-.16-.24-.24l-.27-.21a4.94,4.94,0,0,0-.57-.34l-.31-.12c-.11,0-.21-.07-.32-.09l-.32,0H48.5l-.33,0a3,3,0,0,0-.32.07l-.16,0-.15.07-.15.07-.13.09a1.5,1.5,0,0,0-.25.19,1.23,1.23,0,0,0-.17.25h0a.09.09,0,0,1-.12,0,.12.12,0,0,1-.05-.07v-.13a.48.48,0,0,1,0-.12.5.5,0,0,1,0-.12s0-.08,0-.12l0-.11a.93.93,0,0,0,.05-.1,2.25,2.25,0,0,1,.12-.21l.08.15-.15,0-.14,0a2.46,2.46,0,0,0-.29.09h0a.1.1,0,0,1-.11-.05.08.08,0,0,1,0-.08,2,2,0,0,1,.25-.32,2.6,2.6,0,0,1,.31-.25,2.31,2.31,0,0,1,.35-.18,2.38,2.38,0,0,1,.38-.11l.19,0h.4l.19,0a2.57,2.57,0,0,1,.38.08l.36.12a5.22,5.22,0,0,1,1.32.76,7.2,7.2,0,0,1,.58.5l.27.27.13.15.06.07,0,0v0h0Z"/><path class="c8ad60c3-7f4a-43d6-b420-7662b3c18d93" d="M47,31.36l.07-.08a1,1,0,0,1,.37-.25l.2-.07c.07,0,.14,0,.21,0h.23l.22,0,.21,0a1.17,1.17,0,0,1,.2.06l.17.06.24.11.09,0-.1,0-.26-.06-.17,0-.19,0-.2,0-.22,0h-.2l-.21,0-.18.05-.17.05-.13.06-.1.06Z"/><path class="fff5803c-bf99-4e89-85ac-2161e7b88b77" d="M46.36,33.06l.17,0a3.57,3.57,0,0,0,.41-.13l.26-.12.27-.16.07,0,.08,0a.8.8,0,0,1,.16-.08,1.91,1.91,0,0,1,.36-.13,2.23,2.23,0,0,1,.36,0,1.44,1.44,0,0,1,.36,0l.33,0a2.45,2.45,0,0,1,.29.08l.23.08.17.09.15.09-.16,0-.18-.06-.24,0a1.18,1.18,0,0,0-.28,0,1.67,1.67,0,0,0-.32,0,1.82,1.82,0,0,0-.33,0c-.12,0-.23,0-.34.05l-.32.11-.16.08-.07,0-.08,0-.15.09-.15.06L47,33a1.7,1.7,0,0,1-.44.07Z"/><path class="2161106f-e25b-4e15-b936-ded0615dc60b" d="M51.51,34.49a2.85,2.85,0,0,0-3.13-2.39A1.9,1.9,0,0,0,46.5,34c0,1,.81,1.67,2.13,1.68C50.75,35.72,51.49,34.57,51.51,34.49Z"/><path class="fff5803c-bf99-4e89-85ac-2161e7b88b77" d="M46.18,33.77l.15-.07.16-.11.09-.07.09-.08a2.15,2.15,0,0,0,.19-.22c.07-.08.12-.16.2-.26a.71.71,0,0,1,.12-.13.53.53,0,0,1,.14-.12,2.9,2.9,0,0,1,.33-.2l.35-.13.36-.07.33,0a1.42,1.42,0,0,1,.3,0,2.57,2.57,0,0,1,.44.09l.16.06-.17,0-.19,0H48.7l-.32,0-.33.08a2.26,2.26,0,0,0-.33.13,1.22,1.22,0,0,0-.29.17.45.45,0,0,0-.13.1l-.12.11c-.07.09-.15.17-.22.25a1.9,1.9,0,0,1-.22.2l-.11.08-.11.06a.91.91,0,0,1-.18.08A.48.48,0,0,1,46.18,33.77Z"/><path class="e3903399-7041-42db-b9d9-f9b9621f7a97" d="M48.93,35.7c1.1,0,2.24-1,2.24-1.51a2.21,2.21,0,0,0-2.09-1.81,1.87,1.87,0,0,0-2.23,2.49C47.37,35.86,48.93,35.7,48.93,35.7Z"/><path class="a8813338-3713-4348-bf57-b3d6e5d4a5b6" d="M50.71,33.83a1.51,1.51,0,1,1-1.51-1.46A1.48,1.48,0,0,1,50.71,33.83Z"/><path class="b102228c-9578-4656-bc19-0e6cabe82a57" d="M49.2,35.36a1.53,1.53,0,1,1,1.59-1.53A1.57,1.57,0,0,1,49.2,35.36Zm0-2.92a1.39,1.39,0,1,0,1.44,1.39A1.42,1.42,0,0,0,49.2,32.44Z"/><g class="a7dc4efe-2187-4533-b7bc-5246434db42e"><path class="b55d6d81-7aec-4474-a2da-8aa9575e4cdf" d="M49.2,32.37a1.52,1.52,0,0,0-1.49,1.18h0s.39-.91,1.15-.85S48,33,48.21,34a1,1,0,0,0,1.68.4c.34-.43.39.88-1,.83a1.34,1.34,0,0,0,.35,0,1.46,1.46,0,1,0,0-2.92Z"/></g><path class="d53c2720-1219-4f6b-be00-67b06cb3091c" d="M50,33.83A.82.82,0,1,1,49.2,33,.8.8,0,0,1,50,33.83Z"/><path d="M49.75,33.83a.54.54,0,0,1-.55.53.53.53,0,1,1,0-1.06A.54.54,0,0,1,49.75,33.83Z"/><path class="2ae13d85-3150-4e06-9274-eca6bdf6493f" d="M50.52,33.37a.69.69,0,1,1-.69-.67A.68.68,0,0,1,50.52,33.37Z"/><path class="dd18cf87-9b64-4a89-848c-e64c21e8086f" d="M48,33.77s.18,1.27,1.27,1.1c.48-.08,0,.37-.6.22C47.71,34.86,47.71,33.48,48,33.77Z"/><path class="ce65b0b4-8ddb-4b46-abe8-c57d4aff6414" d="M49.08,32.38a1.88,1.88,0,0,0-2.24,2.49c.53,1,2.08.83,2.08.83,1.11,0,2.25-1,2.25-1.51A2.23,2.23,0,0,0,49.08,32.38Zm-.71,3a1.42,1.42,0,0,1-1.2-1.68,1.93,1.93,0,0,1,2.08-1.11c1.2.24,2,1.59,1.52,2.19A2.39,2.39,0,0,1,48.37,35.37Z"/><path class="fff5803c-bf99-4e89-85ac-2161e7b88b77" d="M51.25,34.47a2,2,0,0,0-.08-.28,1.17,1.17,0,0,0-.12-.3,2.25,2.25,0,0,0-.52-.75,1.76,1.76,0,0,0-.43-.33,2.11,2.11,0,0,0-.54-.22,1.36,1.36,0,0,0-.29-.06l-.15,0h-.45l-.3,0a2.49,2.49,0,0,0-.53.16,2.62,2.62,0,0,0-.43.27,2.1,2.1,0,0,0-.33.34l-.12.17-.1.17-.15.29-.08.2,0,.07h0s0,0,0,0v-.07c0-.06,0-.13,0-.22a3,3,0,0,1,.07-.34,2.41,2.41,0,0,1,.18-.42,2.2,2.2,0,0,1,.33-.44,1.76,1.76,0,0,1,.52-.35,2,2,0,0,1,.64-.15,1.88,1.88,0,0,1,.33,0l.33,0,.17,0,.16,0a1.77,1.77,0,0,1,.31.08,2.23,2.23,0,0,1,.58.28,2.08,2.08,0,0,1,.44.39,1.87,1.87,0,0,1,.3.43,3.52,3.52,0,0,1,.19.4,3.29,3.29,0,0,1,.09.32,1.28,1.28,0,0,1,.05.29s0,0,0,0Z"/><path class="2161106f-e25b-4e15-b936-ded0615dc60b" d="M62.36,32.35s-2.14-1.51-4.52.78a3.43,3.43,0,0,1,2.29-1.85C61.62,31.08,62.3,31.81,62.36,32.35Z"/><path class="b55d6d81-7aec-4474-a2da-8aa9575e4cdf" d="M57.62,32.77a5.64,5.64,0,0,1,3-1.93,2,2,0,0,1,2.16.83,1.94,1.94,0,0,0-.61-.15,1.24,1.24,0,0,1,.23.83s-.34-.82-1.78-.86a3.33,3.33,0,0,0-2.74,1.64S58.29,32.05,57.62,32.77Z"/><path class="6e208913-3d51-42c6-a886-928815d809f5" d="M57.62,32.77h0v0l0,0,.06-.07.13-.15.27-.27c.18-.17.37-.34.57-.5A5.59,5.59,0,0,1,60,31a2.65,2.65,0,0,1,.37-.12,2.33,2.33,0,0,1,.38-.08l.19,0h.39l.2,0a2.38,2.38,0,0,1,.38.11,2.31,2.31,0,0,1,.35.18l.31.25a2,2,0,0,1,.25.32.09.09,0,0,1,0,.12h-.08a2.46,2.46,0,0,0-.29-.09l-.14,0-.15,0,.08-.15.12.21a1,1,0,0,1,0,.1l0,.11a.53.53,0,0,1,0,.12.25.25,0,0,1,0,.12.48.48,0,0,1,0,.12v.13a.1.1,0,0,1-.1.08.11.11,0,0,1-.07-.06h0a1,1,0,0,0-.18-.25,1.12,1.12,0,0,0-.24-.19,1.1,1.1,0,0,0-.14-.09l-.14-.07-.15-.07-.16,0a3,3,0,0,0-.32-.07l-.33,0h-.33l-.32,0a3,3,0,0,0-.32.09,2.85,2.85,0,0,0-.31.12,4.94,4.94,0,0,0-.57.34l-.26.21a2.83,2.83,0,0,0-.25.24,3,3,0,0,0-.4.53h0l.09-.25a1.19,1.19,0,0,0,0-.26v-.07a0,0,0,0,0-.06,0,.17.17,0,0,0-.11.06A1.62,1.62,0,0,0,57.62,32.77Zm0,0,.19-.19a.39.39,0,0,1,.11-.06,0,0,0,0,1,.06,0,.17.17,0,0,1,0,.07,1.19,1.19,0,0,1-.05.26l-.09.25h0a2.19,2.19,0,0,1,.39-.55l.24-.25.25-.22c.1-.07.18-.14.28-.2l.29-.17.32-.14a1.59,1.59,0,0,1,.33-.1,1.86,1.86,0,0,1,.34-.06,1.9,1.9,0,0,1,.34,0l.34,0a3.43,3.43,0,0,1,.34.06l.17,0,.16.07.17.07a1.19,1.19,0,0,1,.15.09,1.44,1.44,0,0,1,.27.22,1.11,1.11,0,0,1,.22.3h-.17v-.09s0-.06,0-.09a.31.31,0,0,0,0-.1l0-.1a1.54,1.54,0,0,0-.08-.19,1.51,1.51,0,0,0-.09-.18h0a.08.08,0,0,1,0-.12l.06,0,.17,0a1,1,0,0,1,.17,0l.31.11-.11.12a1.86,1.86,0,0,0-.22-.27,2.09,2.09,0,0,0-.28-.24,1.77,1.77,0,0,0-.67-.29l-.18,0h-.56l-.37.06L60,31a5.16,5.16,0,0,0-1.33.71c-.2.16-.4.32-.59.49l-.27.27-.12.14-.07.07,0,0v0h0Z"/><path class="c8ad60c3-7f4a-43d6-b420-7662b3c18d93" d="M62.12,31.36,62,31.3l-.1-.06-.14-.06-.16-.05-.18-.05-.21,0H61l-.21,0-.2,0-.19,0-.18,0-.25.06-.1,0,.09,0,.24-.11.17-.06A1.39,1.39,0,0,1,60.6,31l.22,0,.22,0h.23c.07,0,.14,0,.21,0l.2.07a1,1,0,0,1,.37.25Z"/><path class="fff5803c-bf99-4e89-85ac-2161e7b88b77" d="M62.74,33.06l-.16,0a3.57,3.57,0,0,1-.41-.13l-.26-.12-.27-.16-.07,0-.08,0-.16-.08a1.69,1.69,0,0,0-.73-.18,1.37,1.37,0,0,0-.35,0l-.33,0a2,2,0,0,0-.29.08l-.23.08-.17.09-.15.09.16,0,.18-.06.24,0a1.18,1.18,0,0,1,.28,0,1.56,1.56,0,0,1,.31,0,1.93,1.93,0,0,1,.34,0c.12,0,.23,0,.34.05l.32.11.16.08.07,0,.08,0,.15.09.15.06.28.09a1.7,1.7,0,0,0,.44.07Z"/><path class="2161106f-e25b-4e15-b936-ded0615dc60b" d="M57.6,34.49a2.84,2.84,0,0,1,3.13-2.39A1.9,1.9,0,0,1,62.61,34c0,1-.81,1.67-2.13,1.68C58.36,35.72,57.62,34.57,57.6,34.49Z"/><path class="fff5803c-bf99-4e89-85ac-2161e7b88b77" d="M62.93,33.77l-.15-.07-.16-.11-.09-.07-.09-.08c-.07-.06-.12-.14-.2-.22L62.05,33a.71.71,0,0,0-.12-.13l-.14-.12a2.9,2.9,0,0,0-.33-.2l-.35-.13-.36-.07-.33,0a1.42,1.42,0,0,0-.3,0,2.37,2.37,0,0,0-.44.09l-.16.06.17,0,.19,0h.53l.32,0,.33.08a1.79,1.79,0,0,1,.32.13,1.11,1.11,0,0,1,.3.17.45.45,0,0,1,.13.1l.12.11.21.25a1.37,1.37,0,0,0,.23.2l.11.08.11.06a.85.85,0,0,0,.17.08A.56.56,0,0,0,62.93,33.77Z"/><path class="e3903399-7041-42db-b9d9-f9b9621f7a97" d="M60.18,35.7c-1.1,0-2.25-1-2.25-1.51A2.23,2.23,0,0,1,60,32.38a1.87,1.87,0,0,1,2.23,2.49C61.74,35.86,60.18,35.7,60.18,35.7Z"/><path class="a8813338-3713-4348-bf57-b3d6e5d4a5b6" d="M61.42,33.83a1.52,1.52,0,1,1-1.51-1.46A1.49,1.49,0,0,1,61.42,33.83Z"/><path class="b102228c-9578-4656-bc19-0e6cabe82a57" d="M59.91,35.36a1.53,1.53,0,1,1,1.58-1.53A1.56,1.56,0,0,1,59.91,35.36Zm0-2.92a1.39,1.39,0,1,0,1.44,1.39A1.41,1.41,0,0,0,59.91,32.44Z"/><g class="a7dc4efe-2187-4533-b7bc-5246434db42e"><path class="b55d6d81-7aec-4474-a2da-8aa9575e4cdf" d="M59.91,32.37a1.51,1.51,0,0,0-1.49,1.18h0s.4-.91,1.16-.85-.92.25-.66,1.32a1,1,0,0,0,1.68.4c.34-.43.39.88-1,.83a1.34,1.34,0,0,0,.35,0,1.46,1.46,0,1,0,0-2.92Z"/></g><path class="d53c2720-1219-4f6b-be00-67b06cb3091c" d="M60.73,33.83a.82.82,0,1,1-.82-.79A.8.8,0,0,1,60.73,33.83Z"/><path d="M60.46,33.83a.54.54,0,0,1-.55.53.53.53,0,1,1,0-1.06A.54.54,0,0,1,60.46,33.83Z"/><path class="2ae13d85-3150-4e06-9274-eca6bdf6493f" d="M61.23,33.37a.69.69,0,1,1-.69-.67A.68.68,0,0,1,61.23,33.37Z"/><path class="dd18cf87-9b64-4a89-848c-e64c21e8086f" d="M58.67,33.77s.18,1.27,1.26,1.1c.49-.08,0,.37-.59.22C58.42,34.86,58.42,33.48,58.67,33.77Z"/><path class="ce65b0b4-8ddb-4b46-abe8-c57d4aff6414" d="M57.94,34.19c0,.55,1.14,1.52,2.25,1.51,0,0,1.55.16,2.07-.83s-.32-2.74-2.23-2.49A2.23,2.23,0,0,0,57.94,34.19Zm.4.58c-.46-.6.32-2,1.51-2.19a1.93,1.93,0,0,1,2.09,1.11,1.42,1.42,0,0,1-1.2,1.68A2.39,2.39,0,0,1,58.34,34.77Z"/><path class="fff5803c-bf99-4e89-85ac-2161e7b88b77" d="M57.86,34.47s0-.11.07-.28a1.82,1.82,0,0,1,.13-.3,2.25,2.25,0,0,1,.52-.75,1.76,1.76,0,0,1,.43-.33,2,2,0,0,1,.54-.22,1.36,1.36,0,0,1,.29-.06l.15,0h.45l.3,0a2.49,2.49,0,0,1,.53.16,2.62,2.62,0,0,1,.43.27,2.1,2.1,0,0,1,.33.34,1,1,0,0,1,.12.17l.1.17.15.29.08.2,0,.07h0s0,0,0,0v-.07c0-.06,0-.13,0-.22a3,3,0,0,0-.07-.34,2.41,2.41,0,0,0-.18-.42,1.87,1.87,0,0,0-.33-.44,1.9,1.9,0,0,0-.52-.35,2,2,0,0,0-.65-.15,1.72,1.72,0,0,0-.32,0l-.33,0-.17,0-.16,0a1.77,1.77,0,0,0-.31.08,2.39,2.39,0,0,0-.58.28,2.08,2.08,0,0,0-.44.39,2.31,2.31,0,0,0-.31.43c-.07.14-.13.28-.18.4a3.29,3.29,0,0,0-.09.32,1.28,1.28,0,0,0-.05.29s0,0,0,0Z"/><path class="cd84156a-3ea7-4921-a119-3e1187465685" d="M57.47,39.66a1.12,1.12,0,0,0,1-.18c.48-.35.78-.51.41.22a3.31,3.31,0,0,0-.53,1.38c-.07.55-.78,2.19-3.31,2.14s-2.94-1-3.27-1.47a4.37,4.37,0,0,0-1.13-1.14c-.47-.38-.34-1,.36-.44S51.9,39.1,57.47,39.66Z"/><path class="3031b29d-6950-4301-a899-54130d8a0627" d="M53,42.5a4.58,4.58,0,0,0,2.34.43,3,3,0,0,0,2.16-.88A4.94,4.94,0,0,0,53,42.5Z"/><path class="2ae13d85-3150-4e06-9274-eca6bdf6493f" d="M54.47,40.89a5.28,5.28,0,0,0,3-.87c-.62,0-1.36-.14-2-.16a11,11,0,0,0-3.26.38A3,3,0,0,0,54.47,40.89Z"/><path class="88737308-b27c-4140-9978-fe08c68f5804" d="M54.6,41.88A2.48,2.48,0,0,1,56,41.8C56.35,41.9,54.25,42.07,54.6,41.88Z"/><path class="cb97a93e-108c-4088-b9ea-869040ca2736" d="M54.23,32.21c-.11,1.59-.33,3.16-.47,4.6s0,1.81.84,1.82c1,0,1.3-.36.85-3C54.91,32.49,54.55,27.66,54.23,32.21Z"/></g></g></svg>